%FSTAX23Y23*%
%MOIN*%
%SFA1B1*%

%IPPOS*%
%ADD9500C,0.015750*%
%ADD9501C,0.035430*%
%ADD9502C,0.041730*%
%ADD9503C,0.043310*%
%ADD9504C,0.072830*%
%ADD9505C,0.118110*%
%LNpod-roundholes-1*%
%LPD*%
G54D9500*
X0035Y0013D03*
X0032Y0019D03*
X00511Y00343D03*
X0033Y00525D03*
X00205Y0044D03*
X0071Y00505D03*
X00695Y00545D03*
X0086Y00555D03*
X0089Y0051D03*
X01006Y00543D03*
X01034Y00239D03*
X013Y002D03*
X01297Y0016D03*
X01295Y0012D03*
X00775Y00385D03*
X02445Y0054D03*
X0264Y003D03*
X0267Y0027D03*
X02675Y0033D03*
X0246Y0073D03*
X0228Y0084D03*
X02345Y0098D03*
X02125Y00975D03*
X0189D03*
X01365Y00855D03*
X01295Y00635D03*
X01195Y0073D03*
X01095Y0077D03*
X0101Y0082D03*
X0102Y0099D03*
X00995Y0102D03*
X01105D03*
X00881Y00958D03*
X0077Y0077D03*
X00595Y0081D03*
X00665Y00574D03*
X00855Y0064D03*
X00934Y0057D03*
X00545Y00615D03*
X0043Y0065D03*
X004Y00605D03*
X00455Y00783D03*
X00449Y00833D03*
X00365Y0081D03*
X00424Y00983D03*
X00475Y00975D03*
X0021Y00725D03*
G54D9501*
X0053Y0011D03*
Y0021D03*
X0063D03*
X0073D03*
Y0011D03*
X0063D03*
X01956Y0044D03*
X02774Y00472D03*
Y00372D03*
Y00272D03*
Y00172D03*
X02874D03*
Y00272D03*
Y00372D03*
Y00472D03*
X01956Y0074D03*
X018Y0107D03*
X017D03*
X016D03*
X01475D03*
X01375D03*
X01275D03*
X0128Y00885D03*
X0118D03*
X0108D03*
G54D9502*
X01565Y00428D03*
Y00526D03*
Y00625D03*
Y00723D03*
G54D9503*
X03135Y00351D03*
Y00548D03*
G54D9504*
X02799Y00737D03*
X02985D03*
X0317D03*
X03245Y01112D03*
X02724D03*
G54D9505*
X00129Y00129D03*
X03413D03*
X03405Y00345D03*
X03405Y0055D03*
X03413Y01051D03*
X00129D03*
M02*