%FSTAX23Y23*%
%MOIN*%
%SFA1B1*%

%IPPOS*%
%ADD10C,0.009840*%
%ADD11C,0.023620*%
%ADD12C,0.019680*%
%ADD13C,0.010000*%
%ADD14C,0.007870*%
%ADD15C,0.008000*%
%ADD16C,0.015750*%
%ADD17C,0.005000*%
%LNpod-1*%
%LPD*%
G54D10*
X02459Y00635D02*
X02452Y00639D01*
Y0063*
X02459Y00635*
X02524Y0029D02*
X02517Y00294D01*
Y00285*
X02524Y0029*
X00277Y00547D02*
X0027Y00551D01*
Y00542*
X00277Y00547*
X00769Y00425D02*
X00762Y00429D01*
Y0042*
X00769Y00425*
X02954Y00664D02*
X02947Y00668D01*
Y0066*
X02954Y00664*
X00589Y0098D02*
X00582Y00984D01*
Y00975*
X00589Y0098*
X00164Y00442D02*
X00157Y00446D01*
Y00438*
X00164Y00442*
X01679Y00999D02*
X01719D01*
X01699Y01019D02*
Y00979D01*
X01159Y00789D02*
X01199D01*
X01179Y00809D02*
Y00769D01*
G54D11*
X00284Y00547D02*
X0028Y00556D01*
X0027Y00558*
X00262Y00552*
Y00542*
X0027Y00535*
X0028Y00538*
X00284Y00547*
X00781Y00435D02*
X00777Y00444D01*
X00767Y00446*
X00759Y0044*
Y00429*
X00767Y00423*
X00777Y00425*
X00781Y00435*
G54D12*
X01374Y01023D02*
X01369Y01031D01*
X0136Y01028*
Y01019*
X01369Y01016*
X01374Y01023*
X01787Y0059D02*
X01781Y00598D01*
X01773Y00595*
Y00585*
X01781Y00583*
X01787Y0059*
X03364Y00709D02*
X03443D01*
X03404Y00748D02*
Y00669D01*
G54D13*
X02232Y0059D02*
X02232Y006D01*
X02231Y0061*
X0223Y0062*
X02229Y0063*
X02227Y0064*
X02225Y0065*
X02223Y00659*
X0222Y00669*
X02217Y00679*
X02214Y00688*
X0221Y00697*
X02206Y00706*
X02202Y00715*
X02197Y00724*
X02192Y00733*
X02187Y00741*
X02181Y0075*
X02175Y00758*
X02169Y00765*
X02162Y00773*
X02155Y0078*
X02148Y00788*
X02141Y00794*
X02134Y00801*
X02126Y00807*
X02118Y00813*
X0211Y00819*
X02101Y00824*
X02093Y0083*
X02084Y00834*
X02075Y00839*
X02066Y00843*
X02056Y00847*
X02047Y0085*
X02038Y00853*
X02028Y00856*
X02018Y00859*
X02008Y00861*
X01999Y00862*
X01989Y00864*
X01979Y00865*
X01969Y00865*
X01959Y00866*
X01949Y00866*
X01939Y00865*
X01929Y00864*
X01919Y00863*
X01909Y00862*
X01899Y0086*
X01889Y00857*
X0188Y00855*
X0187Y00852*
X01861Y00849*
X01851Y00845*
X01842Y00841*
X01833Y00837*
X01824Y00832*
X01816Y00827*
X01807Y00822*
X01799Y00816*
X01791Y0081*
X01783Y00804*
X01775Y00798*
X01768Y00791*
X0176Y00784*
X01754Y00777*
X01747Y00769*
X01741Y00762*
X01734Y00754*
X01729Y00745*
X01723Y00737*
X01718Y00729*
X01713Y0072*
X01709Y00711*
X01704Y00702*
X017Y00693*
X01697Y00683*
X01694Y00674*
X01691Y00664*
X01688Y00655*
X01686Y00645*
X01684Y00635*
X01683Y00625*
X01682Y00615*
X01681Y00605*
X01681Y00595*
Y00585*
X01681Y00575*
X01682Y00565*
X01683Y00555*
X01684Y00545*
X01686Y00535*
X01688Y00526*
X01691Y00516*
X01694Y00506*
X01697Y00497*
X017Y00487*
X01704Y00478*
X01709Y00469*
X01713Y0046*
X01718Y00452*
X01723Y00443*
X01729Y00435*
X01734Y00426*
X01741Y00419*
X01747Y00411*
X01754Y00403*
X0176Y00396*
X01768Y00389*
X01775Y00382*
X01783Y00376*
X01791Y0037*
X01799Y00364*
X01807Y00358*
X01816Y00353*
X01824Y00348*
X01833Y00343*
X01842Y00339*
X01851Y00335*
X01861Y00332*
X0187Y00328*
X0188Y00325*
X01889Y00323*
X01899Y0032*
X01909Y00319*
X01919Y00317*
X01929Y00316*
X01939Y00315*
X01949Y00315*
X01959Y00314*
X01969Y00315*
X01979Y00315*
X01989Y00316*
X01999Y00318*
X02008Y00319*
X02018Y00322*
X02028Y00324*
X02038Y00327*
X02047Y0033*
X02056Y00333*
X02066Y00337*
X02075Y00341*
X02084Y00346*
X02093Y00351*
X02101Y00356*
X0211Y00361*
X02118Y00367*
X02126Y00373*
X02134Y00379*
X02141Y00386*
X02148Y00393*
X02155Y004*
X02162Y00407*
X02169Y00415*
X02175Y00422*
X02181Y00431*
X02187Y00439*
X02192Y00447*
X02197Y00456*
X02202Y00465*
X02206Y00474*
X0221Y00483*
X02214Y00492*
X02217Y00502*
X0222Y00511*
X02223Y00521*
X02225Y0053*
X02227Y0054*
X02229Y0055*
X0223Y0056*
X02231Y0057*
X02232Y0058*
X02232Y0059*
X01884Y0116D02*
X01877Y01163D01*
Y01156*
X01884Y0116*
X02324D02*
X02317Y01163D01*
Y01156*
X02324Y0116*
X02104D02*
X02097Y01163D01*
Y01156*
X02104Y0116*
X02355Y0103D02*
X02494D01*
X0213D02*
X0227D01*
X01915Y0116D02*
X02054D01*
X01915Y0103D02*
X02054D01*
X0235Y0116D02*
X0249D01*
X02135D02*
X02275D01*
X0107Y00259D02*
Y00249D01*
X0109Y0023*
X0111Y00249*
Y00259*
X0109Y0023D02*
Y002D01*
X01129D02*
X01149D01*
X01139*
Y00259*
X01129Y00249*
X02779Y006D02*
X0274D01*
X0273Y0059*
Y0057*
X0274Y0056*
X02779*
X02789Y0057*
Y0059*
X0277Y0058D02*
X02789Y006D01*
Y0059D02*
X02779Y006D01*
X02789Y00659D02*
Y0062D01*
X0275Y00659*
X0274*
X0273Y00649*
Y00629*
X0274Y0062*
X02355Y00394D02*
Y00345D01*
X02365Y00335*
X02385*
X02395Y00345*
Y00394*
X02454Y00335D02*
X02415D01*
X02454Y00375*
Y00384*
X02444Y00394*
X02424*
X02415Y00384*
X02655Y0042D02*
X02645Y0041D01*
Y0039*
X02655Y0038*
X02694*
X02704Y0039*
Y0041*
X02694Y0042*
X02645Y00479D02*
Y0044D01*
X02675*
X02665Y00459*
Y00469*
X02675Y00479*
X02694*
X02704Y00469*
Y00449*
X02694Y0044*
X02655Y0055D02*
X02645Y0054D01*
Y0052*
X02655Y0051*
X02694*
X02704Y0052*
Y0054*
X02694Y0055*
X02704Y00599D02*
X02645D01*
X02675Y0057*
Y00609*
X0235Y00839D02*
Y0079D01*
X0236Y0078*
X0238*
X0239Y0079*
Y00839*
X0241Y00829D02*
X02419Y00839D01*
X02439*
X02449Y00829*
Y0082*
X02439Y0081*
X02429*
X02439*
X02449Y008*
Y0079*
X02439Y0078*
X02419*
X0241Y0079*
X02575Y0082D02*
X02565Y0081D01*
Y0079*
X02575Y0078*
X02614*
X02624Y0079*
Y0081*
X02614Y0082*
X02575Y0084D02*
X02565Y00849D01*
Y00869*
X02575Y00879*
X02585*
X02595Y00869*
X02605Y00879*
X02614*
X02624Y00869*
Y00849*
X02614Y0084*
X02605*
X02595Y00849*
X02585Y0084*
X02575*
X02595Y00849D02*
Y00869D01*
X02665Y0082D02*
X02655Y0081D01*
Y0079*
X02665Y0078*
X02704*
X02714Y0079*
Y0081*
X02704Y0082*
X02655Y0084D02*
Y00879D01*
X02665*
X02704Y0084*
X02714*
X0003Y00345D02*
X0002Y00335D01*
Y00315*
X0003Y00305*
X00069*
X00079Y00315*
Y00335*
X00069Y00345*
X00079Y00365D02*
Y00385D01*
Y00375*
X0002*
X0003Y00365*
Y00414D02*
X0002Y00424D01*
Y00444*
X0003Y00454*
X00069*
X00079Y00444*
Y00424*
X00069Y00414*
X0003*
Y00785D02*
X0002Y00775D01*
Y00755*
X0003Y00745*
X00069*
X00079Y00755*
Y00775*
X00069Y00785*
Y00805D02*
X00079Y00814D01*
Y00834*
X00069Y00844*
X0003*
X0002Y00834*
Y00814*
X0003Y00805*
X0004*
X0005Y00814*
Y00844*
X0048Y00609D02*
Y0056D01*
X0049Y0055*
X0051*
X0052Y0056*
Y00609*
X00579D02*
X0054D01*
Y0058*
X00559Y0059*
X00569*
X00579Y0058*
Y0056*
X00569Y0055*
X00549*
X0054Y0056*
X0096Y00679D02*
Y0063D01*
X0097Y0062*
X0099*
X01Y0063*
Y00679*
X01019Y0062D02*
X01039D01*
X01029*
Y00679*
X01019Y00669*
X00264Y0078D02*
X00205D01*
Y0081*
X00215Y0082*
X00235*
X00245Y0081*
Y0078*
Y008D02*
X00264Y0082D01*
X00205Y0084D02*
Y00879D01*
X00215*
X00254Y0084*
X00264*
X00545Y00339D02*
X00565D01*
X00555*
Y0028*
X00545*
X00565*
X00635Y00329D02*
X00625Y00339D01*
X00605*
X00595Y00329*
Y0029*
X00605Y0028*
X00625*
X00635Y0029*
X00694Y00329D02*
X00684Y00339D01*
X00665*
X00655Y00329*
Y0032*
X00665Y0031*
X00684*
X00694Y003*
Y0029*
X00684Y0028*
X00665*
X00655Y0029*
X00714Y0028D02*
Y00339D01*
X00744*
X00754Y00329*
Y0031*
X00744Y003*
X00714*
X00865Y0087D02*
X00855Y0086D01*
Y0084*
X00865Y0083*
X00904*
X00914Y0084*
Y0086*
X00904Y0087*
X00855Y00929D02*
X00865Y00909D01*
X00885Y0089*
X00904*
X00914Y00899*
Y00919*
X00904Y00929*
X00895*
X00885Y00919*
Y0089*
X0092Y00129D02*
X0091Y00139D01*
X0089*
X0088Y00129*
Y0009*
X0089Y0008*
X0091*
X0092Y0009*
X0094Y00129D02*
X00949Y00139D01*
X00969*
X00979Y00129*
Y0012*
X00969Y0011*
X00959*
X00969*
X00979Y001*
Y0009*
X00969Y0008*
X00949*
X0094Y0009*
G54D14*
X01568Y00843D02*
X01561D01*
X01568*
X00248Y01051D02*
X00247Y01061D01*
X00246Y01071*
X00244Y0108*
X00241Y0109*
X00237Y01099*
X00233Y01108*
X00227Y01117*
X00221Y01125*
X00215Y01132*
X00207Y01139*
X002Y01146*
X00191Y01151*
X00183Y01156*
X00173Y0116*
X00164Y01164*
X00154Y01166*
X00144Y01168*
X00134Y01169*
X00124*
X00114Y01168*
X00105Y01166*
X00095Y01164*
X00085Y0116*
X00076Y01156*
X00067Y01151*
X00059Y01146*
X00051Y01139*
X00044Y01132*
X00038Y01125*
X00032Y01117*
X00026Y01108*
X00022Y01099*
X00018Y0109*
X00015Y0108*
X00013Y01071*
X00012Y01061*
X00011Y01051*
X00012Y01041*
X00013Y01031*
X00015Y01021*
X00018Y01011*
X00022Y01002*
X00026Y00993*
X00032Y00985*
X00038Y00976*
X00044Y00969*
X00051Y00962*
X00059Y00956*
X00068Y0095*
X00076Y00945*
X00085Y00941*
X00095Y00938*
X00105Y00935*
X00114Y00934*
X00124Y00933*
X00134*
X00144Y00934*
X00154Y00935*
X00164Y00938*
X00173Y00941*
X00183Y00945*
X00191Y0095*
X002Y00956*
X00207Y00962*
X00215Y00969*
X00221Y00976*
X00227Y00985*
X00233Y00993*
X00237Y01002*
X00241Y01011*
X00244Y01021*
X00246Y01031*
X00247Y01041*
X00248Y01051*
X0232Y00581D02*
X0248D01*
X0232Y00318D02*
X0248D01*
X01155Y00291D02*
Y00348D01*
X01014Y00291D02*
Y00348D01*
X0232Y00861D02*
X0248D01*
X0232Y00598D02*
X0248D01*
X02973Y00229D02*
X03296D01*
X02973D02*
Y00646D01*
X03296*
Y00229D02*
Y00646D01*
X00646Y00507D02*
Y00673D01*
X00233Y00507D02*
Y00673D01*
X00646*
X00233Y00507D02*
X00646D01*
X01057Y00478D02*
Y00702D01*
X00832Y00478D02*
Y00702D01*
X01057*
X00832Y00478D02*
X01057D01*
X02934Y00597D02*
Y00632D01*
X02906Y00597D02*
X02934D01*
X02815D02*
Y00632D01*
Y00597D02*
X02843D01*
X0155Y0117D02*
X0185D01*
X0155Y0112D02*
Y0117D01*
X0185Y0112D02*
Y0117D01*
X0155Y0112D02*
X0185D01*
X01225Y0117D02*
X01525D01*
X01225Y0112D02*
Y0117D01*
X01525Y0112D02*
Y0117D01*
X01225Y0112D02*
X01525D01*
X0103Y00835D02*
X0133D01*
Y00935*
X0103D02*
X0133D01*
X0103Y00835D02*
Y00935D01*
X0027Y00955D02*
Y01041D01*
X00629Y00955D02*
Y01041D01*
X0048Y0006D02*
Y0026D01*
X0078Y0006D02*
Y0026D01*
X0048Y0006D02*
X0078D01*
X0048Y0026D02*
X0078D01*
X0048D02*
X00671D01*
X00139Y00685D02*
Y00694D01*
X0018Y00685D02*
Y00694D01*
X00196Y00484D02*
Y00575D01*
X00123Y00484D02*
Y00575D01*
G54D15*
X03531Y01051D02*
X03531Y01061D01*
X03529Y01071*
X03527Y0108*
X03524Y0109*
X03521Y01099*
X03516Y01108*
X03511Y01117*
X03505Y01125*
X03498Y01132*
X03491Y01139*
X03483Y01146*
X03475Y01151*
X03466Y01156*
X03457Y0116*
X03447Y01164*
X03438Y01166*
X03428Y01168*
X03418Y01169*
X03408*
X03398Y01168*
X03388Y01166*
X03378Y01164*
X03369Y0116*
X0336Y01156*
X03351Y01151*
X03343Y01146*
X03335Y01139*
X03328Y01132*
X03321Y01125*
X03315Y01117*
X0331Y01108*
X03305Y01099*
X03302Y0109*
X03299Y0108*
X03296Y01071*
X03295Y01061*
X03295Y01051*
X03295Y01041*
X03296Y01031*
X03299Y01021*
X03302Y01011*
X03305Y01002*
X0331Y00993*
X03315Y00985*
X03321Y00976*
X03328Y00969*
X03335Y00962*
X03343Y00956*
X03351Y0095*
X0336Y00945*
X03369Y00941*
X03378Y00938*
X03388Y00935*
X03398Y00934*
X03408Y00933*
X03418*
X03428Y00934*
X03438Y00935*
X03447Y00938*
X03457Y00941*
X03466Y00945*
X03475Y0095*
X03483Y00956*
X03491Y00962*
X03498Y00969*
X03505Y00976*
X03511Y00985*
X03516Y00993*
X03521Y01002*
X03524Y01011*
X03527Y01021*
X03529Y01031*
X03531Y01041*
X03531Y01051*
Y00129D02*
X03531Y00139D01*
X03529Y00149*
X03527Y00159*
X03524Y00169*
X03521Y00178*
X03516Y00187*
X03511Y00196*
X03505Y00204*
X03498Y00211*
X03491Y00218*
X03483Y00224*
X03475Y0023*
X03466Y00235*
X03457Y00239*
X03447Y00242*
X03438Y00245*
X03428Y00247*
X03418Y00247*
X03408*
X03398Y00247*
X03388Y00245*
X03378Y00242*
X03369Y00239*
X0336Y00235*
X03351Y0023*
X03343Y00224*
X03335Y00218*
X03328Y00211*
X03321Y00204*
X03315Y00196*
X0331Y00187*
X03305Y00178*
X03302Y00169*
X03299Y00159*
X03296Y00149*
X03295Y00139*
X03295Y00129*
X03295Y00119*
X03296Y00109*
X03299Y001*
X03302Y0009*
X03305Y00081*
X0331Y00072*
X03315Y00063*
X03321Y00055*
X03328Y00048*
X03335Y00041*
X03343Y00034*
X03351Y00029*
X0336Y00024*
X03369Y0002*
X03378Y00016*
X03388Y00014*
X03398Y00012*
X03408Y00011*
X03418*
X03428Y00012*
X03438Y00014*
X03447Y00016*
X03457Y0002*
X03466Y00024*
X03475Y00029*
X03483Y00034*
X03491Y00041*
X03498Y00048*
X03505Y00055*
X03511Y00063*
X03516Y00072*
X03521Y00081*
X03524Y0009*
X03527Y001*
X03529Y00109*
X03531Y00119*
X03531Y00129*
X00248D02*
X00247Y00139D01*
X00246Y00149*
X00244Y00159*
X00241Y00169*
X00237Y00178*
X00233Y00187*
X00227Y00196*
X00221Y00204*
X00215Y00211*
X00207Y00218*
X002Y00224*
X00191Y0023*
X00183Y00235*
X00173Y00239*
X00164Y00242*
X00154Y00245*
X00144Y00247*
X00134Y00247*
X00124*
X00114Y00247*
X00105Y00245*
X00095Y00242*
X00085Y00239*
X00076Y00235*
X00067Y0023*
X00059Y00224*
X00051Y00218*
X00044Y00211*
X00038Y00204*
X00032Y00196*
X00026Y00187*
X00022Y00178*
X00018Y00169*
X00015Y00159*
X00013Y00149*
X00012Y00139*
X00011Y00129*
X00012Y00119*
X00013Y00109*
X00015Y001*
X00018Y0009*
X00022Y00081*
X00026Y00072*
X00032Y00063*
X00038Y00055*
X00044Y00048*
X00051Y00041*
X00059Y00034*
X00068Y00029*
X00076Y00024*
X00085Y0002*
X00095Y00016*
X00105Y00014*
X00114Y00012*
X00124Y00011*
X00134*
X00144Y00012*
X00154Y00014*
X00164Y00016*
X00173Y0002*
X00183Y00024*
X00191Y00029*
X002Y00034*
X00207Y00041*
X00215Y00048*
X00221Y00055*
X00227Y00063*
X00233Y00072*
X00237Y00081*
X00241Y0009*
X00244Y001*
X00246Y00109*
X00247Y00119*
X00248Y00129*
X0036Y01114D02*
Y0108D01*
X00366Y01074*
X0038*
X00386Y0108*
Y01114*
X00426Y01107D02*
X0042Y01114D01*
X00406*
X004Y01107*
Y011*
X00406Y01094*
X0042*
X00426Y01087*
Y0108*
X0042Y01074*
X00406*
X004Y0108*
X0044Y01114D02*
Y01074D01*
X0046*
X00466Y0108*
Y01087*
X0046Y01094*
X0044*
X0046*
X00466Y011*
Y01107*
X0046Y01114*
X0044*
X0048Y01094D02*
X00506D01*
X00546Y01107D02*
X0054Y01114D01*
X00526*
X0052Y01107*
Y0108*
X00526Y01074*
X0054*
X00546Y0108*
X00668Y00953D02*
Y00992D01*
X00687*
X00694Y00986*
Y00972*
X00687Y00966*
X00668*
X00681D02*
X00694Y00953D01*
X00727D02*
X00714D01*
X00707Y00959*
Y00972*
X00714Y00979*
X00727*
X00734Y00972*
Y00966*
X00707*
X00747Y00953D02*
X00767D01*
X00774Y00959*
X00767Y00966*
X00754*
X00747Y00972*
X00754Y00979*
X00774*
X00807Y00953D02*
X00794D01*
X00787Y00959*
Y00972*
X00794Y00979*
X00807*
X00814Y00972*
Y00966*
X00787*
X00834Y00986D02*
Y00979D01*
X00827*
X00841*
X00834*
Y00959*
X00841Y00953*
X01351Y00118D02*
X01344Y00125D01*
X0133*
X01323Y00118*
Y00111*
X0133Y00104*
X01344*
X01351Y00096*
Y00089*
X01344Y00082*
X0133*
X01323Y00089*
X01366Y00125D02*
Y00089D01*
X01373Y00082*
X01387*
X01395Y00089*
Y00125*
X01409D02*
Y00082D01*
Y00104*
X01438*
Y00125*
Y00082*
X01452D02*
Y00125D01*
X01474*
X01481Y00118*
Y00104*
X01474Y00096*
X01452*
X01496Y00082D02*
Y00111D01*
X0151Y00125*
X01525Y00111*
Y00082*
Y00104*
X01496*
X01582Y00082D02*
Y00125D01*
X01604*
X01611Y00118*
Y00104*
X01604Y00096*
X01582*
X01633Y00082D02*
X01647D01*
X01654Y00089*
Y00104*
X01647Y00111*
X01633*
X01626Y00104*
Y00089*
X01633Y00082*
X01698Y00125D02*
Y00082D01*
X01676*
X01669Y00089*
Y00104*
X01676Y00111*
X01698*
X01755D02*
X0177Y00082D01*
X01784Y00111*
X01799Y00082D02*
X01813D01*
X01806*
Y00125*
X01799Y00118*
X01835Y00082D02*
Y00089D01*
X01842*
Y00082*
X01835*
X01871Y00118D02*
X01878Y00125D01*
X01893*
X019Y00118*
Y00089*
X01893Y00082*
X01878*
X01871Y00089*
Y00118*
X01957Y00125D02*
Y00082D01*
X01979*
X01986Y00089*
Y00096*
Y00104*
X01979Y00111*
X01957*
X02001D02*
Y00089D01*
X02008Y00082*
X0203*
Y00075*
X02022Y00068*
X02015*
X0203Y00082D02*
Y00111D01*
X02087Y00082D02*
Y00125D01*
X02109*
X02116Y00118*
Y00104*
X02109Y00096*
X02087*
X02102D02*
X02116Y00082D01*
X02138D02*
X02152D01*
X0216Y00089*
Y00104*
X02152Y00111*
X02138*
X02131Y00104*
Y00089*
X02138Y00082*
X02174Y00125D02*
Y00082D01*
X02196*
X02203Y00089*
Y00096*
Y00104*
X02196Y00111*
X02174*
X02239Y00082D02*
X02224D01*
X02217Y00089*
Y00104*
X02224Y00111*
X02239*
X02246Y00104*
Y00096*
X02217*
X02261Y00111D02*
Y00082D01*
Y00096*
X02268Y00104*
X02275Y00111*
X02282*
X02311Y00118D02*
Y00111D01*
X02304*
X02318*
X02311*
Y00089*
X02318Y00082*
X02347D02*
X02362D01*
X02369Y00089*
Y00104*
X02362Y00111*
X02347*
X0234Y00104*
Y00089*
X02347Y00082*
X02426Y00125D02*
Y00082D01*
Y00104*
X02455*
Y00125*
Y00082*
X02477D02*
X02491D01*
X02499Y00089*
Y00104*
X02491Y00111*
X02477*
X0247Y00104*
Y00089*
X02477Y00082*
X02513D02*
X02527D01*
X0252*
Y00125*
X02513*
X02549Y00082D02*
Y00111D01*
X02556*
X02564Y00104*
Y00082*
Y00104*
X02571Y00111*
X02578Y00104*
Y00082*
X02614D02*
X026D01*
X02592Y00089*
Y00104*
X026Y00111*
X02614*
X02621Y00104*
Y00096*
X02592*
X02636Y00082D02*
X02657D01*
X02665Y00089*
X02657Y00096*
X02643*
X02636Y00104*
X02643Y00111*
X02665*
X01843Y00612D02*
Y00573D01*
X01862*
X01869Y00579*
Y00586*
X01862Y00592*
X01843*
X01862*
X01869Y00599*
Y00606*
X01862Y00612*
X01843*
X01882Y00599D02*
Y00579D01*
X01889Y00573*
X01909*
Y00599*
X01922D02*
X01949D01*
X01922Y00573*
X01949*
X01962Y00599D02*
X01989D01*
X01962Y00573*
X01989*
X02022D02*
X02009D01*
X02002Y00579*
Y00592*
X02009Y00599*
X02022*
X02029Y00592*
Y00586*
X02002*
X02042Y00599D02*
Y00573D01*
Y00586*
X02049Y00592*
X02056Y00599*
X02062*
X0192Y00294D02*
Y00254D01*
X0194*
X01947Y00261*
Y00287*
X0194Y00294*
X0192*
X0196Y00287D02*
X01967Y00294D01*
X0198*
X01987Y00287*
Y00281*
X0198Y00274*
X01973*
X0198*
X01987Y00267*
Y00261*
X0198Y00254*
X01967*
X0196Y00261*
X01783Y00944D02*
X01777Y00937D01*
Y00924*
X01783Y00918*
X0179*
X01797Y00924*
Y00937*
X01803Y00944*
X0181*
X01817Y00937*
Y00924*
X0181Y00918*
X01777Y00957D02*
Y00971D01*
Y00964*
X01817*
Y00957*
Y00971*
X01783Y01017D02*
X01777Y01011D01*
Y00997*
X01783Y00991*
X0181*
X01817Y00997*
Y01011*
X0181Y01017*
X01797*
Y01004*
X01588Y00944D02*
X01582Y00937D01*
Y00924*
X01588Y00918*
X01615*
X01622Y00924*
Y00937*
X01615Y00944*
X01602*
Y00931*
X01622Y00957D02*
X01582D01*
X01622Y00984*
X01582*
Y00997D02*
X01622D01*
Y01017*
X01615Y01024*
X01588*
X01582Y01017*
Y00997*
X01268Y00734D02*
X01262Y00727D01*
Y00714*
X01268Y00708*
X01295*
X01302Y00714*
Y00727*
X01295Y00734*
X01282*
Y00721*
X01302Y00747D02*
X01262D01*
X01302Y00774*
X01262*
Y00787D02*
X01302D01*
Y00807*
X01295Y00814*
X01268*
X01262Y00807*
Y00787*
X02774Y00957D02*
X02761D01*
X02767*
Y00924*
X02761Y00918*
X02754*
X02748Y00924*
X02787Y00957D02*
Y00918D01*
X02814*
X02854Y00951D02*
X02847Y00957D01*
X02834*
X02827Y00951*
Y00924*
X02834Y00918*
X02847*
X02854Y00924*
X02894Y00957D02*
X02881D01*
X02887*
Y00924*
X02881Y00918*
X02874*
X02867Y00924*
X02907Y00957D02*
Y00918D01*
X02934*
X02974Y00951D02*
X02967Y00957D01*
X02954*
X02947Y00951*
Y00924*
X02954Y00918*
X02967*
X02974Y00924*
X03014Y00957D02*
X03001D01*
X03007*
Y00924*
X03001Y00918*
X02994*
X02987Y00924*
X03027Y00957D02*
Y00918D01*
X03054*
X03094Y00951D02*
X03087Y00957D01*
X03074*
X03067Y00951*
Y00924*
X03074Y00918*
X03087*
X03094Y00924*
X03134Y00957D02*
X03121D01*
X03127*
Y00924*
X03121Y00918*
X03114*
X03107Y00924*
X03147Y00957D02*
Y00918D01*
X03174*
X03214Y00951D02*
X03207Y00957D01*
X03194*
X03187Y00951*
Y00924*
X03194Y00918*
X03207*
X03214Y00924*
X01938Y00927D02*
Y00888D01*
X01957*
X01964Y00894*
Y00921*
X01957Y00927*
X01938*
X01997Y00888D02*
Y00927D01*
X01977Y00907*
X02004*
X02373Y00893D02*
Y00932D01*
X02392*
X02399Y00926*
Y00912*
X02392Y00906*
X02373*
X02412Y00932D02*
Y00893D01*
X02426Y00906*
X02439Y00893*
Y00932*
X02452Y00893D02*
Y00932D01*
X02472*
X02479Y00926*
Y00912*
X02472Y00906*
X02452*
X02466D02*
X02479Y00893D01*
X02174Y00926D02*
X02167Y00932D01*
X02154*
X02148Y00926*
Y00919*
X02154Y00912*
X02167*
X02174Y00906*
Y00899*
X02167Y00893*
X02154*
X02148Y00899*
X02214Y00926D02*
X02207Y00932D01*
X02194*
X02187Y00926*
Y00899*
X02194Y00893*
X02207*
X02214Y00899*
X02227Y00932D02*
Y00893D01*
Y00906*
X02254Y00932*
X02234Y00912*
X02254Y00893*
G54D16*
X01095Y01129D02*
Y0116D01*
X01109Y01129D02*
Y0116D01*
G54D17*
X01431Y00819D02*
X01657D01*
Y00331D02*
Y00819D01*
X01431Y00331D02*
X01657D01*
X01431D02*
Y00819D01*
M02*