%FSTAX23Y23*%
%MOIN*%
%SFA1B1*%

%IPPOS*%
%AMD18*
4,1,8,0.028500,-0.060000,0.028500,0.060000,0.026500,0.062000,-0.026500,0.062000,-0.028500,0.060000,-0.028500,-0.060000,-0.026500,-0.062000,0.026500,-0.062000,0.028500,-0.060000,0.0*
1,1,0.004000,0.026500,-0.060000*
1,1,0.004000,0.026500,0.060000*
1,1,0.004000,-0.026500,0.060000*
1,1,0.004000,-0.026500,-0.060000*
%
%AMD19*
4,1,8,0.028500,-0.015800,0.028500,0.015800,0.026600,0.017700,-0.026600,0.017700,-0.028500,0.015800,-0.028500,-0.015800,-0.026600,-0.017700,0.026600,-0.017700,0.028500,-0.015800,0.0*
1,1,0.003900,0.026600,-0.015800*
1,1,0.003900,0.026600,0.015800*
1,1,0.003900,-0.026600,0.015800*
1,1,0.003900,-0.026600,-0.015800*
%
G04~CAMADD=18~8~0.0~0.0~1240.2~570.9~20.0~0.0~15~0.0~0.0~0.0~0.0~0~0.0~0.0~0.0~0.0~0~0.0~0.0~0.0~270.0~571.0~1240.0*
%ADD18D18*%
G04~CAMADD=19~8~0.0~0.0~354.3~570.9~19.5~0.0~15~0.0~0.0~0.0~0.0~0~0.0~0.0~0.0~0.0~0~0.0~0.0~0.0~270.0~571.0~354.0*
%ADD19D19*%
%ADD20R,0.041340X0.037400*%
%ADD21R,0.015750X0.074800*%
%ADD22O,0.013780X0.070870*%
%ADD23O,0.076770X0.023620*%
%ADD24O,0.023620X0.076770*%
%ADD25R,0.066930X0.145670*%
%ADD26R,0.033470X0.027560*%
%ADD27R,0.035430X0.041340*%
%ADD28R,0.029530X0.033470*%
%ADD29R,0.043310X0.043310*%
%ADD30R,0.027560X0.033470*%
%ADD31R,0.031500X0.035430*%
%ADD32R,0.039370X0.027560*%
%ADD33R,0.023620X0.031500*%
%ADD34R,0.059060X0.102360*%
%ADD35R,0.039370X0.027560*%
%ADD36R,0.011810X0.027560*%
%ADD37R,0.031500X0.031500*%
%ADD38R,0.043310X0.078740*%
%ADD39R,0.043310X0.049210*%
%ADD40R,0.033470X0.029530*%
%ADD41R,0.049210X0.043310*%
%LNpod-1*%
%LPD*%
G54D18*
X02278Y0045D03*
Y0073D03*
G54D19*
X02521Y0054D03*
Y0045D03*
Y00359D03*
Y0082D03*
Y0073D03*
Y00639D03*
G54D20*
X0268Y00671D03*
Y00728D03*
X02595Y00671D03*
Y00728D03*
Y00595D03*
Y00537D03*
Y0046D03*
Y00402D03*
G54D21*
X01132Y0032D03*
X01085D03*
X01037D03*
G54D22*
X00606Y00724D03*
X0058D03*
X00555D03*
X00529D03*
X00503D03*
X00478D03*
X00452D03*
X00427D03*
X00401D03*
X00376D03*
X0035D03*
X00324D03*
X00299D03*
X00273D03*
X00606Y00456D03*
X0058D03*
X00555D03*
X00529D03*
X00503D03*
X00478D03*
X00452D03*
X00427D03*
X00401D03*
X00376D03*
X0035D03*
X00324D03*
X00299D03*
X00273D03*
G54D23*
X00777Y0048D03*
Y00511D03*
Y00543D03*
Y00574D03*
Y00606D03*
Y00637D03*
Y00669D03*
Y007D03*
X01112D03*
Y00669D03*
Y00637D03*
Y00606D03*
Y00574D03*
Y00543D03*
Y00511D03*
Y0048D03*
G54D24*
X00834Y00757D03*
X00866D03*
X00897D03*
X00929D03*
X0096D03*
X00992D03*
X01023D03*
X01055D03*
Y00423D03*
X01023D03*
X00992D03*
X0096D03*
X00929D03*
X00897D03*
X00866D03*
X00834D03*
G54D25*
X00933Y01092D03*
X007D03*
G54D26*
X00395Y00209D03*
Y0016D03*
X00375Y00305D03*
Y00354D03*
X0024Y00305D03*
Y00354D03*
G54D27*
X0106Y0108D03*
X01006D03*
X01143D03*
X01196D03*
X01948Y0098D03*
X02001D03*
X02398D03*
X02451D03*
X02173D03*
X02226D03*
G54D28*
X01395Y0068D03*
X01344D03*
X01395Y00575D03*
X01344D03*
Y0063D03*
X01395D03*
X00959Y0034D03*
X0091D03*
G54D29*
X0016Y00814D03*
Y00885D03*
G54D30*
X01347Y0073D03*
X01392D03*
G54D31*
X02912Y00664D03*
X02837D03*
X02875Y00585D03*
G54D32*
X01492Y00907D03*
Y00945D03*
Y00982D03*
X01367D03*
Y00945D03*
Y00907D03*
X0016Y00656D03*
Y00723D03*
G54D33*
X01006Y01145D03*
X01063D03*
X01141D03*
X01198D03*
G54D34*
X01925Y01095D03*
X02047D03*
X02363D03*
X02486D03*
X02143D03*
X02266D03*
G54D35*
X00327Y00932D03*
X00572D03*
G54D36*
X00538Y00932D03*
X00518D03*
X00499D03*
X00479D03*
X00459D03*
X0044D03*
X0042D03*
X004D03*
X00381D03*
X00361D03*
X00331Y00881D03*
X00351D03*
X00371D03*
X0039D03*
X0041D03*
X0043D03*
X00469D03*
X00489D03*
X00509D03*
X00528D03*
X00548D03*
X00568D03*
G54D37*
X0016Y00579D03*
G54D38*
X0016Y00504D03*
G54D39*
X00305Y00363D03*
Y00296D03*
X0005Y00501D03*
Y00568D03*
X0096Y00846D03*
Y00913D03*
G54D40*
X0005Y0066D03*
Y00709D03*
G54D41*
X00968Y0019D03*
X00901D03*
X00968Y00275D03*
X00901D03*
M02*