%FSTAX23Y23*%
%MOIN*%
%SFA1B1*%

%IPPOS*%
%AMD18*
4,1,8,0.028500,-0.060000,0.028500,0.060000,0.026500,0.062000,-0.026500,0.062000,-0.028500,0.060000,-0.028500,-0.060000,-0.026500,-0.062000,0.026500,-0.062000,0.028500,-0.060000,0.0*
1,1,0.004000,0.026500,-0.060000*
1,1,0.004000,0.026500,0.060000*
1,1,0.004000,-0.026500,0.060000*
1,1,0.004000,-0.026500,-0.060000*
%
%AMD19*
4,1,8,0.028500,-0.015800,0.028500,0.015800,0.026600,0.017700,-0.026600,0.017700,-0.028500,0.015800,-0.028500,-0.015800,-0.026600,-0.017700,0.026600,-0.017700,0.028500,-0.015800,0.0*
1,1,0.003900,0.026600,-0.015800*
1,1,0.003900,0.026600,0.015800*
1,1,0.003900,-0.026600,0.015800*
1,1,0.003900,-0.026600,-0.015800*
%
%AMD69*
4,1,8,0.000000,-0.051200,0.000000,-0.051200,0.021700,-0.029500,0.021700,0.029500,0.000000,0.051200,0.000000,0.051200,-0.021700,0.029500,-0.021700,-0.029500,0.000000,-0.051200,0.0*
1,1,0.043300,0.000000,-0.029500*
1,1,0.043300,0.000000,-0.029500*
1,1,0.043300,0.000000,0.029500*
1,1,0.043300,0.000000,0.029500*
%
%AMD70*
4,1,8,0.000000,-0.041300,0.000000,-0.041300,0.021700,-0.019700,0.021700,0.019700,0.000000,0.041300,0.000000,0.041300,-0.021700,0.019700,-0.021700,-0.019700,0.000000,-0.041300,0.0*
1,1,0.043300,0.000000,-0.019700*
1,1,0.043300,0.000000,-0.019700*
1,1,0.043300,0.000000,0.019700*
1,1,0.043300,0.000000,0.019700*
%
%ADD13C,0.010000*%
G04~CAMADD=18~8~0.0~0.0~1240.2~570.9~20.0~0.0~15~0.0~0.0~0.0~0.0~0~0.0~0.0~0.0~0.0~0~0.0~0.0~0.0~270.0~571.0~1240.0*
%ADD18D18*%
G04~CAMADD=19~8~0.0~0.0~354.3~570.9~19.5~0.0~15~0.0~0.0~0.0~0.0~0~0.0~0.0~0.0~0.0~0~0.0~0.0~0.0~270.0~571.0~354.0*
%ADD19D19*%
%ADD20R,0.041340X0.037400*%
%ADD21R,0.015750X0.074800*%
%ADD22O,0.013780X0.070870*%
%ADD23O,0.076770X0.023620*%
%ADD24O,0.023620X0.076770*%
%ADD25R,0.066930X0.145670*%
%ADD26R,0.033470X0.027560*%
%ADD27R,0.035430X0.041340*%
%ADD28R,0.029530X0.033470*%
%ADD29R,0.043310X0.043310*%
%ADD30R,0.027560X0.033470*%
%ADD31R,0.031500X0.035430*%
%ADD32R,0.039370X0.027560*%
%ADD33R,0.023620X0.031500*%
%ADD34R,0.059060X0.102360*%
%ADD35R,0.039370X0.027560*%
%ADD36R,0.011810X0.027560*%
%ADD37R,0.031500X0.031500*%
%ADD38R,0.043310X0.078740*%
%ADD39R,0.043310X0.049210*%
%ADD40R,0.033470X0.029530*%
%ADD41R,0.049210X0.043310*%
%ADD64C,0.062990*%
%ADD65R,0.062990X0.062990*%
G04~CAMADD=69~8~0.0~0.0~433.1~1023.6~216.5~0.0~15~0.0~0.0~0.0~0.0~0~0.0~0.0~0.0~0.0~0~0.0~0.0~0.0~180.0~434.0~1023.0*
%ADD69D69*%
G04~CAMADD=70~8~0.0~0.0~433.1~826.8~216.5~0.0~15~0.0~0.0~0.0~0.0~0~0.0~0.0~0.0~0.0~0~0.0~0.0~0.0~180.0~434.0~827.0*
%ADD70D70*%
%ADD73C,0.012000*%
%ADD74C,0.035000*%
%ADD75C,0.025000*%
%ADD76C,0.032000*%
%ADD77C,0.050000*%
%ADD78C,0.098430*%
%ADD79C,0.059060*%
%ADD80R,0.059060X0.059060*%
%ADD81R,0.059060X0.059060*%
%ADD82R,0.062600X0.062600*%
%ADD83C,0.062600*%
%ADD84C,0.060000*%
%ADD85C,0.039370*%
%ADD86C,0.027560*%
%LNpod-1*%
%LPD*%
G36*
X0077Y01134D02*
X00773Y01132D01*
X00777Y01131*
X00856*
X0086Y01132*
X00863Y01134*
X00884Y01156*
X00889Y01154*
Y01009*
X00905*
X00906Y01005*
X00884Y00982*
X00881Y00983*
X00871Y00981*
X00863Y00976*
X00858Y00968*
X00856Y00958*
X00858Y00949*
X00863Y00941*
X00871Y00936*
X00881Y00934*
X0089Y00936*
X00898Y00941*
X00903Y00949*
X00904Y00956*
X00942Y00994*
X00945Y00999*
X00947Y01005*
Y01009*
X00973*
X00977Y01002*
X00985Y00997*
X00995Y00995*
X00996Y00994*
X00995Y0099*
X00997Y0098*
X01002Y00972*
X0101Y00967*
X0102Y00965*
X01029Y00967*
X01037Y00972*
X01037Y00973*
X0112*
X01126Y00974*
X01131Y00978*
X01154Y01001*
X01158Y01007*
X01159Y01013*
Y01049*
X01224*
Y0111*
X01213*
Y01119*
X0122*
Y01165*
X01225Y0117*
X03533*
Y0001*
X0001*
Y0117*
X00733*
X0077Y01134*
G37*
%LNpod-2*%
%LPC*%
G36*
X018Y01109D02*
X01789Y01108D01*
X0178Y01104*
X01771Y01098*
X01765Y01089*
X01761Y0108*
X0176Y0107*
X01761Y01059*
X01765Y0105*
X01771Y01041*
X0178Y01035*
X01789Y01031*
X018Y0103*
X0181Y01031*
X01819Y01035*
X01828Y01041*
X01834Y0105*
X01838Y01059*
X01839Y0107*
X01838Y0108*
X01834Y01089*
X01828Y01098*
X01819Y01104*
X0181Y01108*
X018Y01109*
G37*
G36*
X017D02*
X01689Y01108D01*
X0168Y01104*
X01671Y01098*
X01665Y01089*
X01661Y0108*
X0166Y0107*
X01661Y01059*
X01665Y0105*
X01671Y01041*
X0168Y01035*
X01689Y01031*
X017Y0103*
X0171Y01031*
X01719Y01035*
X01728Y01041*
X01734Y0105*
X01738Y01059*
X01739Y0107*
X01738Y0108*
X01734Y01089*
X01728Y01098*
X01719Y01104*
X0171Y01108*
X017Y01109*
G37*
G36*
X01475D02*
X01464Y01108D01*
X01455Y01104*
X01446Y01098*
X0144Y01089*
X01436Y0108*
X01435Y0107*
X01436Y01059*
X0144Y0105*
X01446Y01041*
X01455Y01035*
X01464Y01031*
X01475Y0103*
X01485Y01031*
X01494Y01035*
X01503Y01041*
X01509Y0105*
X01513Y01059*
X01514Y0107*
X01513Y0108*
X01509Y01089*
X01503Y01098*
X01494Y01104*
X01485Y01108*
X01475Y01109*
G37*
G36*
X016Y0111D02*
X01594Y01109D01*
X0156*
Y01074*
X01495Y0101*
X01374*
X01353Y0103*
X01356Y01034*
X01364Y01031*
X01375Y0103*
X01385Y01031*
X01394Y01035*
X01403Y01041*
X01409Y0105*
X01413Y01059*
X01414Y0107*
X01413Y0108*
X01409Y01089*
X01403Y01098*
X01394Y01104*
X01385Y01108*
X01375Y01109*
X01364Y01108*
X01355Y01104*
X01346Y01098*
X0134Y01089*
X01336Y0108*
X01335Y0107*
X01336Y01059*
X01339Y01051*
X01335Y01048*
X01314Y01069*
Y01109*
X01235*
Y0103*
X01275*
X01337Y00968*
Y00921*
Y00883*
X01348*
Y00872*
X01347Y00872*
X01342Y00864*
X0134Y00855*
X01342Y00845*
X01347Y00837*
X01355Y00832*
X01365Y0083*
X01374Y00832*
X01382Y00837*
X01387Y00845*
X01389Y00855*
X01387Y00864*
X01382Y00872*
X01381Y00872*
Y00883*
X01396*
Y00921*
Y00954*
X01463*
Y00921*
X01478*
X01479Y0092*
X01485Y00918*
X01492Y00917*
X015Y00918*
X01506Y0092*
X01507Y00921*
X01522*
Y00959*
X01527Y00962*
X01594Y0103*
X01639*
Y01109*
X01605*
X016Y0111*
G37*
G36*
X02086Y01156D02*
X02007D01*
Y01035*
X0199Y01017*
X01986Y01012*
X01986Y0101*
X0192*
Y00991*
X01907*
X01907Y00992*
X01899Y00997*
X0189Y00999*
X0188Y00997*
X01872Y00992*
X01867Y00984*
X01865Y00975*
X01867Y00965*
X01872Y00957*
X0188Y00952*
X0189Y0095*
X01899Y00952*
X01907Y00957*
X01907Y00958*
X0192*
Y00949*
X02029*
Y0101*
X02032Y01014*
X02047Y01029*
X0205Y01033*
X02086*
Y01156*
G37*
G36*
X02525D02*
X02446D01*
Y01033*
X02468*
Y0102*
X02459Y0101*
X0237*
Y00996*
X02362*
X02362Y00997*
X02354Y01002*
X02345Y01004*
X02335Y01002*
X02327Y00997*
X02322Y00989*
X0232Y0098*
X02322Y0097*
X02327Y00962*
X02335Y00957*
X02345Y00955*
X02354Y00957*
X02362Y00962*
X02362Y00963*
X0237*
Y00949*
X02479*
Y00984*
X02496Y01001*
X025Y01007*
X02501Y01013*
Y01033*
X02525*
Y01156*
G37*
G36*
X02305D02*
X02226D01*
Y01033*
X02248*
Y01025*
X02234Y0101*
X02145*
Y00995*
X02145Y00994*
X0214Y00993*
X02134Y00997*
X02125Y00999*
X02115Y00997*
X02107Y00992*
X02102Y00984*
X021Y00975*
X02102Y00965*
X02107Y00957*
X02115Y00952*
X02125Y0095*
X02134Y00952*
X0214Y00956*
X02145Y00955*
X02145Y00954*
Y00949*
X02254*
Y00984*
X02276Y01006*
X0228Y01012*
X02281Y01018*
Y01033*
X02305*
Y01156*
G37*
G36*
X03413Y0112D02*
X03399Y01119D01*
X03386Y01115*
X03374Y01108*
X03364Y011*
X03355Y01089*
X03349Y01077*
X03345Y01064*
X03344Y01051*
X03345Y01037*
X03349Y01024*
X03355Y01012*
X03364Y01002*
X03374Y00993*
X03386Y00987*
X03399Y00983*
X03413Y00981*
X03426Y00983*
X03439Y00987*
X03451Y00993*
X03462Y01002*
X03471Y01012*
X03477Y01024*
X03481Y01037*
X03482Y01051*
X03481Y01064*
X03477Y01077*
X03471Y01089*
X03462Y011*
X03451Y01108*
X03439Y01115*
X03426Y01119*
X03413Y0112*
G37*
G36*
X00129D02*
X00116Y01119D01*
X00103Y01115*
X00091Y01108*
X0008Y011*
X00072Y01089*
X00065Y01077*
X00061Y01064*
X0006Y01051*
X00061Y01037*
X00065Y01024*
X00072Y01012*
X0008Y01002*
X00091Y00993*
X00103Y00987*
X00116Y00983*
X00129Y00981*
X00143Y00983*
X00156Y00987*
X00168Y00993*
X00178Y01002*
X00187Y01012*
X00194Y01024*
X00197Y01037*
X00199Y01051*
X00197Y01064*
X00194Y01077*
X00187Y01089*
X00178Y011*
X00168Y01108*
X00156Y01115*
X00143Y01119*
X00129Y0112*
G37*
G36*
X0118Y00924D02*
X01169Y00923D01*
X0116Y00919*
X01151Y00913*
X01145Y00904*
X01141Y00895*
X0114Y00885*
X01141Y00874*
X01145Y00865*
X01151Y00856*
X0116Y0085*
X01169Y00846*
X0118Y00845*
X0119Y00846*
X01199Y0085*
X01208Y00856*
X01214Y00865*
X01218Y00874*
X01219Y00885*
X01218Y00895*
X01214Y00904*
X01208Y00913*
X01199Y00919*
X0119Y00923*
X0118Y00924*
G37*
G36*
X0108D02*
X01069Y00923D01*
X0106Y00919*
X01051Y00913*
X01045Y00904*
X01041Y00895*
X0104Y00885*
X01041Y00874*
X01045Y00865*
X01051Y00856*
X0106Y0085*
X01069Y00846*
X0108Y00845*
X0109Y00846*
X01099Y0085*
X01108Y00856*
X01114Y00865*
X01118Y00874*
X01119Y00885*
X01118Y00895*
X01114Y00904*
X01108Y00913*
X01099Y00919*
X0109Y00923*
X0108Y00924*
G37*
G36*
X00424Y01007D02*
X00414Y01005D01*
X00407Y01*
X00401Y00992*
X00399Y00983*
X004Y00977*
X00396Y00972*
X00232*
X00226Y00971*
X00221Y00968*
X0017Y00917*
X00128*
Y00853*
X00191*
Y00895*
X00238Y00942*
X00345*
Y00908*
X00342Y00905*
X00335*
Y00857*
X00374*
Y00842*
X00365Y00834*
X00365Y00834*
X00355Y00832*
X00347Y00827*
X00342Y00819*
X0034Y0081*
X00342Y008*
X00347Y00792*
X00355Y00787*
X00365Y00785*
X00374Y00787*
X00382Y00792*
X00387Y008*
X00389Y0081*
X00389Y0081*
X00395Y00817*
X004Y00815*
X004Y00814*
X00404Y00809*
X00431Y00782*
X00433Y00774*
X00433Y00774*
X0043Y00769*
X00427Y0077*
X0042Y00768*
X00415Y00765*
X00413*
X00408Y00768*
X00401Y0077*
X00395Y00768*
X00392Y00767*
X00388Y00765*
X00384Y00767*
X00382Y00768*
X00376Y0077*
X00369Y00768*
X00363Y00765*
X0036Y00759*
X00358Y00752*
Y00695*
X0036Y00689*
X00363Y00683*
X00369Y00679*
X00376Y00678*
X00378Y00679*
X00383Y00675*
Y00622*
X00382Y00622*
X00377Y00614*
X00375Y00605*
X00377Y00595*
X00382Y00587*
X0039Y00582*
X004Y0058*
X00409Y00582*
X00417Y00587*
X00422Y00595*
X00424Y00605*
X00422Y00614*
X00418Y0062*
X00418Y00623*
X00423Y00627*
X0043Y00625*
X00439Y00627*
X00447Y00632*
X00452Y0064*
X00454Y0065*
X00452Y00659*
X00447Y00667*
X00443Y00669*
Y00693*
X00444Y00695*
Y00752*
X00443Y00757*
X00444Y00758*
X00447Y0076*
X00455Y00759*
X00457Y00759*
X00461Y00755*
X00461Y00752*
Y00695*
X00462Y00689*
Y00681*
X00463Y00675*
X00467Y00669*
X0052Y00615*
X0052Y00615*
X00522Y00605*
X00527Y00597*
X00535Y00592*
X00545Y0059*
X00554Y00592*
X00562Y00597*
X00567Y00605*
X00569Y00615*
X00567Y00624*
X00562Y00632*
X00554Y00637*
X00545Y00639*
X00544Y00639*
X00508Y00674*
X00509Y00679*
X0051Y00679*
X00516Y00683*
X00519Y00689*
X00521Y00695*
Y00752*
X00519Y00759*
X00517Y00763*
X00519Y00768*
X00539*
X00541Y00763*
X00539Y00759*
X00537Y00752*
Y00695*
X00539Y00689*
X00542Y00683*
X00548Y00679*
X00555Y00678*
X00561Y00679*
X00564Y00681*
X00567Y00683*
X00571Y00681*
X00574Y00679*
X0058Y00678*
X00587Y00679*
X00589Y00681*
X00593Y00683*
X00597Y00681*
X00599Y00679*
X00606Y00678*
X00612Y00679*
X00618Y00683*
X00622Y00689*
X00623Y00695*
Y00752*
X00622Y00759*
X00618Y00765*
X00612Y00768*
X00611Y00769*
X00598Y00782*
X006Y00786*
X00604Y00787*
X00612Y00792*
X00617Y008*
X00619Y0081*
X00617Y00819*
X00612Y00827*
X00604Y00832*
X00595Y00834*
X00592Y00833*
X00566Y0086*
X00564Y00861*
Y00905*
X00557*
X00554Y00908*
Y00956*
X00497*
X00494Y00961*
X00497Y00965*
X00499Y00975*
X00497Y00984*
X00492Y00992*
X00484Y00997*
X00475Y00999*
X00465Y00997*
X00457Y00992*
X00453Y00985*
X00449Y00985*
X00447Y00985*
X00446Y00992*
X00441Y01*
X00433Y01005*
X00424Y01007*
G37*
G36*
X00299Y0077D02*
X00292Y00768D01*
X0029Y00767*
X00286Y00765*
X00282Y00767*
X0028Y00768*
X00273Y0077*
X00267Y00768*
X00261Y00765*
X00257Y00759*
X00256Y00752*
Y00695*
X00257Y00689*
X00261Y00683*
X00267Y00679*
X00273Y00678*
X0028Y00679*
X00282Y00681*
X00286Y00683*
X0029Y00681*
X00292Y00679*
X00299Y00678*
X00305Y00679*
X00311Y00683*
X00315Y00689*
X00316Y00695*
Y00752*
X00315Y00759*
X00311Y00765*
X00305Y00768*
X00299Y0077*
G37*
G36*
X0021Y00749D02*
X002Y00747D01*
X00194Y00743*
X00189Y00745*
Y00747*
X0013*
Y00699*
X00189*
Y00704*
X00194Y00706*
X002Y00702*
X0021Y007*
X00219Y00702*
X00227Y00707*
X00232Y00715*
X00234Y00725*
X00232Y00734*
X00227Y00742*
X00219Y00747*
X0021Y00749*
G37*
G36*
X00991Y00881D02*
X00928D01*
Y00811*
X00944*
Y00799*
X0094Y00792*
X00938Y00784*
Y00731*
X0094Y00722*
X00944Y00715*
X00952Y0071*
X0096Y00709*
X00969Y0071*
X00976Y00715*
X00976*
X00983Y0071*
X00992Y00709*
X01Y0071*
X01007Y00715*
X01007*
X01015Y0071*
X01023Y00709*
X01032Y0071*
X01039Y00715*
X01039*
X01046Y0071*
X01055Y00709*
X0106Y0071*
X01064Y00705*
X01063Y007*
X01065Y00692*
X01069Y00685*
Y00685*
X01065Y00677*
X01063Y00669*
X01065Y0066*
X01069Y00653*
Y00653*
X01065Y00646*
X01063Y00637*
X01065Y00629*
X01069Y00622*
Y00622*
X01065Y00614*
X01063Y00606*
X01065Y00597*
X01069Y0059*
Y0059*
X01065Y00583*
X01063Y00574*
X01065Y00566*
X01069Y00559*
Y00559*
X01065Y00551*
X01063Y00543*
X01065Y00534*
X01066Y00532*
X01064Y00528*
X01029*
X01027Y00532*
X01028Y00534*
X0103Y00543*
X01028Y00553*
X01023Y00561*
X01015Y00566*
X01006Y00568*
X01005Y00567*
X00882Y0069*
Y00709*
X00886Y00712*
X00889Y0071*
X00897Y00709*
X00906Y0071*
X00913Y00715*
X00918Y00722*
X00919Y00731*
Y00784*
X00918Y00792*
X00913Y008*
X00906Y00804*
X00897Y00806*
X00889Y00804*
X00881Y008*
X00881*
X00874Y00804*
X00866Y00806*
X00857Y00804*
X0085Y008*
X0085*
X00843Y00804*
X00834Y00806*
X00826Y00804*
X00818Y008*
X00814Y00792*
X00812Y00784*
Y00731*
X00813Y00726*
X00809Y00722*
X00804Y00723*
X00786*
Y00752*
X00787Y00752*
X00792Y0076*
X00794Y0077*
X00792Y00779*
X00787Y00787*
X00779Y00792*
X0077Y00794*
X0076Y00792*
X00752Y00787*
X00747Y00779*
X00745Y0077*
X00747Y0076*
X00752Y00752*
X00753Y00752*
Y00723*
X0075*
X00742Y00721*
X00735Y00716*
X0073Y00709*
X00728Y007*
X0073Y00692*
X00735Y00685*
Y00685*
X0073Y00677*
X00728Y00669*
X0073Y0066*
X00735Y00653*
Y00653*
X0073Y00646*
X00728Y00637*
X0073Y00629*
X00735Y00622*
Y00622*
X0073Y00614*
X00728Y00606*
X0073Y00597*
X00731Y00595*
X00729Y00591*
X00682*
X00682Y00591*
X00674Y00597*
X00665Y00599*
X00655Y00597*
X00648Y00591*
X00642Y00584*
X0064Y00574*
X00642Y00565*
X00648Y00557*
X00648Y00557*
Y00461*
X00628Y00441*
X00623Y00443*
Y00485*
X00622Y00491*
X00618Y00497*
X00612Y00501*
X00606Y00502*
X00599Y00501*
X00597Y00499*
X00593Y00497*
X00589Y00499*
X00587Y00501*
X0058Y00502*
X00574Y00501*
X00571Y00499*
X00567Y00497*
X00564Y00499*
X00561Y00501*
X00555Y00502*
X00548Y00501*
X00542Y00497*
X00541*
X00536Y00501*
X00529Y00502*
X00522Y00501*
X0052Y00499*
X00516Y00497*
X00512Y00499*
X0051Y00501*
X00503Y00502*
X00497Y00501*
X00495Y00499*
X00491Y00497*
X00487Y00499*
X00484Y00501*
X00478Y00502*
X00471Y00501*
X00469Y00499*
X00465Y00497*
X00461Y00499*
X00459Y00501*
X00452Y00502*
X00446Y00501*
X0044Y00497*
X00436Y00491*
X00435Y00485*
Y00428*
X00436Y00421*
X0044Y00415*
X00446Y00412*
X00452Y0041*
X00459Y00412*
X00461Y00413*
X00465Y00415*
X00469Y00413*
X00471Y00412*
X00478Y0041*
X00484Y00412*
X00487Y00413*
X00491Y00415*
X00495Y00413*
X00497Y00412*
X00503Y0041*
X0051Y00412*
X00512Y00413*
X00516Y00415*
X0052Y00413*
X00522Y00412*
X00529Y0041*
X00536Y00412*
X00538Y00413*
X00542Y00415*
X00546Y00413*
X00548Y00412*
X00555Y0041*
X00561Y00412*
X00564Y00413*
X00567Y00415*
X00571Y00413*
X00574Y00412*
X0058Y0041*
X00587Y00412*
X00589Y00413*
X00591Y00414*
X00593Y00413*
X00594Y00407*
X00538Y00351*
X00533Y00353*
X00528Y0036*
X0052Y00365*
X00511Y00367*
X00502Y00365*
X00494Y0036*
X00491Y00356*
X0049*
X00484Y00355*
X00479Y00352*
X00448Y00321*
X00401*
Y00329*
Y0033*
Y00378*
X00392*
Y00408*
X00397Y00411*
X00401Y0041*
X00408Y00412*
X00413Y00415*
X00417Y00421*
X00418Y00428*
Y00485*
X00417Y00491*
X00413Y00497*
X00408Y00501*
X00401Y00502*
X00395Y00501*
X00392Y00499*
X00388Y00497*
X00384Y00499*
X00382Y00501*
X00376Y00502*
X0037Y00501*
X00365Y00504*
Y00504*
X00364Y0051*
X00361Y00515*
X00353Y00522*
X00354Y00525*
X00352Y00534*
X00347Y00542*
X00339Y00547*
X0033Y00549*
X0032Y00547*
X00312Y00542*
X00307Y00534*
X00305Y00525*
X00307Y00515*
X00312Y00507*
X00316Y00505*
X00316Y005*
X00311Y00497*
X00308Y00499*
X00305Y00501*
X00299Y00502*
X00292Y00501*
X00287Y00497*
X00285*
X0028Y00501*
X00273Y00502*
X00267Y00501*
X00261Y00497*
X00257Y00491*
X00256Y00485*
Y00434*
X00228Y00406*
X00224Y00401*
X00223Y00394*
Y00378*
X00213*
Y00334*
Y0033*
Y00325*
Y00281*
X00223*
Y0027*
X00224Y00263*
X00228Y00258*
X00295Y0019*
X00295Y0019*
X00297Y0018*
X00302Y00172*
X0031Y00167*
X0032Y00165*
X00329Y00167*
X00337Y00172*
X00342Y0018*
X00344Y0019*
X00342Y00199*
X00337Y00207*
X00329Y00212*
X0032Y00214*
X00319Y00214*
X00276Y00256*
X00278Y00261*
X00313*
X00368Y00207*
Y00189*
Y00185*
Y0018*
Y00159*
X0036Y00151*
X00359Y00152*
X0035Y00154*
X0034Y00152*
X00332Y00147*
X00327Y00139*
X00325Y0013*
X00327Y0012*
X00332Y00112*
X0034Y00107*
X0035Y00105*
X00359Y00107*
X00367Y00112*
X00369Y00115*
X00373Y00118*
X00391Y00136*
X00421*
Y0018*
Y00184*
Y00189*
Y00198*
X00425*
X00431Y00199*
X00436Y00203*
X00477Y00244*
X00494Y00227*
X00491Y0022*
X0049Y0021*
X00491Y00199*
X00495Y0019*
X00501Y00181*
X0051Y00175*
X00519Y00171*
X0053Y0017*
X0054Y00171*
X00549Y00175*
X00558Y00181*
X00564Y0019*
X00568Y00199*
X00569Y0021*
X00568Y0022*
X00564Y00229*
X00558Y00238*
X00549Y00244*
X0054Y00248*
X0053Y00249*
X00519Y00248*
X00519Y00248*
X005Y00267*
X00676Y00443*
X0068Y00448*
X00681Y00455*
Y00501*
X00686Y00502*
X00687Y00495*
X00692Y00487*
X007Y00482*
X0071Y0048*
X00719Y00482*
X00724Y00486*
X00729Y00483*
X00728Y0048*
X0073Y00471*
X00735Y00464*
X00742Y00459*
X0075Y00458*
X00804*
X00809Y00459*
X00813Y00454*
X00812Y00449*
Y00417*
X00812*
X00806Y00415*
X008Y00412*
X00791Y00402*
X00784Y00407*
X00775Y00409*
X00765Y00407*
X00757Y00402*
X00752Y00394*
X0075Y00385*
X00752Y00375*
X00757Y00367*
X00765Y00362*
X00775Y0036*
X00784Y00362*
X00792Y00367*
X00792Y00368*
X00796*
X00802Y00369*
X00807Y00373*
X00815Y00381*
X00818Y0038*
X00826Y00376*
X00834Y00374*
X00843Y00376*
X0085Y0038*
X0085*
X00857Y00376*
X00866Y00374*
X00874Y00376*
X00881Y0038*
X00886Y00388*
X00888Y00396*
Y00449*
X00886Y00458*
X00882Y00464*
Y00479*
X00889Y00485*
X0089Y00485*
X00899Y00487*
X00907Y00492*
X00912Y005*
X00914Y0051*
X00912Y00519*
X00911Y00521*
X00915Y00524*
X00957Y00482*
X00962Y00478*
X00968Y00477*
X01059*
X0106Y00476*
X01056Y00471*
X01055Y00472*
X01046Y0047*
X01039Y00465*
X01039*
X01032Y0047*
X01023Y00472*
X01015Y0047*
X01007Y00465*
X01007*
X01Y0047*
X00992Y00472*
X00983Y0047*
X00976Y00465*
X00971Y00458*
X00969Y00449*
Y00396*
X00971Y00388*
X00975Y00381*
Y00379*
X00962Y00366*
X00957*
X00945Y00379*
Y00381*
X00949Y00388*
X00951Y00396*
Y00449*
X00949Y00458*
X00944Y00465*
X00937Y0047*
X00929Y00472*
X0092Y0047*
X00913Y00465*
X00908Y00458*
X00906Y00449*
Y00396*
X00908Y00388*
X00912Y00381*
Y00372*
X00914Y00366*
X00917Y0036*
X00933Y00344*
X00933Y0034*
Y0028*
X00933Y00277*
Y00243*
X00942*
Y00221*
X00933*
Y00158*
X01003*
Y00217*
X01021*
X01021Y00217*
X01027Y00214*
X01034Y00213*
X01041Y00214*
X01047Y00217*
X01053Y00221*
X01057Y00226*
X01059Y00232*
X0106Y00239*
X01059Y00246*
X01057Y00252*
X01053Y00258*
X01049Y00261*
X01044Y00266*
X0104Y00267*
X01041Y00272*
X01055*
Y00367*
X01042*
X01039Y0037*
Y00375*
X01044Y00377*
X01046Y00376*
X01055Y00374*
X01063Y00376*
X0107Y0038*
X01075Y00388*
X01077Y00396*
Y00406*
X0109*
X01115Y00381*
Y00367*
X01114*
Y00272*
X0115*
Y00367*
X01148*
Y00387*
X01147Y00394*
X01143Y00399*
X01108Y00434*
X01103Y00438*
X01096Y00439*
X01077*
Y00449*
X01076Y00454*
X0108Y00459*
X01085Y00458*
X01138*
X01147Y00459*
X01154Y00464*
X01159Y00471*
X01161Y0048*
X01159Y00488*
X01155Y00494*
X01157Y00498*
X01162Y00498*
X01167Y00493*
Y00122*
X01168Y00116*
X01172Y00111*
X01245Y00038*
X0125Y00034*
X01256Y00033*
X02656*
X02663Y00034*
X02668Y00038*
X02763Y00133*
X02774Y00132*
X02784Y00133*
X02793Y00137*
X02802Y00144*
X02808Y00152*
X02812Y00162*
X02813Y00172*
X02812Y00182*
X02808Y00192*
X02802Y002*
X02793Y00206*
X02784Y0021*
X02774Y00212*
X02763Y0021*
X02754Y00206*
X02746Y00201*
X02742Y00201*
X02741Y00202*
Y00242*
X02742Y00242*
X02746Y00243*
X02754Y00237*
X02763Y00233*
X02774Y00232*
X02784Y00233*
X02793Y00237*
X02802Y00244*
X02808Y00252*
X02812Y00262*
X02813Y00272*
X02812Y00282*
X02808Y00292*
X02802Y003*
X02793Y00306*
X02784Y0031*
X02774Y00312*
X02763Y0031*
X02754Y00306*
X02746Y00301*
X02742Y00301*
X02741Y00302*
Y00334*
X02748Y00342*
X02754Y00337*
X02763Y00333*
X02774Y00332*
X02784Y00333*
X02793Y00337*
X02802Y00344*
X02808Y00352*
X02812Y00362*
X02813Y00372*
X02812Y00382*
X02808Y00392*
X02803Y00398*
X02806Y00403*
X02813*
X02835Y00381*
X02834Y00372*
X02835Y00362*
X02839Y00352*
X02845Y00344*
X02854Y00337*
X02863Y00333*
X02874Y00332*
X02884Y00333*
X02893Y00337*
X02902Y00344*
X02908Y00352*
X02912Y00362*
X02913Y00372*
X02912Y00382*
X02908Y00392*
X02902Y004*
X02893Y00406*
X02884Y0041*
X02874Y00412*
X02863Y0041*
X02855Y00407*
X02831Y00431*
X02826Y00435*
X0282Y00436*
X028*
X02798Y00441*
X02802Y00444*
X02808Y00452*
X02812Y00462*
X02813Y00472*
X02812Y00482*
X02808Y00492*
X02802Y005*
X02793Y00506*
X02784Y0051*
X02774Y00512*
X02763Y0051*
X02754Y00506*
X02745Y005*
X02739Y00492*
X02737Y00487*
X02625*
Y00488*
X02564*
Y00468*
X02559Y00468*
X02558Y0047*
X02556Y00474*
X02552Y00477*
X02547Y00477*
X02494*
X02489Y00477*
X02485Y00474*
X02483Y0047*
X02482Y00465*
Y00465*
X02317*
Y0051*
X02316Y00514*
X02314Y00518*
X0231Y00521*
X02305Y00522*
X02252*
X02247Y00521*
X02243Y00518*
X02241Y00514*
X0224Y0051*
Y00389*
X02241Y00385*
X02243Y00381*
X02247Y00378*
X02252Y00377*
X02305*
X0231Y00378*
X02314Y00381*
X02316Y00385*
X02317Y00389*
Y00434*
X02482*
Y00434*
X02483Y00429*
X02485Y00425*
X02489Y00422*
X02494Y00422*
X02547*
X02552Y00422*
X02556Y00425*
X02558Y00429*
X02559Y00431*
X02564Y00431*
X02625*
Y00457*
X02737*
X02739Y00452*
X02745Y00444*
X02749Y00441*
X02747Y00436*
X02713*
X02706Y00435*
X02701Y00431*
X02694Y00424*
X0269Y00419*
X02689Y00412*
Y00354*
X02685Y00351*
X02684Y00352*
X02675Y00354*
X02665Y00352*
X02657Y00347*
X02657Y00346*
X02627*
X02621Y00345*
X02616Y00341*
X02593Y00318*
X02589Y00313*
X02588Y00307*
Y0016*
X01362*
X01324Y00198*
X01324Y002*
X01322Y00209*
X01317Y00217*
X01309Y00222*
X013Y00224*
X01296Y00228*
Y00585*
Y00611*
X01304Y00612*
X01312Y00617*
X01314Y00621*
X01319Y0062*
Y00603*
Y00601*
Y00548*
X01369*
Y00598*
X0137Y00602*
X01373Y00603*
X0142*
Y00611*
X01526*
X01528Y00604*
X01535Y00595*
X01544Y00588*
X01554Y00584*
X01565Y00583*
X01575Y00584*
X01585Y00588*
X01594Y00595*
X01601Y00604*
X01605Y00614*
X01606Y00625*
X01605Y00635*
X01601Y00645*
X01594Y00654*
X01585Y00661*
X01575Y00665*
X01565Y00666*
X01554Y00665*
X01544Y00661*
X01535Y00654*
X01528Y00645*
X01528Y00643*
X0142*
Y00656*
X01374*
X0137*
X01369Y00661*
Y00703*
X01416*
Y00713*
X01524*
X01524Y00712*
X01528Y00702*
X01535Y00693*
X01544Y00687*
X01554Y00683*
X01565Y00681*
X01575Y00683*
X01585Y00687*
X01594Y00693*
X01601Y00702*
X01605Y00712*
X01606Y00723*
X01605Y00734*
X01601Y00744*
X01594Y00752*
X01585Y00759*
X01575Y00763*
X01565Y00765*
X01554Y00763*
X01544Y00759*
X01535Y00752*
X0153Y00746*
X01416*
Y00756*
X01333*
X01308Y00781*
X01303Y00785*
X01297Y00786*
X01112*
X01112Y00787*
X01104Y00792*
X01095Y00794*
X01085Y00792*
X01081Y00789*
X01075Y00791*
X01075Y00792*
X0107Y008*
X01063Y00804*
X01055Y00806*
X01046Y00804*
X01044Y00803*
X01039Y00805*
Y00806*
X01038Y00812*
X01035Y00817*
X01034Y00819*
X01034Y0082*
X01032Y00829*
X01027Y00837*
X01019Y00842*
X0101Y00844*
X01Y00842*
X00996Y00839*
X00991Y00842*
Y00881*
G37*
G36*
X02547Y00848D02*
X02494D01*
X02489Y00847*
X02485Y00844*
X02483Y0084*
X02482Y00836*
Y00804*
X02483Y008*
X02485Y00796*
X02489Y00793*
X02494Y00792*
X02547*
X02548Y00792*
X02576*
X02607Y00761*
X02605Y00757*
X02564*
Y00752*
X02557*
X02556Y00754*
X02552Y00757*
X02547Y00757*
X02494*
X02489Y00757*
X02485Y00754*
X02484Y00752*
X02466*
X0246Y00754*
X0245Y00752*
X02442Y00747*
X02437Y00739*
X02435Y0073*
X02437Y0072*
X02442Y00712*
X0245Y00707*
X0246Y00705*
X02466Y00707*
X02484*
X02485Y00705*
X02489Y00702*
X02494Y00702*
X02547*
X02552Y00702*
X02556Y00705*
X02556Y00706*
X02564*
Y00699*
X02625*
Y00737*
X0263Y00739*
X02649Y00719*
Y00699*
X0271*
Y00757*
X0269*
X02659Y00788*
X02661Y00792*
X02767*
X02768Y00787*
X02766Y00786*
X02757Y00779*
X0275Y0077*
X02744Y0076*
X02741Y00749*
X0274Y00737*
X02741Y00725*
X02744Y00714*
X0275Y00704*
X02757Y00695*
X02766Y00687*
X02777Y00682*
X02788Y00679*
X02799Y00677*
X02806Y00678*
X02811Y00674*
X0281Y00671*
X02809Y00664*
X0281Y00657*
X02811Y00654*
Y00636*
X02837*
X02837Y00636*
X02839*
X02839Y00636*
X02863*
Y00649*
X02921Y00707*
X02933*
X02935Y00704*
X02942Y00695*
X02951Y00687*
X02962Y00682*
X02973Y00679*
X02985Y00677*
X02996Y00679*
X03007Y00682*
X03018Y00687*
X03027Y00695*
X03034Y00704*
X03039Y00714*
X03043Y00725*
X03044Y00737*
X03043Y00749*
X03039Y0076*
X03034Y0077*
X03027Y00779*
X03018Y00786*
X03016Y00787*
X03017Y00792*
X03085*
X03116Y00762*
X03115Y0076*
X03111Y00749*
X0311Y00737*
X03111Y00725*
X03115Y00714*
X0312Y00704*
X03127Y00695*
X03136Y00687*
X03147Y00682*
X03158Y00679*
X0317Y00677*
X03181Y00679*
X03192Y00682*
X03203Y00687*
X03212Y00695*
X03219Y00704*
X03225Y00714*
X03228Y00725*
X03229Y00737*
X03228Y00749*
X03225Y0076*
X03219Y0077*
X03212Y00779*
X03203Y00786*
X03192Y00792*
X03181Y00795*
X0317Y00796*
X0316Y00795*
X03116Y0084*
X0311Y00844*
X03104Y00847*
X03096Y00848*
X02548*
X02547Y00848*
G37*
G36*
X0228Y00864D02*
X0227Y00862D01*
X02262Y00857*
X02257Y00849*
X02255Y0084*
X02256Y00838*
X02256Y00838*
Y00802*
X02252*
X02247Y00801*
X02243Y00798*
X02241Y00794*
X0224Y0079*
Y00669*
X02241Y00665*
X02243Y00661*
X02247Y00658*
X02252Y00657*
X02305*
X0231Y00658*
X02314Y00661*
X02316Y00665*
X02317Y00669*
Y0079*
X02316Y00794*
X02314Y00798*
X0231Y00801*
X02305Y00802*
X02301*
Y00829*
X02302Y0083*
X02304Y0084*
X02302Y00849*
X02297Y00857*
X02289Y00862*
X0228Y00864*
G37*
G36*
X02547Y00568D02*
X02494D01*
X02489Y00567*
X02485Y00564*
X02484Y00563*
X0245*
X02445Y00564*
X02435Y00562*
X02427Y00557*
X02422Y00549*
X0242Y0054*
X02422Y0053*
X02427Y00522*
X02435Y00517*
X02445Y00515*
X02452Y00517*
X02485*
X02485Y00516*
X02489Y00513*
X02494Y00512*
X02547*
X02552Y00513*
X02556Y00516*
X02556Y00516*
X02564*
Y00509*
X02625*
Y00566*
X02564*
Y00562*
X02558*
X02556Y00564*
X02552Y00567*
X02547Y00568*
G37*
G36*
X02876Y00613D02*
X02875D01*
X02874Y00613*
X02849*
Y00595*
X02848Y00592*
X02847Y00585*
X02848Y00578*
X02849Y00575*
Y00557*
X02865*
X02894Y00528*
X02899Y00524*
X02906Y00521*
X02913Y0052*
X03103*
X03105Y00518*
X03114Y00512*
X03124Y00508*
X03135Y00506*
X03145Y00508*
X03155Y00512*
X03164Y00518*
X03171Y00527*
X03175Y00537*
X03176Y00548*
X03175Y00559*
X03171Y00569*
X03164Y00578*
X03155Y00584*
X03145Y00588*
X03135Y0059*
X03124Y00588*
X03114Y00584*
X03105Y00578*
X03103Y00576*
X02925*
X029Y006*
Y00613*
X02876*
X02876Y00613*
G37*
G36*
X01565Y00568D02*
X01554Y00566D01*
X01544Y00562*
X01535Y00556*
X01528Y00547*
X01524Y00537*
X01523Y00526*
X01524Y00515*
X01528Y00505*
X01535Y00497*
X01544Y0049*
X01554Y00486*
X01565Y00484*
X01575Y00486*
X01585Y0049*
X01594Y00497*
X01601Y00505*
X01605Y00515*
X01606Y00526*
X01605Y00537*
X01601Y00547*
X01594Y00556*
X01585Y00562*
X01575Y00566*
X01565Y00568*
G37*
G36*
X03405Y00619D02*
X03391Y00618D01*
X03378Y00614*
X03366Y00607*
X03355Y00599*
X03347Y00588*
X0334Y00576*
X03336Y00563*
X03335Y0055*
X03336Y00536*
X0334Y00523*
X03347Y00511*
X03355Y005*
X03366Y00492*
X03378Y00485*
X03391Y00481*
X03405Y0048*
X03418Y00481*
X03431Y00485*
X03443Y00492*
X03454Y005*
X03462Y00511*
X03469Y00523*
X03473Y00536*
X03474Y0055*
X03473Y00563*
X03469Y00576*
X03462Y00588*
X03454Y00599*
X03443Y00607*
X03431Y00614*
X03418Y00618*
X03405Y00619*
G37*
G36*
X00076Y00685D02*
X00023D01*
Y00635*
X00034*
Y00603*
X00018*
Y00533*
X00081*
Y00603*
X00065*
Y00635*
X00076*
Y00643*
X0013*
Y00632*
X00144*
Y00604*
X00134*
Y00553*
X00128*
Y00455*
X0017*
X00181Y00443*
X0018Y0044*
X00182Y0043*
X00187Y00422*
X00195Y00417*
X00205Y00415*
X00214Y00417*
X00222Y00422*
X00227Y0043*
X00229Y0044*
X00227Y00449*
X00222Y00457*
X00214Y00462*
X00205Y00464*
X00204Y00464*
X00191Y00476*
Y00553*
X00185*
Y00604*
X00175*
Y00632*
X00189*
Y0068*
X0013*
Y00673*
X00076*
Y00685*
G37*
G36*
X01956Y0048D02*
X01946Y00479D01*
X01936Y00475*
X01928Y00469*
X01922Y0046*
X01918Y00451*
X01916Y0044*
X01918Y0043*
X01922Y00421*
X01928Y00412*
X01936Y00406*
X01946Y00402*
X01956Y00401*
X01967Y00402*
X01976Y00406*
X01984Y00412*
X01991Y00421*
X01995Y0043*
X01996Y0044*
X01995Y00451*
X01991Y0046*
X01984Y00469*
X01976Y00475*
X01967Y00479*
X01956Y0048*
G37*
G36*
X03405Y00414D02*
X03391Y00413D01*
X03378Y00409*
X03366Y00402*
X03356Y00394*
X03347Y00383*
X03341Y00371*
X03337Y00358*
X03336Y00345*
X03337Y00331*
X03341Y00318*
X03347Y00306*
X03356Y00295*
X03366Y00287*
X03378Y0028*
X03391Y00276*
X03405Y00275*
X03419Y00276*
X03432Y0028*
X03444Y00287*
X03454Y00295*
X03463Y00306*
X03469Y00318*
X03473Y00331*
X03474Y00345*
X03473Y00358*
X03469Y00371*
X03463Y00383*
X03454Y00394*
X03444Y00402*
X03432Y00409*
X03419Y00413*
X03405Y00414*
G37*
G36*
X02874Y00312D02*
X02863Y0031D01*
X02854Y00306*
X02845Y003*
X02839Y00292*
X02835Y00282*
X02834Y00272*
X02835Y00262*
X02839Y00252*
X02845Y00244*
X02854Y00237*
X02863Y00233*
X02874Y00232*
X02884Y00233*
X02893Y00237*
X02902Y00244*
X02908Y00252*
X02912Y00262*
X02913Y00272*
X02912Y00282*
X02908Y00292*
X02902Y003*
X02893Y00306*
X02884Y0031*
X02874Y00312*
G37*
G36*
X0073Y00249D02*
X00719Y00248D01*
X0071Y00244*
X00701Y00238*
X00695Y00229*
X00691Y0022*
X0069Y0021*
X00691Y00199*
X00695Y0019*
X00701Y00181*
X0071Y00175*
X00719Y00171*
X0073Y0017*
X0074Y00171*
X00749Y00175*
X00758Y00181*
X00764Y0019*
X00768Y00199*
X00769Y0021*
X00768Y0022*
X00764Y00229*
X00758Y00238*
X00749Y00244*
X0074Y00248*
X0073Y00249*
G37*
G36*
X0063D02*
X00619Y00248D01*
X0061Y00244*
X00601Y00238*
X00595Y00229*
X00591Y0022*
X0059Y0021*
X00591Y00199*
X00595Y0019*
X00601Y00181*
X0061Y00175*
X00619Y00171*
X0063Y0017*
X0064Y00171*
X00649Y00175*
X00658Y00181*
X00664Y0019*
X00668Y00199*
X00669Y0021*
X00668Y0022*
X00664Y00229*
X00658Y00238*
X00649Y00244*
X0064Y00248*
X0063Y00249*
G37*
G36*
X02874Y00212D02*
X02863Y0021D01*
X02854Y00206*
X02845Y002*
X02839Y00192*
X02835Y00182*
X02834Y00172*
X02835Y00162*
X02839Y00152*
X02845Y00144*
X02854Y00137*
X02863Y00133*
X02874Y00132*
X02884Y00133*
X02893Y00137*
X02902Y00144*
X02908Y00152*
X02912Y00162*
X02913Y00172*
X02912Y00182*
X02908Y00192*
X02902Y002*
X02893Y00206*
X02884Y0021*
X02874Y00212*
G37*
G36*
X0073Y00149D02*
X00719Y00148D01*
X0071Y00144*
X00701Y00138*
X00695Y00129*
X00691Y0012*
X0069Y0011*
X00691Y00099*
X00695Y0009*
X00701Y00081*
X0071Y00075*
X00719Y00071*
X0073Y0007*
X0074Y00071*
X00749Y00075*
X00758Y00081*
X00764Y0009*
X00768Y00099*
X00769Y0011*
X00768Y0012*
X00764Y00129*
X00758Y00138*
X00749Y00144*
X0074Y00148*
X0073Y00149*
G37*
G36*
X0063D02*
X00619Y00148D01*
X0061Y00144*
X00601Y00138*
X00595Y00129*
X00591Y0012*
X0059Y0011*
X00591Y00099*
X00595Y0009*
X00601Y00081*
X0061Y00075*
X00619Y00071*
X0063Y0007*
X0064Y00071*
X00649Y00075*
X00658Y00081*
X00664Y0009*
X00668Y00099*
X00669Y0011*
X00668Y0012*
X00664Y00129*
X00658Y00138*
X00649Y00144*
X0064Y00148*
X0063Y00149*
G37*
G36*
X03413Y00199D02*
X03399Y00197D01*
X03386Y00194*
X03374Y00187*
X03364Y00178*
X03355Y00168*
X03349Y00156*
X03345Y00143*
X03344Y00129*
X03345Y00116*
X03349Y00103*
X03355Y00091*
X03364Y0008*
X03374Y00072*
X03386Y00065*
X03399Y00061*
X03413Y0006*
X03426Y00061*
X03439Y00065*
X03451Y00072*
X03462Y0008*
X03471Y00091*
X03477Y00103*
X03481Y00116*
X03482Y00129*
X03481Y00143*
X03477Y00156*
X03471Y00168*
X03462Y00178*
X03451Y00187*
X03439Y00194*
X03426Y00197*
X03413Y00199*
G37*
G36*
X00129D02*
X00116Y00197D01*
X00103Y00194*
X00091Y00187*
X0008Y00178*
X00072Y00168*
X00065Y00156*
X00061Y00143*
X0006Y00129*
X00061Y00116*
X00065Y00103*
X00072Y00091*
X0008Y0008*
X00091Y00072*
X00103Y00065*
X00116Y00061*
X00129Y0006*
X00143Y00061*
X00156Y00065*
X00168Y00072*
X00178Y0008*
X00187Y00091*
X00194Y00103*
X00197Y00116*
X00199Y00129*
X00197Y00143*
X00194Y00156*
X00187Y00168*
X00178Y00178*
X00168Y00187*
X00156Y00194*
X00143Y00197*
X00129Y00199*
G37*
%LNpod-3*%
%LPD*%
G36*
X01288Y00662D02*
X01287Y00657D01*
X01285Y00657*
X01277Y00652*
X01272Y00644*
X0127Y00635*
X0127Y00634*
X01268Y00631*
X01266Y00628*
X0126Y00627*
X01185Y00702*
X01187Y00707*
X01195Y00705*
X01204Y00707*
X01212Y00712*
X01212Y00713*
X01237*
X01288Y00662*
G37*
G36*
X01323Y0072D02*
Y00706D01*
X01319*
Y00684*
X01315Y00682*
X01255Y00741*
X0125Y00745*
X01244Y00746*
X01213*
X01211Y00748*
X01213Y00753*
X0129*
X01323Y0072*
G37*
G36*
X00929Y00597D02*
X00927Y00592D01*
X00925Y00592*
X00917Y00587*
X00912Y00579*
X0091Y0057*
X00907Y00571*
X00877*
X00877Y00572*
X00869Y00577*
X0086Y00579*
X0085Y00577*
X00842Y00572*
X00837Y00564*
X00835Y00555*
X00837Y00545*
X00842Y00537*
X0085Y00532*
X0086Y0053*
X00869Y00532*
X00877Y00537*
X00877Y00538*
X00886*
X00887Y00533*
X0088Y00532*
X00872Y00527*
X00867Y00519*
X00865Y0051*
X00865Y00509*
X00854Y00497*
X00851Y00492*
X00849Y00486*
Y00471*
X00845Y00468*
X00843Y0047*
X00834Y00472*
X00829Y00471*
X00825Y00475*
X00826Y0048*
X00824Y00488*
X00819Y00496*
Y00496*
X00824Y00503*
X00826Y00511*
X00824Y0052*
X00819Y00527*
Y00527*
X00824Y00534*
X00826Y00543*
X00824Y00551*
X00819Y00559*
Y00559*
X00824Y00566*
X00826Y00574*
X00824Y00583*
X00819Y0059*
Y0059*
X00824Y00597*
X00826Y00606*
X00824Y00614*
X00819Y00622*
Y00622*
X00824Y00629*
X00826Y00637*
X00831Y00638*
X00832Y0063*
X00837Y00622*
X00845Y00617*
X00855Y00615*
X00864Y00617*
X00872Y00622*
X00877Y0063*
X00879Y0064*
X00879Y0064*
X00883Y00643*
X00929Y00597*
G37*
G36*
X00341Y00413D02*
X00343Y00412D01*
X0035Y0041*
X00354Y00411*
X00359Y00408*
Y00378*
X00348*
Y0033*
Y00329*
Y00281*
X00401*
Y00289*
X00455*
X00461Y0029*
X00466Y00293*
X00497Y00324*
X00497*
X00501Y00321*
X00503Y00316*
X00465Y00279*
X0042Y00233*
X00388*
X00336Y00285*
Y00328*
Y00398*
X00315*
Y00408*
X0032Y00411*
X00324Y0041*
X00331Y00412*
X00333Y00413*
X00337Y00415*
X00341Y00413*
G37*
G36*
X02953Y00787D02*
X02951Y00786D01*
X02942Y00779*
X02935Y0077*
X02931Y00763*
X0291*
X02902Y00762*
X02896Y00759*
X0289Y00754*
X02863Y00728*
X02858Y0073*
X02859Y00737*
X02858Y00749*
X02854Y0076*
X02849Y0077*
X02842Y00779*
X02833Y00786*
X02831Y00787*
X02832Y00792*
X02952*
X02953Y00787*
G37*
G54D13*
X00555Y00849D02*
X00595Y0081D01*
X00469Y00854D02*
Y00881D01*
X00449Y00833D02*
Y00834D01*
X00421Y00972D02*
X00439Y00955D01*
Y00933D02*
X0044Y00932D01*
X00421Y00916D02*
Y00931D01*
X00459Y00932D02*
Y00959D01*
X00509Y00865D02*
Y0088D01*
X005Y00916D02*
Y00931D01*
X00439Y00933D02*
Y00955D01*
X00478Y00907D02*
X00488Y00898D01*
X0042Y00932D02*
X00421Y00931D01*
X00421Y00981D02*
X00424Y00983D01*
X00459Y00959D02*
X00475Y00975D01*
X00509Y00865D02*
X00525Y00849D01*
X00499Y00932D02*
X005Y00931D01*
Y00916D02*
X00509Y00907D01*
X00488Y00882D02*
X00489Y00881D01*
X00509D02*
X00509Y0088D01*
X00429Y00907D02*
X00478D01*
X00449Y00834D02*
X00469Y00854D01*
X00421Y00972D02*
Y00981D01*
X00488Y00882D02*
Y00898D01*
X00525Y00849D02*
X00555D01*
X00421Y00916D02*
X00429Y00907D01*
X00509Y00881D02*
Y00907D01*
X0016Y00723D02*
X0016Y00724D01*
X00209*
X0021Y00725*
X02595Y0046D02*
X02607Y00472D01*
X02585Y0045D02*
X02595Y0046D01*
X02521Y0045D02*
X02585D01*
X02278D02*
X02521D01*
X02607Y00472D02*
X02774D01*
X0016Y00486D02*
Y00504D01*
Y00486D02*
X00205Y00441D01*
Y0044D02*
Y00441D01*
X0035Y00456D02*
Y00504D01*
X0033Y00525D02*
X0035Y00504D01*
X00415Y0082D02*
X00452Y00783D01*
X0005Y00568D02*
Y0066D01*
X0016Y00579D02*
Y00656D01*
X00158Y00658D02*
X0016Y00656D01*
X00051Y00658D02*
X00158D01*
X0005Y0066D02*
X00051Y00658D01*
X00452Y00783D02*
X00455D01*
X00525Y00833D02*
X00606Y00752D01*
X00449Y00833D02*
X00525D01*
X00606Y00724D02*
Y00752D01*
X0016Y00885D02*
X00232Y00957D01*
X00411*
X00419Y00933D02*
X0042Y00932D01*
X00411Y00957D02*
X00419Y00949D01*
Y00933D02*
Y00949D01*
X0055Y00783D02*
X0058Y00752D01*
Y00724D02*
Y00752D01*
X00455Y00783D02*
X0055D01*
X00415Y00839D02*
X00429Y00853D01*
X00415Y0082D02*
Y00839D01*
X00429Y00853D02*
Y0088D01*
X0043Y00881*
G54D18*
X02278Y0045D03*
Y0073D03*
G54D19*
X02521Y0054D03*
Y0045D03*
Y00359D03*
Y0082D03*
Y0073D03*
Y00639D03*
G54D20*
X0268Y00671D03*
Y00728D03*
X02595Y00671D03*
Y00728D03*
Y00595D03*
Y00537D03*
Y0046D03*
Y00402D03*
G54D21*
X01132Y0032D03*
X01085D03*
X01037D03*
G54D22*
X00606Y00724D03*
X0058D03*
X00555D03*
X00529D03*
X00503D03*
X00478D03*
X00452D03*
X00427D03*
X00401D03*
X00376D03*
X0035D03*
X00324D03*
X00299D03*
X00273D03*
X00606Y00456D03*
X0058D03*
X00555D03*
X00529D03*
X00503D03*
X00478D03*
X00452D03*
X00427D03*
X00401D03*
X00376D03*
X0035D03*
X00324D03*
X00299D03*
X00273D03*
G54D23*
X00777Y0048D03*
Y00511D03*
Y00543D03*
Y00574D03*
Y00606D03*
Y00637D03*
Y00669D03*
Y007D03*
X01112D03*
Y00669D03*
Y00637D03*
Y00606D03*
Y00574D03*
Y00543D03*
Y00511D03*
Y0048D03*
G54D24*
X00834Y00757D03*
X00866D03*
X00897D03*
X00929D03*
X0096D03*
X00992D03*
X01023D03*
X01055D03*
Y00423D03*
X01023D03*
X00992D03*
X0096D03*
X00929D03*
X00897D03*
X00866D03*
X00834D03*
G54D25*
X00933Y01092D03*
X007D03*
G54D26*
X00395Y00209D03*
Y0016D03*
X00375Y00305D03*
Y00354D03*
X0024Y00305D03*
Y00354D03*
G54D27*
X0106Y0108D03*
X01006D03*
X01143D03*
X01196D03*
X01948Y0098D03*
X02001D03*
X02398D03*
X02451D03*
X02173D03*
X02226D03*
G54D28*
X01395Y0068D03*
X01344D03*
X01395Y00575D03*
X01344D03*
Y0063D03*
X01395D03*
X00959Y0034D03*
X0091D03*
G54D29*
X0016Y00814D03*
Y00885D03*
G54D30*
X01347Y0073D03*
X01392D03*
G54D31*
X02912Y00664D03*
X02837D03*
X02875Y00585D03*
G54D32*
X01492Y00907D03*
Y00945D03*
Y00982D03*
X01367D03*
Y00945D03*
Y00907D03*
X0016Y00656D03*
Y00723D03*
G54D33*
X01006Y01145D03*
X01063D03*
X01141D03*
X01198D03*
G54D34*
X01925Y01095D03*
X02047D03*
X02363D03*
X02486D03*
X02143D03*
X02266D03*
G54D35*
X00327Y00932D03*
X00572D03*
G54D36*
X00538Y00932D03*
X00518D03*
X00499D03*
X00479D03*
X00459D03*
X0044D03*
X0042D03*
X004D03*
X00381D03*
X00361D03*
X00331Y00881D03*
X00351D03*
X00371D03*
X0039D03*
X0041D03*
X0043D03*
X00469D03*
X00489D03*
X00509D03*
X00528D03*
X00548D03*
X00568D03*
G54D37*
X0016Y00579D03*
G54D38*
X0016Y00504D03*
G54D39*
X00305Y00363D03*
Y00296D03*
X0005Y00501D03*
Y00568D03*
X0096Y00846D03*
Y00913D03*
G54D40*
X0005Y0066D03*
Y00709D03*
G54D41*
X00968Y0019D03*
X00901D03*
X00968Y00275D03*
X00901D03*
G54D64*
X03135Y00548D03*
G54D65*
X03135Y00351D03*
G54D69*
X00279Y01108D03*
X0062D03*
G54D70*
X00279Y00897D03*
X0062D03*
G54D73*
X02265Y01085D02*
X02266Y01086D01*
X02226Y0098D02*
X02265Y01018D01*
Y01085*
X02451Y0098D02*
X02485Y01013D01*
Y01098D02*
X02486Y011D01*
X02485Y01013D02*
Y01098D01*
X0128Y0062D02*
X01295Y00635D01*
X0128Y00585D02*
Y0062D01*
X0106Y00737D02*
X01127D01*
X0128Y00218D02*
X01295Y00203D01*
X0128Y00218D02*
Y00585D01*
X01127Y00737D02*
X0128Y00585D01*
X0114Y00669D02*
X0124Y0057D01*
Y00172D02*
X01292Y0012D01*
X0124Y00172D02*
Y0057D01*
X00929Y00372D02*
Y00423D01*
Y00372D02*
X00959Y00341D01*
Y0034D02*
Y00341D01*
X00992Y00372D02*
Y00423D01*
X0097Y0035D02*
X00992Y00372D01*
X00968Y0035D02*
X0097D01*
X00959Y00341D02*
X00968Y0035D01*
X00775Y0051D02*
X00777Y00511D01*
X00719Y0051D02*
X00775D01*
X00714Y00505D02*
X00719Y0051D01*
X0071Y00505D02*
X00714D01*
X00399Y00909D02*
Y0092D01*
X004Y00921*
Y00932*
X004Y00932*
X0039Y00881D02*
X00391Y00881D01*
Y009*
X00399Y00909*
X0039Y00835D02*
Y00881D01*
X00365Y0081D02*
X0039Y00835D01*
X01023Y00757D02*
Y00806D01*
X0101Y0082D02*
X01023Y00806D01*
X00478Y00724D02*
X00478Y00724D01*
Y00681D02*
Y00724D01*
Y00681D02*
X00545Y00615D01*
X00775Y00385D02*
X00796D01*
X00812Y004*
X00829*
X00834Y00406*
Y00423*
X02001Y00995D02*
Y01006D01*
X02036Y0104*
Y01095*
X02041Y011*
X01943Y00975D02*
X01948Y0098D01*
X0189Y00975D02*
X01943D01*
X01365Y00905D02*
X01367Y00907D01*
X01365Y00855D02*
Y00905D01*
X01105Y0102D02*
Y01142D01*
X01102Y01145D02*
X01105Y01142D01*
X0112Y0099D02*
X01143Y01013D01*
X0102Y0099D02*
X0112D01*
X01143Y01013D02*
Y0108D01*
X00881Y00958D02*
X00883D01*
X0093Y01005D02*
Y01084D01*
X00883Y00958D02*
X0093Y01005D01*
X0024Y0027D02*
X0032Y0019D01*
X0024Y0027D02*
Y00305D01*
X0035Y0013D02*
X0035Y0013D01*
X00362*
X00392Y0016*
X00395*
X01069Y00493D02*
X01083Y0048D01*
X01112*
X00968Y00493D02*
X01069D01*
X00907Y00555D02*
X00968Y00493D01*
X00934Y0057D02*
X00992Y00511D01*
X01112*
X01102Y01145D02*
X01141D01*
X01063D02*
X01102D01*
X02345Y0098D02*
X02398D01*
X00665Y00455D02*
Y00575D01*
X01256Y0005D02*
X02656D01*
X01184Y00122D02*
X01256Y0005D01*
X02656D02*
X02774Y00167D01*
X01202Y0013D02*
X01262Y0007D01*
X02651D02*
X02725Y00143D01*
X01262Y0007D02*
X02651D01*
X02597Y00144D02*
X02605Y00151D01*
X01311Y00108D02*
X02638D01*
X02631Y00126D02*
X0264Y00135D01*
X013Y00199D02*
Y002D01*
Y00199D02*
X01355Y00144D01*
X0126Y00196D02*
X01331Y00126D01*
X02605Y00151D02*
Y00307D01*
X0264Y00135D02*
Y003D01*
X01355Y00144D02*
X02597D01*
X0122Y00137D02*
X01267Y0009D01*
X02645*
X01331Y00126D02*
X02631D01*
X01299Y0012D02*
X01311Y00108D01*
X02638D02*
X0267Y00139D01*
X01292Y0012D02*
X01299D01*
X02645Y0009D02*
X02705Y0015D01*
Y00412D02*
X02713Y0042D01*
X02705Y0015D02*
Y00412D01*
X0126Y00196D02*
Y00581D01*
X02605Y00307D02*
X02627Y0033D01*
X02774Y00167D02*
Y00172D01*
X0267Y00139D02*
Y0027D01*
X02725Y00143D02*
Y00341D01*
X0122Y00137D02*
Y00527D01*
X01184Y00122D02*
Y005D01*
X01202Y0013D02*
Y00513D01*
X02725Y00341D02*
X02748Y00365D01*
X0282Y0042D02*
X02858Y00381D01*
X02713Y0042D02*
X0282D01*
X02627Y0033D02*
X02675D01*
X02858Y00381D02*
X02871D01*
X02168Y00975D02*
X02173Y0098D01*
X02125Y00975D02*
X02168D01*
X0086Y00555D02*
X00907D01*
X00866Y00486D02*
X0089Y0051D01*
X00866Y00423D02*
Y00486D01*
X01005Y00545D02*
D01*
X01006Y00543D01*
X00866Y00683D02*
X01005Y00545D01*
X01244Y0073D02*
X01333Y0064D01*
X01195Y0073D02*
X01244D01*
X01344Y00585D02*
Y00635D01*
X01338Y0064D02*
X01344Y00635D01*
X01333Y0064D02*
X01338D01*
X01095Y0077D02*
X01297D01*
X01337Y0073*
X0077Y00708D02*
X00777Y007D01*
X0077Y00708D02*
Y0077D01*
X01055Y00742D02*
X0106Y00737D01*
X00383Y00215D02*
X00425D01*
X0114Y00543D02*
X01184Y005D01*
X0114Y00574D02*
X01202Y00513D01*
X0114Y00606D02*
X0122Y00527D01*
X0114Y007D02*
X0126Y00581D01*
X01055Y00742D02*
Y00757D01*
X01112Y007D02*
X0114D01*
X01112Y00669D02*
X0114D01*
X01112Y00606D02*
X0114D01*
X01112Y00574D02*
X0114D01*
X01112Y00543D02*
X0114D01*
X01558Y0073D02*
X01565Y00723D01*
X01392Y0073D02*
X01558D01*
X01562Y00627D02*
X01565Y00625D01*
X01398Y00627D02*
X01562D01*
X01395Y0063D02*
X01398Y00627D01*
X01337Y0073D02*
X01345Y00738D01*
Y00691D02*
Y00738D01*
X01344Y0069D02*
X01345Y00691D01*
X00866Y00683D02*
Y00757D01*
X00855Y0064D02*
Y00644D01*
X00834Y00664D02*
X00855Y00644D01*
X00834Y00664D02*
Y00757D01*
X0096D02*
Y00845D01*
X0096Y00846D02*
X0096Y00845D01*
X01035Y00351D02*
D01*
X01037Y00349*
X01023Y00363D02*
X01035Y00351D01*
X01023Y00363D02*
Y00423D01*
X01037Y0032D02*
Y00349D01*
X01132Y0032D02*
Y00387D01*
X01096Y00423D02*
X01132Y00387D01*
X01055Y00423D02*
X01096D01*
X00695Y00545D02*
X00774D01*
X00477Y00267D02*
X00665Y00455D01*
X00774Y00545D02*
X00777Y00547D01*
X00665Y00574D02*
X00777D01*
X00665Y00575D02*
X00665Y00574D01*
X0049Y0034D02*
X00508D01*
X00511Y00343*
X00455Y00305D02*
X0049Y0034D01*
X00425Y00215D02*
X00477Y00267D01*
X0053Y0021D02*
Y00215D01*
X00477Y00267D02*
X0053Y00215D01*
X0093Y01084D02*
X00936Y0109D01*
X00375Y00305D02*
X00455D01*
X00305Y00293D02*
X00383Y00215D01*
X01035Y0102D02*
X0106Y01045D01*
X00995Y0102D02*
X01035D01*
X0106Y01045D02*
Y0108D01*
X004Y00693D02*
X00401Y00695D01*
Y00724*
X004Y00605D02*
Y00693D01*
X00427Y00652D02*
Y00724D01*
Y00652D02*
X0043Y0065D01*
X00427Y00724D02*
X00427Y00724D01*
X01197Y01144D02*
X01198Y01145D01*
X01197Y0108D02*
Y01144D01*
X01196Y0108D02*
X01197Y0108D01*
X01006Y01145D02*
X01006Y01144D01*
Y0108D02*
Y01144D01*
Y0108D02*
X01006Y0108D01*
X01192Y0115D02*
X01198Y01145D01*
X00305Y00293D02*
Y00296D01*
X0024Y00354D02*
Y00394D01*
X00273Y00428D02*
Y00456D01*
X0024Y00394D02*
X00273Y00428D01*
X00375Y00456D02*
X00376Y00456D01*
X00375Y0036D02*
Y00456D01*
X0037Y00354D02*
X00375Y0036D01*
X00299Y00369D02*
Y00456D01*
Y00369D02*
X00305Y00363D01*
X01006Y01145D02*
X01007Y01145D01*
X01005Y01079D02*
X01006Y0108D01*
X0035Y00457D02*
X0035Y00456D01*
X0035Y00457D02*
Y00486D01*
G54D74*
X03096Y0082D02*
X0317Y00747D01*
X02587Y0082D02*
X03096D01*
X01492Y00945D02*
Y00982D01*
X01507*
X01582Y01057D02*
X01587D01*
X01507Y00982D02*
X01582Y01057D01*
X01275Y0107D02*
X01362Y00982D01*
X01367*
X01587Y01057D02*
X016Y0107D01*
Y01072*
X01367Y00945D02*
Y00982D01*
X01492*
X02837Y00664D02*
X02839D01*
X0291Y00735*
X02972*
X02985Y00747*
X02913Y00548D02*
X0311D01*
X02876Y00585D02*
X02913Y00548D01*
X02875Y00585D02*
X02876D01*
X02521Y0082D02*
X02587D01*
X02676Y00731*
Y00729D02*
Y00731D01*
Y00729D02*
X02678Y00728D01*
X0268*
G54D75*
X02278Y0073D02*
Y00838D01*
Y00696D02*
Y0073D01*
X0246D02*
X02521D01*
X02278Y00838D02*
X0228Y00839D01*
Y0084*
X0252Y0054D02*
X02521Y0054D01*
X02445Y0054D02*
X0252D01*
X02445Y0054D02*
X02445Y0054D01*
X02521Y0073D02*
X02521Y00729D01*
X02594*
X02595Y00728*
X02593Y00539D02*
X02595Y00537D01*
X02522Y00539D02*
X02593D01*
X02521Y0054D02*
X02522Y00539D01*
G54D76*
X00968Y00243D02*
Y00275D01*
Y0019D02*
Y00243D01*
X0103D02*
X01034Y00239D01*
X00968Y00243D02*
X0103D01*
X00965Y00275D02*
X00968D01*
X00959Y0028D02*
X00965Y00275D01*
X00959Y0028D02*
Y0034D01*
G54D77*
X016Y01072D02*
Y01075D01*
G54D78*
X02724Y01112D03*
X02799Y00737D03*
X02985D03*
X0317D03*
X03245Y01112D03*
G54D79*
X02774Y00172D03*
X02874D03*
X02774Y00272D03*
X02874D03*
X02774Y00372D03*
X02874D03*
X02774Y00472D03*
X018Y0107D03*
X017D03*
X01475D03*
X01375D03*
X0108Y00885D03*
X0118D03*
X01956Y0044D03*
X0073Y0021D03*
Y0011D03*
X0063Y0021D03*
Y0011D03*
X0053Y0021D03*
G54D80*
X02874Y00472D03*
G54D81*
X016Y0107D03*
X01275D03*
X0128Y00885D03*
X01956Y0074D03*
X0053Y0011D03*
G54D82*
X01565Y00428D03*
G54D83*
X01565Y00526D03*
Y00625D03*
Y00723D03*
G54D84*
X00129Y01051D03*
X03413Y00129D03*
Y01051D03*
X03405Y00345D03*
X03405Y0055D03*
G54D85*
X00129Y00129D03*
G54D86*
X0246Y0073D03*
X0228Y0084D03*
X01295Y00635D03*
X01034Y00239D03*
X0071Y00505D03*
X00475Y00975D03*
X00595Y0081D03*
X00365D03*
X00449Y00833D03*
X00424Y00983D03*
X0101Y0082D03*
X00545Y00615D03*
X00775Y00385D03*
X0189Y00975D03*
X01365Y00855D03*
X01105Y0102D03*
X00881Y00958D03*
X0035Y0013D03*
X0021Y00725D03*
X02345Y0098D03*
X02445Y0054D03*
X00665Y00574D03*
X01295Y0012D03*
X013Y002D03*
X01297Y0016D03*
X0264Y003D03*
X0267Y0027D03*
X02675Y0033D03*
X02125Y00975D03*
X0086Y00555D03*
X0089Y0051D03*
X01006Y00543D03*
X00934Y0057D03*
X01195Y0073D03*
X0077Y0077D03*
X01095D03*
X00855Y0064D03*
X00205Y0044D03*
X0033Y00525D03*
X00695Y00545D03*
X00511Y00343D03*
X0032Y0019D03*
X0102Y0099D03*
X00995Y0102D03*
X004Y00605D03*
X0043Y0065D03*
X00455Y00783D03*
M02*