%FSTAX23Y23*%
%MOIN*%
%SFA1B1*%

%IPPOS*%
%AMD69*
4,1,8,0.000000,-0.051200,0.000000,-0.051200,0.021700,-0.029500,0.021700,0.029500,0.000000,0.051200,0.000000,0.051200,-0.021700,0.029500,-0.021700,-0.029500,0.000000,-0.051200,0.0*
1,1,0.043300,0.000000,-0.029500*
1,1,0.043300,0.000000,-0.029500*
1,1,0.043300,0.000000,0.029500*
1,1,0.043300,0.000000,0.029500*
%
%AMD70*
4,1,8,0.000000,-0.041300,0.000000,-0.041300,0.021700,-0.019700,0.021700,0.019700,0.000000,0.041300,0.000000,0.041300,-0.021700,0.019700,-0.021700,-0.019700,0.000000,-0.041300,0.0*
1,1,0.043300,0.000000,-0.019700*
1,1,0.043300,0.000000,-0.019700*
1,1,0.043300,0.000000,0.019700*
1,1,0.043300,0.000000,0.019700*
%
%ADD61R,0.066930X0.066930*%
%ADD62C,0.066930*%
%ADD63C,0.102360*%
%ADD64C,0.062990*%
%ADD65R,0.062990X0.062990*%
%ADD66R,0.062990X0.062990*%
%ADD67R,0.066530X0.066530*%
%ADD68C,0.066530*%
G04~CAMADD=69~8~0.0~0.0~433.1~1023.6~216.5~0.0~15~0.0~0.0~0.0~0.0~0~0.0~0.0~0.0~0.0~0~0.0~0.0~0.0~180.0~434.0~1023.0*
%ADD69D69*%
G04~CAMADD=70~8~0.0~0.0~433.1~826.8~216.5~0.0~15~0.0~0.0~0.0~0.0~0~0.0~0.0~0.0~0.0~0~0.0~0.0~0.0~180.0~434.0~827.0*
%ADD70D70*%
%ADD71C,0.063940*%
%ADD72C,0.043310*%
%LNpod-1*%
%LPD*%
G54D61*
X03135Y00351D03*
G54D62*
X03135Y00548D03*
G54D63*
X02724Y01112D03*
X02799Y00737D03*
X02985D03*
X0317D03*
X03245Y01112D03*
G54D64*
X02774Y00172D03*
X02874D03*
X02774Y00272D03*
X02874D03*
X02774Y00372D03*
X02874D03*
X02774Y00472D03*
X018Y0107D03*
X017D03*
X01475D03*
X01375D03*
X0108Y00885D03*
X0118D03*
X01956Y0044D03*
X0073Y0021D03*
Y0011D03*
X0063Y0021D03*
Y0011D03*
X0053Y0021D03*
G54D65*
X02874Y00472D03*
G54D66*
X016Y0107D03*
X01275D03*
X0128Y00885D03*
X01956Y0074D03*
X0053Y0011D03*
G54D67*
X01565Y00428D03*
G54D68*
X01565Y00526D03*
Y00625D03*
Y00723D03*
G54D69*
X00279Y01108D03*
X0062D03*
G54D70*
X00279Y00897D03*
X0062D03*
G54D71*
X00129Y01051D03*
X03413Y00129D03*
Y01051D03*
X03405Y00345D03*
X03405Y0055D03*
G54D72*
X00129Y00129D03*
M02*