%FSTAX23Y23*%
%MOIN*%
%SFA1B1*%

%IPPOS*%
%ADD13C,0.010000*%
%ADD14C,0.007870*%
%ADD15C,0.008000*%
%LNpod-1*%
%LPD*%
G36*
X01099Y01163D02*
X01101D01*
Y0116*
X01103*
Y01158*
Y01156*
Y01154*
X01105*
Y01152*
Y0115*
Y01148*
Y01146*
Y01143*
Y01141*
Y01139*
Y01137*
Y01135*
Y01133*
Y01131*
Y01128*
Y01126*
Y01124*
Y01122*
Y0112*
Y01118*
Y01116*
Y01113*
Y01111*
Y01109*
X01107*
Y01107*
Y01105*
Y01103*
Y01101*
Y01098*
Y01096*
X01109*
Y01094*
Y01092*
X01111*
Y0109*
X01114*
Y01088*
X01118*
Y01086*
X01126*
Y01088*
X01131*
Y0109*
X01133*
Y01092*
X01137*
Y01094*
X01141*
Y01096*
X01144*
Y01098*
X01146*
Y01101*
X01148*
Y01103*
X01152*
Y01105*
X01154*
Y01107*
X01156*
Y01109*
X01158*
Y01111*
X01161*
Y01113*
X01163*
Y01116*
X01167*
Y01118*
X01169*
Y0112*
X01171*
Y01122*
X01176*
Y01124*
X01178*
Y01126*
X0118*
Y01128*
X01184*
Y01131*
X01186*
Y01133*
X01191*
Y01135*
X01193*
Y01137*
X01197*
Y01139*
X01201*
Y01141*
X01206*
Y01143*
X0121*
Y01146*
X01214*
Y01148*
X01218*
Y0115*
X01225*
Y01148*
X01227*
Y01146*
Y01143*
Y01141*
X01225*
Y01139*
X01223*
Y01137*
Y01135*
X0122*
Y01133*
X01218*
Y01131*
X01216*
Y01128*
X01214*
Y01126*
X01212*
Y01124*
X01208*
Y01122*
X01206*
Y0112*
X01203*
Y01118*
X01201*
Y01116*
X01199*
Y01113*
X01197*
Y01111*
X01193*
Y01109*
X01191*
Y01107*
X01188*
Y01105*
X01184*
Y01103*
X01182*
Y01101*
X0118*
Y01098*
X01178*
Y01096*
X01176*
Y01094*
X01173*
Y01092*
X01171*
Y0109*
X01169*
Y01088*
X01167*
Y01086*
X01163*
Y01084*
X01161*
Y01081*
Y01079*
X01158*
Y01077*
X01154*
Y01075*
X01152*
Y01073*
Y01071*
X0115*
Y01069*
X01148*
Y01066*
X01146*
Y01064*
X01144*
Y01062*
X01141*
Y0106*
X01139*
Y01058*
X01137*
Y01056*
Y01054*
X01135*
Y01051*
X01133*
Y01049*
Y01047*
X01131*
Y01045*
Y01043*
X01129*
Y01041*
Y01039*
X01126*
Y01037*
Y01034*
X01124*
Y01032*
X01122*
Y0103*
Y01028*
Y01026*
X0112*
Y01024*
Y01022*
Y01019*
X01118*
Y01017*
Y01015*
X01116*
Y01013*
Y01011*
Y01009*
Y01007*
X01114*
Y01004*
Y01002*
Y01*
Y00998*
Y00996*
Y00994*
X01111*
Y00992*
Y00989*
Y00987*
Y00985*
Y00983*
Y00981*
Y00979*
Y00977*
Y00975*
Y00972*
Y0097*
X01109*
Y00968*
Y00966*
Y00964*
Y00962*
Y0096*
Y00957*
Y00955*
Y00953*
Y00951*
Y00949*
Y00947*
Y00945*
Y00942*
Y0094*
Y00938*
Y00936*
Y00934*
Y00932*
X01111*
Y0093*
Y00928*
Y00925*
Y00923*
Y00921*
Y00919*
Y00917*
Y00915*
Y00913*
Y0091*
Y00908*
Y00906*
Y00904*
X01114*
Y00902*
Y009*
Y00898*
Y00895*
Y00893*
Y00891*
Y00889*
Y00887*
X01116*
Y00885*
Y00883*
Y00881*
Y00878*
X01118*
Y00876*
Y00874*
Y00872*
Y0087*
X0112*
Y00868*
Y00866*
Y00863*
X01122*
Y00861*
Y00859*
Y00857*
Y00855*
X01124*
Y00853*
Y00851*
X01126*
Y00848*
Y00846*
Y00844*
X01129*
Y00842*
Y0084*
X01131*
Y00838*
Y00836*
X01133*
Y00833*
Y00831*
X01135*
Y00829*
Y00827*
X01137*
Y00825*
Y00823*
X01139*
Y00821*
X01141*
Y00819*
Y00816*
X01144*
Y00814*
X01146*
Y00812*
Y0081*
X01148*
Y00808*
X0115*
Y00806*
Y00804*
X01152*
Y00801*
X01154*
Y00799*
X01156*
Y00797*
Y00795*
X01158*
Y00793*
X01161*
Y00791*
X01163*
Y00789*
X01165*
Y00786*
X01167*
Y00784*
X01169*
Y00782*
X01171*
Y0078*
X01173*
Y00778*
X01176*
Y00776*
X01178*
Y00774*
X0118*
Y00772*
X01182*
Y00769*
X01186*
Y00767*
X01188*
Y00765*
X01193*
Y00763*
X01195*
Y00761*
X01199*
Y00759*
X01212*
Y00761*
Y00763*
X01214*
Y00765*
Y00767*
Y00769*
Y00772*
X01212*
Y00774*
Y00776*
Y00778*
Y0078*
Y00782*
Y00784*
Y00786*
Y00789*
Y00791*
Y00793*
Y00795*
Y00797*
X0121*
Y00799*
Y00801*
Y00804*
Y00806*
Y00808*
Y0081*
Y00812*
Y00814*
Y00816*
Y00819*
Y00821*
X01208*
Y00823*
Y00825*
Y00827*
Y00829*
Y00831*
Y00833*
Y00836*
Y00838*
Y0084*
Y00842*
Y00844*
X01206*
Y00846*
Y00848*
Y00851*
Y00853*
Y00855*
Y00857*
Y00859*
Y00861*
Y00863*
Y00866*
Y00868*
Y0087*
X01203*
Y00872*
Y00874*
Y00876*
Y00878*
Y00881*
Y00883*
Y00885*
Y00887*
Y00889*
Y00891*
Y00893*
Y00895*
X01201*
Y00898*
Y009*
Y00902*
Y00904*
Y00906*
Y00908*
Y0091*
Y00913*
Y00915*
Y00917*
Y00919*
X01199*
Y00921*
Y00923*
Y00925*
Y00928*
Y0093*
Y00932*
Y00934*
Y00936*
Y00938*
Y0094*
X01197*
Y00942*
Y00945*
Y00947*
Y00949*
Y00951*
Y00953*
Y00955*
Y00957*
X01195*
Y0096*
Y00962*
Y00964*
Y00966*
Y00968*
Y0097*
Y00972*
Y00975*
Y00977*
Y00979*
Y00981*
X01193*
Y00983*
Y00985*
Y00987*
Y00989*
Y00992*
Y00994*
Y00996*
Y00998*
Y01*
Y01002*
Y01004*
Y01007*
Y01009*
Y01011*
Y01013*
Y01015*
Y01017*
Y01019*
Y01022*
Y01024*
Y01026*
Y01028*
Y0103*
Y01032*
X01195*
Y01034*
Y01037*
Y01039*
Y01041*
X01201*
Y01039*
Y01037*
X01203*
Y01034*
Y01032*
X01206*
Y0103*
Y01028*
X01208*
Y01026*
X0121*
Y01024*
Y01022*
X01212*
Y01019*
X01214*
Y01017*
X0122*
Y01019*
X01225*
Y01022*
X01229*
Y01024*
X01231*
Y01026*
X01233*
Y01028*
Y0103*
X01235*
Y01032*
X01238*
Y01034*
X0124*
Y01037*
Y01039*
X01242*
Y01041*
X01244*
Y01043*
X01246*
Y01045*
Y01047*
X01248*
Y01049*
X0125*
Y01051*
Y01054*
X01253*
Y01056*
X01255*
Y01058*
X01257*
Y0106*
X01259*
Y01062*
X01261*
Y01064*
X01263*
Y01066*
X01267*
Y01069*
X01274*
Y01066*
X01276*
Y01064*
Y01062*
Y0106*
Y01058*
X01274*
Y01056*
Y01054*
Y01051*
X01272*
Y01049*
Y01047*
X0127*
Y01045*
Y01043*
X01267*
Y01041*
Y01039*
X01265*
Y01037*
Y01034*
X01263*
Y01032*
X01261*
Y0103*
Y01028*
X01259*
Y01026*
X01257*
Y01024*
Y01022*
X01255*
Y01019*
Y01017*
X01253*
Y01015*
X0125*
Y01013*
Y01011*
X01248*
Y01009*
Y01007*
X01246*
Y01004*
X01244*
Y01002*
Y01*
X01242*
Y00998*
Y00996*
X0124*
Y00994*
X01238*
Y00992*
Y00989*
X01235*
Y00987*
Y00985*
X01233*
Y00983*
Y00981*
X01231*
Y00979*
Y00977*
Y00975*
Y00972*
X01229*
Y0097*
Y00968*
Y00966*
X01231*
Y00964*
Y00962*
Y0096*
X01233*
Y00957*
X01242*
Y0096*
X01244*
Y00962*
X01246*
Y00964*
X01248*
Y00966*
X0125*
Y00968*
X01253*
Y0097*
Y00972*
X01255*
Y00975*
X01257*
Y00977*
Y00979*
X01259*
Y00981*
Y00983*
X01261*
Y00985*
X01263*
Y00987*
Y00989*
X01265*
Y00992*
Y00994*
X01267*
Y00996*
X0127*
Y00998*
Y01*
X01272*
Y01002*
Y01004*
X01274*
Y01007*
X01276*
Y01009*
X01278*
Y01011*
Y01013*
X0128*
Y01015*
X01282*
Y01017*
Y01019*
X01285*
Y01022*
X01287*
Y01024*
X01289*
Y01026*
X01291*
Y01028*
X01293*
Y0103*
X01295*
Y01032*
X01297*
Y01034*
X01302*
Y01037*
X01306*
Y01039*
X01315*
Y01037*
Y01034*
Y01032*
Y0103*
X01312*
Y01028*
Y01026*
X0131*
Y01024*
Y01022*
X01308*
Y01019*
Y01017*
X01306*
Y01015*
X01304*
Y01013*
Y01011*
Y01009*
X01302*
Y01007*
Y01004*
Y01002*
X01329*
Y01004*
X01351*
Y01002*
X01353*
Y01*
X01351*
Y00998*
X01349*
Y00996*
X01347*
Y00994*
X01344*
Y00992*
X01342*
Y00989*
X0134*
Y00987*
X01336*
Y00985*
X01334*
Y00983*
X01332*
Y00981*
X01327*
Y00979*
X01325*
Y00977*
X01323*
Y00975*
X01321*
Y00972*
X01319*
Y0097*
X01315*
Y00968*
X01312*
Y00966*
X01308*
Y00964*
X01306*
Y00962*
X01304*
Y0096*
X01302*
Y00957*
X013*
Y00955*
X01297*
Y00953*
X01295*
Y00951*
X01293*
Y00949*
X01291*
Y00947*
X01289*
Y00945*
X01287*
Y00942*
X01285*
Y0094*
X01282*
Y00938*
X0128*
Y00936*
X01278*
Y00934*
X01276*
Y00932*
X01274*
Y0093*
X01272*
Y00928*
X0127*
Y00925*
X01267*
Y00923*
Y00921*
X01265*
Y00919*
X01263*
Y00917*
X01261*
Y00915*
Y00913*
X01259*
Y0091*
Y00908*
X01257*
Y00906*
X01255*
Y00904*
Y00902*
X01253*
Y009*
Y00898*
Y00895*
X0125*
Y00893*
Y00891*
X01248*
Y00889*
Y00887*
Y00885*
Y00883*
X01246*
Y00881*
Y00878*
Y00876*
X01244*
Y00874*
Y00872*
Y0087*
Y00868*
X01242*
Y00866*
Y00863*
Y00861*
Y00859*
Y00857*
Y00855*
Y00853*
Y00851*
Y00848*
Y00846*
Y00844*
Y00842*
Y0084*
Y00838*
X0124*
Y00836*
Y00833*
Y00831*
Y00829*
X01242*
Y00827*
Y00825*
Y00823*
Y00821*
Y00819*
Y00816*
Y00814*
Y00812*
Y0081*
Y00808*
Y00806*
Y00804*
Y00801*
Y00799*
X01244*
Y00797*
Y00795*
Y00793*
Y00791*
Y00789*
Y00786*
Y00784*
X01246*
Y00782*
Y0078*
Y00778*
Y00776*
Y00774*
X01248*
Y00772*
Y00769*
Y00767*
Y00765*
Y00763*
Y00761*
X0125*
Y00759*
Y00757*
Y00754*
X01253*
Y00752*
Y0075*
Y00748*
X01255*
Y00746*
Y00744*
Y00742*
X01257*
Y00739*
Y00737*
Y00735*
X01259*
Y00733*
Y00731*
X01261*
Y00729*
X01263*
Y00727*
Y00725*
X01265*
Y00722*
Y0072*
X01267*
Y00718*
X0127*
Y00716*
X01272*
Y00714*
X01274*
Y00712*
X01276*
Y0071*
X0128*
Y00707*
X01285*
Y00705*
X01304*
Y00707*
X01308*
Y0071*
X01312*
Y00712*
X01315*
Y00714*
X01317*
Y00716*
X01319*
Y00718*
X01321*
Y0072*
X01323*
Y00722*
X01325*
Y00725*
Y00727*
X01327*
Y00729*
X01329*
Y00731*
Y00733*
X01332*
Y00735*
Y00737*
X01334*
Y00739*
Y00742*
X01336*
Y00744*
Y00746*
X01338*
Y00748*
Y0075*
X0134*
Y00752*
Y00754*
X01342*
Y00757*
Y00759*
Y00761*
X01344*
Y00763*
Y00765*
X01347*
Y00767*
Y00769*
Y00772*
X01349*
Y00774*
Y00776*
X01351*
Y00778*
Y0078*
X01353*
Y00782*
Y00784*
X01355*
Y00786*
Y00789*
Y00791*
X01357*
Y00793*
Y00795*
X01359*
Y00797*
X01362*
Y00799*
Y00801*
X01364*
Y00804*
Y00806*
X01366*
Y00808*
Y0081*
X01368*
Y00812*
X0137*
Y00814*
X01372*
Y00816*
Y00819*
X01374*
Y00821*
X01376*
Y00823*
X01381*
Y00825*
X01387*
Y00823*
X01389*
Y00821*
Y00819*
X01391*
Y00816*
Y00814*
Y00812*
X01389*
Y0081*
Y00808*
Y00806*
Y00804*
X01387*
Y00801*
Y00799*
Y00797*
X01385*
Y00795*
Y00793*
X01383*
Y00791*
Y00789*
Y00786*
X01381*
Y00784*
Y00782*
Y0078*
X01379*
Y00778*
Y00776*
Y00774*
X01376*
Y00772*
Y00769*
Y00767*
X01374*
Y00765*
Y00763*
Y00761*
X01372*
Y00759*
Y00757*
Y00754*
X0137*
Y00752*
Y0075*
Y00748*
X01368*
Y00746*
Y00744*
Y00742*
Y00739*
X01366*
Y00737*
Y00735*
Y00733*
X01364*
Y00731*
Y00729*
Y00727*
X01362*
Y00725*
Y00722*
Y0072*
Y00718*
X01359*
Y00716*
Y00714*
Y00712*
Y0071*
Y00707*
X01357*
Y00705*
Y00703*
Y00701*
Y00699*
Y00697*
Y00695*
Y00692*
Y0069*
X01359*
Y00688*
Y00686*
Y00684*
X01362*
Y00682*
Y0068*
X01364*
Y00677*
X01366*
Y00675*
X01368*
Y00673*
X0137*
Y00671*
X01372*
Y00669*
X01374*
Y00667*
X01376*
Y00665*
X01381*
Y00663*
X01383*
Y0066*
X01387*
Y00658*
X01391*
Y00656*
X01396*
Y00654*
X014*
Y00652*
X01406*
Y0065*
X01426*
Y00648*
X01443*
Y0065*
X01451*
Y00652*
X01458*
Y00654*
X01462*
Y00656*
X01466*
Y00658*
X01471*
Y0066*
X01473*
Y00663*
X01477*
Y00665*
X01479*
Y00667*
X01483*
Y00669*
X01485*
Y00671*
X01488*
Y00673*
X0149*
Y00675*
X01492*
Y00677*
Y0068*
X01494*
Y00682*
X01496*
Y00684*
Y00686*
Y00688*
X01498*
Y0069*
Y00692*
Y00695*
Y00697*
Y00699*
Y00701*
Y00703*
Y00705*
Y00707*
Y0071*
Y00712*
X01496*
Y00714*
Y00716*
Y00718*
Y0072*
X01494*
Y00722*
Y00725*
Y00727*
Y00729*
X01492*
Y00731*
Y00733*
Y00735*
Y00737*
X0149*
Y00739*
Y00742*
Y00744*
X01488*
Y00746*
Y00748*
Y0075*
X01485*
Y00752*
Y00754*
Y00757*
X01483*
Y00759*
Y00761*
Y00763*
X01481*
Y00765*
Y00767*
Y00769*
X01479*
Y00772*
Y00774*
Y00776*
X01477*
Y00778*
Y0078*
Y00782*
X01475*
Y00784*
Y00786*
Y00789*
X01473*
Y00791*
Y00793*
X01471*
Y00795*
Y00797*
Y00799*
X01468*
Y00801*
Y00804*
Y00806*
Y00808*
X01466*
Y0081*
Y00812*
Y00814*
Y00816*
Y00819*
Y00821*
Y00823*
X01468*
Y00825*
X01477*
Y00823*
X01479*
Y00821*
X01481*
Y00819*
X01483*
Y00816*
Y00814*
X01485*
Y00812*
X01488*
Y0081*
X0149*
Y00808*
Y00806*
X01492*
Y00804*
Y00801*
X01494*
Y00799*
X01496*
Y00797*
Y00795*
X01498*
Y00793*
Y00791*
X015*
Y00789*
Y00786*
X01503*
Y00784*
Y00782*
X01505*
Y0078*
Y00778*
Y00776*
X01507*
Y00774*
Y00772*
X01509*
Y00769*
Y00767*
X01511*
Y00765*
Y00763*
Y00761*
X01513*
Y00759*
Y00757*
X01515*
Y00754*
Y00752*
X01518*
Y0075*
Y00748*
Y00746*
X0152*
Y00744*
Y00742*
X01522*
Y00739*
Y00737*
X01524*
Y00735*
X01526*
Y00733*
Y00731*
X01528*
Y00729*
Y00727*
X0153*
Y00725*
X01532*
Y00722*
X01535*
Y0072*
Y00718*
X01537*
Y00716*
X01539*
Y00714*
X01541*
Y00712*
X01545*
Y0071*
X01547*
Y00707*
X01552*
Y00705*
X01571*
Y00707*
X01575*
Y0071*
X0158*
Y00712*
X01582*
Y00714*
X01586*
Y00716*
Y00718*
X01588*
Y0072*
X0159*
Y00722*
Y00725*
X01592*
Y00727*
X01594*
Y00729*
X01597*
Y00731*
Y00733*
X01599*
Y00735*
Y00737*
Y00739*
X01601*
Y00742*
Y00744*
X01603*
Y00746*
Y00748*
Y0075*
Y00752*
X01605*
Y00754*
Y00757*
Y00759*
X01607*
Y00761*
Y00763*
Y00765*
Y00767*
Y00769*
X01609*
Y00772*
Y00774*
Y00776*
Y00778*
Y0078*
X01612*
Y00782*
Y00784*
Y00786*
Y00789*
Y00791*
Y00793*
Y00795*
X01614*
Y00797*
Y00799*
Y00801*
Y00804*
Y00806*
Y00808*
Y0081*
Y00812*
Y00814*
Y00816*
Y00819*
Y00821*
Y00823*
Y00825*
Y00827*
Y00829*
Y00831*
Y00833*
Y00836*
Y00838*
Y0084*
Y00842*
Y00844*
Y00846*
Y00848*
Y00851*
Y00853*
Y00855*
Y00857*
Y00859*
Y00861*
Y00863*
Y00866*
Y00868*
Y0087*
X01612*
Y00872*
Y00874*
Y00876*
Y00878*
Y00881*
X01609*
Y00883*
Y00885*
Y00887*
X01607*
Y00889*
Y00891*
X01605*
Y00893*
Y00895*
X01603*
Y00898*
Y009*
X01601*
Y00902*
Y00904*
X01599*
Y00906*
Y00908*
X01597*
Y0091*
Y00913*
X01594*
Y00915*
X01592*
Y00917*
Y00919*
X0159*
Y00921*
X01588*
Y00923*
Y00925*
X01586*
Y00928*
X01584*
Y0093*
Y00932*
X01582*
Y00934*
X01577*
Y00936*
X01575*
Y00938*
X01573*
Y0094*
X01571*
Y00942*
X01569*
Y00945*
X01567*
Y00947*
X01565*
Y00949*
X01562*
Y00951*
X0156*
Y00953*
X01558*
Y00955*
X01556*
Y00957*
X01554*
Y0096*
X01552*
Y00962*
X0155*
Y00964*
X01547*
Y00966*
X01543*
Y00968*
X01541*
Y0097*
X01539*
Y00972*
X01537*
Y00975*
X01532*
Y00977*
X0153*
Y00979*
X01528*
Y00981*
X01526*
Y00983*
X01522*
Y00985*
X0152*
Y00987*
X01518*
Y00989*
X01515*
Y00992*
X01513*
Y00994*
X01511*
Y00996*
X01509*
Y00998*
X01507*
Y01*
X01505*
Y01002*
Y01004*
X01532*
Y01002*
X01552*
Y01004*
X01556*
Y01007*
X01554*
Y01009*
Y01011*
X01552*
Y01013*
Y01015*
X0155*
Y01017*
Y01019*
X01547*
Y01022*
X01545*
Y01024*
Y01026*
X01543*
Y01028*
Y0103*
X01541*
Y01032*
Y01034*
Y01037*
X01543*
Y01039*
X01547*
Y01037*
X01554*
Y01034*
X01558*
Y01032*
X0156*
Y0103*
X01562*
Y01028*
X01565*
Y01026*
X01567*
Y01024*
X01569*
Y01022*
X01571*
Y01019*
X01573*
Y01017*
X01575*
Y01015*
Y01013*
X01577*
Y01011*
X0158*
Y01009*
Y01007*
X01582*
Y01004*
X01584*
Y01002*
Y01*
X01586*
Y00998*
X01588*
Y00996*
Y00994*
X0159*
Y00992*
Y00989*
X01592*
Y00987*
X01594*
Y00985*
Y00983*
X01597*
Y00981*
X01599*
Y00979*
Y00977*
X01601*
Y00975*
X01603*
Y00972*
Y0097*
X01605*
Y00968*
X01607*
Y00966*
X01609*
Y00964*
X01612*
Y00962*
X01614*
Y0096*
X01616*
Y00957*
X01622*
Y0096*
X01624*
Y00962*
X01627*
Y00964*
Y00966*
Y00968*
Y0097*
Y00972*
Y00975*
Y00977*
X01624*
Y00979*
Y00981*
Y00983*
X01622*
Y00985*
Y00987*
X0162*
Y00989*
Y00992*
X01618*
Y00994*
X01616*
Y00996*
Y00998*
X01614*
Y01*
Y01002*
X01612*
Y01004*
Y01007*
X01609*
Y01009*
X01607*
Y01011*
Y01013*
X01605*
Y01015*
X01603*
Y01017*
Y01019*
X01601*
Y01022*
Y01024*
X01599*
Y01026*
X01597*
Y01028*
Y0103*
X01594*
Y01032*
X01592*
Y01034*
Y01037*
X0159*
Y01039*
Y01041*
X01588*
Y01043*
Y01045*
X01586*
Y01047*
X01584*
Y01049*
Y01051*
X01582*
Y01054*
Y01056*
Y01058*
X0158*
Y0106*
Y01062*
Y01064*
Y01066*
X01582*
Y01069*
X01588*
Y01066*
X01592*
Y01064*
X01594*
Y01062*
X01597*
Y0106*
X01599*
Y01058*
X01601*
Y01056*
X01603*
Y01054*
X01605*
Y01051*
X01607*
Y01049*
Y01047*
X01609*
Y01045*
X01612*
Y01043*
Y01041*
X01614*
Y01039*
X01616*
Y01037*
Y01034*
X01618*
Y01032*
X0162*
Y0103*
X01622*
Y01028*
X01624*
Y01026*
X01627*
Y01024*
X01629*
Y01022*
X01631*
Y01019*
X01635*
Y01017*
X01641*
Y01019*
X01644*
Y01022*
X01646*
Y01024*
X01648*
Y01026*
Y01028*
X0165*
Y0103*
Y01032*
X01652*
Y01034*
Y01037*
X01654*
Y01039*
X01656*
Y01041*
X01659*
Y01043*
X01661*
Y01041*
Y01039*
Y01037*
X01663*
Y01034*
Y01032*
Y0103*
Y01028*
Y01026*
Y01024*
Y01022*
Y01019*
Y01017*
Y01015*
Y01013*
Y01011*
Y01009*
Y01007*
Y01004*
Y01002*
Y01*
Y00998*
Y00996*
Y00994*
Y00992*
Y00989*
Y00987*
Y00985*
Y00983*
Y00981*
Y00979*
Y00977*
Y00975*
X01661*
Y00972*
Y0097*
Y00968*
Y00966*
Y00964*
Y00962*
Y0096*
Y00957*
Y00955*
Y00953*
X01659*
Y00951*
Y00949*
Y00947*
Y00945*
Y00942*
Y0094*
Y00938*
Y00936*
X01656*
Y00934*
Y00932*
Y0093*
Y00928*
Y00925*
Y00923*
Y00921*
Y00919*
Y00917*
Y00915*
Y00913*
X01654*
Y0091*
Y00908*
Y00906*
Y00904*
Y00902*
Y009*
Y00898*
Y00895*
Y00893*
Y00891*
Y00889*
Y00887*
X01652*
Y00885*
Y00883*
Y00881*
Y00878*
Y00876*
Y00874*
Y00872*
Y0087*
Y00868*
Y00866*
Y00863*
X0165*
Y00861*
Y00859*
Y00857*
Y00855*
Y00853*
Y00851*
Y00848*
Y00846*
Y00844*
Y00842*
Y0084*
Y00838*
X01648*
Y00836*
Y00833*
Y00831*
Y00829*
Y00827*
Y00825*
Y00823*
Y00821*
Y00819*
Y00816*
Y00814*
Y00812*
X01646*
Y0081*
Y00808*
Y00806*
Y00804*
Y00801*
Y00799*
Y00797*
Y00795*
Y00793*
X01644*
Y00791*
Y00789*
Y00786*
Y00784*
Y00782*
Y0078*
Y00778*
Y00776*
Y00774*
X01641*
Y00772*
Y00769*
Y00767*
Y00765*
X01644*
Y00763*
Y00761*
X01646*
Y00759*
X01654*
Y00761*
X01661*
Y00763*
X01665*
Y00765*
X01667*
Y00767*
X01671*
Y00769*
X01674*
Y00772*
X01676*
Y00774*
X0168*
Y00776*
X01682*
Y00778*
X01684*
Y0078*
X01686*
Y00782*
X01688*
Y00784*
X01691*
Y00786*
X01693*
Y00789*
Y00791*
X01695*
Y00793*
X01697*
Y00795*
X01699*
Y00797*
X01701*
Y00799*
Y00801*
X01703*
Y00804*
X01706*
Y00806*
X01708*
Y00808*
Y0081*
X0171*
Y00812*
X01712*
Y00814*
Y00816*
X01714*
Y00819*
X01716*
Y00821*
Y00823*
X01718*
Y00825*
Y00827*
X01721*
Y00829*
Y00831*
X01723*
Y00833*
Y00836*
X01725*
Y00838*
Y0084*
X01727*
Y00842*
Y00844*
X01729*
Y00846*
Y00848*
Y00851*
X01731*
Y00853*
Y00855*
X01733*
Y00857*
Y00859*
Y00861*
X01736*
Y00863*
Y00866*
Y00868*
X01738*
Y0087*
Y00872*
Y00874*
X0174*
Y00876*
Y00878*
Y00881*
Y00883*
Y00885*
X01742*
Y00887*
Y00889*
Y00891*
Y00893*
Y00895*
Y00898*
X01744*
Y009*
Y00902*
Y00904*
Y00906*
Y00908*
Y0091*
Y00913*
Y00915*
Y00917*
Y00919*
Y00921*
Y00923*
Y00925*
Y00928*
Y0093*
X01746*
Y00932*
Y00934*
Y00936*
Y00938*
Y0094*
Y00942*
Y00945*
Y00947*
Y00949*
Y00951*
Y00953*
Y00955*
Y00957*
Y0096*
Y00962*
Y00964*
Y00966*
Y00968*
Y0097*
Y00972*
X01744*
Y00975*
Y00977*
Y00979*
Y00981*
Y00983*
Y00985*
Y00987*
Y00989*
Y00992*
Y00994*
Y00996*
Y00998*
Y01*
X01742*
Y01002*
Y01004*
Y01007*
Y01009*
Y01011*
X0174*
Y01013*
Y01015*
Y01017*
X01738*
Y01019*
Y01022*
X01736*
Y01024*
Y01026*
Y01028*
X01733*
Y0103*
Y01032*
X01731*
Y01034*
Y01037*
X01729*
Y01039*
Y01041*
X01727*
Y01043*
Y01045*
X01725*
Y01047*
X01723*
Y01049*
Y01051*
X01721*
Y01054*
X01718*
Y01056*
Y01058*
X01716*
Y0106*
X01714*
Y01062*
Y01064*
X01712*
Y01066*
X0171*
Y01069*
X01708*
Y01071*
X01706*
Y01073*
X01703*
Y01075*
X01701*
Y01077*
X01699*
Y01079*
X01697*
Y01081*
X01695*
Y01084*
X01693*
Y01086*
X01691*
Y01088*
X01688*
Y0109*
X01686*
Y01092*
X01682*
Y01094*
X0168*
Y01096*
X01678*
Y01098*
X01676*
Y01101*
X01674*
Y01103*
X01671*
Y01105*
X01669*
Y01107*
X01665*
Y01109*
X01663*
Y01111*
X01661*
Y01113*
X01659*
Y01116*
X01656*
Y01118*
X01652*
Y0112*
X0165*
Y01122*
X01648*
Y01124*
X01646*
Y01126*
X01644*
Y01128*
X01641*
Y01131*
X01639*
Y01133*
X01637*
Y01135*
X01635*
Y01137*
X01633*
Y01139*
X01631*
Y01141*
X01629*
Y01143*
Y01146*
Y01148*
X01631*
Y0115*
X01637*
Y01148*
X01644*
Y01146*
X01648*
Y01143*
X01652*
Y01141*
X01656*
Y01139*
X01661*
Y01137*
X01665*
Y01135*
X01667*
Y01133*
X01671*
Y01131*
X01674*
Y01128*
X01676*
Y01126*
X0168*
Y01124*
X01682*
Y01122*
X01684*
Y0112*
X01688*
Y01118*
X01691*
Y01116*
X01693*
Y01113*
X01695*
Y01111*
X01697*
Y01109*
X01701*
Y01107*
X01703*
Y01105*
X01706*
Y01103*
X01708*
Y01101*
X0171*
Y01098*
X01714*
Y01096*
X01716*
Y01094*
X01718*
Y01092*
X01721*
Y0109*
X01725*
Y01088*
X01729*
Y01086*
X01738*
Y01088*
X01742*
Y0109*
X01744*
Y01092*
X01746*
Y01094*
X01748*
Y01096*
X0175*
Y01098*
Y01101*
Y01103*
Y01105*
Y01107*
Y01109*
Y01111*
Y01113*
Y01116*
Y01118*
Y0112*
Y01122*
Y01124*
Y01126*
Y01128*
Y01131*
Y01133*
Y01135*
Y01137*
Y01139*
Y01141*
Y01143*
X01753*
Y01146*
Y01148*
Y0115*
Y01152*
Y01154*
Y01156*
Y01158*
X01755*
Y0116*
X01757*
Y01163*
X01763*
Y0116*
Y01158*
X01765*
Y01156*
Y01154*
X01768*
Y01152*
Y0115*
X0177*
Y01148*
Y01146*
Y01143*
X01772*
Y01141*
Y01139*
Y01137*
Y01135*
Y01133*
X01774*
Y01131*
Y01128*
Y01126*
Y01124*
Y01122*
Y0112*
Y01118*
Y01116*
Y01113*
X01776*
Y01111*
Y01109*
Y01107*
Y01105*
Y01103*
Y01101*
Y01098*
Y01096*
Y01094*
Y01092*
Y0109*
Y01088*
Y01086*
Y01084*
Y01081*
Y01079*
Y01077*
Y01075*
Y01073*
Y01071*
Y01069*
Y01066*
Y01064*
Y01062*
Y0106*
Y01058*
Y01056*
Y01054*
Y01051*
Y01049*
Y01047*
Y01045*
Y01043*
Y01041*
Y01039*
Y01037*
Y01034*
Y01032*
Y0103*
Y01028*
Y01026*
Y01024*
Y01022*
Y01019*
Y01017*
Y01015*
Y01013*
Y01011*
Y01009*
Y01007*
Y01004*
Y01002*
Y01*
Y00998*
Y00996*
Y00994*
Y00992*
Y00989*
Y00987*
Y00985*
Y00983*
Y00981*
Y00979*
Y00977*
Y00975*
Y00972*
Y0097*
Y00968*
Y00966*
Y00964*
Y00962*
Y0096*
Y00957*
Y00955*
Y00953*
Y00951*
Y00949*
Y00947*
Y00945*
Y00942*
Y0094*
Y00938*
Y00936*
Y00934*
Y00932*
Y0093*
Y00928*
X01778*
Y00925*
X0178*
Y00928*
X01785*
Y0093*
X01787*
Y00932*
Y00934*
X01789*
Y00936*
X01791*
Y00938*
Y0094*
Y00942*
X01793*
Y00945*
Y00947*
Y00949*
X01795*
Y00951*
Y00953*
Y00955*
X01797*
Y00957*
Y0096*
Y00962*
X018*
Y00964*
Y00966*
Y00968*
Y0097*
X01802*
Y00972*
Y00975*
Y00977*
X01804*
Y00979*
Y00981*
Y00983*
X01806*
Y00985*
Y00987*
Y00989*
X01808*
Y00992*
Y00994*
Y00996*
X0181*
Y00998*
Y01*
Y01002*
X01812*
Y01004*
Y01007*
X01815*
Y01009*
Y01011*
Y01013*
X01817*
Y01015*
Y01017*
X01819*
Y01019*
Y01022*
X01821*
Y01024*
X01827*
Y01022*
X0183*
Y01019*
Y01017*
Y01015*
X01832*
Y01013*
Y01011*
Y01009*
Y01007*
Y01004*
Y01002*
Y01*
Y00998*
X0183*
Y00996*
Y00994*
Y00992*
Y00989*
Y00987*
Y00985*
Y00983*
Y00981*
Y00979*
X01827*
Y00977*
Y00975*
Y00972*
Y0097*
Y00968*
Y00966*
X01825*
Y00964*
Y00962*
Y0096*
Y00957*
Y00955*
X01823*
Y00953*
Y00951*
Y00949*
Y00947*
X01821*
Y00945*
Y00942*
Y0094*
Y00938*
X01819*
Y00936*
Y00934*
Y00932*
Y0093*
X01817*
Y00928*
Y00925*
Y00923*
Y00921*
X01815*
Y00919*
Y00917*
Y00915*
X01812*
Y00913*
Y0091*
Y00908*
X0181*
Y00906*
Y00904*
Y00902*
Y009*
X01808*
Y00898*
Y00895*
Y00893*
X01806*
Y00891*
Y00889*
Y00887*
X01804*
Y00885*
Y00883*
X01802*
Y00881*
Y00878*
Y00876*
X018*
Y00874*
Y00872*
Y0087*
X01797*
Y00868*
Y00866*
X01795*
Y00863*
Y00861*
Y00859*
X01793*
Y00857*
Y00855*
X01791*
Y00853*
Y00851*
Y00848*
X01789*
Y00846*
Y00844*
X01787*
Y00842*
Y0084*
X01785*
Y00838*
Y00836*
X01783*
Y00833*
Y00831*
X0178*
Y00829*
Y00827*
X01778*
Y00825*
Y00823*
X01776*
Y00821*
Y00819*
Y00816*
X01774*
Y00814*
Y00812*
X01772*
Y0081*
Y00808*
X0177*
Y00806*
Y00804*
X01768*
Y00801*
Y00799*
X01765*
Y00797*
X01763*
Y00795*
Y00793*
X01761*
Y00791*
Y00789*
X01759*
Y00786*
Y00784*
X01757*
Y00782*
X01755*
Y0078*
Y00778*
X01753*
Y00776*
Y00774*
X0175*
Y00772*
X01748*
Y00769*
Y00767*
X01746*
Y00765*
X01744*
Y00763*
X01742*
Y00761*
Y00759*
X0174*
Y00757*
X01738*
Y00754*
X01736*
Y00752*
X01733*
Y0075*
Y00748*
X01731*
Y00746*
X01729*
Y00744*
X01727*
Y00742*
X01723*
Y00739*
X01721*
Y00737*
X01718*
Y00735*
X01716*
Y00733*
X01714*
Y00731*
X0171*
Y00729*
X01708*
Y00727*
X01706*
Y00725*
X01701*
Y00722*
X01699*
Y0072*
X01697*
Y00718*
X01693*
Y00716*
X01691*
Y00714*
X01686*
Y00712*
X01682*
Y0071*
X0168*
Y00707*
X01676*
Y00705*
X01671*
Y00703*
X01669*
Y00701*
X01665*
Y00699*
X01663*
Y00697*
X01659*
Y00695*
X01654*
Y00692*
X01652*
Y0069*
X01648*
Y00688*
X01644*
Y00686*
X01639*
Y00684*
X01637*
Y00682*
X01633*
Y0068*
X01629*
Y00677*
X01624*
Y00675*
X01622*
Y00673*
X01618*
Y00671*
X01614*
Y00669*
X01612*
Y00667*
X01607*
Y00665*
X01603*
Y00663*
X01601*
Y0066*
X01597*
Y00658*
X01594*
Y00656*
X0159*
Y00654*
X01588*
Y00652*
X01584*
Y0065*
X01582*
Y00648*
X01577*
Y00645*
X01575*
Y00643*
X01571*
Y00641*
X01569*
Y00639*
X01565*
Y00637*
X01562*
Y00635*
X0156*
Y00633*
X01558*
Y0063*
X01556*
Y00628*
X01554*
Y00626*
X01552*
Y00624*
Y00622*
X0155*
Y0062*
X01547*
Y00618*
Y00616*
X01545*
Y00613*
Y00611*
Y00609*
Y00607*
X01543*
Y00605*
Y00603*
Y00601*
Y00598*
Y00596*
Y00594*
Y00592*
Y0059*
Y00588*
Y00586*
Y00583*
X01545*
Y00581*
Y00579*
Y00577*
Y00575*
Y00573*
Y00571*
Y00568*
X01547*
Y00566*
Y00564*
Y00562*
X0155*
Y0056*
X01552*
Y00558*
X0158*
Y0056*
X01603*
Y00562*
X01631*
Y00564*
X01656*
Y00566*
X0168*
Y00568*
X01706*
Y00571*
X01736*
Y00573*
X01757*
Y00575*
X01783*
Y00577*
X01808*
Y00579*
X01832*
Y00581*
X01859*
Y00583*
X01885*
Y00586*
X01909*
Y00588*
X01934*
Y0059*
X01958*
Y00592*
X01983*
Y00594*
X02005*
Y00596*
X02028*
Y00598*
X02045*
Y00601*
X02065*
Y00603*
X02082*
Y00605*
X02103*
Y00607*
X02116*
Y00609*
X02131*
Y00611*
X0215*
Y00613*
X02163*
Y00616*
X0218*
Y00618*
X02195*
Y0062*
X0221*
Y00622*
X02229*
Y00624*
X02248*
Y00622*
Y0062*
Y00618*
X02246*
Y00616*
Y00613*
X02244*
Y00611*
X02242*
Y00609*
X0224*
Y00607*
Y00605*
X02238*
Y00603*
X02236*
Y00601*
X02233*
Y00598*
X02231*
Y00596*
X02229*
Y00594*
Y00592*
X02227*
Y0059*
X02225*
Y00588*
X02221*
Y00586*
X02218*
Y00583*
X02216*
Y00581*
X02212*
Y00579*
X02208*
Y00577*
X02201*
Y00575*
X02191*
Y00573*
X02178*
Y00571*
X02165*
Y00568*
X0215*
Y00566*
X02133*
Y00564*
X0212*
Y00562*
X02107*
Y0056*
X02092*
Y00558*
X02084*
Y00556*
X0208*
Y00554*
X02075*
Y00551*
Y00549*
X02073*
Y00547*
X02071*
Y00545*
X02069*
Y00543*
Y00541*
Y00539*
X02071*
Y00536*
X02069*
Y00534*
Y00532*
X02065*
Y0053*
X02062*
Y00528*
X0206*
Y00526*
X02058*
Y00524*
X02056*
Y00521*
Y00519*
Y00517*
Y00515*
Y00513*
Y00511*
Y00509*
Y00507*
Y00504*
Y00502*
X02052*
Y005*
X02048*
Y00498*
X02045*
Y00496*
X02043*
Y00494*
Y00492*
X02041*
Y00489*
Y00487*
Y00485*
Y00483*
Y00481*
Y00479*
X02039*
Y00477*
X02035*
Y00474*
X0203*
Y00472*
X02028*
Y0047*
X02026*
Y00468*
Y00466*
X02024*
Y00464*
Y00462*
Y0046*
Y00457*
Y00455*
Y00453*
Y00451*
Y00449*
Y00447*
X02022*
Y00445*
X02018*
Y00442*
X02011*
Y0044*
X02007*
Y00438*
Y00436*
X02005*
Y00434*
Y00432*
X02003*
Y0043*
Y00427*
X02001*
Y00425*
Y00423*
X01998*
Y00421*
X01996*
Y00419*
X0199*
Y00417*
X01981*
Y00415*
Y00412*
Y0041*
X01983*
Y00408*
X01986*
Y00406*
X01988*
Y00404*
X0199*
Y00402*
X01992*
Y004*
X01994*
Y00402*
X01996*
Y00404*
X01998*
Y00406*
X02009*
Y00404*
X02013*
Y00402*
X02015*
Y004*
X0202*
Y00398*
X02022*
Y00395*
X02026*
Y00393*
X02028*
Y00391*
X0203*
Y00389*
X02033*
Y00387*
X02035*
Y00385*
X02039*
Y00383*
X02043*
Y0038*
X02045*
Y00378*
X02048*
Y00376*
X02052*
Y00374*
X02056*
Y00372*
X0206*
Y0037*
X02062*
Y00368*
X02067*
Y00365*
X02071*
Y00363*
X02075*
Y00361*
X0208*
Y00359*
X02084*
Y00357*
X02088*
Y00355*
X02092*
Y00353*
X02097*
Y00351*
X02101*
Y00348*
X02105*
Y00346*
X02107*
Y00344*
X02109*
Y00342*
Y0034*
Y00338*
X02107*
Y00336*
Y00333*
X02105*
Y00331*
Y00329*
X02103*
Y00327*
X02101*
Y00325*
Y00323*
X02099*
Y00321*
X02097*
Y00318*
X02092*
Y00316*
X02088*
Y00314*
X02084*
Y00312*
X0208*
Y0031*
X02073*
Y00308*
X02067*
Y00306*
X02062*
Y00303*
X02056*
Y00301*
X0205*
Y00299*
X02043*
Y00297*
X02037*
Y00295*
X02028*
Y00293*
X02022*
Y00291*
X02015*
Y00289*
X02007*
Y00286*
X02001*
Y00284*
X01992*
Y00282*
X01986*
Y0028*
X01977*
Y00278*
X01971*
Y00276*
X01962*
Y00274*
X01953*
Y00271*
X01947*
Y00269*
X01939*
Y00267*
X0193*
Y00265*
X01921*
Y00263*
X01913*
Y00261*
X01904*
Y00259*
X01896*
Y00256*
X01887*
Y00254*
X01879*
Y00252*
X0187*
Y0025*
X01859*
Y00248*
X01851*
Y00246*
X0184*
Y00244*
X01832*
Y00242*
X01821*
Y00239*
X0181*
Y00237*
X018*
Y00235*
X01789*
Y00233*
X01778*
Y00231*
X0177*
Y00229*
X01759*
Y00227*
X01753*
Y00224*
X01742*
Y00222*
X01725*
Y0022*
X01708*
Y00218*
X01693*
Y00216*
X01678*
Y00214*
X01665*
Y00212*
X01648*
Y00209*
X01631*
Y00207*
X01614*
Y00205*
X01592*
Y00203*
X01571*
Y00201*
X01522*
Y00199*
X01524*
Y00197*
Y00195*
X01526*
Y00192*
Y0019*
X01528*
Y00188*
Y00186*
X0153*
Y00184*
Y00182*
X01532*
Y0018*
Y00177*
X01535*
Y00175*
X01537*
Y00173*
Y00171*
X01539*
Y00169*
X01541*
Y00167*
Y00165*
X01543*
Y00162*
X01545*
Y0016*
Y00158*
X01547*
Y00156*
X0155*
Y00154*
Y00152*
X01552*
Y0015*
X01554*
Y00147*
X01556*
Y00145*
X01558*
Y00143*
Y00141*
X0156*
Y00139*
X01562*
Y00137*
X01565*
Y00135*
X01567*
Y00133*
Y0013*
X01569*
Y00128*
X01571*
Y00126*
X01573*
Y00124*
X01575*
Y00122*
X01577*
Y0012*
X0158*
Y00118*
X01582*
Y00115*
X01584*
Y00113*
X01586*
Y00111*
X01588*
Y00109*
X0159*
Y00107*
X01592*
Y00105*
X01594*
Y00103*
X01597*
Y001*
X01599*
Y00098*
X01601*
Y00096*
X01603*
Y00094*
X01605*
Y00092*
Y0009*
X01607*
Y00088*
X01609*
Y00086*
X01612*
Y00083*
Y00081*
X01614*
Y00079*
X01616*
Y00077*
Y00075*
X01618*
Y00073*
X0162*
Y00071*
Y00068*
X01622*
Y00066*
Y00064*
Y00062*
X01624*
Y0006*
Y00058*
Y00056*
Y00053*
Y00051*
Y00049*
Y00047*
Y00045*
Y00043*
Y00041*
X01622*
Y00038*
X0162*
Y00036*
X01614*
Y00034*
X01605*
Y00032*
X01597*
Y0003*
X01586*
Y00028*
X01575*
Y00026*
X01562*
Y00024*
X0155*
Y00021*
X01537*
Y00019*
X01522*
Y00017*
X01505*
Y00015*
X01483*
Y00013*
X01364*
Y00015*
X01338*
Y00017*
X01321*
Y00019*
X01306*
Y00021*
X01291*
Y00024*
X01278*
Y00026*
X01267*
Y00028*
X01255*
Y0003*
X01244*
Y00032*
X01233*
Y00034*
X01223*
Y00036*
X01218*
Y00038*
X01214*
Y00041*
X01212*
Y00043*
X0121*
Y00045*
Y00047*
Y00049*
Y00051*
Y00053*
Y00056*
Y00058*
Y0006*
Y00062*
X01212*
Y00064*
Y00066*
Y00068*
X01214*
Y00071*
Y00073*
X01216*
Y00075*
Y00077*
X01218*
Y00079*
X0122*
Y00081*
X01223*
Y00083*
Y00086*
X01225*
Y00088*
X01227*
Y0009*
X01229*
Y00092*
X01231*
Y00094*
X01233*
Y00096*
X01235*
Y00098*
X01238*
Y001*
Y00103*
X0124*
Y00105*
X01242*
Y00107*
X01244*
Y00109*
X01246*
Y00111*
X01248*
Y00113*
X0125*
Y00115*
X01253*
Y00118*
X01255*
Y0012*
X01257*
Y00122*
X01259*
Y00124*
X01261*
Y00126*
Y00128*
X01263*
Y0013*
X01265*
Y00133*
X01267*
Y00135*
X0127*
Y00137*
X01272*
Y00139*
X01274*
Y00141*
X01276*
Y00143*
X01278*
Y00145*
X0128*
Y00147*
Y0015*
X01282*
Y00152*
X01285*
Y00154*
X01287*
Y00156*
X01289*
Y00158*
Y0016*
X01291*
Y00162*
X01293*
Y00165*
X01295*
Y00167*
Y00169*
X01297*
Y00171*
X013*
Y00173*
X01302*
Y00175*
X01304*
Y00177*
Y0018*
X01306*
Y00182*
Y00184*
X01308*
Y00186*
X0131*
Y00188*
Y0019*
X01312*
Y00192*
Y00195*
X01315*
Y00197*
Y00199*
Y00201*
X01274*
Y00203*
X01244*
Y00205*
X01225*
Y00207*
X01206*
Y00209*
X01188*
Y00212*
X01173*
Y00214*
X01158*
Y00216*
X01144*
Y00218*
X01126*
Y0022*
X01111*
Y00222*
X01097*
Y00224*
X01086*
Y00227*
X01077*
Y00229*
X01069*
Y00231*
X01058*
Y00233*
X01047*
Y00235*
X01039*
Y00237*
X01028*
Y00239*
X01017*
Y00242*
X01009*
Y00244*
X00998*
Y00246*
X0099*
Y00248*
X00979*
Y0025*
X0097*
Y00252*
X00962*
Y00254*
X00951*
Y00256*
X00943*
Y00259*
X00934*
Y00261*
X00926*
Y00263*
X00917*
Y00265*
X00908*
Y00267*
X009*
Y00269*
X00891*
Y00271*
X00885*
Y00274*
X00876*
Y00276*
X00868*
Y00278*
X00861*
Y0028*
X00853*
Y00282*
X00846*
Y00284*
X00838*
Y00286*
X00832*
Y00289*
X00823*
Y00291*
X00817*
Y00293*
X0081*
Y00295*
X00802*
Y00297*
X00795*
Y00299*
X00789*
Y00301*
X00782*
Y00303*
X00776*
Y00306*
X00772*
Y00308*
X00765*
Y0031*
X00759*
Y00312*
X00755*
Y00314*
X0075*
Y00316*
X00746*
Y00318*
X00742*
Y00321*
X0074*
Y00323*
X00737*
Y00325*
Y00327*
X00735*
Y00329*
X00733*
Y00331*
Y00333*
X00731*
Y00336*
Y00338*
X00729*
Y0034*
Y00342*
Y00344*
X00731*
Y00346*
X00733*
Y00348*
X00737*
Y00351*
X00742*
Y00353*
X00746*
Y00355*
X0075*
Y00357*
X00755*
Y00359*
X00759*
Y00361*
X00763*
Y00363*
X00767*
Y00365*
X00772*
Y00368*
X00774*
Y0037*
X00778*
Y00372*
X00782*
Y00374*
X00787*
Y00376*
X00789*
Y00378*
X00793*
Y0038*
X00795*
Y00383*
X00799*
Y00385*
X00802*
Y00387*
X00804*
Y00389*
X00808*
Y00391*
X0081*
Y00393*
X00812*
Y00395*
X00817*
Y00398*
X00819*
Y004*
X00821*
Y00402*
X00825*
Y00404*
X00829*
Y00406*
X0084*
Y00404*
X00842*
Y00402*
X00844*
Y004*
X00846*
Y00402*
X00849*
Y00404*
X00851*
Y00406*
X00853*
Y00408*
X00855*
Y0041*
Y00412*
X00857*
Y00415*
X00855*
Y00417*
X00849*
Y00419*
X00842*
Y00421*
X0084*
Y00423*
X00838*
Y00425*
X00836*
Y00427*
Y0043*
Y00432*
X00834*
Y00434*
Y00436*
X00832*
Y00438*
Y0044*
X00827*
Y00442*
X00821*
Y00445*
X00817*
Y00447*
X00814*
Y00449*
Y00451*
Y00453*
Y00455*
Y00457*
Y0046*
Y00462*
X00812*
Y00464*
Y00466*
Y00468*
Y0047*
X0081*
Y00472*
Y00474*
X00806*
Y00477*
X00799*
Y00479*
X00797*
Y00481*
Y00483*
Y00485*
Y00487*
Y00489*
Y00492*
X00795*
Y00494*
Y00496*
Y00498*
X00791*
Y005*
X00787*
Y00502*
X00782*
Y00504*
Y00507*
Y00509*
Y00511*
Y00513*
Y00515*
Y00517*
Y00519*
Y00521*
X0078*
Y00524*
Y00526*
X00778*
Y00528*
X00774*
Y0053*
X00772*
Y00532*
X0077*
Y00534*
X00767*
Y00536*
Y00539*
X0077*
Y00541*
Y00543*
Y00545*
X00767*
Y00547*
X00765*
Y00549*
X00763*
Y00551*
X00761*
Y00554*
X00759*
Y00556*
X00757*
Y00558*
X00744*
Y0056*
X00731*
Y00562*
X00716*
Y00564*
X00703*
Y00566*
X00688*
Y00568*
X00673*
Y00571*
X00658*
Y00573*
X00648*
Y00575*
X00637*
Y00577*
X00631*
Y00579*
X00626*
Y00581*
X00622*
Y00583*
X0062*
Y00586*
X00618*
Y00588*
X00614*
Y0059*
X00611*
Y00592*
X00609*
Y00594*
X00607*
Y00596*
X00605*
Y00598*
Y00601*
X00603*
Y00603*
X00601*
Y00605*
X00599*
Y00607*
X00596*
Y00609*
Y00611*
X00594*
Y00613*
X00592*
Y00616*
Y00618*
X0059*
Y0062*
Y00622*
X00588*
Y00624*
X00614*
Y00622*
X00626*
Y0062*
X00641*
Y00618*
X00658*
Y00616*
X00673*
Y00613*
X0069*
Y00611*
X00705*
Y00609*
X00723*
Y00607*
X0074*
Y00605*
X00757*
Y00603*
X00774*
Y00601*
X00791*
Y00598*
X00808*
Y00596*
X00829*
Y00594*
X00851*
Y00592*
X00881*
Y0059*
X00904*
Y00588*
X00928*
Y00586*
X00953*
Y00583*
X00977*
Y00581*
X01005*
Y00579*
X01032*
Y00577*
X01056*
Y00575*
X01082*
Y00573*
X01103*
Y00571*
X01131*
Y00568*
X01156*
Y00566*
X01184*
Y00564*
X0121*
Y00562*
X01235*
Y0056*
X01261*
Y00558*
X01306*
Y0056*
X01308*
Y00562*
Y00564*
Y00566*
X0131*
Y00568*
Y00571*
Y00573*
X01312*
Y00575*
Y00577*
Y00579*
Y00581*
Y00583*
Y00586*
Y00588*
X01315*
Y0059*
Y00592*
Y00594*
Y00596*
Y00598*
Y00601*
Y00603*
X01312*
Y00605*
Y00607*
Y00609*
Y00611*
X0131*
Y00613*
Y00616*
X01308*
Y00618*
Y0062*
X01306*
Y00622*
Y00624*
X01304*
Y00626*
X01302*
Y00628*
X013*
Y0063*
X01297*
Y00633*
X01295*
Y00635*
X01293*
Y00637*
X01291*
Y00639*
X01289*
Y00641*
X01285*
Y00643*
X01282*
Y00645*
X01278*
Y00648*
X01276*
Y0065*
X01272*
Y00652*
X0127*
Y00654*
X01265*
Y00656*
X01263*
Y00658*
X01261*
Y0066*
X01257*
Y00663*
X01253*
Y00665*
X01248*
Y00667*
X01246*
Y00669*
X01242*
Y00671*
X01238*
Y00673*
X01233*
Y00675*
X01231*
Y00677*
X01227*
Y0068*
X01223*
Y00682*
X01218*
Y00684*
X01216*
Y00686*
X01212*
Y00688*
X01208*
Y0069*
X01206*
Y00692*
X01201*
Y00695*
X01197*
Y00697*
X01195*
Y00699*
X01191*
Y00701*
X01186*
Y00703*
X01184*
Y00705*
X0118*
Y00707*
X01176*
Y0071*
X01173*
Y00712*
X01169*
Y00714*
X01167*
Y00716*
X01163*
Y00718*
X01161*
Y0072*
X01156*
Y00722*
X01154*
Y00725*
X01152*
Y00727*
X01148*
Y00729*
X01146*
Y00731*
X01144*
Y00733*
X01139*
Y00735*
X01137*
Y00737*
X01135*
Y00739*
X01133*
Y00742*
X01131*
Y00744*
X01129*
Y00746*
X01126*
Y00748*
X01124*
Y0075*
X01122*
Y00752*
X0112*
Y00754*
X01118*
Y00757*
X01116*
Y00759*
Y00761*
X01114*
Y00763*
X01111*
Y00765*
X01109*
Y00767*
Y00769*
X01107*
Y00772*
X01105*
Y00774*
Y00776*
X01103*
Y00778*
X01101*
Y0078*
Y00782*
X01099*
Y00784*
X01097*
Y00786*
Y00789*
X01094*
Y00791*
Y00793*
X01092*
Y00795*
Y00797*
X0109*
Y00799*
X01088*
Y00801*
Y00804*
X01086*
Y00806*
Y00808*
X01084*
Y0081*
Y00812*
X01082*
Y00814*
Y00816*
X01079*
Y00819*
Y00821*
X01077*
Y00823*
Y00825*
X01075*
Y00827*
Y00829*
Y00831*
X01073*
Y00833*
Y00836*
X01071*
Y00838*
Y0084*
X01069*
Y00842*
Y00844*
X01067*
Y00846*
Y00848*
Y00851*
X01064*
Y00853*
Y00855*
X01062*
Y00857*
Y00859*
X0106*
Y00861*
Y00863*
Y00866*
X01058*
Y00868*
Y0087*
Y00872*
X01056*
Y00874*
Y00876*
X01054*
Y00878*
Y00881*
Y00883*
X01052*
Y00885*
Y00887*
Y00889*
X0105*
Y00891*
Y00893*
Y00895*
X01047*
Y00898*
Y009*
Y00902*
X01045*
Y00904*
Y00906*
Y00908*
X01043*
Y0091*
Y00913*
Y00915*
X01041*
Y00917*
Y00919*
Y00921*
X01039*
Y00923*
Y00925*
Y00928*
Y0093*
X01037*
Y00932*
Y00934*
Y00936*
X01035*
Y00938*
Y0094*
Y00942*
Y00945*
X01032*
Y00947*
Y00949*
Y00951*
Y00953*
Y00955*
X0103*
Y00957*
Y0096*
Y00962*
Y00964*
Y00966*
Y00968*
X01028*
Y0097*
Y00972*
Y00975*
Y00977*
Y00979*
Y00981*
Y00983*
Y00985*
X01026*
Y00987*
Y00989*
Y00992*
Y00994*
Y00996*
Y00998*
Y01*
Y01002*
Y01004*
Y01007*
Y01009*
Y01011*
Y01013*
Y01015*
X01028*
Y01017*
Y01019*
Y01022*
X0103*
Y01024*
X01035*
Y01022*
X01037*
Y01019*
X01039*
Y01017*
Y01015*
X01041*
Y01013*
Y01011*
Y01009*
X01043*
Y01007*
Y01004*
X01045*
Y01002*
Y01*
Y00998*
X01047*
Y00996*
Y00994*
Y00992*
Y00989*
X0105*
Y00987*
Y00985*
Y00983*
X01052*
Y00981*
Y00979*
Y00977*
X01054*
Y00975*
Y00972*
Y0097*
X01056*
Y00968*
Y00966*
Y00964*
X01058*
Y00962*
Y0096*
Y00957*
Y00955*
X0106*
Y00953*
Y00951*
X01062*
Y00949*
Y00947*
Y00945*
X01064*
Y00942*
Y0094*
Y00938*
X01067*
Y00936*
Y00934*
X01069*
Y00932*
X01071*
Y0093*
X01073*
Y00928*
X01075*
Y00925*
X01077*
Y00928*
X01079*
Y0093*
Y00932*
X01082*
Y00934*
Y00936*
Y00938*
Y0094*
Y00942*
Y00945*
Y00947*
Y00949*
Y00951*
Y00953*
Y00955*
Y00957*
Y0096*
Y00962*
Y00964*
Y00966*
Y00968*
Y0097*
Y00972*
Y00975*
Y00977*
Y00979*
Y00981*
X01079*
Y00983*
Y00985*
Y00987*
Y00989*
Y00992*
Y00994*
Y00996*
Y00998*
Y01*
Y01002*
Y01004*
Y01007*
Y01009*
Y01011*
Y01013*
Y01015*
Y01017*
Y01019*
Y01022*
Y01024*
Y01026*
Y01028*
Y0103*
Y01032*
Y01034*
Y01037*
Y01039*
Y01041*
Y01043*
Y01045*
Y01047*
Y01049*
Y01051*
Y01054*
Y01056*
Y01058*
Y0106*
Y01062*
Y01064*
Y01066*
Y01069*
Y01071*
Y01073*
Y01075*
Y01077*
Y01079*
Y01081*
Y01084*
Y01086*
Y01088*
Y0109*
Y01092*
Y01094*
Y01096*
Y01098*
Y01101*
Y01103*
Y01105*
Y01107*
Y01109*
X01082*
Y01111*
Y01113*
Y01116*
Y01118*
Y0112*
Y01122*
Y01124*
Y01126*
Y01128*
Y01131*
X01084*
Y01133*
Y01135*
Y01137*
Y01139*
Y01141*
Y01143*
X01086*
Y01146*
Y01148*
Y0115*
X01088*
Y01152*
Y01154*
Y01156*
X0109*
Y01158*
X01092*
Y0116*
Y01163*
X01097*
Y01165*
X01099*
Y01163*
G37*
G36*
X02518Y00663D02*
X0252D01*
Y0066*
Y00658*
Y00656*
X02518*
Y00654*
Y00652*
Y0065*
X02516*
Y00648*
X02513*
Y00645*
X02511*
Y00643*
Y00641*
X02509*
Y00639*
X02507*
Y00637*
X02505*
Y00635*
X02501*
Y00633*
X02498*
Y0063*
X02496*
Y00628*
X02492*
Y00626*
X0249*
Y00624*
X02486*
Y00622*
X02481*
Y0062*
X02475*
Y00618*
X02466*
Y00616*
X02458*
Y00613*
X02445*
Y00611*
X02434*
Y00609*
X02419*
Y00607*
X02407*
Y00605*
X02394*
Y00603*
X02377*
Y00601*
X02364*
Y00598*
X02351*
Y00596*
X02336*
Y00594*
X02321*
Y00592*
X02306*
Y0059*
X02291*
Y00588*
X02276*
Y00586*
X02261*
Y00583*
X02242*
Y00586*
Y00588*
X02244*
Y0059*
X02246*
Y00592*
X02248*
Y00594*
X02251*
Y00596*
X02253*
Y00598*
X02255*
Y00601*
Y00603*
X02257*
Y00605*
X02259*
Y00607*
Y00609*
X02261*
Y00611*
X02263*
Y00613*
X02266*
Y00616*
Y00618*
X02268*
Y0062*
X0227*
Y00622*
Y00624*
X02272*
Y00626*
X02274*
Y00628*
X02276*
Y0063*
X02283*
Y00633*
X02298*
Y00635*
X0231*
Y00637*
X02325*
Y00639*
X0234*
Y00641*
X02355*
Y00643*
X0237*
Y00645*
X02385*
Y00648*
X02398*
Y0065*
X02413*
Y00652*
X0243*
Y00654*
X02443*
Y00656*
X0246*
Y00658*
X02473*
Y0066*
X0249*
Y00663*
X02507*
Y00665*
X02518*
Y00663*
G37*
G36*
X00334D02*
X00351D01*
Y0066*
X00366*
Y00658*
X00381*
Y00656*
X00396*
Y00654*
X00408*
Y00652*
X00423*
Y0065*
X00438*
Y00648*
X00453*
Y00645*
X00468*
Y00643*
X00483*
Y00641*
X00496*
Y00639*
X00511*
Y00637*
X00526*
Y00635*
X00541*
Y00633*
X00556*
Y0063*
X00562*
Y00628*
X00564*
Y00626*
X00567*
Y00624*
Y00622*
X00569*
Y0062*
X00571*
Y00618*
X00573*
Y00616*
Y00613*
X00575*
Y00611*
X00577*
Y00609*
Y00607*
X00579*
Y00605*
X00581*
Y00603*
X00584*
Y00601*
Y00598*
X00586*
Y00596*
X00588*
Y00594*
X0059*
Y00592*
X00592*
Y0059*
X00594*
Y00588*
Y00586*
X00596*
Y00583*
X00577*
Y00586*
X00562*
Y00588*
X00547*
Y0059*
X00534*
Y00592*
X0052*
Y00594*
X00505*
Y00596*
X00492*
Y00598*
X00477*
Y00601*
X00462*
Y00603*
X00447*
Y00605*
X00434*
Y00607*
X00421*
Y00609*
X00406*
Y00611*
X00393*
Y00613*
X00381*
Y00616*
X0037*
Y00618*
X00361*
Y0062*
X00357*
Y00622*
X00353*
Y00624*
X00349*
Y00626*
X00346*
Y00628*
X00342*
Y0063*
X0034*
Y00633*
X00338*
Y00635*
X00334*
Y00637*
X00331*
Y00639*
X00329*
Y00641*
X00327*
Y00643*
X00325*
Y00645*
Y00648*
X00323*
Y0065*
X00321*
Y00652*
Y00654*
X00319*
Y00656*
Y00658*
Y0066*
Y00663*
X00321*
Y00665*
X00334*
Y00663*
G37*
G36*
X02505Y00598D02*
Y00596D01*
Y00594*
X02503*
Y00592*
X02501*
Y0059*
Y00588*
X02498*
Y00586*
X02496*
Y00583*
X02494*
Y00581*
X02492*
Y00579*
X0249*
Y00577*
X02486*
Y00575*
X02483*
Y00573*
X02479*
Y00571*
X02477*
Y00568*
X02473*
Y00566*
X02469*
Y00564*
X02462*
Y00562*
X02454*
Y0056*
X02439*
Y00558*
X02426*
Y00556*
X02411*
Y00554*
X02396*
Y00551*
X02381*
Y00549*
X02366*
Y00547*
X02351*
Y00545*
X02338*
Y00543*
X02323*
Y00541*
X02308*
Y00539*
X02293*
Y00536*
X0228*
Y00534*
X02266*
Y00532*
X02246*
Y0053*
X02233*
Y00528*
X02231*
Y0053*
X02229*
Y00528*
X02206*
Y0053*
Y00532*
Y00534*
X02208*
Y00536*
Y00539*
Y00541*
X0221*
Y00543*
Y00545*
Y00547*
X02212*
Y00549*
Y00551*
Y00554*
X02214*
Y00556*
Y00558*
X02216*
Y0056*
X02223*
Y00562*
X02238*
Y00564*
X02255*
Y00566*
X0227*
Y00568*
X02285*
Y00571*
X023*
Y00573*
X02313*
Y00575*
X02327*
Y00577*
X0234*
Y00579*
X02357*
Y00581*
X0237*
Y00583*
X02385*
Y00586*
X024*
Y00588*
X02415*
Y0059*
X0243*
Y00592*
X02445*
Y00594*
X0246*
Y00596*
X02475*
Y00598*
X02492*
Y00601*
X02505*
Y00598*
G37*
G36*
X00349D02*
X00364D01*
Y00596*
X00378*
Y00594*
X00396*
Y00592*
X00408*
Y0059*
X00423*
Y00588*
X00436*
Y00586*
X00453*
Y00583*
X00466*
Y00581*
X00481*
Y00579*
X00498*
Y00577*
X00511*
Y00575*
X00526*
Y00573*
X00541*
Y00571*
X00556*
Y00568*
X00569*
Y00566*
X00586*
Y00564*
X00599*
Y00562*
X00611*
Y0056*
X0062*
Y00558*
X00622*
Y00556*
X00624*
Y00554*
Y00551*
X00626*
Y00549*
Y00547*
Y00545*
X00629*
Y00543*
Y00541*
Y00539*
X00631*
Y00536*
Y00534*
Y00532*
X00633*
Y0053*
Y00528*
Y00526*
X00622*
Y00528*
X00607*
Y0053*
X00592*
Y00532*
X00577*
Y00534*
X0056*
Y00536*
X00545*
Y00539*
X00532*
Y00541*
X00517*
Y00543*
X005*
Y00545*
X00487*
Y00547*
X0047*
Y00549*
X00455*
Y00551*
X00445*
Y00554*
X0043*
Y00556*
X00413*
Y00558*
X00398*
Y0056*
X00385*
Y00562*
X00376*
Y00564*
X0037*
Y00566*
X00366*
Y00568*
X00361*
Y00571*
X00359*
Y00573*
X00355*
Y00575*
X00353*
Y00577*
X00349*
Y00579*
X00346*
Y00581*
X00344*
Y00583*
X00342*
Y00586*
X0034*
Y00588*
X00338*
Y0059*
X00336*
Y00592*
Y00594*
X00334*
Y00596*
X00331*
Y00598*
Y00601*
X00349*
Y00598*
G37*
G36*
X02193Y00554D02*
Y00551D01*
X02195*
Y00549*
Y00547*
Y00545*
X02193*
Y00543*
Y00541*
Y00539*
Y00536*
Y00534*
X02191*
Y00532*
Y0053*
X02189*
Y00528*
X02186*
Y00526*
X02184*
Y00524*
X0218*
Y00521*
X02174*
Y00519*
X02139*
Y00521*
X02127*
Y00524*
X02114*
Y00526*
X02105*
Y00528*
X02097*
Y0053*
X02092*
Y00532*
X0209*
Y00534*
Y00536*
Y00539*
Y00541*
X02092*
Y00543*
X02103*
Y00545*
X02116*
Y00547*
X02131*
Y00549*
X02148*
Y00551*
X02165*
Y00554*
X02184*
Y00556*
X02193*
Y00554*
G37*
G36*
X00654D02*
X00673D01*
Y00551*
X00688*
Y00549*
X00705*
Y00547*
X00723*
Y00545*
X00733*
Y00543*
X00744*
Y00541*
X00748*
Y00539*
Y00536*
Y00534*
Y00532*
X00746*
Y0053*
X00742*
Y00528*
X00733*
Y00526*
X00723*
Y00524*
X0071*
Y00521*
X00699*
Y00519*
X00665*
Y00521*
X00658*
Y00524*
X00654*
Y00526*
X00652*
Y00528*
X0065*
Y0053*
X00648*
Y00532*
X00646*
Y00534*
Y00536*
Y00539*
X00643*
Y00541*
Y00543*
Y00545*
Y00547*
Y00549*
Y00551*
Y00554*
X00646*
Y00556*
X00654*
Y00554*
G37*
G36*
X02483Y00549D02*
Y00547D01*
Y00545*
Y00543*
X02481*
Y00541*
X02479*
Y00539*
X02477*
Y00536*
X02475*
Y00534*
X02473*
Y00532*
X02471*
Y0053*
X02466*
Y00528*
X02464*
Y00526*
X0246*
Y00524*
X02456*
Y00521*
X02451*
Y00519*
X02447*
Y00517*
X02441*
Y00515*
X0243*
Y00513*
X02417*
Y00511*
X02404*
Y00509*
X02392*
Y00507*
X02377*
Y00504*
X02362*
Y00502*
X02349*
Y005*
X02334*
Y00498*
X02317*
Y00496*
X02302*
Y00494*
X02289*
Y00492*
X02272*
Y00489*
X02259*
Y00487*
X02242*
Y00485*
X02227*
Y00483*
X02212*
Y00481*
X02191*
Y00483*
Y00485*
X02193*
Y00487*
Y00489*
Y00492*
Y00494*
X02195*
Y00496*
Y00498*
Y005*
Y00502*
X02197*
Y00504*
Y00507*
Y00509*
Y00511*
X02199*
Y00513*
X02208*
Y00515*
X02227*
Y00517*
X0224*
Y00519*
X02255*
Y00521*
X02272*
Y00524*
X02283*
Y00526*
X02298*
Y00528*
X02313*
Y0053*
X02327*
Y00532*
X02345*
Y00534*
X02357*
Y00536*
X02374*
Y00539*
X02389*
Y00541*
X02404*
Y00543*
X02417*
Y00545*
X02434*
Y00547*
X02449*
Y00549*
X02466*
Y00551*
X02483*
Y00549*
G37*
G36*
X02084Y00517D02*
X02092D01*
Y00515*
X02101*
Y00513*
X02109*
Y00511*
X02139*
Y00509*
X02182*
Y00507*
Y00504*
Y00502*
X0218*
Y005*
Y00498*
X02178*
Y00496*
Y00494*
X02176*
Y00492*
X02174*
Y00489*
X02171*
Y00487*
X02167*
Y00485*
X02165*
Y00483*
X02161*
Y00481*
X02124*
Y00483*
X02114*
Y00485*
X02105*
Y00487*
X02101*
Y00489*
X02095*
Y00492*
X0209*
Y00494*
X02086*
Y00496*
X02082*
Y00498*
X0208*
Y005*
X02077*
Y00502*
X02075*
Y00504*
Y00507*
X02073*
Y00509*
Y00511*
X02071*
Y00513*
Y00515*
X02073*
Y00517*
X02075*
Y00519*
X02084*
Y00517*
G37*
G36*
X00763D02*
X00765D01*
Y00515*
Y00513*
Y00511*
Y00509*
Y00507*
X00763*
Y00504*
X00761*
Y00502*
Y005*
X00759*
Y00498*
X00755*
Y00496*
X00752*
Y00494*
X00748*
Y00492*
X00744*
Y00489*
X00737*
Y00487*
X00731*
Y00485*
X00725*
Y00483*
X00716*
Y00481*
X00678*
Y00483*
X00671*
Y00485*
X00669*
Y00487*
X00667*
Y00489*
X00665*
Y00492*
X00663*
Y00494*
X00661*
Y00496*
X00658*
Y00498*
Y005*
Y00502*
X00656*
Y00504*
Y00507*
X00658*
Y00509*
X00665*
Y00511*
X00729*
Y00513*
X00737*
Y00515*
X00746*
Y00517*
X00755*
Y00519*
X00763*
Y00517*
G37*
G36*
X00374Y00549D02*
X00387D01*
Y00547*
X00406*
Y00545*
X00419*
Y00543*
X00436*
Y00541*
X00451*
Y00539*
X00464*
Y00536*
X00479*
Y00534*
X00492*
Y00532*
X00509*
Y0053*
X00524*
Y00528*
X00537*
Y00526*
X00554*
Y00524*
X00569*
Y00521*
X00581*
Y00519*
X00599*
Y00517*
X00611*
Y00515*
X00631*
Y00513*
X00639*
Y00511*
Y00509*
X00641*
Y00507*
Y00504*
Y00502*
X00643*
Y005*
Y00498*
Y00496*
Y00494*
X00646*
Y00492*
Y00489*
Y00487*
Y00485*
Y00483*
Y00481*
X00626*
Y00483*
X00611*
Y00485*
X00594*
Y00487*
X00579*
Y00489*
X00567*
Y00492*
X00552*
Y00494*
X00534*
Y00496*
X00522*
Y00498*
X00505*
Y005*
X0049*
Y00502*
X00477*
Y00504*
X0046*
Y00507*
X00447*
Y00509*
X00432*
Y00511*
X00415*
Y00513*
X004*
Y00515*
X00396*
Y00517*
X00391*
Y00519*
X00387*
Y00521*
X00383*
Y00524*
X00378*
Y00526*
X00374*
Y00528*
X00372*
Y0053*
X00368*
Y00532*
X00366*
Y00534*
X00364*
Y00536*
X00361*
Y00539*
X00359*
Y00541*
X00357*
Y00543*
X00355*
Y00545*
Y00547*
Y00549*
X00353*
Y00551*
X00374*
Y00549*
G37*
G36*
X02069Y00485D02*
X02077D01*
Y00483*
X02084*
Y00481*
X0209*
Y00479*
X02097*
Y00477*
X02103*
Y00474*
X02109*
Y00472*
X02116*
Y0047*
X02137*
Y00468*
X02169*
Y00466*
X02174*
Y00464*
Y00462*
Y0046*
Y00457*
Y00455*
X02171*
Y00453*
Y00451*
X02169*
Y00449*
Y00447*
X02167*
Y00445*
X02163*
Y00442*
X02159*
Y0044*
X02133*
Y00442*
X02122*
Y00445*
X02116*
Y00447*
X02109*
Y00449*
X02103*
Y00451*
X02099*
Y00453*
X02092*
Y00455*
X02088*
Y00457*
X02084*
Y0046*
X0208*
Y00462*
X02075*
Y00464*
X02071*
Y00466*
X02069*
Y00468*
X02067*
Y0047*
X02062*
Y00472*
X0206*
Y00474*
Y00477*
X02058*
Y00479*
Y00481*
Y00483*
Y00485*
Y00487*
X02069*
Y00485*
G37*
G36*
X00778D02*
X0078D01*
Y00483*
Y00481*
Y00479*
Y00477*
X00778*
Y00474*
Y00472*
X00776*
Y0047*
X00772*
Y00468*
X0077*
Y00466*
X00765*
Y00464*
X00763*
Y00462*
X00759*
Y0046*
X00755*
Y00457*
X0075*
Y00455*
X00744*
Y00453*
X0074*
Y00451*
X00735*
Y00449*
X00729*
Y00447*
X00725*
Y00445*
X00716*
Y00442*
X00708*
Y0044*
X0068*
Y00442*
X00676*
Y00445*
X00671*
Y00447*
X00669*
Y00449*
X00667*
Y00451*
Y00453*
X00665*
Y00455*
Y00457*
Y0046*
Y00462*
Y00464*
Y00466*
Y00468*
X00708*
Y0047*
X00723*
Y00472*
X00729*
Y00474*
X00735*
Y00477*
X00742*
Y00479*
X00748*
Y00481*
X00752*
Y00483*
X00761*
Y00485*
X0077*
Y00487*
X00778*
Y00485*
G37*
G36*
X02458Y005D02*
Y00498D01*
Y00496*
X02456*
Y00494*
Y00492*
X02454*
Y00489*
X02451*
Y00487*
X02449*
Y00485*
X02445*
Y00483*
X02443*
Y00481*
X02441*
Y00479*
X02436*
Y00477*
X02434*
Y00474*
X0243*
Y00472*
X02426*
Y0047*
X02424*
Y00468*
X02419*
Y00466*
X02415*
Y00464*
X02402*
Y00462*
X02389*
Y0046*
X02377*
Y00457*
X02364*
Y00455*
X02351*
Y00453*
X02338*
Y00451*
X02323*
Y00449*
X02308*
Y00447*
X02293*
Y00445*
X02278*
Y00442*
X02263*
Y0044*
X02248*
Y00438*
X02233*
Y00436*
X02221*
Y00434*
X02206*
Y00432*
X02193*
Y0043*
X02174*
Y00432*
Y00434*
X02176*
Y00436*
Y00438*
X02178*
Y0044*
Y00442*
X0218*
Y00445*
Y00447*
X02182*
Y00449*
Y00451*
X02184*
Y00453*
Y00455*
X02186*
Y00457*
Y0046*
X02189*
Y00462*
X02191*
Y00464*
X02193*
Y00466*
X02204*
Y00468*
X02216*
Y0047*
X02231*
Y00472*
X02248*
Y00474*
X02261*
Y00477*
X02276*
Y00479*
X02291*
Y00481*
X02306*
Y00483*
X02321*
Y00485*
X02336*
Y00487*
X02351*
Y00489*
X02366*
Y00492*
X02381*
Y00494*
X02396*
Y00496*
X02411*
Y00498*
X02426*
Y005*
X02441*
Y00502*
X02458*
Y005*
G37*
G36*
X00393D02*
X00413D01*
Y00498*
X00428*
Y00496*
X00443*
Y00494*
X00458*
Y00492*
X00472*
Y00489*
X00485*
Y00487*
X005*
Y00485*
X00517*
Y00483*
X0053*
Y00481*
X00545*
Y00479*
X00562*
Y00477*
X00575*
Y00474*
X0059*
Y00472*
X00605*
Y0047*
X0062*
Y00468*
X00635*
Y00466*
X00646*
Y00464*
X00648*
Y00462*
X0065*
Y0046*
Y00457*
X00652*
Y00455*
Y00453*
X00654*
Y00451*
Y00449*
X00656*
Y00447*
Y00445*
X00658*
Y00442*
X00661*
Y0044*
Y00438*
X00663*
Y00436*
Y00434*
X00665*
Y00432*
Y0043*
X00648*
Y00432*
X00633*
Y00434*
X00618*
Y00436*
X00605*
Y00438*
X0059*
Y0044*
X00575*
Y00442*
X00558*
Y00445*
X00545*
Y00447*
X0053*
Y00449*
X00515*
Y00451*
X005*
Y00453*
X00487*
Y00455*
X00475*
Y00457*
X0046*
Y0046*
X00447*
Y00462*
X00436*
Y00464*
X00425*
Y00466*
X00419*
Y00468*
X00415*
Y0047*
X00411*
Y00472*
X00406*
Y00474*
X00404*
Y00477*
X004*
Y00479*
X00398*
Y00481*
X00393*
Y00483*
X00391*
Y00485*
X00389*
Y00487*
X00387*
Y00489*
X00385*
Y00492*
X00383*
Y00494*
Y00496*
X00381*
Y00498*
Y005*
Y00502*
X00393*
Y005*
G37*
G36*
X0205Y00457D02*
X02054D01*
Y00455*
X0206*
Y00453*
X02065*
Y00451*
X02071*
Y00449*
X02075*
Y00447*
X0208*
Y00445*
X02084*
Y00442*
X02088*
Y0044*
X02092*
Y00438*
X02099*
Y00436*
X02103*
Y00434*
X02109*
Y00432*
X02118*
Y0043*
X02129*
Y00427*
X0215*
Y00425*
X02157*
Y00423*
Y00421*
Y00419*
Y00417*
Y00415*
Y00412*
X02154*
Y0041*
Y00408*
X02152*
Y00406*
X0215*
Y00404*
X02144*
Y00402*
X0212*
Y00404*
X02114*
Y00406*
X02107*
Y00408*
X02101*
Y0041*
X02097*
Y00412*
X02092*
Y00415*
X02088*
Y00417*
X02084*
Y00419*
X0208*
Y00421*
X02075*
Y00423*
X02071*
Y00425*
X02067*
Y00427*
X02065*
Y0043*
X0206*
Y00432*
X02056*
Y00434*
X02054*
Y00436*
X02052*
Y00438*
X02048*
Y0044*
X02045*
Y00442*
X02043*
Y00445*
X02041*
Y00447*
Y00449*
X02039*
Y00451*
Y00453*
Y00455*
Y00457*
Y0046*
X0205*
Y00457*
G37*
G36*
X00799D02*
Y00455D01*
Y00453*
Y00451*
Y00449*
X00797*
Y00447*
X00795*
Y00445*
X00793*
Y00442*
X00791*
Y0044*
X00789*
Y00438*
X00787*
Y00436*
X00785*
Y00434*
X00782*
Y00432*
X00778*
Y0043*
X00774*
Y00427*
X00772*
Y00425*
X00767*
Y00423*
X00763*
Y00421*
X00759*
Y00419*
X00755*
Y00417*
X0075*
Y00415*
X00746*
Y00412*
X00742*
Y0041*
X00735*
Y00408*
X00731*
Y00406*
X00727*
Y00404*
X00718*
Y00402*
X00697*
Y00404*
X0069*
Y00406*
X00686*
Y00408*
X00684*
Y0041*
Y00412*
Y00415*
X00682*
Y00417*
Y00419*
Y00421*
Y00423*
Y00425*
X00686*
Y00427*
X00712*
Y0043*
X0072*
Y00432*
X00727*
Y00434*
X00735*
Y00436*
X0074*
Y00438*
X00744*
Y0044*
X0075*
Y00442*
X00755*
Y00445*
X00759*
Y00447*
X00763*
Y00449*
X00767*
Y00451*
X00774*
Y00453*
X00778*
Y00455*
X00785*
Y00457*
X00791*
Y0046*
X00799*
Y00457*
G37*
G36*
X02407Y00445D02*
X02404D01*
Y00442*
X02402*
Y0044*
X024*
Y00438*
Y00436*
X02398*
Y00434*
X02396*
Y00432*
X02394*
Y0043*
X02392*
Y00427*
X02389*
Y00425*
X02385*
Y00423*
X02383*
Y00421*
X02381*
Y00419*
X02377*
Y00417*
X02374*
Y00415*
X0237*
Y00412*
X02364*
Y0041*
X02357*
Y00408*
X02347*
Y00406*
X02334*
Y00404*
X02319*
Y00402*
X02306*
Y004*
X02291*
Y00398*
X02278*
Y00395*
X02263*
Y00393*
X02248*
Y00391*
X02233*
Y00389*
X02221*
Y00387*
X02206*
Y00385*
X02191*
Y00383*
X02174*
Y0038*
X02154*
Y00383*
Y00385*
Y00387*
X02157*
Y00389*
Y00391*
X02159*
Y00393*
X02161*
Y00395*
Y00398*
X02163*
Y004*
Y00402*
X02165*
Y00404*
X02167*
Y00406*
Y00408*
X02169*
Y0041*
X02171*
Y00412*
X02174*
Y00415*
X02184*
Y00417*
X02199*
Y00419*
X02212*
Y00421*
X02227*
Y00423*
X02242*
Y00425*
X02259*
Y00427*
X02276*
Y0043*
X02289*
Y00432*
X02302*
Y00434*
X02315*
Y00436*
X0233*
Y00438*
X02345*
Y0044*
X02364*
Y00442*
X02377*
Y00445*
X02398*
Y00447*
X02407*
Y00445*
G37*
G36*
X0044D02*
X00458D01*
Y00442*
X00475*
Y0044*
X0049*
Y00438*
X00505*
Y00436*
X00522*
Y00434*
X00537*
Y00432*
X00549*
Y0043*
X00567*
Y00427*
X00584*
Y00425*
X00596*
Y00423*
X00611*
Y00421*
X00624*
Y00419*
X00637*
Y00417*
X00652*
Y00415*
X00665*
Y00412*
X00667*
Y0041*
X00669*
Y00408*
Y00406*
X00671*
Y00404*
X00673*
Y00402*
Y004*
X00676*
Y00398*
X00678*
Y00395*
Y00393*
X0068*
Y00391*
X00682*
Y00389*
Y00387*
X00684*
Y00385*
Y00383*
Y0038*
X00665*
Y00383*
X00652*
Y00385*
X00635*
Y00387*
X0062*
Y00389*
X00607*
Y00391*
X0059*
Y00393*
X00577*
Y00395*
X00562*
Y00398*
X00547*
Y004*
X00532*
Y00402*
X00517*
Y00404*
X00505*
Y00406*
X00494*
Y00408*
X00483*
Y0041*
X00475*
Y00412*
X0047*
Y00415*
X00466*
Y00417*
X00462*
Y00419*
X00458*
Y00421*
X00455*
Y00423*
X00453*
Y00425*
X00451*
Y00427*
X00447*
Y0043*
X00445*
Y00432*
X00443*
Y00434*
X0044*
Y00436*
X00438*
Y00438*
X00436*
Y0044*
X00434*
Y00442*
X00432*
Y00445*
X0043*
Y00447*
X0044*
Y00445*
G37*
G36*
X02028Y00427D02*
X02035D01*
Y00425*
X02039*
Y00423*
X02043*
Y00421*
X02045*
Y00419*
X0205*
Y00417*
X02054*
Y00415*
X02056*
Y00412*
X0206*
Y0041*
X02065*
Y00408*
X02067*
Y00406*
X02073*
Y00404*
X02077*
Y00402*
X02082*
Y004*
X02088*
Y00398*
X02095*
Y00395*
X02101*
Y00393*
X02109*
Y00391*
X02116*
Y00389*
X02124*
Y00387*
X02133*
Y00385*
X02137*
Y00383*
Y0038*
Y00378*
Y00376*
Y00374*
X02135*
Y00372*
Y0037*
Y00368*
X02133*
Y00365*
X02131*
Y00363*
X02107*
Y00365*
X02101*
Y00368*
X02097*
Y0037*
X02092*
Y00372*
X02088*
Y00374*
X02084*
Y00376*
X0208*
Y00378*
X02075*
Y0038*
X02071*
Y00383*
X02067*
Y00385*
X02065*
Y00387*
X0206*
Y00389*
X02056*
Y00391*
X02052*
Y00393*
X0205*
Y00395*
X02045*
Y00398*
X02043*
Y004*
X02039*
Y00402*
X02037*
Y00404*
X02035*
Y00406*
X0203*
Y00408*
X02028*
Y0041*
X02026*
Y00412*
X02024*
Y00415*
X02022*
Y00417*
X0202*
Y00419*
Y00421*
X02018*
Y00423*
Y00425*
Y00427*
X0202*
Y0043*
X02028*
Y00427*
G37*
G36*
X00819D02*
X00821D01*
Y00425*
Y00423*
X00819*
Y00421*
Y00419*
X00817*
Y00417*
Y00415*
X00814*
Y00412*
X00812*
Y0041*
X0081*
Y00408*
X00806*
Y00406*
X00804*
Y00404*
X00802*
Y00402*
X00797*
Y004*
X00795*
Y00398*
X00793*
Y00395*
X00789*
Y00393*
X00785*
Y00391*
X00782*
Y00389*
X00778*
Y00387*
X00774*
Y00385*
X00772*
Y00383*
X00767*
Y0038*
X00763*
Y00378*
X00759*
Y00376*
X00755*
Y00374*
X0075*
Y00372*
X00746*
Y0037*
X00742*
Y00368*
X00737*
Y00365*
X00735*
Y00363*
X00729*
Y00361*
X00716*
Y00363*
X0071*
Y00365*
X00705*
Y00368*
X00703*
Y0037*
Y00372*
X00701*
Y00374*
Y00376*
Y00378*
Y0038*
Y00383*
Y00385*
X00705*
Y00387*
X00716*
Y00389*
X00723*
Y00391*
X00731*
Y00393*
X00737*
Y00395*
X00744*
Y00398*
X0075*
Y004*
X00757*
Y00402*
X00761*
Y00404*
X00765*
Y00406*
X0077*
Y00408*
X00774*
Y0041*
X00778*
Y00412*
X00782*
Y00415*
X00785*
Y00417*
X00789*
Y00419*
X00793*
Y00421*
X00795*
Y00423*
X00799*
Y00425*
X00804*
Y00427*
X0081*
Y0043*
X00819*
Y00427*
G37*
G36*
X02342Y00389D02*
Y00387D01*
X0234*
Y00385*
X02338*
Y00383*
X02336*
Y0038*
X02332*
Y00378*
X0233*
Y00376*
X02327*
Y00374*
X02325*
Y00372*
X02321*
Y0037*
X02319*
Y00368*
X02315*
Y00365*
X02313*
Y00363*
X02308*
Y00361*
X02304*
Y00359*
X023*
Y00357*
X02295*
Y00355*
X02291*
Y00353*
X02287*
Y00351*
X02283*
Y00348*
X02276*
Y00346*
X02272*
Y00344*
X02266*
Y00342*
X02259*
Y0034*
X02253*
Y00338*
X02246*
Y00336*
X02238*
Y00333*
X02229*
Y00331*
X02218*
Y00329*
X02208*
Y00327*
X02197*
Y00325*
X02186*
Y00323*
X02174*
Y00321*
X02159*
Y00318*
X02144*
Y00316*
X02118*
Y00318*
Y00321*
Y00323*
Y00325*
X0212*
Y00327*
Y00329*
Y00331*
X02122*
Y00333*
Y00336*
X02124*
Y00338*
Y0034*
X02127*
Y00342*
X02129*
Y00344*
Y00346*
X02131*
Y00348*
X02133*
Y00351*
X02135*
Y00353*
Y00355*
X02137*
Y00357*
X02139*
Y00359*
X02142*
Y00361*
X02146*
Y00363*
X02154*
Y00365*
X02165*
Y00368*
X0218*
Y0037*
X02195*
Y00372*
X02208*
Y00374*
X02223*
Y00376*
X02238*
Y00378*
X02255*
Y0038*
X02268*
Y00383*
X02283*
Y00385*
X023*
Y00387*
X02315*
Y00389*
X02332*
Y00391*
X02342*
Y00389*
G37*
G36*
X00507D02*
X00524D01*
Y00387*
X00537*
Y00385*
X00554*
Y00383*
X00567*
Y0038*
X00586*
Y00378*
X00601*
Y00376*
X00614*
Y00374*
X00629*
Y00372*
X00643*
Y0037*
X00661*
Y00368*
X00676*
Y00365*
X00686*
Y00363*
X00693*
Y00361*
X00695*
Y00359*
X00699*
Y00357*
X00701*
Y00355*
X00703*
Y00353*
Y00351*
X00705*
Y00348*
X00708*
Y00346*
X0071*
Y00344*
Y00342*
X00712*
Y0034*
Y00338*
X00714*
Y00336*
Y00333*
X00716*
Y00331*
Y00329*
X00718*
Y00327*
Y00325*
X0072*
Y00323*
Y00321*
Y00318*
Y00316*
X00693*
Y00318*
X0068*
Y00321*
X00665*
Y00323*
X00654*
Y00325*
X00641*
Y00327*
X00631*
Y00329*
X0062*
Y00331*
X00609*
Y00333*
X00601*
Y00336*
X00592*
Y00338*
X00584*
Y0034*
X00577*
Y00342*
X00571*
Y00344*
X00567*
Y00346*
X00562*
Y00348*
X00556*
Y00351*
X00552*
Y00353*
X00547*
Y00355*
X00543*
Y00357*
X00539*
Y00359*
X00534*
Y00361*
X0053*
Y00363*
X00526*
Y00365*
X00524*
Y00368*
X0052*
Y0037*
X00517*
Y00372*
X00513*
Y00374*
X00511*
Y00376*
X00509*
Y00378*
X00505*
Y0038*
X00502*
Y00383*
X005*
Y00385*
X00498*
Y00387*
X00496*
Y00389*
X00494*
Y00391*
X00507*
Y00389*
G37*
%LNpod-2*%
%LPC*%
G36*
X015Y00498D02*
X01456D01*
Y00496*
X01453*
Y00494*
Y00492*
Y00489*
Y00487*
Y00485*
Y00483*
Y00481*
Y00479*
Y00477*
Y00474*
Y00472*
Y0047*
Y00468*
Y00466*
Y00464*
Y00462*
Y0046*
Y00457*
Y00455*
Y00453*
Y00451*
Y00449*
Y00447*
X01451*
Y00445*
Y00442*
Y0044*
Y00438*
Y00436*
Y00434*
X01394*
Y00436*
Y00438*
Y0044*
Y00442*
X01391*
Y00445*
Y00447*
Y00449*
Y00451*
Y00453*
Y00455*
Y00457*
Y0046*
Y00462*
Y00464*
Y00466*
Y00468*
Y0047*
Y00472*
Y00474*
Y00477*
Y00479*
Y00481*
Y00483*
Y00485*
Y00487*
Y00489*
Y00492*
Y00494*
Y00496*
X01389*
Y00498*
X01342*
Y00496*
Y00494*
Y00492*
Y00489*
Y00487*
Y00485*
Y00483*
Y00481*
Y00479*
Y00477*
Y00474*
Y00472*
Y0047*
Y00468*
Y00466*
Y00464*
Y00462*
Y0046*
Y00457*
Y00455*
Y00453*
Y00451*
Y00449*
Y00447*
Y00445*
Y00442*
Y0044*
Y00438*
Y00436*
Y00434*
Y00432*
Y0043*
Y00427*
Y00425*
Y00423*
Y00421*
Y00419*
Y00417*
Y00415*
Y00412*
Y0041*
Y00408*
Y00406*
Y00404*
Y00402*
Y004*
Y00398*
Y00395*
Y00393*
Y00391*
Y00389*
Y00387*
Y00385*
Y00383*
Y0038*
Y00378*
Y00376*
Y00374*
Y00372*
Y0037*
Y00368*
Y00365*
Y00363*
Y00361*
Y00359*
Y00357*
Y00355*
Y00353*
Y00351*
Y00348*
Y00346*
Y00344*
Y00342*
Y0034*
Y00338*
Y00336*
Y00333*
Y00331*
Y00329*
Y00327*
Y00325*
Y00323*
Y00321*
Y00318*
Y00316*
Y00314*
Y00312*
X01389*
Y00314*
X01391*
Y00316*
Y00318*
Y00321*
Y00323*
Y00325*
Y00327*
Y00329*
Y00331*
Y00333*
Y00336*
Y00338*
Y0034*
Y00342*
Y00344*
Y00346*
Y00348*
Y00351*
Y00353*
Y00355*
Y00357*
Y00359*
Y00361*
Y00363*
Y00365*
Y00368*
Y0037*
Y00372*
Y00374*
Y00376*
Y00378*
Y0038*
Y00383*
X01394*
Y00385*
Y00387*
Y00389*
Y00391*
Y00393*
X01451*
Y00391*
Y00389*
Y00387*
Y00385*
Y00383*
Y0038*
Y00378*
X01453*
Y00376*
Y00374*
Y00372*
Y0037*
Y00368*
Y00365*
Y00363*
Y00361*
Y00359*
Y00357*
Y00355*
Y00353*
Y00351*
Y00348*
Y00346*
Y00344*
Y00342*
Y0034*
Y00338*
Y00336*
Y00333*
Y00331*
Y00329*
Y00327*
Y00325*
Y00323*
Y00321*
Y00318*
Y00316*
Y00314*
X01456*
Y00312*
X01473*
Y0031*
X01492*
Y00312*
X01498*
Y00314*
X01503*
Y00316*
Y00318*
Y00321*
Y00323*
Y00325*
Y00327*
Y00329*
Y00331*
Y00333*
Y00336*
Y00338*
Y0034*
Y00342*
Y00344*
Y00346*
Y00348*
Y00351*
Y00353*
Y00355*
Y00357*
Y00359*
Y00361*
Y00363*
Y00365*
Y00368*
Y0037*
Y00372*
Y00374*
Y00376*
Y00378*
Y0038*
Y00383*
Y00385*
Y00387*
Y00389*
Y00391*
Y00393*
Y00395*
Y00398*
Y004*
Y00402*
Y00404*
Y00406*
Y00408*
Y0041*
Y00412*
Y00415*
Y00417*
Y00419*
Y00421*
Y00423*
Y00425*
Y00427*
Y0043*
Y00432*
Y00434*
Y00436*
Y00438*
Y0044*
Y00442*
Y00445*
Y00447*
Y00449*
Y00451*
Y00453*
Y00455*
Y00457*
Y0046*
Y00462*
Y00464*
Y00466*
Y00468*
Y0047*
Y00472*
Y00474*
Y00477*
Y00479*
Y00481*
Y00483*
Y00485*
Y00487*
Y00489*
Y00492*
Y00494*
Y00496*
X015*
Y00498*
G37*
G36*
X01693D02*
X01648D01*
Y00496*
Y00494*
Y00492*
Y00489*
Y00487*
Y00485*
Y00483*
Y00481*
Y00479*
Y00477*
Y00474*
Y00472*
Y0047*
Y00468*
Y00466*
Y00464*
Y00462*
Y0046*
Y00457*
Y00455*
Y00453*
Y00451*
Y00449*
Y00447*
Y00445*
Y00442*
Y0044*
Y00438*
Y00436*
Y00434*
Y00432*
Y0043*
Y00427*
Y00425*
Y00423*
Y00421*
X01646*
Y00419*
Y00417*
Y00415*
Y00412*
Y0041*
Y00408*
Y00406*
Y00404*
Y00402*
Y004*
Y00398*
Y00395*
Y00393*
Y00391*
Y00389*
Y00387*
Y00385*
Y00383*
Y0038*
X01644*
Y00378*
Y00376*
Y00374*
Y00372*
Y0037*
Y00368*
Y00365*
Y00363*
Y00361*
Y00359*
Y00357*
X01641*
Y00355*
Y00353*
Y00351*
X01639*
Y00348*
X01637*
Y00346*
X01635*
Y00344*
X01631*
Y00342*
X01605*
Y00344*
X01601*
Y00346*
X01599*
Y00348*
X01597*
Y00351*
X01594*
Y00353*
X01592*
Y00355*
Y00357*
Y00359*
X0159*
Y00361*
Y00363*
Y00365*
Y00368*
Y0037*
Y00372*
Y00374*
Y00376*
Y00378*
Y0038*
Y00383*
Y00385*
Y00387*
Y00389*
Y00391*
Y00393*
X01588*
Y00395*
Y00398*
Y004*
Y00402*
Y00404*
Y00406*
Y00408*
Y0041*
Y00412*
Y00415*
Y00417*
Y00419*
Y00421*
Y00423*
Y00425*
Y00427*
Y0043*
Y00432*
Y00434*
Y00436*
Y00438*
Y0044*
Y00442*
Y00445*
Y00447*
Y00449*
Y00451*
Y00453*
Y00455*
Y00457*
Y0046*
Y00462*
Y00464*
Y00466*
Y00468*
Y0047*
Y00472*
Y00474*
Y00477*
Y00479*
X01586*
Y00481*
Y00483*
Y00485*
Y00487*
Y00489*
Y00492*
Y00494*
Y00496*
Y00498*
X01539*
Y00496*
Y00494*
Y00492*
Y00489*
Y00487*
Y00485*
Y00483*
Y00481*
Y00479*
Y00477*
Y00474*
Y00472*
Y0047*
Y00468*
Y00466*
Y00464*
Y00462*
Y0046*
Y00457*
Y00455*
Y00453*
Y00451*
Y00449*
Y00447*
Y00445*
Y00442*
Y0044*
Y00438*
Y00436*
Y00434*
Y00432*
Y0043*
Y00427*
Y00425*
Y00423*
Y00421*
Y00419*
Y00417*
Y00415*
Y00412*
Y0041*
Y00408*
Y00406*
Y00404*
Y00402*
X01541*
Y004*
Y00398*
Y00395*
Y00393*
Y00391*
Y00389*
Y00387*
Y00385*
Y00383*
Y0038*
Y00378*
Y00376*
Y00374*
Y00372*
Y0037*
Y00368*
Y00365*
Y00363*
Y00361*
Y00359*
Y00357*
Y00355*
Y00353*
X01543*
Y00351*
Y00348*
X01545*
Y00346*
Y00344*
X01547*
Y00342*
Y0034*
X0155*
Y00338*
Y00336*
X01552*
Y00333*
X01554*
Y00331*
X01556*
Y00329*
Y00327*
X01558*
Y00325*
X0156*
Y00323*
X01562*
Y00321*
X01567*
Y00318*
X01569*
Y00316*
X01573*
Y00314*
X01577*
Y00312*
X01584*
Y0031*
X0159*
Y00308*
X01603*
Y00306*
X01631*
Y00308*
X01646*
Y0031*
X0165*
Y00312*
X01656*
Y00314*
X01661*
Y00316*
X01665*
Y00318*
X01667*
Y00321*
X01671*
Y00323*
X01674*
Y00325*
X01676*
Y00327*
X01678*
Y00329*
X0168*
Y00331*
X01682*
Y00333*
X01684*
Y00336*
Y00338*
X01686*
Y0034*
X01688*
Y00342*
Y00344*
X01691*
Y00346*
Y00348*
Y00351*
Y00353*
X01693*
Y00355*
Y00357*
Y00359*
Y00361*
Y00363*
Y00365*
Y00368*
Y0037*
Y00372*
Y00374*
Y00376*
Y00378*
Y0038*
Y00383*
Y00385*
Y00387*
Y00389*
Y00391*
X01695*
Y00393*
Y00395*
Y00398*
Y004*
Y00402*
Y00404*
Y00406*
Y00408*
Y0041*
Y00412*
Y00415*
Y00417*
Y00419*
Y00421*
Y00423*
Y00425*
Y00427*
Y0043*
Y00432*
Y00434*
Y00436*
Y00438*
Y0044*
Y00442*
Y00445*
Y00447*
Y00449*
Y00451*
Y00453*
Y00455*
Y00457*
Y0046*
Y00462*
Y00464*
Y00466*
Y00468*
Y0047*
Y00472*
Y00474*
Y00477*
Y00479*
Y00481*
Y00483*
Y00485*
Y00487*
Y00489*
Y00492*
Y00494*
Y00496*
X01693*
Y00498*
G37*
G36*
X013D02*
X01289D01*
Y00496*
X01197*
Y00494*
X01191*
Y00492*
X01186*
Y00489*
X01184*
Y00487*
X0118*
Y00485*
X01178*
Y00483*
X01176*
Y00481*
X01173*
Y00479*
X01171*
Y00477*
X01169*
Y00474*
X01167*
Y00472*
Y0047*
X01165*
Y00468*
Y00466*
X01163*
Y00464*
X01161*
Y00462*
Y0046*
Y00457*
X01158*
Y00455*
Y00453*
Y00451*
Y00449*
Y00447*
Y00445*
Y00442*
Y0044*
Y00438*
Y00436*
Y00434*
Y00432*
Y0043*
Y00427*
Y00425*
Y00423*
X01161*
Y00421*
Y00419*
Y00417*
X01163*
Y00415*
Y00412*
X01165*
Y0041*
Y00408*
Y00406*
X01167*
Y00404*
X01169*
Y00402*
Y004*
X01171*
Y00398*
X01173*
Y00395*
X01176*
Y00393*
X01178*
Y00391*
X0118*
Y00389*
X01184*
Y00387*
X01186*
Y00385*
X01191*
Y00383*
X01195*
Y0038*
X01201*
Y00378*
X0121*
Y00376*
X01218*
Y00374*
X01238*
Y00372*
X01253*
Y0037*
Y00368*
Y00365*
Y00363*
Y00361*
Y00359*
Y00357*
Y00355*
Y00353*
Y00351*
Y00348*
X01255*
Y00346*
Y00344*
Y00342*
Y0034*
Y00338*
Y00336*
Y00333*
Y00331*
Y00329*
Y00327*
Y00325*
Y00323*
Y00321*
Y00318*
Y00316*
Y00314*
X01257*
Y00312*
X01272*
Y0031*
X01293*
Y00312*
X013*
Y00314*
X01302*
Y00316*
X013*
Y00318*
X01302*
Y00321*
Y00323*
Y00325*
Y00327*
Y00329*
Y00331*
X01304*
Y00333*
Y00336*
Y00338*
Y0034*
Y00342*
Y00344*
Y00346*
Y00348*
Y00351*
Y00353*
Y00355*
Y00357*
Y00359*
Y00361*
Y00363*
Y00365*
Y00368*
Y0037*
Y00372*
Y00374*
Y00376*
Y00378*
Y0038*
X01302*
Y00383*
Y00385*
Y00387*
Y00389*
Y00391*
Y00393*
Y00395*
Y00398*
Y004*
Y00402*
Y00404*
Y00406*
Y00408*
Y0041*
Y00412*
Y00415*
Y00417*
Y00419*
Y00421*
Y00423*
Y00425*
Y00427*
Y0043*
Y00432*
Y00434*
Y00436*
Y00438*
Y0044*
Y00442*
Y00445*
Y00447*
Y00449*
Y00451*
Y00453*
Y00455*
Y00457*
Y0046*
Y00462*
Y00464*
Y00466*
Y00468*
Y0047*
Y00472*
Y00474*
Y00477*
Y00479*
Y00481*
Y00483*
Y00485*
Y00487*
Y00489*
Y00492*
Y00494*
Y00496*
X013*
Y00498*
G37*
G36*
X01084D02*
X01043D01*
Y00496*
X01039*
Y00494*
X01037*
Y00492*
Y00489*
Y00487*
X01035*
Y00485*
Y00483*
X01032*
Y00481*
Y00479*
Y00477*
X0103*
Y00474*
Y00472*
X01028*
Y0047*
Y00468*
Y00466*
X01026*
Y00464*
Y00462*
Y0046*
X01024*
Y00457*
Y00455*
Y00453*
X01022*
Y00451*
Y00449*
Y00447*
X0102*
Y00445*
Y00442*
Y0044*
X01017*
Y00438*
Y00436*
Y00434*
X01015*
Y00432*
Y0043*
Y00427*
X01013*
Y00425*
Y00423*
Y00421*
X01011*
Y00419*
Y00417*
Y00415*
X01009*
Y00412*
Y0041*
Y00408*
X01007*
Y00406*
Y00404*
X01005*
Y00402*
Y004*
Y00398*
Y00395*
X01002*
Y00393*
Y00391*
Y00389*
X01*
Y00387*
Y00385*
Y00383*
X00998*
Y0038*
Y00378*
Y00376*
X00996*
Y00374*
Y00372*
Y0037*
X00994*
Y00368*
Y00365*
Y00363*
X00992*
Y00361*
Y00359*
Y00357*
X0099*
Y00355*
Y00353*
Y00351*
X00988*
Y00348*
Y00346*
Y00344*
X00985*
Y00342*
Y0034*
Y00338*
X00983*
Y00336*
Y00333*
Y00331*
Y00329*
X00981*
Y00327*
Y00325*
Y00323*
X00979*
Y00321*
Y00318*
Y00316*
Y00314*
Y00312*
X0099*
Y0031*
X01011*
Y00312*
X01022*
Y00314*
X01024*
Y00316*
Y00318*
X01026*
Y00321*
Y00323*
Y00325*
Y00327*
X01028*
Y00329*
Y00331*
X0103*
Y00333*
Y00336*
Y00338*
X01032*
Y0034*
Y00342*
Y00344*
X01035*
Y00346*
X01092*
Y00344*
X01094*
Y00342*
Y0034*
Y00338*
X01097*
Y00336*
Y00333*
Y00331*
X01099*
Y00329*
Y00327*
Y00325*
X01101*
Y00323*
Y00321*
Y00318*
X01103*
Y00316*
Y00314*
X01107*
Y00312*
X01116*
Y0031*
X01139*
Y00312*
X01148*
Y00314*
Y00316*
Y00318*
Y00321*
Y00323*
X01146*
Y00325*
Y00327*
Y00329*
X01144*
Y00331*
Y00333*
Y00336*
X01141*
Y00338*
Y0034*
Y00342*
X01139*
Y00344*
Y00346*
Y00348*
X01137*
Y00351*
Y00353*
Y00355*
X01135*
Y00357*
Y00359*
Y00361*
X01133*
Y00363*
Y00365*
Y00368*
X01131*
Y0037*
Y00372*
Y00374*
X01129*
Y00376*
Y00378*
Y0038*
X01126*
Y00383*
Y00385*
Y00387*
X01124*
Y00389*
Y00391*
Y00393*
Y00395*
X01122*
Y00398*
Y004*
X0112*
Y00402*
Y00404*
Y00406*
Y00408*
X01118*
Y0041*
Y00412*
X01116*
Y00415*
Y00417*
Y00419*
X01114*
Y00421*
Y00423*
Y00425*
X01111*
Y00427*
Y0043*
Y00432*
X01109*
Y00434*
Y00436*
Y00438*
X01107*
Y0044*
Y00442*
Y00445*
X01105*
Y00447*
Y00449*
Y00451*
X01103*
Y00453*
Y00455*
Y00457*
X01101*
Y0046*
Y00462*
Y00464*
X01099*
Y00466*
Y00468*
Y0047*
X01097*
Y00472*
Y00474*
Y00477*
X01094*
Y00479*
Y00481*
Y00483*
X01092*
Y00485*
Y00487*
X0109*
Y00489*
Y00492*
X01088*
Y00494*
X01086*
Y00496*
X01084*
Y00498*
G37*
G36*
X01804Y005D02*
X01768D01*
Y00498*
X01757*
Y00496*
X01746*
Y00494*
X0174*
Y00492*
X01733*
Y00489*
X01729*
Y00487*
Y00485*
Y00483*
Y00481*
X01727*
Y00479*
Y00477*
Y00474*
Y00472*
Y0047*
Y00468*
Y00466*
Y00464*
Y00462*
Y0046*
Y00457*
Y00455*
Y00453*
Y00451*
X01729*
Y00449*
X01736*
Y00451*
X0174*
Y00453*
X01744*
Y00455*
X01748*
Y00457*
X01755*
Y0046*
X01759*
Y00462*
X01765*
Y00464*
X01774*
Y00466*
X018*
Y00464*
X01806*
Y00462*
X0181*
Y0046*
X01812*
Y00457*
X01815*
Y00455*
Y00453*
X01817*
Y00451*
Y00449*
Y00447*
Y00445*
Y00442*
X01815*
Y0044*
Y00438*
X0181*
Y00436*
X01806*
Y00434*
X01802*
Y00432*
X01795*
Y0043*
X01789*
Y00427*
X01783*
Y00425*
X01776*
Y00423*
X0177*
Y00421*
X01765*
Y00419*
X01759*
Y00417*
X01755*
Y00415*
X01748*
Y00412*
X01746*
Y0041*
X01742*
Y00408*
X01738*
Y00406*
X01736*
Y00404*
X01733*
Y00402*
X01731*
Y004*
X01729*
Y00398*
X01727*
Y00395*
X01725*
Y00393*
Y00391*
Y00389*
X01723*
Y00387*
Y00385*
Y00383*
X01721*
Y0038*
Y00378*
Y00376*
Y00374*
Y00372*
Y0037*
Y00368*
Y00365*
Y00363*
Y00361*
Y00359*
Y00357*
Y00355*
Y00353*
Y00351*
X01723*
Y00348*
Y00346*
Y00344*
X01725*
Y00342*
Y0034*
X01727*
Y00338*
Y00336*
X01729*
Y00333*
X01731*
Y00331*
X01733*
Y00329*
X01736*
Y00327*
X01738*
Y00325*
X0174*
Y00323*
X01744*
Y00321*
X01746*
Y00318*
X0175*
Y00316*
X01755*
Y00314*
X01759*
Y00312*
X01763*
Y0031*
X0177*
Y00308*
X01793*
Y00306*
X01817*
Y00308*
X01834*
Y0031*
X01842*
Y00312*
X01851*
Y00314*
X01855*
Y00316*
X01859*
Y00318*
X01862*
Y00321*
X01864*
Y00323*
X01866*
Y00325*
Y00327*
Y00329*
Y00331*
Y00333*
Y00336*
Y00338*
Y0034*
Y00342*
Y00344*
Y00346*
Y00348*
Y00351*
Y00353*
Y00355*
Y00357*
Y00359*
Y00361*
X01859*
Y00359*
X01855*
Y00357*
X01849*
Y00355*
X01845*
Y00353*
X0184*
Y00351*
X01836*
Y00348*
X01832*
Y00346*
X01827*
Y00344*
X01819*
Y00342*
X01783*
Y00344*
X01776*
Y00346*
X01774*
Y00348*
X01772*
Y00351*
Y00353*
X0177*
Y00355*
Y00357*
Y00359*
Y00361*
Y00363*
Y00365*
Y00368*
X01772*
Y0037*
X01774*
Y00372*
X01778*
Y00374*
X01783*
Y00376*
X01789*
Y00378*
X01795*
Y0038*
X01802*
Y00383*
X01808*
Y00385*
X01817*
Y00387*
X01823*
Y00389*
X0183*
Y00391*
X01834*
Y00393*
X01838*
Y00395*
X01842*
Y00398*
X01847*
Y004*
X01849*
Y00402*
X01851*
Y00404*
X01853*
Y00406*
X01855*
Y00408*
Y0041*
X01857*
Y00412*
X01859*
Y00415*
Y00417*
X01862*
Y00419*
Y00421*
X01864*
Y00423*
Y00425*
Y00427*
X01866*
Y0043*
Y00432*
Y00434*
Y00436*
Y00438*
Y0044*
Y00442*
Y00445*
Y00447*
Y00449*
Y00451*
Y00453*
X01864*
Y00455*
Y00457*
Y0046*
X01862*
Y00462*
Y00464*
X01859*
Y00466*
Y00468*
X01857*
Y0047*
X01855*
Y00472*
Y00474*
X01853*
Y00477*
X01851*
Y00479*
X01849*
Y00481*
X01847*
Y00483*
X01845*
Y00485*
X01842*
Y00487*
X01838*
Y00489*
X01834*
Y00492*
X0183*
Y00494*
X01823*
Y00496*
X01817*
Y00498*
X01804*
Y005*
G37*
%LNpod-3*%
%LPD*%
G36*
X01253Y0046D02*
Y00457D01*
Y00455*
Y00453*
Y00451*
Y00449*
Y00447*
Y00445*
Y00442*
Y0044*
Y00438*
Y00436*
Y00434*
Y00432*
Y0043*
Y00427*
Y00425*
Y00423*
Y00421*
Y00419*
Y00417*
Y00415*
Y00412*
X0125*
Y0041*
X01248*
Y00408*
X01231*
Y0041*
X01223*
Y00412*
X01218*
Y00415*
X01214*
Y00417*
Y00419*
X01212*
Y00421*
X0121*
Y00423*
Y00425*
X01208*
Y00427*
Y0043*
Y00432*
Y00434*
Y00436*
Y00438*
Y0044*
Y00442*
Y00445*
Y00447*
Y00449*
X0121*
Y00451*
X01212*
Y00453*
Y00455*
X01214*
Y00457*
X01218*
Y0046*
X0122*
Y00462*
X01253*
Y0046*
G37*
G36*
X01064Y00432D02*
X01067D01*
Y0043*
Y00427*
Y00425*
X01069*
Y00423*
Y00421*
X01071*
Y00419*
Y00417*
Y00415*
X01073*
Y00412*
Y0041*
Y00408*
Y00406*
X01075*
Y00404*
Y00402*
Y004*
X01077*
Y00398*
Y00395*
Y00393*
Y00391*
Y00389*
Y00387*
Y00385*
X01075*
Y00383*
X01052*
Y00385*
X0105*
Y00387*
Y00389*
Y00391*
Y00393*
Y00395*
Y00398*
Y004*
X01052*
Y00402*
Y00404*
Y00406*
Y00408*
X01054*
Y0041*
Y00412*
Y00415*
X01056*
Y00417*
Y00419*
Y00421*
X01058*
Y00423*
Y00425*
Y00427*
X0106*
Y0043*
Y00432*
X01062*
Y00434*
X01064*
Y00432*
G37*
G54D13*
X02949Y0055D02*
Y00609D01*
X02919*
X02909Y00599*
Y0058*
X02919Y0057*
X02949*
X02929D02*
X02909Y0055D01*
X02879Y0059D02*
X02859D01*
X02849Y0058*
Y0055*
X02879*
X02889Y0056*
X02879Y0057*
X02849*
X0279Y00609D02*
Y0055D01*
X0282*
X02829Y0056*
Y0058*
X0282Y0059*
X0279*
X0277Y0055D02*
X0275D01*
X0276*
Y0059*
X0277*
X0271Y0055D02*
X0269D01*
X0268Y0056*
Y0058*
X0269Y0059*
X0271*
X0272Y0058*
Y0056*
X0271Y0055*
G54D14*
X02924Y00122D02*
Y00522D01*
X02724Y00122D02*
Y00522D01*
X02924*
X02724Y00122D02*
X02924D01*
G54D15*
X0303Y00486D02*
X03037Y00492D01*
X0305*
X03057Y00486*
Y00459*
X0305Y00453*
X03037*
X0303Y00459*
Y00472*
X03043*
X03017Y00453D02*
Y00492D01*
X0299Y00453*
Y00492*
X02977D02*
Y00453D01*
X02957*
X0295Y00459*
Y00486*
X02957Y00492*
X02977*
X03092Y00153D02*
Y00192D01*
X03078Y00179*
X03065Y00192*
Y00153*
X03052Y00192D02*
X03038D01*
X03045*
Y00153*
X03052*
X03038*
X02992Y00186D02*
X02998Y00192D01*
X03012*
X03018Y00186*
Y00179*
X03012Y00172*
X02998*
X02992Y00166*
Y00159*
X02998Y00153*
X03012*
X03018Y00159*
X02958Y00192D02*
X02972D01*
X02978Y00186*
Y00159*
X02972Y00153*
X02958*
X02952Y00159*
Y00186*
X02958Y00192*
X02702Y00187D02*
X02688D01*
X02695*
Y00148*
X02702*
X02688*
X02668D02*
Y00187D01*
X02648*
X02642Y00181*
Y00167*
X02648Y00161*
X02668*
X02655D02*
X02642Y00148D01*
X02602Y00154D02*
Y00181D01*
X02608Y00187*
X02622*
X02628Y00181*
Y00154*
X02622Y00148*
X02608*
X02615Y00161D02*
X02602Y00148D01*
X02608D02*
X02602Y00154D01*
X02612Y00253D02*
Y00292D01*
X02598Y00279*
X02585Y00292*
Y00253*
X02552Y00292D02*
X02565D01*
X02572Y00286*
Y00259*
X02565Y00253*
X02552*
X02545Y00259*
Y00286*
X02552Y00292*
X02505Y00286D02*
X02512Y00292D01*
X02525*
X02532Y00286*
Y00279*
X02525Y00272*
X02512*
X02505Y00266*
Y00259*
X02512Y00253*
X02525*
X02532Y00259*
X02492Y00292D02*
X02478D01*
X02485*
Y00253*
X02492*
X02478*
X02675Y00386D02*
X02682Y00392D01*
X02695*
X02702Y00386*
Y00359*
X02695Y00353*
X02682*
X02675Y00359*
X02635Y00386D02*
X02642Y00392D01*
X02655*
X02662Y00386*
Y00379*
X02655Y00372*
X02642*
X02635Y00366*
Y00359*
X02642Y00353*
X02655*
X02662Y00359*
X02622Y00353D02*
Y00392D01*
X02595Y00353*
Y00392*
X02702Y00486D02*
X02695Y00492D01*
X02682*
X02675Y00486*
Y00479*
X02682Y00472*
X02688*
X02682*
X02675Y00466*
Y00459*
X02682Y00453*
X02695*
X02702Y00459*
X02662Y00492D02*
Y00466D01*
X02648Y00453*
X02635Y00466*
Y00492*
X02622Y00486D02*
X02615Y00492D01*
X02602*
X02595Y00486*
Y00479*
X02602Y00472*
X02608*
X02602*
X02595Y00466*
Y00459*
X02602Y00453*
X02615*
X02622Y00459*
X0299Y00386D02*
X02997Y00392D01*
X0301*
X03017Y00386*
Y00359*
X0301Y00353*
X02997*
X0299Y00359*
X0295Y00392D02*
X02977D01*
Y00353*
X0295*
X02977Y00372D02*
X02963D01*
X03025Y00286D02*
X03032Y00292D01*
X03045*
X03052Y00286*
Y00279*
X03045Y00272*
X03032*
X03025Y00266*
Y00259*
X03032Y00253*
X03045*
X03052Y00259*
X02985Y00286D02*
X02992Y00292D01*
X03005*
X03012Y00286*
Y00259*
X03005Y00253*
X02992*
X02985Y00259*
X02972Y00292D02*
Y00253D01*
Y00266*
X02945Y00292*
X02965Y00272*
X02945Y00253*
M02*