M48
;Layer_Color=9474304
;FILE_FORMAT=2:5
INCH,TZ
;TYPE=PLATED
T1F00S00C0.01575
T3F00S00C0.03543
T4F00S00C0.04173
T5F00S00C0.04331
T6F00S00C0.07283
T7F00S00C0.11811
%
T01
X35000Y13000
X32000Y19000
X51144Y34356
X33000Y52500
X20500Y44000
X71000Y50500
X69500Y54500
X86000Y55500
X89000Y51000
X100606Y54394
X103451Y23978
X130000Y20000
X129711Y16000
X129500Y12000
X77500Y38500
X244500Y54000
X264000Y30000
X267000Y27000
X267500Y33000
X246000Y73000
X228000Y84000
X234500Y98000
X212500Y97500
X189000
X136500Y85500
X129500Y63500
X119500Y73000
X109500Y77000
X101000Y82000
X102000Y99000
X99500Y102000
X110500
X88106Y95894
X77000Y77000
X59500Y81000
X66520Y57480
X85500Y64000
X93456Y57000
X54500Y61500
X43000Y65000
X40000Y60500
X45585Y78347
X44958Y83336
X36500Y81000
X42414Y98327
X47500Y97500
X21000Y72500
T03
X53000Y11000
Y21000
X63000
X73000
Y11000
X63000
X195669Y44094
X277402Y47244
Y37244
Y27244
Y17244
X287402
Y27244
Y37244
Y47244
X195669Y74016
X180000Y107000
X170000
X160000
X147500
X137500
X127500
X128000Y88500
X118000
X108000
T04
X156500Y42815
Y52658
Y62500
Y72342
T05
X313500Y35157
Y54843
T06
X279996Y73740
X298500
X317004
X324504Y111260
X272496
T07
X12992Y12992
X341339
X340551Y34500
X340500Y55000
X341339Y105118
X12992
M30
