G04*
G04 #@! TF.GenerationSoftware,Altium Limited,Altium Designer,20.1.10 (176)*
G04*
G04 Layer_Color=32896*
%FSLAX25Y25*%
%MOIN*%
G70*
G04*
G04 #@! TF.SameCoordinates,4904768C-9D57-489E-94B9-A5ABCCC02516*
G04*
G04*
G04 #@! TF.FilePolarity,Positive*
G04*
G01*
G75*
%ADD13C,0.01000*%
%ADD14C,0.00787*%
%ADD15C,0.00800*%
G36*
X109915Y116310D02*
X110129D01*
Y116096D01*
X110343D01*
Y115882D01*
Y115668D01*
Y115455D01*
X110557D01*
Y115241D01*
Y115027D01*
Y114814D01*
Y114600D01*
Y114386D01*
Y114173D01*
Y113959D01*
Y113745D01*
Y113531D01*
Y113318D01*
Y113104D01*
Y112890D01*
Y112677D01*
Y112463D01*
Y112249D01*
Y112036D01*
Y111822D01*
Y111608D01*
Y111394D01*
Y111181D01*
Y110967D01*
X110770D01*
Y110753D01*
Y110539D01*
Y110326D01*
Y110112D01*
Y109898D01*
Y109685D01*
X110984D01*
Y109471D01*
Y109257D01*
X111198D01*
Y109044D01*
X111411D01*
Y108830D01*
X111839D01*
Y108616D01*
X112694D01*
Y108830D01*
X113121D01*
Y109044D01*
X113335D01*
Y109257D01*
X113762D01*
Y109471D01*
X114190D01*
Y109685D01*
X114403D01*
Y109898D01*
X114617D01*
Y110112D01*
X114831D01*
Y110326D01*
X115258D01*
Y110539D01*
X115472D01*
Y110753D01*
X115686D01*
Y110967D01*
X115899D01*
Y111181D01*
X116113D01*
Y111394D01*
X116327D01*
Y111608D01*
X116754D01*
Y111822D01*
X116968D01*
Y112036D01*
X117182D01*
Y112249D01*
X117609D01*
Y112463D01*
X117823D01*
Y112677D01*
X118036D01*
Y112890D01*
X118464D01*
Y113104D01*
X118677D01*
Y113318D01*
X119105D01*
Y113531D01*
X119319D01*
Y113745D01*
X119746D01*
Y113959D01*
X120174D01*
Y114173D01*
X120601D01*
Y114386D01*
X121028D01*
Y114600D01*
X121456D01*
Y114814D01*
X121883D01*
Y115027D01*
X122524D01*
Y114814D01*
X122738D01*
Y114600D01*
Y114386D01*
Y114173D01*
X122524D01*
Y113959D01*
X122311D01*
Y113745D01*
Y113531D01*
X122097D01*
Y113318D01*
X121883D01*
Y113104D01*
X121669D01*
Y112890D01*
X121456D01*
Y112677D01*
X121242D01*
Y112463D01*
X120815D01*
Y112249D01*
X120601D01*
Y112036D01*
X120387D01*
Y111822D01*
X120174D01*
Y111608D01*
X119960D01*
Y111394D01*
X119746D01*
Y111181D01*
X119319D01*
Y110967D01*
X119105D01*
Y110753D01*
X118891D01*
Y110539D01*
X118464D01*
Y110326D01*
X118250D01*
Y110112D01*
X118036D01*
Y109898D01*
X117823D01*
Y109685D01*
X117609D01*
Y109471D01*
X117395D01*
Y109257D01*
X117182D01*
Y109044D01*
X116968D01*
Y108830D01*
X116754D01*
Y108616D01*
X116327D01*
Y108403D01*
X116113D01*
Y108189D01*
Y107975D01*
X115899D01*
Y107761D01*
X115472D01*
Y107548D01*
X115258D01*
Y107334D01*
Y107120D01*
X115044D01*
Y106906D01*
X114831D01*
Y106693D01*
X114617D01*
Y106479D01*
X114403D01*
Y106265D01*
X114190D01*
Y106052D01*
X113976D01*
Y105838D01*
X113762D01*
Y105624D01*
Y105411D01*
X113549D01*
Y105197D01*
X113335D01*
Y104983D01*
Y104769D01*
X113121D01*
Y104556D01*
Y104342D01*
X112907D01*
Y104128D01*
Y103915D01*
X112694D01*
Y103701D01*
Y103487D01*
X112480D01*
Y103273D01*
X112266D01*
Y103060D01*
Y102846D01*
Y102632D01*
X112053D01*
Y102419D01*
Y102205D01*
Y101991D01*
X111839D01*
Y101778D01*
Y101564D01*
X111625D01*
Y101350D01*
Y101136D01*
Y100923D01*
Y100709D01*
X111411D01*
Y100495D01*
Y100282D01*
Y100068D01*
Y99854D01*
Y99640D01*
Y99427D01*
X111198D01*
Y99213D01*
Y98999D01*
Y98786D01*
Y98572D01*
Y98358D01*
Y98145D01*
Y97931D01*
Y97717D01*
Y97503D01*
Y97290D01*
Y97076D01*
X110984D01*
Y96862D01*
Y96649D01*
Y96435D01*
Y96221D01*
Y96007D01*
Y95794D01*
Y95580D01*
Y95366D01*
Y95153D01*
Y94939D01*
Y94725D01*
Y94511D01*
Y94298D01*
Y94084D01*
Y93870D01*
Y93657D01*
Y93443D01*
Y93229D01*
X111198D01*
Y93015D01*
Y92802D01*
Y92588D01*
Y92374D01*
Y92161D01*
Y91947D01*
Y91733D01*
Y91519D01*
Y91306D01*
Y91092D01*
Y90878D01*
Y90665D01*
Y90451D01*
X111411D01*
Y90237D01*
Y90024D01*
Y89810D01*
Y89596D01*
Y89382D01*
Y89169D01*
Y88955D01*
Y88741D01*
X111625D01*
Y88528D01*
Y88314D01*
Y88100D01*
Y87887D01*
X111839D01*
Y87673D01*
Y87459D01*
Y87245D01*
Y87032D01*
X112053D01*
Y86818D01*
Y86604D01*
Y86391D01*
X112266D01*
Y86177D01*
Y85963D01*
Y85749D01*
Y85536D01*
X112480D01*
Y85322D01*
Y85108D01*
X112694D01*
Y84895D01*
Y84681D01*
Y84467D01*
X112907D01*
Y84254D01*
Y84040D01*
X113121D01*
Y83826D01*
Y83612D01*
X113335D01*
Y83399D01*
Y83185D01*
X113549D01*
Y82971D01*
Y82758D01*
X113762D01*
Y82544D01*
Y82330D01*
X113976D01*
Y82116D01*
X114190D01*
Y81903D01*
Y81689D01*
X114403D01*
Y81475D01*
X114617D01*
Y81262D01*
Y81048D01*
X114831D01*
Y80834D01*
X115044D01*
Y80620D01*
Y80407D01*
X115258D01*
Y80193D01*
X115472D01*
Y79979D01*
X115686D01*
Y79766D01*
Y79552D01*
X115899D01*
Y79338D01*
X116113D01*
Y79124D01*
X116327D01*
Y78911D01*
X116541D01*
Y78697D01*
X116754D01*
Y78483D01*
X116968D01*
Y78270D01*
X117182D01*
Y78056D01*
X117395D01*
Y77842D01*
X117609D01*
Y77628D01*
X117823D01*
Y77415D01*
X118036D01*
Y77201D01*
X118250D01*
Y76987D01*
X118677D01*
Y76774D01*
X118891D01*
Y76560D01*
X119319D01*
Y76346D01*
X119532D01*
Y76133D01*
X119960D01*
Y75919D01*
X121242D01*
Y76133D01*
Y76346D01*
X121456D01*
Y76560D01*
Y76774D01*
Y76987D01*
Y77201D01*
X121242D01*
Y77415D01*
Y77628D01*
Y77842D01*
Y78056D01*
Y78270D01*
Y78483D01*
Y78697D01*
Y78911D01*
Y79124D01*
Y79338D01*
Y79552D01*
Y79766D01*
X121028D01*
Y79979D01*
Y80193D01*
Y80407D01*
Y80620D01*
Y80834D01*
Y81048D01*
Y81262D01*
Y81475D01*
Y81689D01*
Y81903D01*
Y82116D01*
X120815D01*
Y82330D01*
Y82544D01*
Y82758D01*
Y82971D01*
Y83185D01*
Y83399D01*
Y83612D01*
Y83826D01*
Y84040D01*
Y84254D01*
Y84467D01*
X120601D01*
Y84681D01*
Y84895D01*
Y85108D01*
Y85322D01*
Y85536D01*
Y85749D01*
Y85963D01*
Y86177D01*
Y86391D01*
Y86604D01*
Y86818D01*
Y87032D01*
X120387D01*
Y87245D01*
Y87459D01*
Y87673D01*
Y87887D01*
Y88100D01*
Y88314D01*
Y88528D01*
Y88741D01*
Y88955D01*
Y89169D01*
Y89382D01*
Y89596D01*
X120174D01*
Y89810D01*
Y90024D01*
Y90237D01*
Y90451D01*
Y90665D01*
Y90878D01*
Y91092D01*
Y91306D01*
Y91519D01*
Y91733D01*
Y91947D01*
X119960D01*
Y92161D01*
Y92374D01*
Y92588D01*
Y92802D01*
Y93015D01*
Y93229D01*
Y93443D01*
Y93657D01*
Y93870D01*
Y94084D01*
X119746D01*
Y94298D01*
Y94511D01*
Y94725D01*
Y94939D01*
Y95153D01*
Y95366D01*
Y95580D01*
Y95794D01*
X119532D01*
Y96007D01*
Y96221D01*
Y96435D01*
Y96649D01*
Y96862D01*
Y97076D01*
Y97290D01*
Y97503D01*
Y97717D01*
Y97931D01*
Y98145D01*
X119319D01*
Y98358D01*
Y98572D01*
Y98786D01*
Y98999D01*
Y99213D01*
Y99427D01*
Y99640D01*
Y99854D01*
Y100068D01*
Y100282D01*
Y100495D01*
Y100709D01*
Y100923D01*
Y101136D01*
Y101350D01*
Y101564D01*
Y101778D01*
Y101991D01*
Y102205D01*
Y102419D01*
Y102632D01*
Y102846D01*
Y103060D01*
Y103273D01*
X119532D01*
Y103487D01*
Y103701D01*
Y103915D01*
Y104128D01*
X120174D01*
Y103915D01*
Y103701D01*
X120387D01*
Y103487D01*
Y103273D01*
X120601D01*
Y103060D01*
Y102846D01*
X120815D01*
Y102632D01*
X121028D01*
Y102419D01*
Y102205D01*
X121242D01*
Y101991D01*
X121456D01*
Y101778D01*
X122097D01*
Y101991D01*
X122524D01*
Y102205D01*
X122952D01*
Y102419D01*
X123165D01*
Y102632D01*
X123379D01*
Y102846D01*
Y103060D01*
X123593D01*
Y103273D01*
X123807D01*
Y103487D01*
X124020D01*
Y103701D01*
Y103915D01*
X124234D01*
Y104128D01*
X124448D01*
Y104342D01*
X124661D01*
Y104556D01*
Y104769D01*
X124875D01*
Y104983D01*
X125089D01*
Y105197D01*
Y105411D01*
X125303D01*
Y105624D01*
X125516D01*
Y105838D01*
X125730D01*
Y106052D01*
X125944D01*
Y106265D01*
X126157D01*
Y106479D01*
X126371D01*
Y106693D01*
X126798D01*
Y106906D01*
X127440D01*
Y106693D01*
X127653D01*
Y106479D01*
Y106265D01*
Y106052D01*
Y105838D01*
X127440D01*
Y105624D01*
Y105411D01*
Y105197D01*
X127226D01*
Y104983D01*
Y104769D01*
X127012D01*
Y104556D01*
Y104342D01*
X126798D01*
Y104128D01*
Y103915D01*
X126585D01*
Y103701D01*
Y103487D01*
X126371D01*
Y103273D01*
X126157D01*
Y103060D01*
Y102846D01*
X125944D01*
Y102632D01*
X125730D01*
Y102419D01*
Y102205D01*
X125516D01*
Y101991D01*
Y101778D01*
X125303D01*
Y101564D01*
X125089D01*
Y101350D01*
Y101136D01*
X124875D01*
Y100923D01*
Y100709D01*
X124661D01*
Y100495D01*
X124448D01*
Y100282D01*
Y100068D01*
X124234D01*
Y99854D01*
Y99640D01*
X124020D01*
Y99427D01*
X123807D01*
Y99213D01*
Y98999D01*
X123593D01*
Y98786D01*
Y98572D01*
X123379D01*
Y98358D01*
Y98145D01*
X123165D01*
Y97931D01*
Y97717D01*
Y97503D01*
Y97290D01*
X122952D01*
Y97076D01*
Y96862D01*
Y96649D01*
X123165D01*
Y96435D01*
Y96221D01*
Y96007D01*
X123379D01*
Y95794D01*
X124234D01*
Y96007D01*
X124448D01*
Y96221D01*
X124661D01*
Y96435D01*
X124875D01*
Y96649D01*
X125089D01*
Y96862D01*
X125303D01*
Y97076D01*
Y97290D01*
X125516D01*
Y97503D01*
X125730D01*
Y97717D01*
Y97931D01*
X125944D01*
Y98145D01*
Y98358D01*
X126157D01*
Y98572D01*
X126371D01*
Y98786D01*
Y98999D01*
X126585D01*
Y99213D01*
Y99427D01*
X126798D01*
Y99640D01*
X127012D01*
Y99854D01*
Y100068D01*
X127226D01*
Y100282D01*
Y100495D01*
X127440D01*
Y100709D01*
X127653D01*
Y100923D01*
X127867D01*
Y101136D01*
Y101350D01*
X128081D01*
Y101564D01*
X128294D01*
Y101778D01*
Y101991D01*
X128508D01*
Y102205D01*
X128722D01*
Y102419D01*
X128936D01*
Y102632D01*
X129149D01*
Y102846D01*
X129363D01*
Y103060D01*
X129577D01*
Y103273D01*
X129790D01*
Y103487D01*
X130218D01*
Y103701D01*
X130645D01*
Y103915D01*
X131500D01*
Y103701D01*
Y103487D01*
Y103273D01*
Y103060D01*
X131286D01*
Y102846D01*
Y102632D01*
X131073D01*
Y102419D01*
Y102205D01*
X130859D01*
Y101991D01*
Y101778D01*
X130645D01*
Y101564D01*
X130431D01*
Y101350D01*
Y101136D01*
Y100923D01*
X130218D01*
Y100709D01*
Y100495D01*
Y100282D01*
X132996D01*
Y100495D01*
X135133D01*
Y100282D01*
X135347D01*
Y100068D01*
X135133D01*
Y99854D01*
X134919D01*
Y99640D01*
X134706D01*
Y99427D01*
X134492D01*
Y99213D01*
X134278D01*
Y98999D01*
X134064D01*
Y98786D01*
X133637D01*
Y98572D01*
X133423D01*
Y98358D01*
X133210D01*
Y98145D01*
X132782D01*
Y97931D01*
X132569D01*
Y97717D01*
X132355D01*
Y97503D01*
X132141D01*
Y97290D01*
X131927D01*
Y97076D01*
X131500D01*
Y96862D01*
X131286D01*
Y96649D01*
X130859D01*
Y96435D01*
X130645D01*
Y96221D01*
X130431D01*
Y96007D01*
X130218D01*
Y95794D01*
X130004D01*
Y95580D01*
X129790D01*
Y95366D01*
X129577D01*
Y95153D01*
X129363D01*
Y94939D01*
X129149D01*
Y94725D01*
X128936D01*
Y94511D01*
X128722D01*
Y94298D01*
X128508D01*
Y94084D01*
X128294D01*
Y93870D01*
X128081D01*
Y93657D01*
X127867D01*
Y93443D01*
X127653D01*
Y93229D01*
X127440D01*
Y93015D01*
X127226D01*
Y92802D01*
X127012D01*
Y92588D01*
X126798D01*
Y92374D01*
Y92161D01*
X126585D01*
Y91947D01*
X126371D01*
Y91733D01*
X126157D01*
Y91519D01*
Y91306D01*
X125944D01*
Y91092D01*
Y90878D01*
X125730D01*
Y90665D01*
X125516D01*
Y90451D01*
Y90237D01*
X125303D01*
Y90024D01*
Y89810D01*
Y89596D01*
X125089D01*
Y89382D01*
Y89169D01*
X124875D01*
Y88955D01*
Y88741D01*
Y88528D01*
Y88314D01*
X124661D01*
Y88100D01*
Y87887D01*
Y87673D01*
X124448D01*
Y87459D01*
Y87245D01*
Y87032D01*
Y86818D01*
X124234D01*
Y86604D01*
Y86391D01*
Y86177D01*
Y85963D01*
Y85749D01*
Y85536D01*
Y85322D01*
Y85108D01*
Y84895D01*
Y84681D01*
Y84467D01*
Y84254D01*
Y84040D01*
Y83826D01*
X124020D01*
Y83612D01*
Y83399D01*
Y83185D01*
Y82971D01*
X124234D01*
Y82758D01*
Y82544D01*
Y82330D01*
Y82116D01*
Y81903D01*
Y81689D01*
Y81475D01*
Y81262D01*
Y81048D01*
Y80834D01*
Y80620D01*
Y80407D01*
Y80193D01*
Y79979D01*
X124448D01*
Y79766D01*
Y79552D01*
Y79338D01*
Y79124D01*
Y78911D01*
Y78697D01*
Y78483D01*
X124661D01*
Y78270D01*
Y78056D01*
Y77842D01*
Y77628D01*
Y77415D01*
X124875D01*
Y77201D01*
Y76987D01*
Y76774D01*
Y76560D01*
Y76346D01*
Y76133D01*
X125089D01*
Y75919D01*
Y75705D01*
Y75491D01*
X125303D01*
Y75278D01*
Y75064D01*
Y74850D01*
X125516D01*
Y74637D01*
Y74423D01*
Y74209D01*
X125730D01*
Y73996D01*
Y73782D01*
Y73568D01*
X125944D01*
Y73354D01*
Y73141D01*
X126157D01*
Y72927D01*
X126371D01*
Y72713D01*
Y72500D01*
X126585D01*
Y72286D01*
Y72072D01*
X126798D01*
Y71858D01*
X127012D01*
Y71645D01*
X127226D01*
Y71431D01*
X127440D01*
Y71217D01*
X127653D01*
Y71004D01*
X128081D01*
Y70790D01*
X128508D01*
Y70576D01*
X130431D01*
Y70790D01*
X130859D01*
Y71004D01*
X131286D01*
Y71217D01*
X131500D01*
Y71431D01*
X131714D01*
Y71645D01*
X131927D01*
Y71858D01*
X132141D01*
Y72072D01*
X132355D01*
Y72286D01*
X132569D01*
Y72500D01*
Y72713D01*
X132782D01*
Y72927D01*
X132996D01*
Y73141D01*
Y73354D01*
X133210D01*
Y73568D01*
Y73782D01*
X133423D01*
Y73996D01*
Y74209D01*
X133637D01*
Y74423D01*
Y74637D01*
X133851D01*
Y74850D01*
Y75064D01*
X134064D01*
Y75278D01*
Y75491D01*
X134278D01*
Y75705D01*
Y75919D01*
Y76133D01*
X134492D01*
Y76346D01*
Y76560D01*
X134706D01*
Y76774D01*
Y76987D01*
Y77201D01*
X134919D01*
Y77415D01*
Y77628D01*
X135133D01*
Y77842D01*
Y78056D01*
X135347D01*
Y78270D01*
Y78483D01*
X135560D01*
Y78697D01*
Y78911D01*
Y79124D01*
X135774D01*
Y79338D01*
Y79552D01*
X135988D01*
Y79766D01*
X136202D01*
Y79979D01*
Y80193D01*
X136415D01*
Y80407D01*
Y80620D01*
X136629D01*
Y80834D01*
Y81048D01*
X136843D01*
Y81262D01*
X137056D01*
Y81475D01*
X137270D01*
Y81689D01*
Y81903D01*
X137484D01*
Y82116D01*
X137698D01*
Y82330D01*
X138125D01*
Y82544D01*
X138766D01*
Y82330D01*
X138980D01*
Y82116D01*
Y81903D01*
X139193D01*
Y81689D01*
Y81475D01*
Y81262D01*
X138980D01*
Y81048D01*
Y80834D01*
Y80620D01*
Y80407D01*
X138766D01*
Y80193D01*
Y79979D01*
Y79766D01*
X138552D01*
Y79552D01*
Y79338D01*
X138339D01*
Y79124D01*
Y78911D01*
Y78697D01*
X138125D01*
Y78483D01*
Y78270D01*
Y78056D01*
X137911D01*
Y77842D01*
Y77628D01*
Y77415D01*
X137698D01*
Y77201D01*
Y76987D01*
Y76774D01*
X137484D01*
Y76560D01*
Y76346D01*
Y76133D01*
X137270D01*
Y75919D01*
Y75705D01*
Y75491D01*
X137056D01*
Y75278D01*
Y75064D01*
Y74850D01*
X136843D01*
Y74637D01*
Y74423D01*
Y74209D01*
Y73996D01*
X136629D01*
Y73782D01*
Y73568D01*
Y73354D01*
X136415D01*
Y73141D01*
Y72927D01*
Y72713D01*
X136202D01*
Y72500D01*
Y72286D01*
Y72072D01*
Y71858D01*
X135988D01*
Y71645D01*
Y71431D01*
Y71217D01*
Y71004D01*
Y70790D01*
X135774D01*
Y70576D01*
Y70363D01*
Y70149D01*
Y69935D01*
Y69721D01*
Y69508D01*
Y69294D01*
Y69080D01*
X135988D01*
Y68866D01*
Y68653D01*
Y68439D01*
X136202D01*
Y68225D01*
Y68012D01*
X136415D01*
Y67798D01*
X136629D01*
Y67584D01*
X136843D01*
Y67371D01*
X137056D01*
Y67157D01*
X137270D01*
Y66943D01*
X137484D01*
Y66729D01*
X137698D01*
Y66516D01*
X138125D01*
Y66302D01*
X138339D01*
Y66088D01*
X138766D01*
Y65875D01*
X139193D01*
Y65661D01*
X139621D01*
Y65447D01*
X140048D01*
Y65233D01*
X140689D01*
Y65020D01*
X142613D01*
Y64806D01*
X144323D01*
Y65020D01*
X145177D01*
Y65233D01*
X145818D01*
Y65447D01*
X146246D01*
Y65661D01*
X146673D01*
Y65875D01*
X147101D01*
Y66088D01*
X147314D01*
Y66302D01*
X147742D01*
Y66516D01*
X147956D01*
Y66729D01*
X148383D01*
Y66943D01*
X148597D01*
Y67157D01*
X148810D01*
Y67371D01*
X149024D01*
Y67584D01*
X149238D01*
Y67798D01*
Y68012D01*
X149451D01*
Y68225D01*
X149665D01*
Y68439D01*
Y68653D01*
Y68866D01*
X149879D01*
Y69080D01*
Y69294D01*
Y69508D01*
Y69721D01*
Y69935D01*
Y70149D01*
Y70363D01*
Y70576D01*
Y70790D01*
Y71004D01*
Y71217D01*
X149665D01*
Y71431D01*
Y71645D01*
Y71858D01*
Y72072D01*
X149451D01*
Y72286D01*
Y72500D01*
Y72713D01*
Y72927D01*
X149238D01*
Y73141D01*
Y73354D01*
Y73568D01*
Y73782D01*
X149024D01*
Y73996D01*
Y74209D01*
Y74423D01*
X148810D01*
Y74637D01*
Y74850D01*
Y75064D01*
X148597D01*
Y75278D01*
Y75491D01*
Y75705D01*
X148383D01*
Y75919D01*
Y76133D01*
Y76346D01*
X148169D01*
Y76560D01*
Y76774D01*
Y76987D01*
X147956D01*
Y77201D01*
Y77415D01*
Y77628D01*
X147742D01*
Y77842D01*
Y78056D01*
Y78270D01*
X147528D01*
Y78483D01*
Y78697D01*
Y78911D01*
X147314D01*
Y79124D01*
Y79338D01*
X147101D01*
Y79552D01*
Y79766D01*
Y79979D01*
X146887D01*
Y80193D01*
Y80407D01*
Y80620D01*
Y80834D01*
X146673D01*
Y81048D01*
Y81262D01*
Y81475D01*
Y81689D01*
Y81903D01*
Y82116D01*
Y82330D01*
X146887D01*
Y82544D01*
X147742D01*
Y82330D01*
X147956D01*
Y82116D01*
X148169D01*
Y81903D01*
X148383D01*
Y81689D01*
Y81475D01*
X148597D01*
Y81262D01*
X148810D01*
Y81048D01*
X149024D01*
Y80834D01*
Y80620D01*
X149238D01*
Y80407D01*
Y80193D01*
X149451D01*
Y79979D01*
X149665D01*
Y79766D01*
Y79552D01*
X149879D01*
Y79338D01*
Y79124D01*
X150093D01*
Y78911D01*
Y78697D01*
X150306D01*
Y78483D01*
Y78270D01*
X150520D01*
Y78056D01*
Y77842D01*
Y77628D01*
X150734D01*
Y77415D01*
Y77201D01*
X150947D01*
Y76987D01*
Y76774D01*
X151161D01*
Y76560D01*
Y76346D01*
Y76133D01*
X151375D01*
Y75919D01*
Y75705D01*
X151588D01*
Y75491D01*
Y75278D01*
X151802D01*
Y75064D01*
Y74850D01*
Y74637D01*
X152016D01*
Y74423D01*
Y74209D01*
X152230D01*
Y73996D01*
Y73782D01*
X152443D01*
Y73568D01*
X152657D01*
Y73354D01*
Y73141D01*
X152871D01*
Y72927D01*
Y72713D01*
X153085D01*
Y72500D01*
X153298D01*
Y72286D01*
X153512D01*
Y72072D01*
Y71858D01*
X153726D01*
Y71645D01*
X153939D01*
Y71431D01*
X154153D01*
Y71217D01*
X154580D01*
Y71004D01*
X154794D01*
Y70790D01*
X155222D01*
Y70576D01*
X157145D01*
Y70790D01*
X157572D01*
Y71004D01*
X158000D01*
Y71217D01*
X158213D01*
Y71431D01*
X158641D01*
Y71645D01*
Y71858D01*
X158855D01*
Y72072D01*
X159068D01*
Y72286D01*
Y72500D01*
X159282D01*
Y72713D01*
X159496D01*
Y72927D01*
X159709D01*
Y73141D01*
Y73354D01*
X159923D01*
Y73568D01*
Y73782D01*
Y73996D01*
X160137D01*
Y74209D01*
Y74423D01*
X160351D01*
Y74637D01*
Y74850D01*
Y75064D01*
Y75278D01*
X160564D01*
Y75491D01*
Y75705D01*
Y75919D01*
X160778D01*
Y76133D01*
Y76346D01*
Y76560D01*
Y76774D01*
Y76987D01*
X160992D01*
Y77201D01*
Y77415D01*
Y77628D01*
Y77842D01*
Y78056D01*
X161205D01*
Y78270D01*
Y78483D01*
Y78697D01*
Y78911D01*
Y79124D01*
Y79338D01*
Y79552D01*
X161419D01*
Y79766D01*
Y79979D01*
Y80193D01*
Y80407D01*
Y80620D01*
Y80834D01*
Y81048D01*
Y81262D01*
Y81475D01*
Y81689D01*
Y81903D01*
Y82116D01*
Y82330D01*
Y82544D01*
Y82758D01*
Y82971D01*
Y83185D01*
Y83399D01*
Y83612D01*
Y83826D01*
Y84040D01*
Y84254D01*
Y84467D01*
Y84681D01*
Y84895D01*
Y85108D01*
Y85322D01*
Y85536D01*
Y85749D01*
Y85963D01*
Y86177D01*
Y86391D01*
Y86604D01*
Y86818D01*
Y87032D01*
X161205D01*
Y87245D01*
Y87459D01*
Y87673D01*
Y87887D01*
Y88100D01*
X160992D01*
Y88314D01*
Y88528D01*
Y88741D01*
X160778D01*
Y88955D01*
Y89169D01*
X160564D01*
Y89382D01*
Y89596D01*
X160351D01*
Y89810D01*
Y90024D01*
X160137D01*
Y90237D01*
Y90451D01*
X159923D01*
Y90665D01*
Y90878D01*
X159709D01*
Y91092D01*
Y91306D01*
X159496D01*
Y91519D01*
X159282D01*
Y91733D01*
Y91947D01*
X159068D01*
Y92161D01*
X158855D01*
Y92374D01*
Y92588D01*
X158641D01*
Y92802D01*
X158427D01*
Y93015D01*
Y93229D01*
X158213D01*
Y93443D01*
X157786D01*
Y93657D01*
X157572D01*
Y93870D01*
X157359D01*
Y94084D01*
X157145D01*
Y94298D01*
X156931D01*
Y94511D01*
X156718D01*
Y94725D01*
X156504D01*
Y94939D01*
X156290D01*
Y95153D01*
X156076D01*
Y95366D01*
X155863D01*
Y95580D01*
X155649D01*
Y95794D01*
X155435D01*
Y96007D01*
X155222D01*
Y96221D01*
X155008D01*
Y96435D01*
X154794D01*
Y96649D01*
X154367D01*
Y96862D01*
X154153D01*
Y97076D01*
X153939D01*
Y97290D01*
X153726D01*
Y97503D01*
X153298D01*
Y97717D01*
X153085D01*
Y97931D01*
X152871D01*
Y98145D01*
X152657D01*
Y98358D01*
X152230D01*
Y98572D01*
X152016D01*
Y98786D01*
X151802D01*
Y98999D01*
X151588D01*
Y99213D01*
X151375D01*
Y99427D01*
X151161D01*
Y99640D01*
X150947D01*
Y99854D01*
X150734D01*
Y100068D01*
X150520D01*
Y100282D01*
Y100495D01*
X153298D01*
Y100282D01*
X155222D01*
Y100495D01*
X155649D01*
Y100709D01*
X155435D01*
Y100923D01*
Y101136D01*
X155222D01*
Y101350D01*
Y101564D01*
X155008D01*
Y101778D01*
Y101991D01*
X154794D01*
Y102205D01*
X154580D01*
Y102419D01*
Y102632D01*
X154367D01*
Y102846D01*
Y103060D01*
X154153D01*
Y103273D01*
Y103487D01*
Y103701D01*
X154367D01*
Y103915D01*
X154794D01*
Y103701D01*
X155435D01*
Y103487D01*
X155863D01*
Y103273D01*
X156076D01*
Y103060D01*
X156290D01*
Y102846D01*
X156504D01*
Y102632D01*
X156718D01*
Y102419D01*
X156931D01*
Y102205D01*
X157145D01*
Y101991D01*
X157359D01*
Y101778D01*
X157572D01*
Y101564D01*
Y101350D01*
X157786D01*
Y101136D01*
X158000D01*
Y100923D01*
Y100709D01*
X158213D01*
Y100495D01*
X158427D01*
Y100282D01*
Y100068D01*
X158641D01*
Y99854D01*
X158855D01*
Y99640D01*
Y99427D01*
X159068D01*
Y99213D01*
Y98999D01*
X159282D01*
Y98786D01*
X159496D01*
Y98572D01*
Y98358D01*
X159709D01*
Y98145D01*
X159923D01*
Y97931D01*
Y97717D01*
X160137D01*
Y97503D01*
X160351D01*
Y97290D01*
Y97076D01*
X160564D01*
Y96862D01*
X160778D01*
Y96649D01*
X160992D01*
Y96435D01*
X161205D01*
Y96221D01*
X161419D01*
Y96007D01*
X161633D01*
Y95794D01*
X162274D01*
Y96007D01*
X162488D01*
Y96221D01*
X162701D01*
Y96435D01*
Y96649D01*
Y96862D01*
Y97076D01*
Y97290D01*
Y97503D01*
Y97717D01*
X162488D01*
Y97931D01*
Y98145D01*
Y98358D01*
X162274D01*
Y98572D01*
Y98786D01*
X162060D01*
Y98999D01*
Y99213D01*
X161846D01*
Y99427D01*
X161633D01*
Y99640D01*
Y99854D01*
X161419D01*
Y100068D01*
Y100282D01*
X161205D01*
Y100495D01*
Y100709D01*
X160992D01*
Y100923D01*
X160778D01*
Y101136D01*
Y101350D01*
X160564D01*
Y101564D01*
X160351D01*
Y101778D01*
Y101991D01*
X160137D01*
Y102205D01*
Y102419D01*
X159923D01*
Y102632D01*
X159709D01*
Y102846D01*
Y103060D01*
X159496D01*
Y103273D01*
X159282D01*
Y103487D01*
Y103701D01*
X159068D01*
Y103915D01*
Y104128D01*
X158855D01*
Y104342D01*
Y104556D01*
X158641D01*
Y104769D01*
X158427D01*
Y104983D01*
Y105197D01*
X158213D01*
Y105411D01*
Y105624D01*
Y105838D01*
X158000D01*
Y106052D01*
Y106265D01*
Y106479D01*
Y106693D01*
X158213D01*
Y106906D01*
X158855D01*
Y106693D01*
X159282D01*
Y106479D01*
X159496D01*
Y106265D01*
X159709D01*
Y106052D01*
X159923D01*
Y105838D01*
X160137D01*
Y105624D01*
X160351D01*
Y105411D01*
X160564D01*
Y105197D01*
X160778D01*
Y104983D01*
Y104769D01*
X160992D01*
Y104556D01*
X161205D01*
Y104342D01*
Y104128D01*
X161419D01*
Y103915D01*
X161633D01*
Y103701D01*
Y103487D01*
X161846D01*
Y103273D01*
X162060D01*
Y103060D01*
X162274D01*
Y102846D01*
X162488D01*
Y102632D01*
X162701D01*
Y102419D01*
X162915D01*
Y102205D01*
X163129D01*
Y101991D01*
X163556D01*
Y101778D01*
X164197D01*
Y101991D01*
X164411D01*
Y102205D01*
X164625D01*
Y102419D01*
X164838D01*
Y102632D01*
Y102846D01*
X165052D01*
Y103060D01*
Y103273D01*
X165266D01*
Y103487D01*
Y103701D01*
X165480D01*
Y103915D01*
X165693D01*
Y104128D01*
X165907D01*
Y104342D01*
X166121D01*
Y104128D01*
Y103915D01*
Y103701D01*
X166334D01*
Y103487D01*
Y103273D01*
Y103060D01*
Y102846D01*
Y102632D01*
Y102419D01*
Y102205D01*
Y101991D01*
Y101778D01*
Y101564D01*
Y101350D01*
Y101136D01*
Y100923D01*
Y100709D01*
Y100495D01*
Y100282D01*
Y100068D01*
Y99854D01*
Y99640D01*
Y99427D01*
Y99213D01*
Y98999D01*
Y98786D01*
Y98572D01*
Y98358D01*
Y98145D01*
Y97931D01*
Y97717D01*
Y97503D01*
X166121D01*
Y97290D01*
Y97076D01*
Y96862D01*
Y96649D01*
Y96435D01*
Y96221D01*
Y96007D01*
Y95794D01*
Y95580D01*
Y95366D01*
X165907D01*
Y95153D01*
Y94939D01*
Y94725D01*
Y94511D01*
Y94298D01*
Y94084D01*
Y93870D01*
Y93657D01*
X165693D01*
Y93443D01*
Y93229D01*
Y93015D01*
Y92802D01*
Y92588D01*
Y92374D01*
Y92161D01*
Y91947D01*
Y91733D01*
Y91519D01*
Y91306D01*
X165480D01*
Y91092D01*
Y90878D01*
Y90665D01*
Y90451D01*
Y90237D01*
Y90024D01*
Y89810D01*
Y89596D01*
Y89382D01*
Y89169D01*
Y88955D01*
Y88741D01*
X165266D01*
Y88528D01*
Y88314D01*
Y88100D01*
Y87887D01*
Y87673D01*
Y87459D01*
Y87245D01*
Y87032D01*
Y86818D01*
Y86604D01*
Y86391D01*
X165052D01*
Y86177D01*
Y85963D01*
Y85749D01*
Y85536D01*
Y85322D01*
Y85108D01*
Y84895D01*
Y84681D01*
Y84467D01*
Y84254D01*
Y84040D01*
Y83826D01*
X164838D01*
Y83612D01*
Y83399D01*
Y83185D01*
Y82971D01*
Y82758D01*
Y82544D01*
Y82330D01*
Y82116D01*
Y81903D01*
Y81689D01*
Y81475D01*
Y81262D01*
X164625D01*
Y81048D01*
Y80834D01*
Y80620D01*
Y80407D01*
Y80193D01*
Y79979D01*
Y79766D01*
Y79552D01*
Y79338D01*
X164411D01*
Y79124D01*
Y78911D01*
Y78697D01*
Y78483D01*
Y78270D01*
Y78056D01*
Y77842D01*
Y77628D01*
Y77415D01*
X164197D01*
Y77201D01*
Y76987D01*
Y76774D01*
Y76560D01*
X164411D01*
Y76346D01*
Y76133D01*
X164625D01*
Y75919D01*
X165480D01*
Y76133D01*
X166121D01*
Y76346D01*
X166548D01*
Y76560D01*
X166762D01*
Y76774D01*
X167189D01*
Y76987D01*
X167403D01*
Y77201D01*
X167617D01*
Y77415D01*
X168044D01*
Y77628D01*
X168258D01*
Y77842D01*
X168472D01*
Y78056D01*
X168685D01*
Y78270D01*
X168899D01*
Y78483D01*
X169113D01*
Y78697D01*
X169326D01*
Y78911D01*
Y79124D01*
X169540D01*
Y79338D01*
X169754D01*
Y79552D01*
X169967D01*
Y79766D01*
X170181D01*
Y79979D01*
Y80193D01*
X170395D01*
Y80407D01*
X170608D01*
Y80620D01*
X170822D01*
Y80834D01*
Y81048D01*
X171036D01*
Y81262D01*
X171250D01*
Y81475D01*
Y81689D01*
X171463D01*
Y81903D01*
X171677D01*
Y82116D01*
Y82330D01*
X171891D01*
Y82544D01*
Y82758D01*
X172105D01*
Y82971D01*
Y83185D01*
X172318D01*
Y83399D01*
Y83612D01*
X172532D01*
Y83826D01*
Y84040D01*
X172746D01*
Y84254D01*
Y84467D01*
X172959D01*
Y84681D01*
Y84895D01*
Y85108D01*
X173173D01*
Y85322D01*
Y85536D01*
X173387D01*
Y85749D01*
Y85963D01*
Y86177D01*
X173600D01*
Y86391D01*
Y86604D01*
Y86818D01*
X173814D01*
Y87032D01*
Y87245D01*
Y87459D01*
X174028D01*
Y87673D01*
Y87887D01*
Y88100D01*
Y88314D01*
Y88528D01*
X174242D01*
Y88741D01*
Y88955D01*
Y89169D01*
Y89382D01*
Y89596D01*
Y89810D01*
X174455D01*
Y90024D01*
Y90237D01*
Y90451D01*
Y90665D01*
Y90878D01*
Y91092D01*
Y91306D01*
Y91519D01*
Y91733D01*
Y91947D01*
Y92161D01*
Y92374D01*
Y92588D01*
Y92802D01*
Y93015D01*
X174669D01*
Y93229D01*
Y93443D01*
Y93657D01*
Y93870D01*
Y94084D01*
Y94298D01*
Y94511D01*
Y94725D01*
Y94939D01*
Y95153D01*
Y95366D01*
Y95580D01*
Y95794D01*
Y96007D01*
Y96221D01*
Y96435D01*
Y96649D01*
Y96862D01*
Y97076D01*
Y97290D01*
X174455D01*
Y97503D01*
Y97717D01*
Y97931D01*
Y98145D01*
Y98358D01*
Y98572D01*
Y98786D01*
Y98999D01*
Y99213D01*
Y99427D01*
Y99640D01*
Y99854D01*
Y100068D01*
X174242D01*
Y100282D01*
Y100495D01*
Y100709D01*
Y100923D01*
Y101136D01*
X174028D01*
Y101350D01*
Y101564D01*
Y101778D01*
X173814D01*
Y101991D01*
Y102205D01*
X173600D01*
Y102419D01*
Y102632D01*
Y102846D01*
X173387D01*
Y103060D01*
Y103273D01*
X173173D01*
Y103487D01*
Y103701D01*
X172959D01*
Y103915D01*
Y104128D01*
X172746D01*
Y104342D01*
Y104556D01*
X172532D01*
Y104769D01*
X172318D01*
Y104983D01*
Y105197D01*
X172105D01*
Y105411D01*
X171891D01*
Y105624D01*
Y105838D01*
X171677D01*
Y106052D01*
X171463D01*
Y106265D01*
Y106479D01*
X171250D01*
Y106693D01*
X171036D01*
Y106906D01*
X170822D01*
Y107120D01*
X170608D01*
Y107334D01*
X170395D01*
Y107548D01*
X170181D01*
Y107761D01*
X169967D01*
Y107975D01*
X169754D01*
Y108189D01*
X169540D01*
Y108403D01*
X169326D01*
Y108616D01*
X169113D01*
Y108830D01*
X168899D01*
Y109044D01*
X168685D01*
Y109257D01*
X168258D01*
Y109471D01*
X168044D01*
Y109685D01*
X167830D01*
Y109898D01*
X167617D01*
Y110112D01*
X167403D01*
Y110326D01*
X167189D01*
Y110539D01*
X166975D01*
Y110753D01*
X166548D01*
Y110967D01*
X166334D01*
Y111181D01*
X166121D01*
Y111394D01*
X165907D01*
Y111608D01*
X165693D01*
Y111822D01*
X165266D01*
Y112036D01*
X165052D01*
Y112249D01*
X164838D01*
Y112463D01*
X164625D01*
Y112677D01*
X164411D01*
Y112890D01*
X164197D01*
Y113104D01*
X163984D01*
Y113318D01*
X163770D01*
Y113531D01*
X163556D01*
Y113745D01*
X163342D01*
Y113959D01*
X163129D01*
Y114173D01*
X162915D01*
Y114386D01*
Y114600D01*
Y114814D01*
X163129D01*
Y115027D01*
X163770D01*
Y114814D01*
X164411D01*
Y114600D01*
X164838D01*
Y114386D01*
X165266D01*
Y114173D01*
X165693D01*
Y113959D01*
X166121D01*
Y113745D01*
X166548D01*
Y113531D01*
X166762D01*
Y113318D01*
X167189D01*
Y113104D01*
X167403D01*
Y112890D01*
X167617D01*
Y112677D01*
X168044D01*
Y112463D01*
X168258D01*
Y112249D01*
X168472D01*
Y112036D01*
X168899D01*
Y111822D01*
X169113D01*
Y111608D01*
X169326D01*
Y111394D01*
X169540D01*
Y111181D01*
X169754D01*
Y110967D01*
X170181D01*
Y110753D01*
X170395D01*
Y110539D01*
X170608D01*
Y110326D01*
X170822D01*
Y110112D01*
X171036D01*
Y109898D01*
X171463D01*
Y109685D01*
X171677D01*
Y109471D01*
X171891D01*
Y109257D01*
X172105D01*
Y109044D01*
X172532D01*
Y108830D01*
X172959D01*
Y108616D01*
X173814D01*
Y108830D01*
X174242D01*
Y109044D01*
X174455D01*
Y109257D01*
X174669D01*
Y109471D01*
X174883D01*
Y109685D01*
X175096D01*
Y109898D01*
Y110112D01*
Y110326D01*
Y110539D01*
Y110753D01*
Y110967D01*
Y111181D01*
Y111394D01*
Y111608D01*
Y111822D01*
Y112036D01*
Y112249D01*
Y112463D01*
Y112677D01*
Y112890D01*
Y113104D01*
Y113318D01*
Y113531D01*
Y113745D01*
Y113959D01*
Y114173D01*
Y114386D01*
X175310D01*
Y114600D01*
Y114814D01*
Y115027D01*
Y115241D01*
Y115455D01*
Y115668D01*
Y115882D01*
X175524D01*
Y116096D01*
X175738D01*
Y116310D01*
X176379D01*
Y116096D01*
Y115882D01*
X176592D01*
Y115668D01*
Y115455D01*
X176806D01*
Y115241D01*
Y115027D01*
X177020D01*
Y114814D01*
Y114600D01*
Y114386D01*
X177234D01*
Y114173D01*
Y113959D01*
Y113745D01*
Y113531D01*
Y113318D01*
X177447D01*
Y113104D01*
Y112890D01*
Y112677D01*
Y112463D01*
Y112249D01*
Y112036D01*
Y111822D01*
Y111608D01*
Y111394D01*
X177661D01*
Y111181D01*
Y110967D01*
Y110753D01*
Y110539D01*
Y110326D01*
Y110112D01*
Y109898D01*
Y109685D01*
Y109471D01*
Y109257D01*
Y109044D01*
Y108830D01*
Y108616D01*
Y108403D01*
Y108189D01*
Y107975D01*
Y107761D01*
Y107548D01*
Y107334D01*
Y107120D01*
Y106906D01*
Y106693D01*
Y106479D01*
Y106265D01*
Y106052D01*
Y105838D01*
Y105624D01*
Y105411D01*
Y105197D01*
Y104983D01*
Y104769D01*
Y104556D01*
Y104342D01*
Y104128D01*
Y103915D01*
Y103701D01*
Y103487D01*
Y103273D01*
Y103060D01*
Y102846D01*
Y102632D01*
Y102419D01*
Y102205D01*
Y101991D01*
Y101778D01*
Y101564D01*
Y101350D01*
Y101136D01*
Y100923D01*
Y100709D01*
Y100495D01*
Y100282D01*
Y100068D01*
Y99854D01*
Y99640D01*
Y99427D01*
Y99213D01*
Y98999D01*
Y98786D01*
Y98572D01*
Y98358D01*
Y98145D01*
Y97931D01*
Y97717D01*
Y97503D01*
Y97290D01*
Y97076D01*
Y96862D01*
Y96649D01*
Y96435D01*
Y96221D01*
Y96007D01*
Y95794D01*
Y95580D01*
Y95366D01*
Y95153D01*
Y94939D01*
Y94725D01*
Y94511D01*
Y94298D01*
Y94084D01*
Y93870D01*
Y93657D01*
Y93443D01*
Y93229D01*
Y93015D01*
Y92802D01*
X177875D01*
Y92588D01*
X178088D01*
Y92802D01*
X178516D01*
Y93015D01*
X178729D01*
Y93229D01*
Y93443D01*
X178943D01*
Y93657D01*
X179157D01*
Y93870D01*
Y94084D01*
Y94298D01*
X179371D01*
Y94511D01*
Y94725D01*
Y94939D01*
X179584D01*
Y95153D01*
Y95366D01*
Y95580D01*
X179798D01*
Y95794D01*
Y96007D01*
Y96221D01*
X180012D01*
Y96435D01*
Y96649D01*
Y96862D01*
Y97076D01*
X180225D01*
Y97290D01*
Y97503D01*
Y97717D01*
X180439D01*
Y97931D01*
Y98145D01*
Y98358D01*
X180653D01*
Y98572D01*
Y98786D01*
Y98999D01*
X180867D01*
Y99213D01*
Y99427D01*
Y99640D01*
X181080D01*
Y99854D01*
Y100068D01*
Y100282D01*
X181294D01*
Y100495D01*
Y100709D01*
X181508D01*
Y100923D01*
Y101136D01*
Y101350D01*
X181721D01*
Y101564D01*
Y101778D01*
X181935D01*
Y101991D01*
Y102205D01*
X182149D01*
Y102419D01*
X182790D01*
Y102205D01*
X183004D01*
Y101991D01*
Y101778D01*
Y101564D01*
X183217D01*
Y101350D01*
Y101136D01*
Y100923D01*
Y100709D01*
Y100495D01*
Y100282D01*
Y100068D01*
Y99854D01*
X183004D01*
Y99640D01*
Y99427D01*
Y99213D01*
Y98999D01*
Y98786D01*
Y98572D01*
Y98358D01*
Y98145D01*
Y97931D01*
X182790D01*
Y97717D01*
Y97503D01*
Y97290D01*
Y97076D01*
Y96862D01*
Y96649D01*
X182576D01*
Y96435D01*
Y96221D01*
Y96007D01*
Y95794D01*
Y95580D01*
X182362D01*
Y95366D01*
Y95153D01*
Y94939D01*
Y94725D01*
X182149D01*
Y94511D01*
Y94298D01*
Y94084D01*
Y93870D01*
X181935D01*
Y93657D01*
Y93443D01*
Y93229D01*
Y93015D01*
X181721D01*
Y92802D01*
Y92588D01*
Y92374D01*
Y92161D01*
X181508D01*
Y91947D01*
Y91733D01*
Y91519D01*
X181294D01*
Y91306D01*
Y91092D01*
Y90878D01*
X181080D01*
Y90665D01*
Y90451D01*
Y90237D01*
Y90024D01*
X180867D01*
Y89810D01*
Y89596D01*
Y89382D01*
X180653D01*
Y89169D01*
Y88955D01*
Y88741D01*
X180439D01*
Y88528D01*
Y88314D01*
X180225D01*
Y88100D01*
Y87887D01*
Y87673D01*
X180012D01*
Y87459D01*
Y87245D01*
Y87032D01*
X179798D01*
Y86818D01*
Y86604D01*
X179584D01*
Y86391D01*
Y86177D01*
Y85963D01*
X179371D01*
Y85749D01*
Y85536D01*
X179157D01*
Y85322D01*
Y85108D01*
Y84895D01*
X178943D01*
Y84681D01*
Y84467D01*
X178729D01*
Y84254D01*
Y84040D01*
X178516D01*
Y83826D01*
Y83612D01*
X178302D01*
Y83399D01*
Y83185D01*
X178088D01*
Y82971D01*
Y82758D01*
X177875D01*
Y82544D01*
Y82330D01*
X177661D01*
Y82116D01*
Y81903D01*
Y81689D01*
X177447D01*
Y81475D01*
Y81262D01*
X177234D01*
Y81048D01*
Y80834D01*
X177020D01*
Y80620D01*
Y80407D01*
X176806D01*
Y80193D01*
Y79979D01*
X176592D01*
Y79766D01*
X176379D01*
Y79552D01*
Y79338D01*
X176165D01*
Y79124D01*
Y78911D01*
X175951D01*
Y78697D01*
Y78483D01*
X175738D01*
Y78270D01*
X175524D01*
Y78056D01*
Y77842D01*
X175310D01*
Y77628D01*
Y77415D01*
X175096D01*
Y77201D01*
X174883D01*
Y76987D01*
Y76774D01*
X174669D01*
Y76560D01*
X174455D01*
Y76346D01*
X174242D01*
Y76133D01*
Y75919D01*
X174028D01*
Y75705D01*
X173814D01*
Y75491D01*
X173600D01*
Y75278D01*
X173387D01*
Y75064D01*
Y74850D01*
X173173D01*
Y74637D01*
X172959D01*
Y74423D01*
X172746D01*
Y74209D01*
X172318D01*
Y73996D01*
X172105D01*
Y73782D01*
X171891D01*
Y73568D01*
X171677D01*
Y73354D01*
X171463D01*
Y73141D01*
X171036D01*
Y72927D01*
X170822D01*
Y72713D01*
X170608D01*
Y72500D01*
X170181D01*
Y72286D01*
X169967D01*
Y72072D01*
X169754D01*
Y71858D01*
X169326D01*
Y71645D01*
X169113D01*
Y71431D01*
X168685D01*
Y71217D01*
X168258D01*
Y71004D01*
X168044D01*
Y70790D01*
X167617D01*
Y70576D01*
X167189D01*
Y70363D01*
X166975D01*
Y70149D01*
X166548D01*
Y69935D01*
X166334D01*
Y69721D01*
X165907D01*
Y69508D01*
X165480D01*
Y69294D01*
X165266D01*
Y69080D01*
X164838D01*
Y68866D01*
X164411D01*
Y68653D01*
X163984D01*
Y68439D01*
X163770D01*
Y68225D01*
X163342D01*
Y68012D01*
X162915D01*
Y67798D01*
X162488D01*
Y67584D01*
X162274D01*
Y67371D01*
X161846D01*
Y67157D01*
X161419D01*
Y66943D01*
X161205D01*
Y66729D01*
X160778D01*
Y66516D01*
X160351D01*
Y66302D01*
X160137D01*
Y66088D01*
X159709D01*
Y65875D01*
X159496D01*
Y65661D01*
X159068D01*
Y65447D01*
X158855D01*
Y65233D01*
X158427D01*
Y65020D01*
X158213D01*
Y64806D01*
X157786D01*
Y64592D01*
X157572D01*
Y64379D01*
X157145D01*
Y64165D01*
X156931D01*
Y63951D01*
X156504D01*
Y63737D01*
X156290D01*
Y63524D01*
X156076D01*
Y63310D01*
X155863D01*
Y63096D01*
X155649D01*
Y62883D01*
X155435D01*
Y62669D01*
X155222D01*
Y62455D01*
Y62242D01*
X155008D01*
Y62028D01*
X154794D01*
Y61814D01*
Y61600D01*
X154580D01*
Y61387D01*
Y61173D01*
Y60959D01*
Y60746D01*
X154367D01*
Y60532D01*
Y60318D01*
Y60105D01*
Y59891D01*
Y59677D01*
Y59463D01*
Y59250D01*
Y59036D01*
Y58822D01*
Y58609D01*
Y58395D01*
X154580D01*
Y58181D01*
Y57967D01*
Y57754D01*
Y57540D01*
Y57326D01*
Y57113D01*
Y56899D01*
X154794D01*
Y56685D01*
Y56472D01*
Y56258D01*
X155008D01*
Y56044D01*
X155222D01*
Y55830D01*
X158000D01*
Y56044D01*
X160351D01*
Y56258D01*
X163129D01*
Y56472D01*
X165693D01*
Y56685D01*
X168044D01*
Y56899D01*
X170608D01*
Y57113D01*
X173600D01*
Y57326D01*
X175738D01*
Y57540D01*
X178302D01*
Y57754D01*
X180867D01*
Y57967D01*
X183217D01*
Y58181D01*
X185995D01*
Y58395D01*
X188560D01*
Y58609D01*
X190911D01*
Y58822D01*
X193475D01*
Y59036D01*
X195826D01*
Y59250D01*
X198391D01*
Y59463D01*
X200528D01*
Y59677D01*
X202878D01*
Y59891D01*
X204588D01*
Y60105D01*
X206511D01*
Y60318D01*
X208221D01*
Y60532D01*
X210358D01*
Y60746D01*
X211641D01*
Y60959D01*
X213136D01*
Y61173D01*
X215060D01*
Y61387D01*
X216342D01*
Y61600D01*
X218052D01*
Y61814D01*
X219548D01*
Y62028D01*
X221044D01*
Y62242D01*
X222967D01*
Y62455D01*
X224890D01*
Y62242D01*
Y62028D01*
Y61814D01*
X224677D01*
Y61600D01*
Y61387D01*
X224463D01*
Y61173D01*
X224249D01*
Y60959D01*
X224036D01*
Y60746D01*
Y60532D01*
X223822D01*
Y60318D01*
X223608D01*
Y60105D01*
X223394D01*
Y59891D01*
X223181D01*
Y59677D01*
X222967D01*
Y59463D01*
Y59250D01*
X222753D01*
Y59036D01*
X222540D01*
Y58822D01*
X222112D01*
Y58609D01*
X221898D01*
Y58395D01*
X221685D01*
Y58181D01*
X221257D01*
Y57967D01*
X220830D01*
Y57754D01*
X220189D01*
Y57540D01*
X219120D01*
Y57326D01*
X217838D01*
Y57113D01*
X216556D01*
Y56899D01*
X215060D01*
Y56685D01*
X213350D01*
Y56472D01*
X212068D01*
Y56258D01*
X210786D01*
Y56044D01*
X209290D01*
Y55830D01*
X208435D01*
Y55617D01*
X208007D01*
Y55403D01*
X207580D01*
Y55189D01*
Y54975D01*
X207366D01*
Y54762D01*
X207153D01*
Y54548D01*
X206939D01*
Y54334D01*
Y54121D01*
Y53907D01*
X207153D01*
Y53693D01*
X206939D01*
Y53479D01*
Y53266D01*
X206511D01*
Y53052D01*
X206298D01*
Y52838D01*
X206084D01*
Y52625D01*
X205870D01*
Y52411D01*
X205657D01*
Y52197D01*
Y51984D01*
Y51770D01*
Y51556D01*
Y51342D01*
Y51129D01*
Y50915D01*
Y50701D01*
Y50488D01*
Y50274D01*
X205229D01*
Y50060D01*
X204802D01*
Y49847D01*
X204588D01*
Y49633D01*
X204374D01*
Y49419D01*
Y49205D01*
X204161D01*
Y48992D01*
Y48778D01*
Y48564D01*
Y48351D01*
Y48137D01*
Y47923D01*
X203947D01*
Y47709D01*
X203520D01*
Y47496D01*
X203092D01*
Y47282D01*
X202878D01*
Y47068D01*
X202665D01*
Y46855D01*
Y46641D01*
X202451D01*
Y46427D01*
Y46213D01*
Y46000D01*
Y45786D01*
Y45572D01*
Y45359D01*
Y45145D01*
Y44931D01*
Y44717D01*
X202237D01*
Y44504D01*
X201810D01*
Y44290D01*
X201169D01*
Y44076D01*
X200741D01*
Y43863D01*
Y43649D01*
X200528D01*
Y43435D01*
Y43222D01*
X200314D01*
Y43008D01*
Y42794D01*
X200100D01*
Y42581D01*
Y42367D01*
X199887D01*
Y42153D01*
X199673D01*
Y41939D01*
X199032D01*
Y41726D01*
X198177D01*
Y41512D01*
Y41298D01*
Y41085D01*
X198391D01*
Y40871D01*
X198604D01*
Y40657D01*
X198818D01*
Y40443D01*
X199032D01*
Y40230D01*
X199245D01*
Y40016D01*
X199459D01*
Y40230D01*
X199673D01*
Y40443D01*
X199887D01*
Y40657D01*
X200955D01*
Y40443D01*
X201382D01*
Y40230D01*
X201596D01*
Y40016D01*
X202024D01*
Y39802D01*
X202237D01*
Y39588D01*
X202665D01*
Y39375D01*
X202878D01*
Y39161D01*
X203092D01*
Y38947D01*
X203306D01*
Y38734D01*
X203520D01*
Y38520D01*
X203947D01*
Y38306D01*
X204374D01*
Y38093D01*
X204588D01*
Y37879D01*
X204802D01*
Y37665D01*
X205229D01*
Y37451D01*
X205657D01*
Y37238D01*
X206084D01*
Y37024D01*
X206298D01*
Y36810D01*
X206725D01*
Y36597D01*
X207153D01*
Y36383D01*
X207580D01*
Y36169D01*
X208007D01*
Y35956D01*
X208435D01*
Y35742D01*
X208862D01*
Y35528D01*
X209290D01*
Y35314D01*
X209717D01*
Y35101D01*
X210144D01*
Y34887D01*
X210572D01*
Y34673D01*
X210786D01*
Y34460D01*
X210999D01*
Y34246D01*
Y34032D01*
Y33818D01*
X210786D01*
Y33605D01*
Y33391D01*
X210572D01*
Y33177D01*
Y32964D01*
X210358D01*
Y32750D01*
X210144D01*
Y32536D01*
Y32322D01*
X209931D01*
Y32109D01*
X209717D01*
Y31895D01*
X209290D01*
Y31681D01*
X208862D01*
Y31468D01*
X208435D01*
Y31254D01*
X208007D01*
Y31040D01*
X207366D01*
Y30827D01*
X206725D01*
Y30613D01*
X206298D01*
Y30399D01*
X205657D01*
Y30185D01*
X205015D01*
Y29972D01*
X204374D01*
Y29758D01*
X203733D01*
Y29544D01*
X202878D01*
Y29331D01*
X202237D01*
Y29117D01*
X201596D01*
Y28903D01*
X200741D01*
Y28689D01*
X200100D01*
Y28476D01*
X199245D01*
Y28262D01*
X198604D01*
Y28048D01*
X197749D01*
Y27835D01*
X197108D01*
Y27621D01*
X196254D01*
Y27407D01*
X195399D01*
Y27193D01*
X194757D01*
Y26980D01*
X193903D01*
Y26766D01*
X193048D01*
Y26552D01*
X192193D01*
Y26339D01*
X191338D01*
Y26125D01*
X190483D01*
Y25911D01*
X189629D01*
Y25697D01*
X188774D01*
Y25484D01*
X187919D01*
Y25270D01*
X187064D01*
Y25056D01*
X185995D01*
Y24843D01*
X185141D01*
Y24629D01*
X184072D01*
Y24415D01*
X183217D01*
Y24202D01*
X182149D01*
Y23988D01*
X181080D01*
Y23774D01*
X180012D01*
Y23561D01*
X178943D01*
Y23347D01*
X177875D01*
Y23133D01*
X177020D01*
Y22919D01*
X175951D01*
Y22706D01*
X175310D01*
Y22492D01*
X174242D01*
Y22278D01*
X172532D01*
Y22064D01*
X170822D01*
Y21851D01*
X169326D01*
Y21637D01*
X167830D01*
Y21423D01*
X166548D01*
Y21210D01*
X164838D01*
Y20996D01*
X163129D01*
Y20782D01*
X161419D01*
Y20569D01*
X159282D01*
Y20355D01*
X157145D01*
Y20141D01*
X152230D01*
Y19927D01*
X152443D01*
Y19714D01*
Y19500D01*
X152657D01*
Y19286D01*
Y19073D01*
X152871D01*
Y18859D01*
Y18645D01*
X153085D01*
Y18431D01*
Y18218D01*
X153298D01*
Y18004D01*
Y17790D01*
X153512D01*
Y17577D01*
X153726D01*
Y17363D01*
Y17149D01*
X153939D01*
Y16936D01*
X154153D01*
Y16722D01*
Y16508D01*
X154367D01*
Y16294D01*
X154580D01*
Y16081D01*
Y15867D01*
X154794D01*
Y15653D01*
X155008D01*
Y15439D01*
Y15226D01*
X155222D01*
Y15012D01*
X155435D01*
Y14798D01*
X155649D01*
Y14585D01*
X155863D01*
Y14371D01*
Y14157D01*
X156076D01*
Y13944D01*
X156290D01*
Y13730D01*
X156504D01*
Y13516D01*
X156718D01*
Y13303D01*
Y13089D01*
X156931D01*
Y12875D01*
X157145D01*
Y12661D01*
X157359D01*
Y12448D01*
X157572D01*
Y12234D01*
X157786D01*
Y12020D01*
X158000D01*
Y11806D01*
X158213D01*
Y11593D01*
X158427D01*
Y11379D01*
X158641D01*
Y11165D01*
X158855D01*
Y10952D01*
X159068D01*
Y10738D01*
X159282D01*
Y10524D01*
X159496D01*
Y10311D01*
X159709D01*
Y10097D01*
X159923D01*
Y9883D01*
X160137D01*
Y9669D01*
X160351D01*
Y9456D01*
X160564D01*
Y9242D01*
Y9028D01*
X160778D01*
Y8815D01*
X160992D01*
Y8601D01*
X161205D01*
Y8387D01*
Y8174D01*
X161419D01*
Y7960D01*
X161633D01*
Y7746D01*
Y7532D01*
X161846D01*
Y7319D01*
X162060D01*
Y7105D01*
Y6891D01*
X162274D01*
Y6678D01*
Y6464D01*
Y6250D01*
X162488D01*
Y6036D01*
Y5823D01*
Y5609D01*
Y5395D01*
Y5182D01*
Y4968D01*
Y4754D01*
Y4540D01*
Y4327D01*
Y4113D01*
X162274D01*
Y3899D01*
X162060D01*
Y3686D01*
X161419D01*
Y3472D01*
X160564D01*
Y3258D01*
X159709D01*
Y3045D01*
X158641D01*
Y2831D01*
X157572D01*
Y2617D01*
X156290D01*
Y2403D01*
X155008D01*
Y2190D01*
X153726D01*
Y1976D01*
X152230D01*
Y1762D01*
X150520D01*
Y1548D01*
X148383D01*
Y1335D01*
X136415D01*
Y1548D01*
X133851D01*
Y1762D01*
X132141D01*
Y1976D01*
X130645D01*
Y2190D01*
X129149D01*
Y2403D01*
X127867D01*
Y2617D01*
X126798D01*
Y2831D01*
X125516D01*
Y3045D01*
X124448D01*
Y3258D01*
X123379D01*
Y3472D01*
X122311D01*
Y3686D01*
X121883D01*
Y3899D01*
X121456D01*
Y4113D01*
X121242D01*
Y4327D01*
X121028D01*
Y4540D01*
Y4754D01*
Y4968D01*
Y5182D01*
Y5395D01*
Y5609D01*
Y5823D01*
Y6036D01*
Y6250D01*
X121242D01*
Y6464D01*
Y6678D01*
Y6891D01*
X121456D01*
Y7105D01*
Y7319D01*
X121669D01*
Y7532D01*
Y7746D01*
X121883D01*
Y7960D01*
X122097D01*
Y8174D01*
X122311D01*
Y8387D01*
Y8601D01*
X122524D01*
Y8815D01*
X122738D01*
Y9028D01*
X122952D01*
Y9242D01*
X123165D01*
Y9456D01*
X123379D01*
Y9669D01*
X123593D01*
Y9883D01*
X123807D01*
Y10097D01*
Y10311D01*
X124020D01*
Y10524D01*
X124234D01*
Y10738D01*
X124448D01*
Y10952D01*
X124661D01*
Y11165D01*
X124875D01*
Y11379D01*
X125089D01*
Y11593D01*
X125303D01*
Y11806D01*
X125516D01*
Y12020D01*
X125730D01*
Y12234D01*
X125944D01*
Y12448D01*
X126157D01*
Y12661D01*
Y12875D01*
X126371D01*
Y13089D01*
X126585D01*
Y13303D01*
X126798D01*
Y13516D01*
X127012D01*
Y13730D01*
X127226D01*
Y13944D01*
X127440D01*
Y14157D01*
X127653D01*
Y14371D01*
X127867D01*
Y14585D01*
X128081D01*
Y14798D01*
Y15012D01*
X128294D01*
Y15226D01*
X128508D01*
Y15439D01*
X128722D01*
Y15653D01*
X128936D01*
Y15867D01*
Y16081D01*
X129149D01*
Y16294D01*
X129363D01*
Y16508D01*
X129577D01*
Y16722D01*
Y16936D01*
X129790D01*
Y17149D01*
X130004D01*
Y17363D01*
X130218D01*
Y17577D01*
X130431D01*
Y17790D01*
Y18004D01*
X130645D01*
Y18218D01*
Y18431D01*
X130859D01*
Y18645D01*
X131073D01*
Y18859D01*
Y19073D01*
X131286D01*
Y19286D01*
Y19500D01*
X131500D01*
Y19714D01*
Y19927D01*
Y20141D01*
X127440D01*
Y20355D01*
X124448D01*
Y20569D01*
X122524D01*
Y20782D01*
X120601D01*
Y20996D01*
X118891D01*
Y21210D01*
X117395D01*
Y21423D01*
X115899D01*
Y21637D01*
X114403D01*
Y21851D01*
X112694D01*
Y22064D01*
X111198D01*
Y22278D01*
X109702D01*
Y22492D01*
X108633D01*
Y22706D01*
X107778D01*
Y22919D01*
X106924D01*
Y23133D01*
X105855D01*
Y23347D01*
X104787D01*
Y23561D01*
X103932D01*
Y23774D01*
X102863D01*
Y23988D01*
X101795D01*
Y24202D01*
X100940D01*
Y24415D01*
X99871D01*
Y24629D01*
X99016D01*
Y24843D01*
X97948D01*
Y25056D01*
X97093D01*
Y25270D01*
X96238D01*
Y25484D01*
X95170D01*
Y25697D01*
X94315D01*
Y25911D01*
X93460D01*
Y26125D01*
X92605D01*
Y26339D01*
X91750D01*
Y26552D01*
X90895D01*
Y26766D01*
X90041D01*
Y26980D01*
X89186D01*
Y27193D01*
X88545D01*
Y27407D01*
X87690D01*
Y27621D01*
X86835D01*
Y27835D01*
X86194D01*
Y28048D01*
X85339D01*
Y28262D01*
X84698D01*
Y28476D01*
X83843D01*
Y28689D01*
X83202D01*
Y28903D01*
X82347D01*
Y29117D01*
X81706D01*
Y29331D01*
X81065D01*
Y29544D01*
X80210D01*
Y29758D01*
X79569D01*
Y29972D01*
X78928D01*
Y30185D01*
X78287D01*
Y30399D01*
X77646D01*
Y30613D01*
X77218D01*
Y30827D01*
X76577D01*
Y31040D01*
X75936D01*
Y31254D01*
X75509D01*
Y31468D01*
X75081D01*
Y31681D01*
X74654D01*
Y31895D01*
X74226D01*
Y32109D01*
X74013D01*
Y32322D01*
X73799D01*
Y32536D01*
Y32750D01*
X73585D01*
Y32964D01*
X73371D01*
Y33177D01*
Y33391D01*
X73158D01*
Y33605D01*
Y33818D01*
X72944D01*
Y34032D01*
Y34246D01*
Y34460D01*
X73158D01*
Y34673D01*
X73371D01*
Y34887D01*
X73799D01*
Y35101D01*
X74226D01*
Y35314D01*
X74654D01*
Y35528D01*
X75081D01*
Y35742D01*
X75509D01*
Y35956D01*
X75936D01*
Y36169D01*
X76363D01*
Y36383D01*
X76791D01*
Y36597D01*
X77218D01*
Y36810D01*
X77432D01*
Y37024D01*
X77859D01*
Y37238D01*
X78287D01*
Y37451D01*
X78714D01*
Y37665D01*
X78928D01*
Y37879D01*
X79355D01*
Y38093D01*
X79569D01*
Y38306D01*
X79996D01*
Y38520D01*
X80210D01*
Y38734D01*
X80424D01*
Y38947D01*
X80851D01*
Y39161D01*
X81065D01*
Y39375D01*
X81279D01*
Y39588D01*
X81706D01*
Y39802D01*
X81920D01*
Y40016D01*
X82134D01*
Y40230D01*
X82561D01*
Y40443D01*
X82988D01*
Y40657D01*
X84057D01*
Y40443D01*
X84271D01*
Y40230D01*
X84484D01*
Y40016D01*
X84698D01*
Y40230D01*
X84912D01*
Y40443D01*
X85125D01*
Y40657D01*
X85339D01*
Y40871D01*
X85553D01*
Y41085D01*
Y41298D01*
X85767D01*
Y41512D01*
X85553D01*
Y41726D01*
X84912D01*
Y41939D01*
X84271D01*
Y42153D01*
X84057D01*
Y42367D01*
X83843D01*
Y42581D01*
X83629D01*
Y42794D01*
Y43008D01*
Y43222D01*
X83416D01*
Y43435D01*
Y43649D01*
X83202D01*
Y43863D01*
Y44076D01*
X82775D01*
Y44290D01*
X82134D01*
Y44504D01*
X81706D01*
Y44717D01*
X81492D01*
Y44931D01*
Y45145D01*
Y45359D01*
Y45572D01*
Y45786D01*
Y46000D01*
Y46213D01*
X81279D01*
Y46427D01*
Y46641D01*
Y46855D01*
Y47068D01*
X81065D01*
Y47282D01*
Y47496D01*
X80638D01*
Y47709D01*
X79996D01*
Y47923D01*
X79783D01*
Y48137D01*
Y48351D01*
Y48564D01*
Y48778D01*
Y48992D01*
Y49205D01*
X79569D01*
Y49419D01*
Y49633D01*
Y49847D01*
X79142D01*
Y50060D01*
X78714D01*
Y50274D01*
X78287D01*
Y50488D01*
Y50701D01*
Y50915D01*
Y51129D01*
Y51342D01*
Y51556D01*
Y51770D01*
Y51984D01*
Y52197D01*
X78073D01*
Y52411D01*
Y52625D01*
X77859D01*
Y52838D01*
X77432D01*
Y53052D01*
X77218D01*
Y53266D01*
X77004D01*
Y53479D01*
X76791D01*
Y53693D01*
Y53907D01*
X77004D01*
Y54121D01*
Y54334D01*
Y54548D01*
X76791D01*
Y54762D01*
X76577D01*
Y54975D01*
X76363D01*
Y55189D01*
X76150D01*
Y55403D01*
X75936D01*
Y55617D01*
X75722D01*
Y55830D01*
X74440D01*
Y56044D01*
X73158D01*
Y56258D01*
X71662D01*
Y56472D01*
X70380D01*
Y56685D01*
X68884D01*
Y56899D01*
X67388D01*
Y57113D01*
X65892D01*
Y57326D01*
X64823D01*
Y57540D01*
X63755D01*
Y57754D01*
X63113D01*
Y57967D01*
X62686D01*
Y58181D01*
X62259D01*
Y58395D01*
X62045D01*
Y58609D01*
X61831D01*
Y58822D01*
X61404D01*
Y59036D01*
X61190D01*
Y59250D01*
X60976D01*
Y59463D01*
X60763D01*
Y59677D01*
X60549D01*
Y59891D01*
Y60105D01*
X60335D01*
Y60318D01*
X60122D01*
Y60532D01*
X59908D01*
Y60746D01*
X59694D01*
Y60959D01*
Y61173D01*
X59481D01*
Y61387D01*
X59267D01*
Y61600D01*
Y61814D01*
X59053D01*
Y62028D01*
Y62242D01*
X58839D01*
Y62455D01*
X61404D01*
Y62242D01*
X62686D01*
Y62028D01*
X64182D01*
Y61814D01*
X65892D01*
Y61600D01*
X67388D01*
Y61387D01*
X69097D01*
Y61173D01*
X70593D01*
Y60959D01*
X72303D01*
Y60746D01*
X74013D01*
Y60532D01*
X75722D01*
Y60318D01*
X77432D01*
Y60105D01*
X79142D01*
Y59891D01*
X80851D01*
Y59677D01*
X82988D01*
Y59463D01*
X85125D01*
Y59250D01*
X88117D01*
Y59036D01*
X90468D01*
Y58822D01*
X92819D01*
Y58609D01*
X95383D01*
Y58395D01*
X97734D01*
Y58181D01*
X100512D01*
Y57967D01*
X103291D01*
Y57754D01*
X105641D01*
Y57540D01*
X108206D01*
Y57326D01*
X110343D01*
Y57113D01*
X113121D01*
Y56899D01*
X115686D01*
Y56685D01*
X118464D01*
Y56472D01*
X121028D01*
Y56258D01*
X123593D01*
Y56044D01*
X126157D01*
Y55830D01*
X130645D01*
Y56044D01*
X130859D01*
Y56258D01*
Y56472D01*
Y56685D01*
X131073D01*
Y56899D01*
Y57113D01*
Y57326D01*
X131286D01*
Y57540D01*
Y57754D01*
Y57967D01*
Y58181D01*
Y58395D01*
Y58609D01*
Y58822D01*
X131500D01*
Y59036D01*
Y59250D01*
Y59463D01*
Y59677D01*
Y59891D01*
Y60105D01*
Y60318D01*
X131286D01*
Y60532D01*
Y60746D01*
Y60959D01*
Y61173D01*
X131073D01*
Y61387D01*
Y61600D01*
X130859D01*
Y61814D01*
Y62028D01*
X130645D01*
Y62242D01*
Y62455D01*
X130431D01*
Y62669D01*
X130218D01*
Y62883D01*
X130004D01*
Y63096D01*
X129790D01*
Y63310D01*
X129577D01*
Y63524D01*
X129363D01*
Y63737D01*
X129149D01*
Y63951D01*
X128936D01*
Y64165D01*
X128508D01*
Y64379D01*
X128294D01*
Y64592D01*
X127867D01*
Y64806D01*
X127653D01*
Y65020D01*
X127226D01*
Y65233D01*
X127012D01*
Y65447D01*
X126585D01*
Y65661D01*
X126371D01*
Y65875D01*
X126157D01*
Y66088D01*
X125730D01*
Y66302D01*
X125303D01*
Y66516D01*
X124875D01*
Y66729D01*
X124661D01*
Y66943D01*
X124234D01*
Y67157D01*
X123807D01*
Y67371D01*
X123379D01*
Y67584D01*
X123165D01*
Y67798D01*
X122738D01*
Y68012D01*
X122311D01*
Y68225D01*
X121883D01*
Y68439D01*
X121669D01*
Y68653D01*
X121242D01*
Y68866D01*
X120815D01*
Y69080D01*
X120601D01*
Y69294D01*
X120174D01*
Y69508D01*
X119746D01*
Y69721D01*
X119532D01*
Y69935D01*
X119105D01*
Y70149D01*
X118677D01*
Y70363D01*
X118464D01*
Y70576D01*
X118036D01*
Y70790D01*
X117609D01*
Y71004D01*
X117395D01*
Y71217D01*
X116968D01*
Y71431D01*
X116754D01*
Y71645D01*
X116327D01*
Y71858D01*
X116113D01*
Y72072D01*
X115686D01*
Y72286D01*
X115472D01*
Y72500D01*
X115258D01*
Y72713D01*
X114831D01*
Y72927D01*
X114617D01*
Y73141D01*
X114403D01*
Y73354D01*
X113976D01*
Y73568D01*
X113762D01*
Y73782D01*
X113549D01*
Y73996D01*
X113335D01*
Y74209D01*
X113121D01*
Y74423D01*
X112907D01*
Y74637D01*
X112694D01*
Y74850D01*
X112480D01*
Y75064D01*
X112266D01*
Y75278D01*
X112053D01*
Y75491D01*
X111839D01*
Y75705D01*
X111625D01*
Y75919D01*
Y76133D01*
X111411D01*
Y76346D01*
X111198D01*
Y76560D01*
X110984D01*
Y76774D01*
Y76987D01*
X110770D01*
Y77201D01*
X110557D01*
Y77415D01*
Y77628D01*
X110343D01*
Y77842D01*
X110129D01*
Y78056D01*
Y78270D01*
X109915D01*
Y78483D01*
X109702D01*
Y78697D01*
Y78911D01*
X109488D01*
Y79124D01*
Y79338D01*
X109274D01*
Y79552D01*
Y79766D01*
X109061D01*
Y79979D01*
X108847D01*
Y80193D01*
Y80407D01*
X108633D01*
Y80620D01*
Y80834D01*
X108420D01*
Y81048D01*
Y81262D01*
X108206D01*
Y81475D01*
Y81689D01*
X107992D01*
Y81903D01*
Y82116D01*
X107778D01*
Y82330D01*
Y82544D01*
X107565D01*
Y82758D01*
Y82971D01*
Y83185D01*
X107351D01*
Y83399D01*
Y83612D01*
X107137D01*
Y83826D01*
Y84040D01*
X106924D01*
Y84254D01*
Y84467D01*
X106710D01*
Y84681D01*
Y84895D01*
Y85108D01*
X106496D01*
Y85322D01*
Y85536D01*
X106282D01*
Y85749D01*
Y85963D01*
X106069D01*
Y86177D01*
Y86391D01*
Y86604D01*
X105855D01*
Y86818D01*
Y87032D01*
Y87245D01*
X105641D01*
Y87459D01*
Y87673D01*
X105428D01*
Y87887D01*
Y88100D01*
Y88314D01*
X105214D01*
Y88528D01*
Y88741D01*
Y88955D01*
X105000D01*
Y89169D01*
Y89382D01*
Y89596D01*
X104787D01*
Y89810D01*
Y90024D01*
Y90237D01*
X104573D01*
Y90451D01*
Y90665D01*
Y90878D01*
X104359D01*
Y91092D01*
Y91306D01*
Y91519D01*
X104145D01*
Y91733D01*
Y91947D01*
Y92161D01*
X103932D01*
Y92374D01*
Y92588D01*
Y92802D01*
Y93015D01*
X103718D01*
Y93229D01*
Y93443D01*
Y93657D01*
X103504D01*
Y93870D01*
Y94084D01*
Y94298D01*
Y94511D01*
X103291D01*
Y94725D01*
Y94939D01*
Y95153D01*
Y95366D01*
Y95580D01*
X103077D01*
Y95794D01*
Y96007D01*
Y96221D01*
Y96435D01*
Y96649D01*
Y96862D01*
X102863D01*
Y97076D01*
Y97290D01*
Y97503D01*
Y97717D01*
Y97931D01*
Y98145D01*
Y98358D01*
Y98572D01*
X102649D01*
Y98786D01*
Y98999D01*
Y99213D01*
Y99427D01*
Y99640D01*
Y99854D01*
Y100068D01*
Y100282D01*
Y100495D01*
Y100709D01*
Y100923D01*
Y101136D01*
Y101350D01*
Y101564D01*
X102863D01*
Y101778D01*
Y101991D01*
Y102205D01*
X103077D01*
Y102419D01*
X103504D01*
Y102205D01*
X103718D01*
Y101991D01*
X103932D01*
Y101778D01*
Y101564D01*
X104145D01*
Y101350D01*
Y101136D01*
Y100923D01*
X104359D01*
Y100709D01*
Y100495D01*
X104573D01*
Y100282D01*
Y100068D01*
Y99854D01*
X104787D01*
Y99640D01*
Y99427D01*
Y99213D01*
Y98999D01*
X105000D01*
Y98786D01*
Y98572D01*
Y98358D01*
X105214D01*
Y98145D01*
Y97931D01*
Y97717D01*
X105428D01*
Y97503D01*
Y97290D01*
Y97076D01*
X105641D01*
Y96862D01*
Y96649D01*
Y96435D01*
X105855D01*
Y96221D01*
Y96007D01*
Y95794D01*
Y95580D01*
X106069D01*
Y95366D01*
Y95153D01*
X106282D01*
Y94939D01*
Y94725D01*
Y94511D01*
X106496D01*
Y94298D01*
Y94084D01*
Y93870D01*
X106710D01*
Y93657D01*
Y93443D01*
X106924D01*
Y93229D01*
X107137D01*
Y93015D01*
X107351D01*
Y92802D01*
X107565D01*
Y92588D01*
X107778D01*
Y92802D01*
X107992D01*
Y93015D01*
Y93229D01*
X108206D01*
Y93443D01*
Y93657D01*
Y93870D01*
Y94084D01*
Y94298D01*
Y94511D01*
Y94725D01*
Y94939D01*
Y95153D01*
Y95366D01*
Y95580D01*
Y95794D01*
Y96007D01*
Y96221D01*
Y96435D01*
Y96649D01*
Y96862D01*
Y97076D01*
Y97290D01*
Y97503D01*
Y97717D01*
Y97931D01*
Y98145D01*
X107992D01*
Y98358D01*
Y98572D01*
Y98786D01*
Y98999D01*
Y99213D01*
Y99427D01*
Y99640D01*
Y99854D01*
Y100068D01*
Y100282D01*
Y100495D01*
Y100709D01*
Y100923D01*
Y101136D01*
Y101350D01*
Y101564D01*
Y101778D01*
Y101991D01*
Y102205D01*
Y102419D01*
Y102632D01*
Y102846D01*
Y103060D01*
Y103273D01*
Y103487D01*
Y103701D01*
Y103915D01*
Y104128D01*
Y104342D01*
Y104556D01*
Y104769D01*
Y104983D01*
Y105197D01*
Y105411D01*
Y105624D01*
Y105838D01*
Y106052D01*
Y106265D01*
Y106479D01*
Y106693D01*
Y106906D01*
Y107120D01*
Y107334D01*
Y107548D01*
Y107761D01*
Y107975D01*
Y108189D01*
Y108403D01*
Y108616D01*
Y108830D01*
Y109044D01*
Y109257D01*
Y109471D01*
Y109685D01*
Y109898D01*
Y110112D01*
Y110326D01*
Y110539D01*
Y110753D01*
Y110967D01*
X108206D01*
Y111181D01*
Y111394D01*
Y111608D01*
Y111822D01*
Y112036D01*
Y112249D01*
Y112463D01*
Y112677D01*
Y112890D01*
Y113104D01*
X108420D01*
Y113318D01*
Y113531D01*
Y113745D01*
Y113959D01*
Y114173D01*
Y114386D01*
X108633D01*
Y114600D01*
Y114814D01*
Y115027D01*
X108847D01*
Y115241D01*
Y115455D01*
Y115668D01*
X109061D01*
Y115882D01*
X109274D01*
Y116096D01*
Y116310D01*
X109702D01*
Y116523D01*
X109915D01*
Y116310D01*
D02*
G37*
G36*
X251817Y66302D02*
X252031D01*
Y66088D01*
Y65875D01*
Y65661D01*
X251817D01*
Y65447D01*
Y65233D01*
Y65020D01*
X251604D01*
Y64806D01*
X251390D01*
Y64592D01*
X251176D01*
Y64379D01*
Y64165D01*
X250963D01*
Y63951D01*
X250749D01*
Y63737D01*
X250535D01*
Y63524D01*
X250108D01*
Y63310D01*
X249894D01*
Y63096D01*
X249680D01*
Y62883D01*
X249253D01*
Y62669D01*
X249039D01*
Y62455D01*
X248612D01*
Y62242D01*
X248184D01*
Y62028D01*
X247543D01*
Y61814D01*
X246689D01*
Y61600D01*
X245834D01*
Y61387D01*
X244551D01*
Y61173D01*
X243483D01*
Y60959D01*
X241987D01*
Y60746D01*
X240705D01*
Y60532D01*
X239422D01*
Y60318D01*
X237713D01*
Y60105D01*
X236431D01*
Y59891D01*
X235148D01*
Y59677D01*
X233652D01*
Y59463D01*
X232156D01*
Y59250D01*
X230660D01*
Y59036D01*
X229165D01*
Y58822D01*
X227668D01*
Y58609D01*
X226173D01*
Y58395D01*
X224249D01*
Y58609D01*
Y58822D01*
X224463D01*
Y59036D01*
X224677D01*
Y59250D01*
X224890D01*
Y59463D01*
X225104D01*
Y59677D01*
X225318D01*
Y59891D01*
X225532D01*
Y60105D01*
Y60318D01*
X225745D01*
Y60532D01*
X225959D01*
Y60746D01*
Y60959D01*
X226173D01*
Y61173D01*
X226386D01*
Y61387D01*
X226600D01*
Y61600D01*
Y61814D01*
X226814D01*
Y62028D01*
X227027D01*
Y62242D01*
Y62455D01*
X227241D01*
Y62669D01*
X227455D01*
Y62883D01*
X227668D01*
Y63096D01*
X228310D01*
Y63310D01*
X229806D01*
Y63524D01*
X231088D01*
Y63737D01*
X232584D01*
Y63951D01*
X234080D01*
Y64165D01*
X235576D01*
Y64379D01*
X237072D01*
Y64592D01*
X238568D01*
Y64806D01*
X239850D01*
Y65020D01*
X241346D01*
Y65233D01*
X243056D01*
Y65447D01*
X244338D01*
Y65661D01*
X246047D01*
Y65875D01*
X247330D01*
Y66088D01*
X249039D01*
Y66302D01*
X250749D01*
Y66516D01*
X251817D01*
Y66302D01*
D02*
G37*
G36*
X33408D02*
X35118D01*
Y66088D01*
X36614D01*
Y65875D01*
X38110D01*
Y65661D01*
X39606D01*
Y65447D01*
X40888D01*
Y65233D01*
X42384D01*
Y65020D01*
X43880D01*
Y64806D01*
X45376D01*
Y64592D01*
X46872D01*
Y64379D01*
X48368D01*
Y64165D01*
X49650D01*
Y63951D01*
X51146D01*
Y63737D01*
X52642D01*
Y63524D01*
X54138D01*
Y63310D01*
X55634D01*
Y63096D01*
X56275D01*
Y62883D01*
X56489D01*
Y62669D01*
X56702D01*
Y62455D01*
Y62242D01*
X56916D01*
Y62028D01*
X57130D01*
Y61814D01*
X57343D01*
Y61600D01*
Y61387D01*
X57557D01*
Y61173D01*
X57771D01*
Y60959D01*
Y60746D01*
X57985D01*
Y60532D01*
X58198D01*
Y60318D01*
X58412D01*
Y60105D01*
Y59891D01*
X58626D01*
Y59677D01*
X58839D01*
Y59463D01*
X59053D01*
Y59250D01*
X59267D01*
Y59036D01*
X59481D01*
Y58822D01*
Y58609D01*
X59694D01*
Y58395D01*
X57771D01*
Y58609D01*
X56275D01*
Y58822D01*
X54779D01*
Y59036D01*
X53497D01*
Y59250D01*
X52001D01*
Y59463D01*
X50505D01*
Y59677D01*
X49222D01*
Y59891D01*
X47727D01*
Y60105D01*
X46231D01*
Y60318D01*
X44735D01*
Y60532D01*
X43452D01*
Y60746D01*
X42170D01*
Y60959D01*
X40674D01*
Y61173D01*
X39392D01*
Y61387D01*
X38110D01*
Y61600D01*
X37041D01*
Y61814D01*
X36186D01*
Y62028D01*
X35759D01*
Y62242D01*
X35331D01*
Y62455D01*
X34904D01*
Y62669D01*
X34690D01*
Y62883D01*
X34263D01*
Y63096D01*
X34049D01*
Y63310D01*
X33836D01*
Y63524D01*
X33408D01*
Y63737D01*
X33194D01*
Y63951D01*
X32981D01*
Y64165D01*
X32767D01*
Y64379D01*
X32553D01*
Y64592D01*
Y64806D01*
X32340D01*
Y65020D01*
X32126D01*
Y65233D01*
Y65447D01*
X31912D01*
Y65661D01*
Y65875D01*
Y66088D01*
Y66302D01*
X32126D01*
Y66516D01*
X33408D01*
Y66302D01*
D02*
G37*
G36*
X250535Y59891D02*
Y59677D01*
Y59463D01*
X250322D01*
Y59250D01*
X250108D01*
Y59036D01*
Y58822D01*
X249894D01*
Y58609D01*
X249680D01*
Y58395D01*
X249467D01*
Y58181D01*
X249253D01*
Y57967D01*
X249039D01*
Y57754D01*
X248612D01*
Y57540D01*
X248398D01*
Y57326D01*
X247971D01*
Y57113D01*
X247757D01*
Y56899D01*
X247330D01*
Y56685D01*
X246902D01*
Y56472D01*
X246261D01*
Y56258D01*
X245406D01*
Y56044D01*
X243910D01*
Y55830D01*
X242628D01*
Y55617D01*
X241132D01*
Y55403D01*
X239636D01*
Y55189D01*
X238140D01*
Y54975D01*
X236644D01*
Y54762D01*
X235148D01*
Y54548D01*
X233866D01*
Y54334D01*
X232370D01*
Y54121D01*
X230874D01*
Y53907D01*
X229378D01*
Y53693D01*
X228096D01*
Y53479D01*
X226600D01*
Y53266D01*
X224677D01*
Y53052D01*
X223394D01*
Y52838D01*
X223181D01*
Y53052D01*
X222967D01*
Y52838D01*
X220616D01*
Y53052D01*
Y53266D01*
Y53479D01*
X220830D01*
Y53693D01*
Y53907D01*
Y54121D01*
X221044D01*
Y54334D01*
Y54548D01*
Y54762D01*
X221257D01*
Y54975D01*
Y55189D01*
Y55403D01*
X221471D01*
Y55617D01*
Y55830D01*
X221685D01*
Y56044D01*
X222326D01*
Y56258D01*
X223822D01*
Y56472D01*
X225532D01*
Y56685D01*
X227027D01*
Y56899D01*
X228523D01*
Y57113D01*
X230019D01*
Y57326D01*
X231302D01*
Y57540D01*
X232798D01*
Y57754D01*
X234080D01*
Y57967D01*
X235789D01*
Y58181D01*
X237072D01*
Y58395D01*
X238568D01*
Y58609D01*
X240064D01*
Y58822D01*
X241560D01*
Y59036D01*
X243056D01*
Y59250D01*
X244551D01*
Y59463D01*
X246047D01*
Y59677D01*
X247543D01*
Y59891D01*
X249253D01*
Y60105D01*
X250535D01*
Y59891D01*
D02*
G37*
G36*
X34904D02*
X36400D01*
Y59677D01*
X37896D01*
Y59463D01*
X39606D01*
Y59250D01*
X40888D01*
Y59036D01*
X42384D01*
Y58822D01*
X43666D01*
Y58609D01*
X45376D01*
Y58395D01*
X46658D01*
Y58181D01*
X48154D01*
Y57967D01*
X49864D01*
Y57754D01*
X51146D01*
Y57540D01*
X52642D01*
Y57326D01*
X54138D01*
Y57113D01*
X55634D01*
Y56899D01*
X56916D01*
Y56685D01*
X58626D01*
Y56472D01*
X59908D01*
Y56258D01*
X61190D01*
Y56044D01*
X62045D01*
Y55830D01*
X62259D01*
Y55617D01*
X62472D01*
Y55403D01*
Y55189D01*
X62686D01*
Y54975D01*
Y54762D01*
Y54548D01*
X62900D01*
Y54334D01*
Y54121D01*
Y53907D01*
X63113D01*
Y53693D01*
Y53479D01*
Y53266D01*
X63327D01*
Y53052D01*
Y52838D01*
Y52625D01*
X62259D01*
Y52838D01*
X60763D01*
Y53052D01*
X59267D01*
Y53266D01*
X57771D01*
Y53479D01*
X56061D01*
Y53693D01*
X54565D01*
Y53907D01*
X53283D01*
Y54121D01*
X51787D01*
Y54334D01*
X50077D01*
Y54548D01*
X48795D01*
Y54762D01*
X47085D01*
Y54975D01*
X45589D01*
Y55189D01*
X44521D01*
Y55403D01*
X43025D01*
Y55617D01*
X41315D01*
Y55830D01*
X39819D01*
Y56044D01*
X38537D01*
Y56258D01*
X37682D01*
Y56472D01*
X37041D01*
Y56685D01*
X36614D01*
Y56899D01*
X36186D01*
Y57113D01*
X35973D01*
Y57326D01*
X35545D01*
Y57540D01*
X35331D01*
Y57754D01*
X34904D01*
Y57967D01*
X34690D01*
Y58181D01*
X34477D01*
Y58395D01*
X34263D01*
Y58609D01*
X34049D01*
Y58822D01*
X33836D01*
Y59036D01*
X33622D01*
Y59250D01*
Y59463D01*
X33408D01*
Y59677D01*
X33194D01*
Y59891D01*
Y60105D01*
X34904D01*
Y59891D01*
D02*
G37*
G36*
X219334Y55403D02*
Y55189D01*
X219548D01*
Y54975D01*
Y54762D01*
Y54548D01*
X219334D01*
Y54334D01*
Y54121D01*
Y53907D01*
Y53693D01*
Y53479D01*
X219120D01*
Y53266D01*
Y53052D01*
X218906D01*
Y52838D01*
X218693D01*
Y52625D01*
X218479D01*
Y52411D01*
X218052D01*
Y52197D01*
X217411D01*
Y51984D01*
X213991D01*
Y52197D01*
X212709D01*
Y52411D01*
X211427D01*
Y52625D01*
X210572D01*
Y52838D01*
X209717D01*
Y53052D01*
X209290D01*
Y53266D01*
X209076D01*
Y53479D01*
Y53693D01*
Y53907D01*
Y54121D01*
X209290D01*
Y54334D01*
X210358D01*
Y54548D01*
X211641D01*
Y54762D01*
X213136D01*
Y54975D01*
X214846D01*
Y55189D01*
X216556D01*
Y55403D01*
X218479D01*
Y55617D01*
X219334D01*
Y55403D01*
D02*
G37*
G36*
X65464D02*
X67388D01*
Y55189D01*
X68884D01*
Y54975D01*
X70593D01*
Y54762D01*
X72303D01*
Y54548D01*
X73371D01*
Y54334D01*
X74440D01*
Y54121D01*
X74867D01*
Y53907D01*
Y53693D01*
Y53479D01*
Y53266D01*
X74654D01*
Y53052D01*
X74226D01*
Y52838D01*
X73371D01*
Y52625D01*
X72303D01*
Y52411D01*
X71021D01*
Y52197D01*
X69952D01*
Y51984D01*
X66533D01*
Y52197D01*
X65892D01*
Y52411D01*
X65464D01*
Y52625D01*
X65251D01*
Y52838D01*
X65037D01*
Y53052D01*
X64823D01*
Y53266D01*
X64609D01*
Y53479D01*
Y53693D01*
Y53907D01*
X64396D01*
Y54121D01*
Y54334D01*
Y54548D01*
Y54762D01*
Y54975D01*
Y55189D01*
Y55403D01*
X64609D01*
Y55617D01*
X65464D01*
Y55403D01*
D02*
G37*
G36*
X248398Y54975D02*
Y54762D01*
Y54548D01*
Y54334D01*
X248184D01*
Y54121D01*
X247971D01*
Y53907D01*
X247757D01*
Y53693D01*
X247543D01*
Y53479D01*
X247330D01*
Y53266D01*
X247116D01*
Y53052D01*
X246689D01*
Y52838D01*
X246475D01*
Y52625D01*
X246047D01*
Y52411D01*
X245620D01*
Y52197D01*
X245193D01*
Y51984D01*
X244765D01*
Y51770D01*
X244124D01*
Y51556D01*
X243056D01*
Y51342D01*
X241773D01*
Y51129D01*
X240491D01*
Y50915D01*
X239209D01*
Y50701D01*
X237713D01*
Y50488D01*
X236217D01*
Y50274D01*
X234935D01*
Y50060D01*
X233439D01*
Y49847D01*
X231729D01*
Y49633D01*
X230233D01*
Y49419D01*
X228951D01*
Y49205D01*
X227241D01*
Y48992D01*
X225959D01*
Y48778D01*
X224249D01*
Y48564D01*
X222753D01*
Y48351D01*
X221257D01*
Y48137D01*
X219120D01*
Y48351D01*
Y48564D01*
X219334D01*
Y48778D01*
Y48992D01*
Y49205D01*
Y49419D01*
X219548D01*
Y49633D01*
Y49847D01*
Y50060D01*
Y50274D01*
X219761D01*
Y50488D01*
Y50701D01*
Y50915D01*
Y51129D01*
X219975D01*
Y51342D01*
X220830D01*
Y51556D01*
X222753D01*
Y51770D01*
X224036D01*
Y51984D01*
X225532D01*
Y52197D01*
X227241D01*
Y52411D01*
X228310D01*
Y52625D01*
X229806D01*
Y52838D01*
X231302D01*
Y53052D01*
X232798D01*
Y53266D01*
X234507D01*
Y53479D01*
X235789D01*
Y53693D01*
X237499D01*
Y53907D01*
X238995D01*
Y54121D01*
X240491D01*
Y54334D01*
X241773D01*
Y54548D01*
X243483D01*
Y54762D01*
X244979D01*
Y54975D01*
X246689D01*
Y55189D01*
X248398D01*
Y54975D01*
D02*
G37*
G36*
X208435Y51770D02*
X209290D01*
Y51556D01*
X210144D01*
Y51342D01*
X210999D01*
Y51129D01*
X213991D01*
Y50915D01*
X218265D01*
Y50701D01*
Y50488D01*
Y50274D01*
X218052D01*
Y50060D01*
Y49847D01*
X217838D01*
Y49633D01*
Y49419D01*
X217624D01*
Y49205D01*
X217411D01*
Y48992D01*
X217197D01*
Y48778D01*
X216769D01*
Y48564D01*
X216556D01*
Y48351D01*
X216128D01*
Y48137D01*
X212495D01*
Y48351D01*
X211427D01*
Y48564D01*
X210572D01*
Y48778D01*
X210144D01*
Y48992D01*
X209503D01*
Y49205D01*
X209076D01*
Y49419D01*
X208648D01*
Y49633D01*
X208221D01*
Y49847D01*
X208007D01*
Y50060D01*
X207794D01*
Y50274D01*
X207580D01*
Y50488D01*
Y50701D01*
X207366D01*
Y50915D01*
Y51129D01*
X207153D01*
Y51342D01*
Y51556D01*
X207366D01*
Y51770D01*
X207580D01*
Y51984D01*
X208435D01*
Y51770D01*
D02*
G37*
G36*
X76363D02*
X76577D01*
Y51556D01*
Y51342D01*
Y51129D01*
Y50915D01*
Y50701D01*
X76363D01*
Y50488D01*
X76150D01*
Y50274D01*
Y50060D01*
X75936D01*
Y49847D01*
X75509D01*
Y49633D01*
X75295D01*
Y49419D01*
X74867D01*
Y49205D01*
X74440D01*
Y48992D01*
X73799D01*
Y48778D01*
X73158D01*
Y48564D01*
X72517D01*
Y48351D01*
X71662D01*
Y48137D01*
X67815D01*
Y48351D01*
X67174D01*
Y48564D01*
X66960D01*
Y48778D01*
X66746D01*
Y48992D01*
X66533D01*
Y49205D01*
X66319D01*
Y49419D01*
X66105D01*
Y49633D01*
X65892D01*
Y49847D01*
Y50060D01*
Y50274D01*
X65678D01*
Y50488D01*
Y50701D01*
X65892D01*
Y50915D01*
X66533D01*
Y51129D01*
X72944D01*
Y51342D01*
X73799D01*
Y51556D01*
X74654D01*
Y51770D01*
X75509D01*
Y51984D01*
X76363D01*
Y51770D01*
D02*
G37*
G36*
X37468Y54975D02*
X38751D01*
Y54762D01*
X40674D01*
Y54548D01*
X41956D01*
Y54334D01*
X43666D01*
Y54121D01*
X45162D01*
Y53907D01*
X46444D01*
Y53693D01*
X47940D01*
Y53479D01*
X49222D01*
Y53266D01*
X50932D01*
Y53052D01*
X52428D01*
Y52838D01*
X53710D01*
Y52625D01*
X55420D01*
Y52411D01*
X56916D01*
Y52197D01*
X58198D01*
Y51984D01*
X59908D01*
Y51770D01*
X61190D01*
Y51556D01*
X63113D01*
Y51342D01*
X63968D01*
Y51129D01*
Y50915D01*
X64182D01*
Y50701D01*
Y50488D01*
Y50274D01*
X64396D01*
Y50060D01*
Y49847D01*
Y49633D01*
Y49419D01*
X64609D01*
Y49205D01*
Y48992D01*
Y48778D01*
Y48564D01*
Y48351D01*
Y48137D01*
X62686D01*
Y48351D01*
X61190D01*
Y48564D01*
X59481D01*
Y48778D01*
X57985D01*
Y48992D01*
X56702D01*
Y49205D01*
X55206D01*
Y49419D01*
X53497D01*
Y49633D01*
X52214D01*
Y49847D01*
X50505D01*
Y50060D01*
X49009D01*
Y50274D01*
X47727D01*
Y50488D01*
X46017D01*
Y50701D01*
X44735D01*
Y50915D01*
X43239D01*
Y51129D01*
X41529D01*
Y51342D01*
X40033D01*
Y51556D01*
X39606D01*
Y51770D01*
X39178D01*
Y51984D01*
X38751D01*
Y52197D01*
X38323D01*
Y52411D01*
X37896D01*
Y52625D01*
X37468D01*
Y52838D01*
X37255D01*
Y53052D01*
X36827D01*
Y53266D01*
X36614D01*
Y53479D01*
X36400D01*
Y53693D01*
X36186D01*
Y53907D01*
X35973D01*
Y54121D01*
X35759D01*
Y54334D01*
X35545D01*
Y54548D01*
Y54762D01*
Y54975D01*
X35331D01*
Y55189D01*
X37468D01*
Y54975D01*
D02*
G37*
G36*
X206939Y48564D02*
X207794D01*
Y48351D01*
X208435D01*
Y48137D01*
X209076D01*
Y47923D01*
X209717D01*
Y47709D01*
X210358D01*
Y47496D01*
X210999D01*
Y47282D01*
X211641D01*
Y47068D01*
X213777D01*
Y46855D01*
X216983D01*
Y46641D01*
X217411D01*
Y46427D01*
Y46213D01*
Y46000D01*
Y45786D01*
Y45572D01*
X217197D01*
Y45359D01*
Y45145D01*
X216983D01*
Y44931D01*
Y44717D01*
X216769D01*
Y44504D01*
X216342D01*
Y44290D01*
X215915D01*
Y44076D01*
X213350D01*
Y44290D01*
X212282D01*
Y44504D01*
X211641D01*
Y44717D01*
X210999D01*
Y44931D01*
X210358D01*
Y45145D01*
X209931D01*
Y45359D01*
X209290D01*
Y45572D01*
X208862D01*
Y45786D01*
X208435D01*
Y46000D01*
X208007D01*
Y46213D01*
X207580D01*
Y46427D01*
X207153D01*
Y46641D01*
X206939D01*
Y46855D01*
X206725D01*
Y47068D01*
X206298D01*
Y47282D01*
X206084D01*
Y47496D01*
Y47709D01*
X205870D01*
Y47923D01*
Y48137D01*
Y48351D01*
Y48564D01*
Y48778D01*
X206939D01*
Y48564D01*
D02*
G37*
G36*
X77859D02*
X78073D01*
Y48351D01*
Y48137D01*
Y47923D01*
Y47709D01*
X77859D01*
Y47496D01*
Y47282D01*
X77646D01*
Y47068D01*
X77218D01*
Y46855D01*
X77004D01*
Y46641D01*
X76577D01*
Y46427D01*
X76363D01*
Y46213D01*
X75936D01*
Y46000D01*
X75509D01*
Y45786D01*
X75081D01*
Y45572D01*
X74440D01*
Y45359D01*
X74013D01*
Y45145D01*
X73585D01*
Y44931D01*
X72944D01*
Y44717D01*
X72517D01*
Y44504D01*
X71662D01*
Y44290D01*
X70807D01*
Y44076D01*
X68029D01*
Y44290D01*
X67601D01*
Y44504D01*
X67174D01*
Y44717D01*
X66960D01*
Y44931D01*
X66746D01*
Y45145D01*
Y45359D01*
X66533D01*
Y45572D01*
Y45786D01*
Y46000D01*
Y46213D01*
Y46427D01*
Y46641D01*
Y46855D01*
X70807D01*
Y47068D01*
X72303D01*
Y47282D01*
X72944D01*
Y47496D01*
X73585D01*
Y47709D01*
X74226D01*
Y47923D01*
X74867D01*
Y48137D01*
X75295D01*
Y48351D01*
X76150D01*
Y48564D01*
X77004D01*
Y48778D01*
X77859D01*
Y48564D01*
D02*
G37*
G36*
X245834Y50060D02*
Y49847D01*
Y49633D01*
X245620D01*
Y49419D01*
Y49205D01*
X245406D01*
Y48992D01*
X245193D01*
Y48778D01*
X244979D01*
Y48564D01*
X244551D01*
Y48351D01*
X244338D01*
Y48137D01*
X244124D01*
Y47923D01*
X243697D01*
Y47709D01*
X243483D01*
Y47496D01*
X243056D01*
Y47282D01*
X242628D01*
Y47068D01*
X242414D01*
Y46855D01*
X241987D01*
Y46641D01*
X241560D01*
Y46427D01*
X240277D01*
Y46213D01*
X238995D01*
Y46000D01*
X237713D01*
Y45786D01*
X236431D01*
Y45572D01*
X235148D01*
Y45359D01*
X233866D01*
Y45145D01*
X232370D01*
Y44931D01*
X230874D01*
Y44717D01*
X229378D01*
Y44504D01*
X227882D01*
Y44290D01*
X226386D01*
Y44076D01*
X224890D01*
Y43863D01*
X223394D01*
Y43649D01*
X222112D01*
Y43435D01*
X220616D01*
Y43222D01*
X219334D01*
Y43008D01*
X217411D01*
Y43222D01*
Y43435D01*
X217624D01*
Y43649D01*
Y43863D01*
X217838D01*
Y44076D01*
Y44290D01*
X218052D01*
Y44504D01*
Y44717D01*
X218265D01*
Y44931D01*
Y45145D01*
X218479D01*
Y45359D01*
Y45572D01*
X218693D01*
Y45786D01*
Y46000D01*
X218906D01*
Y46213D01*
X219120D01*
Y46427D01*
X219334D01*
Y46641D01*
X220403D01*
Y46855D01*
X221685D01*
Y47068D01*
X223181D01*
Y47282D01*
X224890D01*
Y47496D01*
X226173D01*
Y47709D01*
X227668D01*
Y47923D01*
X229165D01*
Y48137D01*
X230660D01*
Y48351D01*
X232156D01*
Y48564D01*
X233652D01*
Y48778D01*
X235148D01*
Y48992D01*
X236644D01*
Y49205D01*
X238140D01*
Y49419D01*
X239636D01*
Y49633D01*
X241132D01*
Y49847D01*
X242628D01*
Y50060D01*
X244124D01*
Y50274D01*
X245834D01*
Y50060D01*
D02*
G37*
G36*
X39392D02*
X41315D01*
Y49847D01*
X42811D01*
Y49633D01*
X44307D01*
Y49419D01*
X45803D01*
Y49205D01*
X47299D01*
Y48992D01*
X48581D01*
Y48778D01*
X50077D01*
Y48564D01*
X51787D01*
Y48351D01*
X53069D01*
Y48137D01*
X54565D01*
Y47923D01*
X56275D01*
Y47709D01*
X57557D01*
Y47496D01*
X59053D01*
Y47282D01*
X60549D01*
Y47068D01*
X62045D01*
Y46855D01*
X63541D01*
Y46641D01*
X64609D01*
Y46427D01*
X64823D01*
Y46213D01*
X65037D01*
Y46000D01*
Y45786D01*
X65251D01*
Y45572D01*
Y45359D01*
X65464D01*
Y45145D01*
Y44931D01*
X65678D01*
Y44717D01*
Y44504D01*
X65892D01*
Y44290D01*
X66105D01*
Y44076D01*
Y43863D01*
X66319D01*
Y43649D01*
Y43435D01*
X66533D01*
Y43222D01*
Y43008D01*
X64823D01*
Y43222D01*
X63327D01*
Y43435D01*
X61831D01*
Y43649D01*
X60549D01*
Y43863D01*
X59053D01*
Y44076D01*
X57557D01*
Y44290D01*
X55847D01*
Y44504D01*
X54565D01*
Y44717D01*
X53069D01*
Y44931D01*
X51573D01*
Y45145D01*
X50077D01*
Y45359D01*
X48795D01*
Y45572D01*
X47513D01*
Y45786D01*
X46017D01*
Y46000D01*
X44735D01*
Y46213D01*
X43666D01*
Y46427D01*
X42597D01*
Y46641D01*
X41956D01*
Y46855D01*
X41529D01*
Y47068D01*
X41102D01*
Y47282D01*
X40674D01*
Y47496D01*
X40461D01*
Y47709D01*
X40033D01*
Y47923D01*
X39819D01*
Y48137D01*
X39392D01*
Y48351D01*
X39178D01*
Y48564D01*
X38965D01*
Y48778D01*
X38751D01*
Y48992D01*
X38537D01*
Y49205D01*
X38323D01*
Y49419D01*
Y49633D01*
X38110D01*
Y49847D01*
Y50060D01*
Y50274D01*
X39392D01*
Y50060D01*
D02*
G37*
G36*
X205015Y45786D02*
X205443D01*
Y45572D01*
X206084D01*
Y45359D01*
X206511D01*
Y45145D01*
X207153D01*
Y44931D01*
X207580D01*
Y44717D01*
X208007D01*
Y44504D01*
X208435D01*
Y44290D01*
X208862D01*
Y44076D01*
X209290D01*
Y43863D01*
X209931D01*
Y43649D01*
X210358D01*
Y43435D01*
X210999D01*
Y43222D01*
X211854D01*
Y43008D01*
X212923D01*
Y42794D01*
X215060D01*
Y42581D01*
X215701D01*
Y42367D01*
Y42153D01*
Y41939D01*
Y41726D01*
Y41512D01*
Y41298D01*
X215487D01*
Y41085D01*
Y40871D01*
X215273D01*
Y40657D01*
X215060D01*
Y40443D01*
X214419D01*
Y40230D01*
X212068D01*
Y40443D01*
X211427D01*
Y40657D01*
X210786D01*
Y40871D01*
X210144D01*
Y41085D01*
X209717D01*
Y41298D01*
X209290D01*
Y41512D01*
X208862D01*
Y41726D01*
X208435D01*
Y41939D01*
X208007D01*
Y42153D01*
X207580D01*
Y42367D01*
X207153D01*
Y42581D01*
X206725D01*
Y42794D01*
X206511D01*
Y43008D01*
X206084D01*
Y43222D01*
X205657D01*
Y43435D01*
X205443D01*
Y43649D01*
X205229D01*
Y43863D01*
X204802D01*
Y44076D01*
X204588D01*
Y44290D01*
X204374D01*
Y44504D01*
X204161D01*
Y44717D01*
Y44931D01*
X203947D01*
Y45145D01*
Y45359D01*
Y45572D01*
Y45786D01*
Y46000D01*
X205015D01*
Y45786D01*
D02*
G37*
G36*
X79996D02*
Y45572D01*
Y45359D01*
Y45145D01*
Y44931D01*
X79783D01*
Y44717D01*
X79569D01*
Y44504D01*
X79355D01*
Y44290D01*
X79142D01*
Y44076D01*
X78928D01*
Y43863D01*
X78714D01*
Y43649D01*
X78500D01*
Y43435D01*
X78287D01*
Y43222D01*
X77859D01*
Y43008D01*
X77432D01*
Y42794D01*
X77218D01*
Y42581D01*
X76791D01*
Y42367D01*
X76363D01*
Y42153D01*
X75936D01*
Y41939D01*
X75509D01*
Y41726D01*
X75081D01*
Y41512D01*
X74654D01*
Y41298D01*
X74226D01*
Y41085D01*
X73585D01*
Y40871D01*
X73158D01*
Y40657D01*
X72730D01*
Y40443D01*
X71876D01*
Y40230D01*
X69738D01*
Y40443D01*
X69097D01*
Y40657D01*
X68670D01*
Y40871D01*
X68456D01*
Y41085D01*
Y41298D01*
Y41512D01*
X68243D01*
Y41726D01*
Y41939D01*
Y42153D01*
Y42367D01*
Y42581D01*
X68670D01*
Y42794D01*
X71234D01*
Y43008D01*
X72089D01*
Y43222D01*
X72730D01*
Y43435D01*
X73585D01*
Y43649D01*
X74013D01*
Y43863D01*
X74440D01*
Y44076D01*
X75081D01*
Y44290D01*
X75509D01*
Y44504D01*
X75936D01*
Y44717D01*
X76363D01*
Y44931D01*
X76791D01*
Y45145D01*
X77432D01*
Y45359D01*
X77859D01*
Y45572D01*
X78500D01*
Y45786D01*
X79142D01*
Y46000D01*
X79996D01*
Y45786D01*
D02*
G37*
G36*
X240705Y44504D02*
X240491D01*
Y44290D01*
X240277D01*
Y44076D01*
X240064D01*
Y43863D01*
Y43649D01*
X239850D01*
Y43435D01*
X239636D01*
Y43222D01*
X239422D01*
Y43008D01*
X239209D01*
Y42794D01*
X238995D01*
Y42581D01*
X238568D01*
Y42367D01*
X238354D01*
Y42153D01*
X238140D01*
Y41939D01*
X237713D01*
Y41726D01*
X237499D01*
Y41512D01*
X237072D01*
Y41298D01*
X236431D01*
Y41085D01*
X235789D01*
Y40871D01*
X234721D01*
Y40657D01*
X233439D01*
Y40443D01*
X231943D01*
Y40230D01*
X230660D01*
Y40016D01*
X229165D01*
Y39802D01*
X227882D01*
Y39588D01*
X226386D01*
Y39375D01*
X224890D01*
Y39161D01*
X223394D01*
Y38947D01*
X222112D01*
Y38734D01*
X220616D01*
Y38520D01*
X219120D01*
Y38306D01*
X217411D01*
Y38093D01*
X215487D01*
Y38306D01*
Y38520D01*
Y38734D01*
X215701D01*
Y38947D01*
Y39161D01*
X215915D01*
Y39375D01*
X216128D01*
Y39588D01*
Y39802D01*
X216342D01*
Y40016D01*
Y40230D01*
X216556D01*
Y40443D01*
X216769D01*
Y40657D01*
Y40871D01*
X216983D01*
Y41085D01*
X217197D01*
Y41298D01*
X217411D01*
Y41512D01*
X218479D01*
Y41726D01*
X219975D01*
Y41939D01*
X221257D01*
Y42153D01*
X222753D01*
Y42367D01*
X224249D01*
Y42581D01*
X225959D01*
Y42794D01*
X227668D01*
Y43008D01*
X228951D01*
Y43222D01*
X230233D01*
Y43435D01*
X231515D01*
Y43649D01*
X233011D01*
Y43863D01*
X234507D01*
Y44076D01*
X236431D01*
Y44290D01*
X237713D01*
Y44504D01*
X239850D01*
Y44717D01*
X240705D01*
Y44504D01*
D02*
G37*
G36*
X44093D02*
X45803D01*
Y44290D01*
X47513D01*
Y44076D01*
X49009D01*
Y43863D01*
X50505D01*
Y43649D01*
X52214D01*
Y43435D01*
X53710D01*
Y43222D01*
X54993D01*
Y43008D01*
X56702D01*
Y42794D01*
X58412D01*
Y42581D01*
X59694D01*
Y42367D01*
X61190D01*
Y42153D01*
X62472D01*
Y41939D01*
X63755D01*
Y41726D01*
X65251D01*
Y41512D01*
X66533D01*
Y41298D01*
X66746D01*
Y41085D01*
X66960D01*
Y40871D01*
Y40657D01*
X67174D01*
Y40443D01*
X67388D01*
Y40230D01*
Y40016D01*
X67601D01*
Y39802D01*
X67815D01*
Y39588D01*
Y39375D01*
X68029D01*
Y39161D01*
X68243D01*
Y38947D01*
Y38734D01*
X68456D01*
Y38520D01*
Y38306D01*
Y38093D01*
X66533D01*
Y38306D01*
X65251D01*
Y38520D01*
X63541D01*
Y38734D01*
X62045D01*
Y38947D01*
X60763D01*
Y39161D01*
X59053D01*
Y39375D01*
X57771D01*
Y39588D01*
X56275D01*
Y39802D01*
X54779D01*
Y40016D01*
X53283D01*
Y40230D01*
X51787D01*
Y40443D01*
X50505D01*
Y40657D01*
X49436D01*
Y40871D01*
X48368D01*
Y41085D01*
X47513D01*
Y41298D01*
X47085D01*
Y41512D01*
X46658D01*
Y41726D01*
X46231D01*
Y41939D01*
X45803D01*
Y42153D01*
X45589D01*
Y42367D01*
X45376D01*
Y42581D01*
X45162D01*
Y42794D01*
X44735D01*
Y43008D01*
X44521D01*
Y43222D01*
X44307D01*
Y43435D01*
X44093D01*
Y43649D01*
X43880D01*
Y43863D01*
X43666D01*
Y44076D01*
X43452D01*
Y44290D01*
X43239D01*
Y44504D01*
X43025D01*
Y44717D01*
X44093D01*
Y44504D01*
D02*
G37*
G36*
X202878Y42794D02*
X203520D01*
Y42581D01*
X203947D01*
Y42367D01*
X204374D01*
Y42153D01*
X204588D01*
Y41939D01*
X205015D01*
Y41726D01*
X205443D01*
Y41512D01*
X205657D01*
Y41298D01*
X206084D01*
Y41085D01*
X206511D01*
Y40871D01*
X206725D01*
Y40657D01*
X207366D01*
Y40443D01*
X207794D01*
Y40230D01*
X208221D01*
Y40016D01*
X208862D01*
Y39802D01*
X209503D01*
Y39588D01*
X210144D01*
Y39375D01*
X210999D01*
Y39161D01*
X211641D01*
Y38947D01*
X212495D01*
Y38734D01*
X213350D01*
Y38520D01*
X213777D01*
Y38306D01*
Y38093D01*
Y37879D01*
Y37665D01*
Y37451D01*
X213564D01*
Y37238D01*
Y37024D01*
Y36810D01*
X213350D01*
Y36597D01*
X213136D01*
Y36383D01*
X210786D01*
Y36597D01*
X210144D01*
Y36810D01*
X209717D01*
Y37024D01*
X209290D01*
Y37238D01*
X208862D01*
Y37451D01*
X208435D01*
Y37665D01*
X208007D01*
Y37879D01*
X207580D01*
Y38093D01*
X207153D01*
Y38306D01*
X206725D01*
Y38520D01*
X206511D01*
Y38734D01*
X206084D01*
Y38947D01*
X205657D01*
Y39161D01*
X205229D01*
Y39375D01*
X205015D01*
Y39588D01*
X204588D01*
Y39802D01*
X204374D01*
Y40016D01*
X203947D01*
Y40230D01*
X203733D01*
Y40443D01*
X203520D01*
Y40657D01*
X203092D01*
Y40871D01*
X202878D01*
Y41085D01*
X202665D01*
Y41298D01*
X202451D01*
Y41512D01*
X202237D01*
Y41726D01*
X202024D01*
Y41939D01*
Y42153D01*
X201810D01*
Y42367D01*
Y42581D01*
Y42794D01*
X202024D01*
Y43008D01*
X202878D01*
Y42794D01*
D02*
G37*
G36*
X81920D02*
X82134D01*
Y42581D01*
Y42367D01*
X81920D01*
Y42153D01*
Y41939D01*
X81706D01*
Y41726D01*
Y41512D01*
X81492D01*
Y41298D01*
X81279D01*
Y41085D01*
X81065D01*
Y40871D01*
X80638D01*
Y40657D01*
X80424D01*
Y40443D01*
X80210D01*
Y40230D01*
X79783D01*
Y40016D01*
X79569D01*
Y39802D01*
X79355D01*
Y39588D01*
X78928D01*
Y39375D01*
X78500D01*
Y39161D01*
X78287D01*
Y38947D01*
X77859D01*
Y38734D01*
X77432D01*
Y38520D01*
X77218D01*
Y38306D01*
X76791D01*
Y38093D01*
X76363D01*
Y37879D01*
X75936D01*
Y37665D01*
X75509D01*
Y37451D01*
X75081D01*
Y37238D01*
X74654D01*
Y37024D01*
X74226D01*
Y36810D01*
X73799D01*
Y36597D01*
X73585D01*
Y36383D01*
X72944D01*
Y36169D01*
X71662D01*
Y36383D01*
X71021D01*
Y36597D01*
X70593D01*
Y36810D01*
X70380D01*
Y37024D01*
Y37238D01*
X70166D01*
Y37451D01*
Y37665D01*
Y37879D01*
Y38093D01*
Y38306D01*
Y38520D01*
X70593D01*
Y38734D01*
X71662D01*
Y38947D01*
X72303D01*
Y39161D01*
X73158D01*
Y39375D01*
X73799D01*
Y39588D01*
X74440D01*
Y39802D01*
X75081D01*
Y40016D01*
X75722D01*
Y40230D01*
X76150D01*
Y40443D01*
X76577D01*
Y40657D01*
X77004D01*
Y40871D01*
X77432D01*
Y41085D01*
X77859D01*
Y41298D01*
X78287D01*
Y41512D01*
X78500D01*
Y41726D01*
X78928D01*
Y41939D01*
X79355D01*
Y42153D01*
X79569D01*
Y42367D01*
X79996D01*
Y42581D01*
X80424D01*
Y42794D01*
X81065D01*
Y43008D01*
X81920D01*
Y42794D01*
D02*
G37*
G36*
X234294Y38947D02*
Y38734D01*
X234080D01*
Y38520D01*
X233866D01*
Y38306D01*
X233652D01*
Y38093D01*
X233225D01*
Y37879D01*
X233011D01*
Y37665D01*
X232798D01*
Y37451D01*
X232584D01*
Y37238D01*
X232156D01*
Y37024D01*
X231943D01*
Y36810D01*
X231515D01*
Y36597D01*
X231302D01*
Y36383D01*
X230874D01*
Y36169D01*
X230447D01*
Y35956D01*
X230019D01*
Y35742D01*
X229592D01*
Y35528D01*
X229165D01*
Y35314D01*
X228737D01*
Y35101D01*
X228310D01*
Y34887D01*
X227668D01*
Y34673D01*
X227241D01*
Y34460D01*
X226600D01*
Y34246D01*
X225959D01*
Y34032D01*
X225318D01*
Y33818D01*
X224677D01*
Y33605D01*
X223822D01*
Y33391D01*
X222967D01*
Y33177D01*
X221898D01*
Y32964D01*
X220830D01*
Y32750D01*
X219761D01*
Y32536D01*
X218693D01*
Y32322D01*
X217411D01*
Y32109D01*
X215915D01*
Y31895D01*
X214419D01*
Y31681D01*
X211854D01*
Y31895D01*
Y32109D01*
Y32322D01*
Y32536D01*
X212068D01*
Y32750D01*
Y32964D01*
Y33177D01*
X212282D01*
Y33391D01*
Y33605D01*
X212495D01*
Y33818D01*
Y34032D01*
X212709D01*
Y34246D01*
X212923D01*
Y34460D01*
Y34673D01*
X213136D01*
Y34887D01*
X213350D01*
Y35101D01*
X213564D01*
Y35314D01*
Y35528D01*
X213777D01*
Y35742D01*
X213991D01*
Y35956D01*
X214205D01*
Y36169D01*
X214632D01*
Y36383D01*
X215487D01*
Y36597D01*
X216556D01*
Y36810D01*
X218052D01*
Y37024D01*
X219548D01*
Y37238D01*
X220830D01*
Y37451D01*
X222326D01*
Y37665D01*
X223822D01*
Y37879D01*
X225532D01*
Y38093D01*
X226814D01*
Y38306D01*
X228310D01*
Y38520D01*
X230019D01*
Y38734D01*
X231515D01*
Y38947D01*
X233225D01*
Y39161D01*
X234294D01*
Y38947D01*
D02*
G37*
G36*
X50718D02*
X52428D01*
Y38734D01*
X53710D01*
Y38520D01*
X55420D01*
Y38306D01*
X56702D01*
Y38093D01*
X58626D01*
Y37879D01*
X60122D01*
Y37665D01*
X61404D01*
Y37451D01*
X62900D01*
Y37238D01*
X64396D01*
Y37024D01*
X66105D01*
Y36810D01*
X67601D01*
Y36597D01*
X68670D01*
Y36383D01*
X69311D01*
Y36169D01*
X69525D01*
Y35956D01*
X69952D01*
Y35742D01*
X70166D01*
Y35528D01*
X70380D01*
Y35314D01*
Y35101D01*
X70593D01*
Y34887D01*
X70807D01*
Y34673D01*
X71021D01*
Y34460D01*
Y34246D01*
X71234D01*
Y34032D01*
Y33818D01*
X71448D01*
Y33605D01*
Y33391D01*
X71662D01*
Y33177D01*
Y32964D01*
X71876D01*
Y32750D01*
Y32536D01*
X72089D01*
Y32322D01*
Y32109D01*
Y31895D01*
Y31681D01*
X69311D01*
Y31895D01*
X68029D01*
Y32109D01*
X66533D01*
Y32322D01*
X65464D01*
Y32536D01*
X64182D01*
Y32750D01*
X63113D01*
Y32964D01*
X62045D01*
Y33177D01*
X60976D01*
Y33391D01*
X60122D01*
Y33605D01*
X59267D01*
Y33818D01*
X58412D01*
Y34032D01*
X57771D01*
Y34246D01*
X57130D01*
Y34460D01*
X56702D01*
Y34673D01*
X56275D01*
Y34887D01*
X55634D01*
Y35101D01*
X55206D01*
Y35314D01*
X54779D01*
Y35528D01*
X54352D01*
Y35742D01*
X53924D01*
Y35956D01*
X53497D01*
Y36169D01*
X53069D01*
Y36383D01*
X52642D01*
Y36597D01*
X52428D01*
Y36810D01*
X52001D01*
Y37024D01*
X51787D01*
Y37238D01*
X51360D01*
Y37451D01*
X51146D01*
Y37665D01*
X50932D01*
Y37879D01*
X50505D01*
Y38093D01*
X50291D01*
Y38306D01*
X50077D01*
Y38520D01*
X49864D01*
Y38734D01*
X49650D01*
Y38947D01*
X49436D01*
Y39161D01*
X50718D01*
Y38947D01*
D02*
G37*
%LPC*%
G36*
X150093Y49847D02*
X145605D01*
Y49633D01*
X145391D01*
Y49419D01*
Y49205D01*
Y48992D01*
Y48778D01*
Y48564D01*
Y48351D01*
Y48137D01*
Y47923D01*
Y47709D01*
Y47496D01*
Y47282D01*
Y47068D01*
Y46855D01*
Y46641D01*
Y46427D01*
Y46213D01*
Y46000D01*
Y45786D01*
Y45572D01*
Y45359D01*
Y45145D01*
Y44931D01*
Y44717D01*
X145177D01*
Y44504D01*
Y44290D01*
Y44076D01*
Y43863D01*
Y43649D01*
Y43435D01*
X139407D01*
Y43649D01*
Y43863D01*
Y44076D01*
Y44290D01*
X139193D01*
Y44504D01*
Y44717D01*
Y44931D01*
Y45145D01*
Y45359D01*
Y45572D01*
Y45786D01*
Y46000D01*
Y46213D01*
Y46427D01*
Y46641D01*
Y46855D01*
Y47068D01*
Y47282D01*
Y47496D01*
Y47709D01*
Y47923D01*
Y48137D01*
Y48351D01*
Y48564D01*
Y48778D01*
Y48992D01*
Y49205D01*
Y49419D01*
Y49633D01*
X138980D01*
Y49847D01*
X134278D01*
Y49633D01*
Y49419D01*
Y49205D01*
Y48992D01*
Y48778D01*
Y48564D01*
Y48351D01*
Y48137D01*
Y47923D01*
Y47709D01*
Y47496D01*
Y47282D01*
Y47068D01*
Y46855D01*
Y46641D01*
Y46427D01*
Y46213D01*
Y46000D01*
Y45786D01*
Y45572D01*
Y45359D01*
Y45145D01*
Y44931D01*
Y44717D01*
Y44504D01*
Y44290D01*
Y44076D01*
Y43863D01*
Y43649D01*
Y43435D01*
Y43222D01*
Y43008D01*
Y42794D01*
Y42581D01*
Y42367D01*
Y42153D01*
Y41939D01*
Y41726D01*
Y41512D01*
Y41298D01*
Y41085D01*
Y40871D01*
Y40657D01*
Y40443D01*
Y40230D01*
Y40016D01*
Y39802D01*
Y39588D01*
Y39375D01*
Y39161D01*
Y38947D01*
Y38734D01*
Y38520D01*
Y38306D01*
Y38093D01*
Y37879D01*
Y37665D01*
Y37451D01*
Y37238D01*
Y37024D01*
Y36810D01*
Y36597D01*
Y36383D01*
Y36169D01*
Y35956D01*
Y35742D01*
Y35528D01*
Y35314D01*
Y35101D01*
Y34887D01*
Y34673D01*
Y34460D01*
Y34246D01*
Y34032D01*
Y33818D01*
Y33605D01*
Y33391D01*
Y33177D01*
Y32964D01*
Y32750D01*
Y32536D01*
Y32322D01*
Y32109D01*
Y31895D01*
Y31681D01*
Y31468D01*
Y31254D01*
X138980D01*
Y31468D01*
X139193D01*
Y31681D01*
Y31895D01*
Y32109D01*
Y32322D01*
Y32536D01*
Y32750D01*
Y32964D01*
Y33177D01*
Y33391D01*
Y33605D01*
Y33818D01*
Y34032D01*
Y34246D01*
Y34460D01*
Y34673D01*
Y34887D01*
Y35101D01*
Y35314D01*
Y35528D01*
Y35742D01*
Y35956D01*
Y36169D01*
Y36383D01*
Y36597D01*
Y36810D01*
Y37024D01*
Y37238D01*
Y37451D01*
Y37665D01*
Y37879D01*
Y38093D01*
Y38306D01*
X139407D01*
Y38520D01*
Y38734D01*
Y38947D01*
Y39161D01*
Y39375D01*
X145177D01*
Y39161D01*
Y38947D01*
Y38734D01*
Y38520D01*
Y38306D01*
Y38093D01*
Y37879D01*
X145391D01*
Y37665D01*
Y37451D01*
Y37238D01*
Y37024D01*
Y36810D01*
Y36597D01*
Y36383D01*
Y36169D01*
Y35956D01*
Y35742D01*
Y35528D01*
Y35314D01*
Y35101D01*
Y34887D01*
Y34673D01*
Y34460D01*
Y34246D01*
Y34032D01*
Y33818D01*
Y33605D01*
Y33391D01*
Y33177D01*
Y32964D01*
Y32750D01*
Y32536D01*
Y32322D01*
Y32109D01*
Y31895D01*
Y31681D01*
Y31468D01*
X145605D01*
Y31254D01*
X147314D01*
Y31040D01*
X149238D01*
Y31254D01*
X149879D01*
Y31468D01*
X150306D01*
Y31681D01*
Y31895D01*
Y32109D01*
Y32322D01*
Y32536D01*
Y32750D01*
Y32964D01*
Y33177D01*
Y33391D01*
Y33605D01*
Y33818D01*
Y34032D01*
Y34246D01*
Y34460D01*
Y34673D01*
Y34887D01*
Y35101D01*
Y35314D01*
Y35528D01*
Y35742D01*
Y35956D01*
Y36169D01*
Y36383D01*
Y36597D01*
Y36810D01*
Y37024D01*
Y37238D01*
Y37451D01*
Y37665D01*
Y37879D01*
Y38093D01*
Y38306D01*
Y38520D01*
Y38734D01*
Y38947D01*
Y39161D01*
Y39375D01*
Y39588D01*
Y39802D01*
Y40016D01*
Y40230D01*
Y40443D01*
Y40657D01*
Y40871D01*
Y41085D01*
Y41298D01*
Y41512D01*
Y41726D01*
Y41939D01*
Y42153D01*
Y42367D01*
Y42581D01*
Y42794D01*
Y43008D01*
Y43222D01*
Y43435D01*
Y43649D01*
Y43863D01*
Y44076D01*
Y44290D01*
Y44504D01*
Y44717D01*
Y44931D01*
Y45145D01*
Y45359D01*
Y45572D01*
Y45786D01*
Y46000D01*
Y46213D01*
Y46427D01*
Y46641D01*
Y46855D01*
Y47068D01*
Y47282D01*
Y47496D01*
Y47709D01*
Y47923D01*
Y48137D01*
Y48351D01*
Y48564D01*
Y48778D01*
Y48992D01*
Y49205D01*
Y49419D01*
Y49633D01*
X150093D01*
Y49847D01*
D02*
G37*
G36*
X169326D02*
X164838D01*
Y49633D01*
Y49419D01*
Y49205D01*
Y48992D01*
Y48778D01*
Y48564D01*
Y48351D01*
Y48137D01*
Y47923D01*
Y47709D01*
Y47496D01*
Y47282D01*
Y47068D01*
Y46855D01*
Y46641D01*
Y46427D01*
Y46213D01*
Y46000D01*
Y45786D01*
Y45572D01*
Y45359D01*
Y45145D01*
Y44931D01*
Y44717D01*
Y44504D01*
Y44290D01*
Y44076D01*
Y43863D01*
Y43649D01*
Y43435D01*
Y43222D01*
Y43008D01*
Y42794D01*
Y42581D01*
Y42367D01*
Y42153D01*
X164625D01*
Y41939D01*
Y41726D01*
Y41512D01*
Y41298D01*
Y41085D01*
Y40871D01*
Y40657D01*
Y40443D01*
Y40230D01*
Y40016D01*
Y39802D01*
Y39588D01*
Y39375D01*
Y39161D01*
Y38947D01*
Y38734D01*
Y38520D01*
Y38306D01*
Y38093D01*
X164411D01*
Y37879D01*
Y37665D01*
Y37451D01*
Y37238D01*
Y37024D01*
Y36810D01*
Y36597D01*
Y36383D01*
Y36169D01*
Y35956D01*
Y35742D01*
X164197D01*
Y35528D01*
Y35314D01*
Y35101D01*
X163984D01*
Y34887D01*
X163770D01*
Y34673D01*
X163556D01*
Y34460D01*
X163129D01*
Y34246D01*
X160564D01*
Y34460D01*
X160137D01*
Y34673D01*
X159923D01*
Y34887D01*
X159709D01*
Y35101D01*
X159496D01*
Y35314D01*
X159282D01*
Y35528D01*
Y35742D01*
Y35956D01*
X159068D01*
Y36169D01*
Y36383D01*
Y36597D01*
Y36810D01*
Y37024D01*
Y37238D01*
Y37451D01*
Y37665D01*
Y37879D01*
Y38093D01*
Y38306D01*
Y38520D01*
Y38734D01*
Y38947D01*
Y39161D01*
Y39375D01*
X158855D01*
Y39588D01*
Y39802D01*
Y40016D01*
Y40230D01*
Y40443D01*
Y40657D01*
Y40871D01*
Y41085D01*
Y41298D01*
Y41512D01*
Y41726D01*
Y41939D01*
Y42153D01*
Y42367D01*
Y42581D01*
Y42794D01*
Y43008D01*
Y43222D01*
Y43435D01*
Y43649D01*
Y43863D01*
Y44076D01*
Y44290D01*
Y44504D01*
Y44717D01*
Y44931D01*
Y45145D01*
Y45359D01*
Y45572D01*
Y45786D01*
Y46000D01*
Y46213D01*
Y46427D01*
Y46641D01*
Y46855D01*
Y47068D01*
Y47282D01*
Y47496D01*
Y47709D01*
Y47923D01*
X158641D01*
Y48137D01*
Y48351D01*
Y48564D01*
Y48778D01*
Y48992D01*
Y49205D01*
Y49419D01*
Y49633D01*
Y49847D01*
X153939D01*
Y49633D01*
Y49419D01*
Y49205D01*
Y48992D01*
Y48778D01*
Y48564D01*
Y48351D01*
Y48137D01*
Y47923D01*
Y47709D01*
Y47496D01*
Y47282D01*
Y47068D01*
Y46855D01*
Y46641D01*
Y46427D01*
Y46213D01*
Y46000D01*
Y45786D01*
Y45572D01*
Y45359D01*
Y45145D01*
Y44931D01*
Y44717D01*
Y44504D01*
Y44290D01*
Y44076D01*
Y43863D01*
Y43649D01*
Y43435D01*
Y43222D01*
Y43008D01*
Y42794D01*
Y42581D01*
Y42367D01*
Y42153D01*
Y41939D01*
Y41726D01*
Y41512D01*
Y41298D01*
Y41085D01*
Y40871D01*
Y40657D01*
Y40443D01*
Y40230D01*
X154153D01*
Y40016D01*
Y39802D01*
Y39588D01*
Y39375D01*
Y39161D01*
Y38947D01*
Y38734D01*
Y38520D01*
Y38306D01*
Y38093D01*
Y37879D01*
Y37665D01*
Y37451D01*
Y37238D01*
Y37024D01*
Y36810D01*
Y36597D01*
Y36383D01*
Y36169D01*
Y35956D01*
Y35742D01*
Y35528D01*
Y35314D01*
X154367D01*
Y35101D01*
Y34887D01*
X154580D01*
Y34673D01*
Y34460D01*
X154794D01*
Y34246D01*
Y34032D01*
X155008D01*
Y33818D01*
Y33605D01*
X155222D01*
Y33391D01*
X155435D01*
Y33177D01*
X155649D01*
Y32964D01*
Y32750D01*
X155863D01*
Y32536D01*
X156076D01*
Y32322D01*
X156290D01*
Y32109D01*
X156718D01*
Y31895D01*
X156931D01*
Y31681D01*
X157359D01*
Y31468D01*
X157786D01*
Y31254D01*
X158427D01*
Y31040D01*
X159068D01*
Y30827D01*
X160351D01*
Y30613D01*
X163129D01*
Y30827D01*
X164625D01*
Y31040D01*
X165052D01*
Y31254D01*
X165693D01*
Y31468D01*
X166121D01*
Y31681D01*
X166548D01*
Y31895D01*
X166762D01*
Y32109D01*
X167189D01*
Y32322D01*
X167403D01*
Y32536D01*
X167617D01*
Y32750D01*
X167830D01*
Y32964D01*
X168044D01*
Y33177D01*
X168258D01*
Y33391D01*
X168472D01*
Y33605D01*
Y33818D01*
X168685D01*
Y34032D01*
X168899D01*
Y34246D01*
Y34460D01*
X169113D01*
Y34673D01*
Y34887D01*
Y35101D01*
Y35314D01*
X169326D01*
Y35528D01*
Y35742D01*
Y35956D01*
Y36169D01*
Y36383D01*
Y36597D01*
Y36810D01*
Y37024D01*
Y37238D01*
Y37451D01*
Y37665D01*
Y37879D01*
Y38093D01*
Y38306D01*
Y38520D01*
Y38734D01*
Y38947D01*
Y39161D01*
X169540D01*
Y39375D01*
Y39588D01*
Y39802D01*
Y40016D01*
Y40230D01*
Y40443D01*
Y40657D01*
Y40871D01*
Y41085D01*
Y41298D01*
Y41512D01*
Y41726D01*
Y41939D01*
Y42153D01*
Y42367D01*
Y42581D01*
Y42794D01*
Y43008D01*
Y43222D01*
Y43435D01*
Y43649D01*
Y43863D01*
Y44076D01*
Y44290D01*
Y44504D01*
Y44717D01*
Y44931D01*
Y45145D01*
Y45359D01*
Y45572D01*
Y45786D01*
Y46000D01*
Y46213D01*
Y46427D01*
Y46641D01*
Y46855D01*
Y47068D01*
Y47282D01*
Y47496D01*
Y47709D01*
Y47923D01*
Y48137D01*
Y48351D01*
Y48564D01*
Y48778D01*
Y48992D01*
Y49205D01*
Y49419D01*
Y49633D01*
X169326D01*
Y49847D01*
D02*
G37*
G36*
X130004D02*
X128936D01*
Y49633D01*
X119746D01*
Y49419D01*
X119105D01*
Y49205D01*
X118677D01*
Y48992D01*
X118464D01*
Y48778D01*
X118036D01*
Y48564D01*
X117823D01*
Y48351D01*
X117609D01*
Y48137D01*
X117395D01*
Y47923D01*
X117182D01*
Y47709D01*
X116968D01*
Y47496D01*
X116754D01*
Y47282D01*
Y47068D01*
X116541D01*
Y46855D01*
Y46641D01*
X116327D01*
Y46427D01*
X116113D01*
Y46213D01*
Y46000D01*
Y45786D01*
X115899D01*
Y45572D01*
Y45359D01*
Y45145D01*
Y44931D01*
Y44717D01*
Y44504D01*
Y44290D01*
Y44076D01*
Y43863D01*
Y43649D01*
Y43435D01*
Y43222D01*
Y43008D01*
Y42794D01*
Y42581D01*
Y42367D01*
X116113D01*
Y42153D01*
Y41939D01*
Y41726D01*
X116327D01*
Y41512D01*
Y41298D01*
X116541D01*
Y41085D01*
Y40871D01*
Y40657D01*
X116754D01*
Y40443D01*
X116968D01*
Y40230D01*
Y40016D01*
X117182D01*
Y39802D01*
X117395D01*
Y39588D01*
X117609D01*
Y39375D01*
X117823D01*
Y39161D01*
X118036D01*
Y38947D01*
X118464D01*
Y38734D01*
X118677D01*
Y38520D01*
X119105D01*
Y38306D01*
X119532D01*
Y38093D01*
X120174D01*
Y37879D01*
X121028D01*
Y37665D01*
X121883D01*
Y37451D01*
X123807D01*
Y37238D01*
X125303D01*
Y37024D01*
Y36810D01*
Y36597D01*
Y36383D01*
Y36169D01*
Y35956D01*
Y35742D01*
Y35528D01*
Y35314D01*
Y35101D01*
Y34887D01*
X125516D01*
Y34673D01*
Y34460D01*
Y34246D01*
Y34032D01*
Y33818D01*
Y33605D01*
Y33391D01*
Y33177D01*
Y32964D01*
Y32750D01*
Y32536D01*
Y32322D01*
Y32109D01*
Y31895D01*
Y31681D01*
Y31468D01*
X125730D01*
Y31254D01*
X127226D01*
Y31040D01*
X129363D01*
Y31254D01*
X130004D01*
Y31468D01*
X130218D01*
Y31681D01*
X130004D01*
Y31895D01*
X130218D01*
Y32109D01*
Y32322D01*
Y32536D01*
Y32750D01*
Y32964D01*
Y33177D01*
X130431D01*
Y33391D01*
Y33605D01*
Y33818D01*
Y34032D01*
Y34246D01*
Y34460D01*
Y34673D01*
Y34887D01*
Y35101D01*
Y35314D01*
Y35528D01*
Y35742D01*
Y35956D01*
Y36169D01*
Y36383D01*
Y36597D01*
Y36810D01*
Y37024D01*
Y37238D01*
Y37451D01*
Y37665D01*
Y37879D01*
Y38093D01*
X130218D01*
Y38306D01*
Y38520D01*
Y38734D01*
Y38947D01*
Y39161D01*
Y39375D01*
Y39588D01*
Y39802D01*
Y40016D01*
Y40230D01*
Y40443D01*
Y40657D01*
Y40871D01*
Y41085D01*
Y41298D01*
Y41512D01*
Y41726D01*
Y41939D01*
Y42153D01*
Y42367D01*
Y42581D01*
Y42794D01*
Y43008D01*
Y43222D01*
Y43435D01*
Y43649D01*
Y43863D01*
Y44076D01*
Y44290D01*
Y44504D01*
Y44717D01*
Y44931D01*
Y45145D01*
Y45359D01*
Y45572D01*
Y45786D01*
Y46000D01*
Y46213D01*
Y46427D01*
Y46641D01*
Y46855D01*
Y47068D01*
Y47282D01*
Y47496D01*
Y47709D01*
Y47923D01*
Y48137D01*
Y48351D01*
Y48564D01*
Y48778D01*
Y48992D01*
Y49205D01*
Y49419D01*
Y49633D01*
X130004D01*
Y49847D01*
D02*
G37*
G36*
X108420D02*
X104359D01*
Y49633D01*
X103932D01*
Y49419D01*
X103718D01*
Y49205D01*
Y48992D01*
Y48778D01*
X103504D01*
Y48564D01*
Y48351D01*
X103291D01*
Y48137D01*
Y47923D01*
Y47709D01*
X103077D01*
Y47496D01*
Y47282D01*
X102863D01*
Y47068D01*
Y46855D01*
Y46641D01*
X102649D01*
Y46427D01*
Y46213D01*
Y46000D01*
X102436D01*
Y45786D01*
Y45572D01*
Y45359D01*
X102222D01*
Y45145D01*
Y44931D01*
Y44717D01*
X102008D01*
Y44504D01*
Y44290D01*
Y44076D01*
X101795D01*
Y43863D01*
Y43649D01*
Y43435D01*
X101581D01*
Y43222D01*
Y43008D01*
Y42794D01*
X101367D01*
Y42581D01*
Y42367D01*
Y42153D01*
X101154D01*
Y41939D01*
Y41726D01*
Y41512D01*
X100940D01*
Y41298D01*
Y41085D01*
Y40871D01*
X100726D01*
Y40657D01*
Y40443D01*
X100512D01*
Y40230D01*
Y40016D01*
Y39802D01*
Y39588D01*
X100299D01*
Y39375D01*
Y39161D01*
Y38947D01*
X100085D01*
Y38734D01*
Y38520D01*
Y38306D01*
X99871D01*
Y38093D01*
Y37879D01*
Y37665D01*
X99657D01*
Y37451D01*
Y37238D01*
Y37024D01*
X99444D01*
Y36810D01*
Y36597D01*
Y36383D01*
X99230D01*
Y36169D01*
Y35956D01*
Y35742D01*
X99016D01*
Y35528D01*
Y35314D01*
Y35101D01*
X98803D01*
Y34887D01*
Y34673D01*
Y34460D01*
X98589D01*
Y34246D01*
Y34032D01*
Y33818D01*
X98375D01*
Y33605D01*
Y33391D01*
Y33177D01*
Y32964D01*
X98162D01*
Y32750D01*
Y32536D01*
Y32322D01*
X97948D01*
Y32109D01*
Y31895D01*
Y31681D01*
Y31468D01*
Y31254D01*
X99016D01*
Y31040D01*
X101154D01*
Y31254D01*
X102222D01*
Y31468D01*
X102436D01*
Y31681D01*
Y31895D01*
X102649D01*
Y32109D01*
Y32322D01*
Y32536D01*
Y32750D01*
X102863D01*
Y32964D01*
Y33177D01*
X103077D01*
Y33391D01*
Y33605D01*
Y33818D01*
X103291D01*
Y34032D01*
Y34246D01*
Y34460D01*
X103504D01*
Y34673D01*
X109274D01*
Y34460D01*
X109488D01*
Y34246D01*
Y34032D01*
Y33818D01*
X109702D01*
Y33605D01*
Y33391D01*
Y33177D01*
X109915D01*
Y32964D01*
Y32750D01*
Y32536D01*
X110129D01*
Y32322D01*
Y32109D01*
Y31895D01*
X110343D01*
Y31681D01*
Y31468D01*
X110770D01*
Y31254D01*
X111625D01*
Y31040D01*
X113976D01*
Y31254D01*
X114831D01*
Y31468D01*
Y31681D01*
Y31895D01*
Y32109D01*
Y32322D01*
X114617D01*
Y32536D01*
Y32750D01*
Y32964D01*
X114403D01*
Y33177D01*
Y33391D01*
Y33605D01*
X114190D01*
Y33818D01*
Y34032D01*
Y34246D01*
X113976D01*
Y34460D01*
Y34673D01*
Y34887D01*
X113762D01*
Y35101D01*
Y35314D01*
Y35528D01*
X113549D01*
Y35742D01*
Y35956D01*
Y36169D01*
X113335D01*
Y36383D01*
Y36597D01*
Y36810D01*
X113121D01*
Y37024D01*
Y37238D01*
Y37451D01*
X112907D01*
Y37665D01*
Y37879D01*
Y38093D01*
X112694D01*
Y38306D01*
Y38520D01*
Y38734D01*
X112480D01*
Y38947D01*
Y39161D01*
Y39375D01*
Y39588D01*
X112266D01*
Y39802D01*
Y40016D01*
X112053D01*
Y40230D01*
Y40443D01*
Y40657D01*
Y40871D01*
X111839D01*
Y41085D01*
Y41298D01*
X111625D01*
Y41512D01*
Y41726D01*
Y41939D01*
X111411D01*
Y42153D01*
Y42367D01*
Y42581D01*
X111198D01*
Y42794D01*
Y43008D01*
Y43222D01*
X110984D01*
Y43435D01*
Y43649D01*
Y43863D01*
X110770D01*
Y44076D01*
Y44290D01*
Y44504D01*
X110557D01*
Y44717D01*
Y44931D01*
Y45145D01*
X110343D01*
Y45359D01*
Y45572D01*
Y45786D01*
X110129D01*
Y46000D01*
Y46213D01*
Y46427D01*
X109915D01*
Y46641D01*
Y46855D01*
Y47068D01*
X109702D01*
Y47282D01*
Y47496D01*
Y47709D01*
X109488D01*
Y47923D01*
Y48137D01*
Y48351D01*
X109274D01*
Y48564D01*
Y48778D01*
X109061D01*
Y48992D01*
Y49205D01*
X108847D01*
Y49419D01*
X108633D01*
Y49633D01*
X108420D01*
Y49847D01*
D02*
G37*
G36*
X180439Y50060D02*
X176806D01*
Y49847D01*
X175738D01*
Y49633D01*
X174669D01*
Y49419D01*
X174028D01*
Y49205D01*
X173387D01*
Y48992D01*
X172959D01*
Y48778D01*
Y48564D01*
Y48351D01*
Y48137D01*
X172746D01*
Y47923D01*
Y47709D01*
Y47496D01*
Y47282D01*
Y47068D01*
Y46855D01*
Y46641D01*
Y46427D01*
Y46213D01*
Y46000D01*
Y45786D01*
Y45572D01*
Y45359D01*
Y45145D01*
X172959D01*
Y44931D01*
X173600D01*
Y45145D01*
X174028D01*
Y45359D01*
X174455D01*
Y45572D01*
X174883D01*
Y45786D01*
X175524D01*
Y46000D01*
X175951D01*
Y46213D01*
X176592D01*
Y46427D01*
X177447D01*
Y46641D01*
X180012D01*
Y46427D01*
X180653D01*
Y46213D01*
X181080D01*
Y46000D01*
X181294D01*
Y45786D01*
X181508D01*
Y45572D01*
Y45359D01*
X181721D01*
Y45145D01*
Y44931D01*
Y44717D01*
Y44504D01*
Y44290D01*
X181508D01*
Y44076D01*
Y43863D01*
X181080D01*
Y43649D01*
X180653D01*
Y43435D01*
X180225D01*
Y43222D01*
X179584D01*
Y43008D01*
X178943D01*
Y42794D01*
X178302D01*
Y42581D01*
X177661D01*
Y42367D01*
X177020D01*
Y42153D01*
X176592D01*
Y41939D01*
X175951D01*
Y41726D01*
X175524D01*
Y41512D01*
X174883D01*
Y41298D01*
X174669D01*
Y41085D01*
X174242D01*
Y40871D01*
X173814D01*
Y40657D01*
X173600D01*
Y40443D01*
X173387D01*
Y40230D01*
X173173D01*
Y40016D01*
X172959D01*
Y39802D01*
X172746D01*
Y39588D01*
X172532D01*
Y39375D01*
Y39161D01*
Y38947D01*
X172318D01*
Y38734D01*
Y38520D01*
Y38306D01*
X172105D01*
Y38093D01*
Y37879D01*
Y37665D01*
Y37451D01*
Y37238D01*
Y37024D01*
Y36810D01*
Y36597D01*
Y36383D01*
Y36169D01*
Y35956D01*
Y35742D01*
Y35528D01*
Y35314D01*
Y35101D01*
X172318D01*
Y34887D01*
Y34673D01*
Y34460D01*
X172532D01*
Y34246D01*
Y34032D01*
X172746D01*
Y33818D01*
Y33605D01*
X172959D01*
Y33391D01*
X173173D01*
Y33177D01*
X173387D01*
Y32964D01*
X173600D01*
Y32750D01*
X173814D01*
Y32536D01*
X174028D01*
Y32322D01*
X174455D01*
Y32109D01*
X174669D01*
Y31895D01*
X175096D01*
Y31681D01*
X175524D01*
Y31468D01*
X175951D01*
Y31254D01*
X176379D01*
Y31040D01*
X177020D01*
Y30827D01*
X179371D01*
Y30613D01*
X181721D01*
Y30827D01*
X183431D01*
Y31040D01*
X184286D01*
Y31254D01*
X185141D01*
Y31468D01*
X185568D01*
Y31681D01*
X185995D01*
Y31895D01*
X186209D01*
Y32109D01*
X186423D01*
Y32322D01*
X186637D01*
Y32536D01*
Y32750D01*
Y32964D01*
Y33177D01*
Y33391D01*
Y33605D01*
Y33818D01*
Y34032D01*
Y34246D01*
Y34460D01*
Y34673D01*
Y34887D01*
Y35101D01*
Y35314D01*
Y35528D01*
Y35742D01*
Y35956D01*
Y36169D01*
X185995D01*
Y35956D01*
X185568D01*
Y35742D01*
X184927D01*
Y35528D01*
X184500D01*
Y35314D01*
X184072D01*
Y35101D01*
X183645D01*
Y34887D01*
X183217D01*
Y34673D01*
X182790D01*
Y34460D01*
X181935D01*
Y34246D01*
X178302D01*
Y34460D01*
X177661D01*
Y34673D01*
X177447D01*
Y34887D01*
X177234D01*
Y35101D01*
Y35314D01*
X177020D01*
Y35528D01*
Y35742D01*
Y35956D01*
Y36169D01*
Y36383D01*
Y36597D01*
Y36810D01*
X177234D01*
Y37024D01*
X177447D01*
Y37238D01*
X177875D01*
Y37451D01*
X178302D01*
Y37665D01*
X178943D01*
Y37879D01*
X179584D01*
Y38093D01*
X180225D01*
Y38306D01*
X180867D01*
Y38520D01*
X181721D01*
Y38734D01*
X182362D01*
Y38947D01*
X183004D01*
Y39161D01*
X183431D01*
Y39375D01*
X183858D01*
Y39588D01*
X184286D01*
Y39802D01*
X184713D01*
Y40016D01*
X184927D01*
Y40230D01*
X185141D01*
Y40443D01*
X185354D01*
Y40657D01*
X185568D01*
Y40871D01*
Y41085D01*
X185782D01*
Y41298D01*
X185995D01*
Y41512D01*
Y41726D01*
X186209D01*
Y41939D01*
Y42153D01*
X186423D01*
Y42367D01*
Y42581D01*
Y42794D01*
X186637D01*
Y43008D01*
Y43222D01*
Y43435D01*
Y43649D01*
Y43863D01*
Y44076D01*
Y44290D01*
Y44504D01*
Y44717D01*
Y44931D01*
Y45145D01*
Y45359D01*
X186423D01*
Y45572D01*
Y45786D01*
Y46000D01*
X186209D01*
Y46213D01*
Y46427D01*
X185995D01*
Y46641D01*
Y46855D01*
X185782D01*
Y47068D01*
X185568D01*
Y47282D01*
Y47496D01*
X185354D01*
Y47709D01*
X185141D01*
Y47923D01*
X184927D01*
Y48137D01*
X184713D01*
Y48351D01*
X184500D01*
Y48564D01*
X184286D01*
Y48778D01*
X183858D01*
Y48992D01*
X183431D01*
Y49205D01*
X183004D01*
Y49419D01*
X182362D01*
Y49633D01*
X181721D01*
Y49847D01*
X180439D01*
Y50060D01*
D02*
G37*
%LPD*%
G36*
X125303Y46000D02*
Y45786D01*
Y45572D01*
Y45359D01*
Y45145D01*
Y44931D01*
Y44717D01*
Y44504D01*
Y44290D01*
Y44076D01*
Y43863D01*
Y43649D01*
Y43435D01*
Y43222D01*
Y43008D01*
Y42794D01*
Y42581D01*
Y42367D01*
Y42153D01*
Y41939D01*
Y41726D01*
Y41512D01*
Y41298D01*
X125089D01*
Y41085D01*
X124875D01*
Y40871D01*
X123165D01*
Y41085D01*
X122311D01*
Y41298D01*
X121883D01*
Y41512D01*
X121456D01*
Y41726D01*
Y41939D01*
X121242D01*
Y42153D01*
X121028D01*
Y42367D01*
Y42581D01*
X120815D01*
Y42794D01*
Y43008D01*
Y43222D01*
Y43435D01*
Y43649D01*
Y43863D01*
Y44076D01*
Y44290D01*
Y44504D01*
Y44717D01*
Y44931D01*
X121028D01*
Y45145D01*
X121242D01*
Y45359D01*
Y45572D01*
X121456D01*
Y45786D01*
X121883D01*
Y46000D01*
X122097D01*
Y46213D01*
X125303D01*
Y46000D01*
D02*
G37*
G36*
X106496Y43222D02*
X106710D01*
Y43008D01*
Y42794D01*
Y42581D01*
X106924D01*
Y42367D01*
Y42153D01*
X107137D01*
Y41939D01*
Y41726D01*
Y41512D01*
X107351D01*
Y41298D01*
Y41085D01*
Y40871D01*
Y40657D01*
X107565D01*
Y40443D01*
Y40230D01*
Y40016D01*
X107778D01*
Y39802D01*
Y39588D01*
Y39375D01*
Y39161D01*
Y38947D01*
Y38734D01*
Y38520D01*
X107565D01*
Y38306D01*
X105214D01*
Y38520D01*
X105000D01*
Y38734D01*
Y38947D01*
Y39161D01*
Y39375D01*
Y39588D01*
Y39802D01*
Y40016D01*
X105214D01*
Y40230D01*
Y40443D01*
Y40657D01*
Y40871D01*
X105428D01*
Y41085D01*
Y41298D01*
Y41512D01*
X105641D01*
Y41726D01*
Y41939D01*
Y42153D01*
X105855D01*
Y42367D01*
Y42581D01*
Y42794D01*
X106069D01*
Y43008D01*
Y43222D01*
X106282D01*
Y43435D01*
X106496D01*
Y43222D01*
D02*
G37*
D13*
X294996Y55001D02*
Y60999D01*
X291997D01*
X290997Y59999D01*
Y58000D01*
X291997Y57000D01*
X294996D01*
X292996D02*
X290997Y55001D01*
X287998Y59000D02*
X285999D01*
X284999Y58000D01*
Y55001D01*
X287998D01*
X288998Y56001D01*
X287998Y57000D01*
X284999D01*
X279001Y60999D02*
Y55001D01*
X282000D01*
X282999Y56001D01*
Y58000D01*
X282000Y59000D01*
X279001D01*
X277002Y55001D02*
X275002D01*
X276002D01*
Y59000D01*
X277002D01*
X271003Y55001D02*
X269004D01*
X268004Y56001D01*
Y58000D01*
X269004Y59000D01*
X271003D01*
X272003Y58000D01*
Y56001D01*
X271003Y55001D01*
D14*
X292402Y12244D02*
Y52244D01*
X272402Y12244D02*
Y52244D01*
X292402D01*
X272402Y12244D02*
X292402D01*
D15*
X303034Y48632D02*
X303701Y49299D01*
X305034D01*
X305700Y48632D01*
Y45966D01*
X305034Y45300D01*
X303701D01*
X303034Y45966D01*
Y47299D01*
X304367D01*
X301701Y45300D02*
Y49299D01*
X299036Y45300D01*
Y49299D01*
X297703D02*
Y45300D01*
X295703D01*
X295037Y45966D01*
Y48632D01*
X295703Y49299D01*
X297703D01*
X309200Y15300D02*
Y19299D01*
X307867Y17966D01*
X306534Y19299D01*
Y15300D01*
X305201Y19299D02*
X303868D01*
X304535D01*
Y15300D01*
X305201D01*
X303868D01*
X299203Y18632D02*
X299870Y19299D01*
X301203D01*
X301869Y18632D01*
Y17966D01*
X301203Y17299D01*
X299870D01*
X299203Y16633D01*
Y15967D01*
X299870Y15300D01*
X301203D01*
X301869Y15967D01*
X295871Y19299D02*
X297204D01*
X297870Y18632D01*
Y15967D01*
X297204Y15300D01*
X295871D01*
X295204Y15967D01*
Y18632D01*
X295871Y19299D01*
X270200Y18799D02*
X268867D01*
X269534D01*
Y14800D01*
X270200D01*
X268867D01*
X266868D02*
Y18799D01*
X264868D01*
X264202Y18132D01*
Y16799D01*
X264868Y16133D01*
X266868D01*
X265535D02*
X264202Y14800D01*
X260203Y15466D02*
Y18132D01*
X260870Y18799D01*
X262203D01*
X262869Y18132D01*
Y15466D01*
X262203Y14800D01*
X260870D01*
X261536Y16133D02*
X260203Y14800D01*
X260870D02*
X260203Y15466D01*
X261200Y25300D02*
Y29299D01*
X259867Y27966D01*
X258534Y29299D01*
Y25300D01*
X255202Y29299D02*
X256535D01*
X257201Y28632D01*
Y25966D01*
X256535Y25300D01*
X255202D01*
X254536Y25966D01*
Y28632D01*
X255202Y29299D01*
X250537Y28632D02*
X251203Y29299D01*
X252536D01*
X253203Y28632D01*
Y27966D01*
X252536Y27299D01*
X251203D01*
X250537Y26633D01*
Y25966D01*
X251203Y25300D01*
X252536D01*
X253203Y25966D01*
X249204Y29299D02*
X247871D01*
X248537D01*
Y25300D01*
X249204D01*
X247871D01*
X267534Y38632D02*
X268201Y39299D01*
X269534D01*
X270200Y38632D01*
Y35966D01*
X269534Y35300D01*
X268201D01*
X267534Y35966D01*
X263535Y38632D02*
X264202Y39299D01*
X265535D01*
X266201Y38632D01*
Y37966D01*
X265535Y37299D01*
X264202D01*
X263535Y36633D01*
Y35966D01*
X264202Y35300D01*
X265535D01*
X266201Y35966D01*
X262203Y35300D02*
Y39299D01*
X259537Y35300D01*
Y39299D01*
X270200Y48632D02*
X269534Y49299D01*
X268201D01*
X267534Y48632D01*
Y47966D01*
X268201Y47299D01*
X268867D01*
X268201D01*
X267534Y46633D01*
Y45966D01*
X268201Y45300D01*
X269534D01*
X270200Y45966D01*
X266201Y49299D02*
Y46633D01*
X264868Y45300D01*
X263535Y46633D01*
Y49299D01*
X262203Y48632D02*
X261536Y49299D01*
X260203D01*
X259537Y48632D01*
Y47966D01*
X260203Y47299D01*
X260870D01*
X260203D01*
X259537Y46633D01*
Y45966D01*
X260203Y45300D01*
X261536D01*
X262203Y45966D01*
X299034Y38632D02*
X299701Y39299D01*
X301034D01*
X301700Y38632D01*
Y35966D01*
X301034Y35300D01*
X299701D01*
X299034Y35966D01*
X295036Y39299D02*
X297701D01*
Y35300D01*
X295036D01*
X297701Y37299D02*
X296368D01*
X302534Y28632D02*
X303201Y29299D01*
X304534D01*
X305200Y28632D01*
Y27966D01*
X304534Y27299D01*
X303201D01*
X302534Y26633D01*
Y25966D01*
X303201Y25300D01*
X304534D01*
X305200Y25966D01*
X298535Y28632D02*
X299202Y29299D01*
X300535D01*
X301201Y28632D01*
Y25966D01*
X300535Y25300D01*
X299202D01*
X298535Y25966D01*
X297203Y29299D02*
Y25300D01*
Y26633D01*
X294537Y29299D01*
X296536Y27299D01*
X294537Y25300D01*
M02*
