G04*
G04 #@! TF.GenerationSoftware,Altium Limited,Altium Designer,20.1.10 (176)*
G04*
G04 Layer_Color=65535*
%FSLAX25Y25*%
%MOIN*%
G70*
G04*
G04 #@! TF.SameCoordinates,4904768C-9D57-489E-94B9-A5ABCCC02516*
G04*
G04*
G04 #@! TF.FilePolarity,Positive*
G04*
G01*
G75*
%ADD10C,0.00984*%
%ADD11C,0.02362*%
%ADD12C,0.01968*%
%ADD13C,0.01000*%
%ADD14C,0.00787*%
%ADD15C,0.00800*%
%ADD16C,0.01575*%
%ADD17C,0.00500*%
D10*
X245992Y63500D02*
X245254Y63926D01*
Y63074D01*
X245992Y63500D01*
X252492Y29000D02*
X251754Y29426D01*
Y28574D01*
X252492Y29000D01*
X27760Y54724D02*
X27022Y55151D01*
Y54298D01*
X27760Y54724D01*
X76992Y42500D02*
X76254Y42926D01*
Y42074D01*
X76992Y42500D01*
X295472Y66437D02*
X294734Y66863D01*
Y66011D01*
X295472Y66437D01*
X58992Y98000D02*
X58254Y98426D01*
Y97574D01*
X58992Y98000D01*
X16492Y44240D02*
X15754Y44666D01*
Y43814D01*
X16492Y44240D01*
X167984Y99952D02*
X171920D01*
X169952Y101920D02*
Y97984D01*
X115984Y78952D02*
X119920D01*
X117952Y80920D02*
Y76984D01*
D11*
X28449Y54724D02*
X28004Y55648D01*
X27005Y55876D01*
X26204Y55237D01*
Y54212D01*
X27005Y53573D01*
X28004Y53801D01*
X28449Y54724D01*
X78181Y43500D02*
X77736Y44423D01*
X76737Y44651D01*
X75936Y44012D01*
Y42987D01*
X76737Y42349D01*
X77736Y42577D01*
X78181Y43500D01*
D12*
X137488Y102374D02*
X136944Y103123D01*
X136064Y102837D01*
Y101911D01*
X136944Y101625D01*
X137488Y102374D01*
X178740Y59055D02*
X178196Y59804D01*
X177316Y59518D01*
Y58592D01*
X178196Y58306D01*
X178740Y59055D01*
X336469Y70904D02*
X344340D01*
X340404Y74840D02*
Y66969D01*
D13*
X223228Y59055D02*
X223210Y60056D01*
X223156Y61055D01*
X223065Y62052D01*
X222938Y63045D01*
X222775Y64032D01*
X222577Y65013D01*
X222342Y65986D01*
X222073Y66950D01*
X221769Y67904D01*
X221431Y68846D01*
X221058Y69775D01*
X220652Y70689D01*
X220213Y71589D01*
X219742Y72472D01*
X219239Y73337D01*
X218705Y74184D01*
X218140Y75010D01*
X217546Y75815D01*
X216923Y76599D01*
X216272Y77359D01*
X215594Y78095D01*
X214889Y78806D01*
X214159Y79491D01*
X213405Y80149D01*
X212628Y80779D01*
X211828Y81380D01*
X211006Y81952D01*
X210165Y82494D01*
X209304Y83005D01*
X208425Y83484D01*
X207530Y83931D01*
X206619Y84346D01*
X205693Y84727D01*
X204755Y85074D01*
X203804Y85386D01*
X202842Y85664D01*
X201871Y85907D01*
X200892Y86115D01*
X199906Y86286D01*
X198915Y86422D01*
X197919Y86522D01*
X196920Y86586D01*
X195920Y86613D01*
X194919Y86604D01*
X193919Y86559D01*
X192921Y86477D01*
X191927Y86359D01*
X190938Y86205D01*
X189956Y86015D01*
X188981Y85790D01*
X188014Y85530D01*
X187058Y85234D01*
X186113Y84904D01*
X185181Y84540D01*
X184262Y84143D01*
X183359Y83712D01*
X182472Y83249D01*
X181602Y82753D01*
X180751Y82227D01*
X179919Y81670D01*
X179108Y81083D01*
X178319Y80467D01*
X177553Y79823D01*
X176811Y79152D01*
X176094Y78454D01*
X175402Y77730D01*
X174738Y76982D01*
X174100Y76210D01*
X173492Y75415D01*
X172912Y74599D01*
X172363Y73763D01*
X171844Y72907D01*
X171357Y72033D01*
X170902Y71141D01*
X170479Y70234D01*
X170090Y69312D01*
X169734Y68376D01*
X169413Y67428D01*
X169126Y66470D01*
X168875Y65501D01*
X168658Y64524D01*
X168477Y63539D01*
X168333Y62549D01*
X168224Y61554D01*
X168151Y60556D01*
X168115Y59556D01*
X168115Y58555D01*
X168151Y57555D01*
X168224Y56556D01*
X168333Y55561D01*
X168477Y54571D01*
X168658Y53587D01*
X168875Y52609D01*
X169126Y51641D01*
X169413Y50682D01*
X169734Y49734D01*
X170090Y48798D01*
X170479Y47876D01*
X170902Y46969D01*
X171357Y46078D01*
X171844Y45204D01*
X172363Y44348D01*
X172912Y43511D01*
X173492Y42695D01*
X174100Y41900D01*
X174738Y41129D01*
X175402Y40380D01*
X176094Y39657D01*
X176811Y38959D01*
X177553Y38287D01*
X178319Y37643D01*
X179108Y37027D01*
X179919Y36440D01*
X180750Y35883D01*
X181602Y35357D01*
X182472Y34862D01*
X183359Y34398D01*
X184262Y33968D01*
X185180Y33570D01*
X186113Y33206D01*
X187058Y32876D01*
X188014Y32581D01*
X188980Y32320D01*
X189955Y32095D01*
X190938Y31905D01*
X191927Y31751D01*
X192921Y31633D01*
X193919Y31552D01*
X194919Y31506D01*
X195919Y31497D01*
X196920Y31525D01*
X197919Y31588D01*
X198915Y31688D01*
X199906Y31824D01*
X200892Y31995D01*
X201871Y32203D01*
X202842Y32446D01*
X203804Y32724D01*
X204754Y33037D01*
X205693Y33384D01*
X206619Y33765D01*
X207530Y34179D01*
X208425Y34626D01*
X209304Y35105D01*
X210165Y35616D01*
X211006Y36158D01*
X211827Y36730D01*
X212628Y37331D01*
X213405Y37962D01*
X214159Y38619D01*
X214889Y39304D01*
X215594Y40015D01*
X216272Y40751D01*
X216923Y41511D01*
X217546Y42295D01*
X218140Y43100D01*
X218705Y43927D01*
X219239Y44773D01*
X219742Y45638D01*
X220213Y46521D01*
X220652Y47421D01*
X221058Y48335D01*
X221431Y49264D01*
X221769Y50206D01*
X222073Y51160D01*
X222342Y52124D01*
X222577Y53097D01*
X222775Y54078D01*
X222938Y55066D01*
X223065Y56058D01*
X223156Y57055D01*
X223210Y58054D01*
X223228Y59055D01*
X188440Y116000D02*
X187780Y116381D01*
Y115619D01*
X188440Y116000D01*
X232440D02*
X231780Y116381D01*
Y115619D01*
X232440Y116000D01*
X210440D02*
X209780Y116381D01*
Y115619D01*
X210440Y116000D01*
X235500Y103000D02*
X249476D01*
X213024D02*
X227000D01*
X191500Y116000D02*
X205476D01*
X191500Y103000D02*
X205476D01*
X235024Y116000D02*
X249000D01*
X213524D02*
X227500D01*
X107001Y25999D02*
Y24999D01*
X109001Y23000D01*
X111000Y24999D01*
Y25999D01*
X109001Y23000D02*
Y20001D01*
X112999D02*
X114999D01*
X113999D01*
Y25999D01*
X112999Y24999D01*
X277999Y60000D02*
X274001D01*
X273001Y59001D01*
Y57001D01*
X274001Y56002D01*
X277999D01*
X278999Y57001D01*
Y59001D01*
X277000Y58001D02*
X278999Y60000D01*
Y59001D02*
X277999Y60000D01*
X278999Y65998D02*
Y62000D01*
X275000Y65998D01*
X274001D01*
X273001Y64999D01*
Y62999D01*
X274001Y62000D01*
X235502Y39499D02*
Y34501D01*
X236501Y33501D01*
X238501D01*
X239500Y34501D01*
Y39499D01*
X245498Y33501D02*
X241500D01*
X245498Y37500D01*
Y38499D01*
X244499Y39499D01*
X242499D01*
X241500Y38499D01*
X265501Y42000D02*
X264501Y41001D01*
Y39001D01*
X265501Y38002D01*
X269499D01*
X270499Y39001D01*
Y41001D01*
X269499Y42000D01*
X264501Y47998D02*
Y44000D01*
X267500D01*
X266500Y45999D01*
Y46999D01*
X267500Y47998D01*
X269499D01*
X270499Y46999D01*
Y44999D01*
X269499Y44000D01*
X265501Y55000D02*
X264501Y54001D01*
Y52001D01*
X265501Y51002D01*
X269499D01*
X270499Y52001D01*
Y54001D01*
X269499Y55000D01*
X270499Y59999D02*
X264501D01*
X267500Y57000D01*
Y60998D01*
X235002Y83999D02*
Y79001D01*
X236001Y78001D01*
X238001D01*
X239000Y79001D01*
Y83999D01*
X241000Y82999D02*
X241999Y83999D01*
X243999D01*
X244998Y82999D01*
Y82000D01*
X243999Y81000D01*
X242999D01*
X243999D01*
X244998Y80000D01*
Y79001D01*
X243999Y78001D01*
X241999D01*
X241000Y79001D01*
X257501Y82000D02*
X256501Y81001D01*
Y79001D01*
X257501Y78002D01*
X261499D01*
X262499Y79001D01*
Y81001D01*
X261499Y82000D01*
X257501Y84000D02*
X256501Y84999D01*
Y86999D01*
X257501Y87998D01*
X258500D01*
X259500Y86999D01*
X260500Y87998D01*
X261499D01*
X262499Y86999D01*
Y84999D01*
X261499Y84000D01*
X260500D01*
X259500Y84999D01*
X258500Y84000D01*
X257501D01*
X259500Y84999D02*
Y86999D01*
X266501Y82000D02*
X265501Y81001D01*
Y79001D01*
X266501Y78002D01*
X270499D01*
X271499Y79001D01*
Y81001D01*
X270499Y82000D01*
X265501Y84000D02*
Y87998D01*
X266501D01*
X270499Y84000D01*
X271499D01*
X3001Y34501D02*
X2001Y33501D01*
Y31502D01*
X3001Y30502D01*
X6999D01*
X7999Y31502D01*
Y33501D01*
X6999Y34501D01*
X7999Y36500D02*
Y38500D01*
Y37500D01*
X2001D01*
X3001Y36500D01*
Y41499D02*
X2001Y42498D01*
Y44498D01*
X3001Y45498D01*
X6999D01*
X7999Y44498D01*
Y42498D01*
X6999Y41499D01*
X3001D01*
X3001Y78500D02*
X2001Y77501D01*
Y75501D01*
X3001Y74502D01*
X6999D01*
X7999Y75501D01*
Y77501D01*
X6999Y78500D01*
Y80500D02*
X7999Y81499D01*
Y83499D01*
X6999Y84498D01*
X3001D01*
X2001Y83499D01*
Y81499D01*
X3001Y80500D01*
X4000D01*
X5000Y81499D01*
Y84498D01*
X48002Y60999D02*
Y56001D01*
X49001Y55001D01*
X51001D01*
X52000Y56001D01*
Y60999D01*
X57998D02*
X54000D01*
Y58000D01*
X55999Y59000D01*
X56999D01*
X57998Y58000D01*
Y56001D01*
X56999Y55001D01*
X54999D01*
X54000Y56001D01*
X96001Y67999D02*
Y63001D01*
X97001Y62001D01*
X99000D01*
X100000Y63001D01*
Y67999D01*
X101999Y62001D02*
X103999D01*
X102999D01*
Y67999D01*
X101999Y66999D01*
X26499Y78002D02*
X20501D01*
Y81001D01*
X21501Y82000D01*
X23500D01*
X24500Y81001D01*
Y78002D01*
Y80001D02*
X26499Y82000D01*
X20501Y84000D02*
Y87998D01*
X21501D01*
X25499Y84000D01*
X26499D01*
X54503Y33999D02*
X56503D01*
X55503D01*
Y28001D01*
X54503D01*
X56503D01*
X63500Y32999D02*
X62501Y33999D01*
X60501D01*
X59502Y32999D01*
Y29001D01*
X60501Y28001D01*
X62501D01*
X63500Y29001D01*
X69499Y32999D02*
X68499Y33999D01*
X66500D01*
X65500Y32999D01*
Y32000D01*
X66500Y31000D01*
X68499D01*
X69499Y30000D01*
Y29001D01*
X68499Y28001D01*
X66500D01*
X65500Y29001D01*
X71498Y28001D02*
Y33999D01*
X74497D01*
X75497Y32999D01*
Y31000D01*
X74497Y30000D01*
X71498D01*
X86501Y87000D02*
X85501Y86001D01*
Y84001D01*
X86501Y83002D01*
X90499D01*
X91499Y84001D01*
Y86001D01*
X90499Y87000D01*
X85501Y92998D02*
X86501Y90999D01*
X88500Y89000D01*
X90499D01*
X91499Y89999D01*
Y91999D01*
X90499Y92998D01*
X89500D01*
X88500Y91999D01*
Y89000D01*
X92000Y12999D02*
X91001Y13999D01*
X89001D01*
X88002Y12999D01*
Y9001D01*
X89001Y8001D01*
X91001D01*
X92000Y9001D01*
X94000Y12999D02*
X94999Y13999D01*
X96999D01*
X97998Y12999D01*
Y12000D01*
X96999Y11000D01*
X95999D01*
X96999D01*
X97998Y10000D01*
Y9001D01*
X96999Y8001D01*
X94999D01*
X94000Y9001D01*
D14*
X156894Y84390D02*
X156106D01*
X156894D01*
X24803Y105118D02*
X24761Y106120D01*
X24633Y107114D01*
X24422Y108094D01*
X24128Y109053D01*
X23755Y109983D01*
X23303Y110878D01*
X22778Y111732D01*
X22182Y112538D01*
X21519Y113291D01*
X20795Y113984D01*
X20015Y114614D01*
X19185Y115175D01*
X18309Y115665D01*
X17396Y116077D01*
X16451Y116411D01*
X15481Y116664D01*
X14492Y116833D01*
X13493Y116919D01*
X12491D01*
X11492Y116833D01*
X10504Y116664D01*
X9534Y116411D01*
X8588Y116077D01*
X7675Y115665D01*
X6799Y115175D01*
X5969Y114614D01*
X5189Y113984D01*
X4465Y113291D01*
X3803Y112538D01*
X3207Y111732D01*
X2681Y110878D01*
X2230Y109983D01*
X1856Y109053D01*
X1562Y108094D01*
X1351Y107114D01*
X1224Y106120D01*
X1181Y105118D01*
X1224Y104116D01*
X1351Y103122D01*
X1562Y102142D01*
X1856Y101183D01*
X2230Y100253D01*
X2681Y99358D01*
X3207Y98504D01*
X3803Y97698D01*
X4465Y96946D01*
X5189Y96252D01*
X5969Y95622D01*
X6800Y95061D01*
X7675Y94572D01*
X8588Y94159D01*
X9534Y93825D01*
X10504Y93572D01*
X11492Y93403D01*
X12491Y93318D01*
X13493D01*
X14492Y93403D01*
X15481Y93572D01*
X16451Y93825D01*
X17396Y94159D01*
X18309Y94572D01*
X19185Y95061D01*
X20015Y95622D01*
X20795Y96252D01*
X21519Y96946D01*
X22182Y97698D01*
X22778Y98504D01*
X23303Y99358D01*
X23755Y100253D01*
X24128Y101183D01*
X24422Y102142D01*
X24633Y103122D01*
X24761Y104116D01*
X24803Y105118D01*
X232000Y58189D02*
X248071D01*
X232000Y31811D02*
X248071D01*
X115587Y29146D02*
Y34854D01*
X101413Y29146D02*
Y34854D01*
X232000Y86189D02*
X248000D01*
X232000Y59811D02*
X248000D01*
X297358Y22953D02*
X329642D01*
X297358D02*
Y64685D01*
X329642D01*
Y22953D02*
Y64685D01*
X64669Y50787D02*
Y67323D01*
X23331Y50787D02*
Y67323D01*
X64669D01*
X23331Y50787D02*
X64669D01*
X105709Y47835D02*
Y70276D01*
X83268Y47835D02*
Y70276D01*
X105709D01*
X83268Y47835D02*
X105709D01*
X293406Y59744D02*
Y63287D01*
X290650Y59744D02*
X293406D01*
X281594D02*
Y63287D01*
Y59744D02*
X284350D01*
X155000Y117000D02*
X185000D01*
X155000Y112000D02*
Y117000D01*
X185000Y112000D02*
Y117000D01*
X155000Y112000D02*
X185000D01*
X122500Y117000D02*
X152500D01*
X122500Y112000D02*
Y117000D01*
X152500Y112000D02*
Y117000D01*
X122500Y112000D02*
X152500D01*
X103000Y83500D02*
X133000D01*
Y93500D01*
X103000D02*
X133000D01*
X103000Y83500D02*
Y93500D01*
X27008Y95520D02*
Y104181D01*
X62992Y95520D02*
Y104181D01*
X48000Y6000D02*
Y26000D01*
X78000Y6000D02*
Y26000D01*
X48000Y6000D02*
X78000D01*
X48000Y26000D02*
X78000D01*
X48000D02*
X67167D01*
X13933Y68508D02*
Y69492D01*
X18067Y68508D02*
Y69492D01*
X19642Y48472D02*
Y57528D01*
X12358Y48472D02*
Y57528D01*
D15*
X353150Y105118D02*
X353107Y106120D01*
X352980Y107114D01*
X352768Y108094D01*
X352475Y109053D01*
X352101Y109983D01*
X351650Y110878D01*
X351124Y111732D01*
X350528Y112538D01*
X349866Y113291D01*
X349142Y113984D01*
X348362Y114614D01*
X347531Y115175D01*
X346656Y115665D01*
X345742Y116077D01*
X344797Y116411D01*
X343827Y116664D01*
X342839Y116833D01*
X341840Y116919D01*
X340837D01*
X339838Y116833D01*
X338850Y116664D01*
X337880Y116411D01*
X336935Y116077D01*
X336021Y115665D01*
X335146Y115175D01*
X334315Y114614D01*
X333535Y113984D01*
X332811Y113291D01*
X332149Y112538D01*
X331553Y111732D01*
X331027Y110878D01*
X330576Y109983D01*
X330202Y109053D01*
X329909Y108094D01*
X329697Y107114D01*
X329570Y106120D01*
X329528Y105118D01*
X329570Y104116D01*
X329697Y103122D01*
X329909Y102142D01*
X330202Y101183D01*
X330576Y100253D01*
X331027Y99358D01*
X331553Y98504D01*
X332149Y97698D01*
X332812Y96946D01*
X333535Y96252D01*
X334315Y95622D01*
X335146Y95061D01*
X336021Y94572D01*
X336935Y94159D01*
X337880Y93825D01*
X338850Y93572D01*
X339838Y93403D01*
X340837Y93318D01*
X341840D01*
X342839Y93403D01*
X343827Y93572D01*
X344797Y93825D01*
X345742Y94159D01*
X346656Y94572D01*
X347531Y95061D01*
X348362Y95622D01*
X349142Y96252D01*
X349866Y96946D01*
X350528Y97698D01*
X351124Y98504D01*
X351650Y99358D01*
X352101Y100253D01*
X352475Y101183D01*
X352768Y102142D01*
X352980Y103122D01*
X353107Y104116D01*
X353150Y105118D01*
Y12992D02*
X353107Y13994D01*
X352980Y14988D01*
X352768Y15968D01*
X352475Y16927D01*
X352101Y17857D01*
X351650Y18752D01*
X351124Y19606D01*
X350528Y20412D01*
X349866Y21165D01*
X349142Y21858D01*
X348362Y22488D01*
X347531Y23050D01*
X346656Y23539D01*
X345742Y23951D01*
X344797Y24285D01*
X343827Y24538D01*
X342839Y24708D01*
X341840Y24792D01*
X340837D01*
X339838Y24708D01*
X338850Y24538D01*
X337880Y24285D01*
X336935Y23951D01*
X336021Y23539D01*
X335146Y23050D01*
X334315Y22488D01*
X333535Y21858D01*
X332811Y21165D01*
X332149Y20412D01*
X331553Y19606D01*
X331027Y18752D01*
X330576Y17857D01*
X330202Y16927D01*
X329909Y15968D01*
X329697Y14988D01*
X329570Y13994D01*
X329528Y12992D01*
X329570Y11991D01*
X329697Y10996D01*
X329909Y10016D01*
X330202Y9057D01*
X330576Y8127D01*
X331027Y7232D01*
X331553Y6378D01*
X332149Y5572D01*
X332812Y4820D01*
X333535Y4126D01*
X334315Y3496D01*
X335146Y2935D01*
X336021Y2446D01*
X336935Y2033D01*
X337880Y1699D01*
X338850Y1446D01*
X339838Y1277D01*
X340837Y1192D01*
X341840D01*
X342839Y1277D01*
X343827Y1446D01*
X344797Y1699D01*
X345742Y2033D01*
X346656Y2446D01*
X347531Y2935D01*
X348362Y3496D01*
X349142Y4126D01*
X349866Y4820D01*
X350528Y5572D01*
X351124Y6378D01*
X351650Y7232D01*
X352101Y8127D01*
X352475Y9057D01*
X352768Y10016D01*
X352980Y10996D01*
X353107Y11991D01*
X353150Y12992D01*
X24803D02*
X24761Y13994D01*
X24633Y14988D01*
X24422Y15968D01*
X24128Y16927D01*
X23755Y17857D01*
X23303Y18752D01*
X22778Y19606D01*
X22182Y20412D01*
X21519Y21165D01*
X20795Y21858D01*
X20015Y22488D01*
X19185Y23050D01*
X18309Y23539D01*
X17396Y23951D01*
X16451Y24285D01*
X15481Y24538D01*
X14492Y24708D01*
X13493Y24792D01*
X12491D01*
X11492Y24708D01*
X10504Y24538D01*
X9534Y24285D01*
X8588Y23951D01*
X7675Y23539D01*
X6799Y23050D01*
X5969Y22488D01*
X5189Y21858D01*
X4465Y21165D01*
X3803Y20412D01*
X3207Y19606D01*
X2681Y18752D01*
X2230Y17857D01*
X1856Y16927D01*
X1562Y15968D01*
X1351Y14988D01*
X1224Y13994D01*
X1181Y12992D01*
X1224Y11991D01*
X1351Y10996D01*
X1562Y10016D01*
X1856Y9057D01*
X2230Y8127D01*
X2681Y7232D01*
X3207Y6378D01*
X3803Y5572D01*
X4465Y4820D01*
X5189Y4126D01*
X5969Y3496D01*
X6800Y2935D01*
X7675Y2446D01*
X8588Y2033D01*
X9534Y1699D01*
X10504Y1446D01*
X11492Y1277D01*
X12491Y1192D01*
X13493D01*
X14492Y1277D01*
X15481Y1446D01*
X16451Y1699D01*
X17396Y2033D01*
X18309Y2446D01*
X19185Y2935D01*
X20015Y3496D01*
X20795Y4126D01*
X21519Y4820D01*
X22182Y5572D01*
X22778Y6378D01*
X23303Y7232D01*
X23755Y8127D01*
X24128Y9057D01*
X24422Y10016D01*
X24633Y10996D01*
X24761Y11991D01*
X24803Y12992D01*
X36029Y111412D02*
Y108079D01*
X36696Y107413D01*
X38028D01*
X38695Y108079D01*
Y111412D01*
X42694Y110745D02*
X42027Y111412D01*
X40694D01*
X40028Y110745D01*
Y110079D01*
X40694Y109412D01*
X42027D01*
X42694Y108746D01*
Y108079D01*
X42027Y107413D01*
X40694D01*
X40028Y108079D01*
X44027Y111412D02*
Y107413D01*
X46026D01*
X46692Y108079D01*
Y108746D01*
X46026Y109412D01*
X44027D01*
X46026D01*
X46692Y110079D01*
Y110745D01*
X46026Y111412D01*
X44027D01*
X48025Y109412D02*
X50691D01*
X54690Y110745D02*
X54023Y111412D01*
X52690D01*
X52024Y110745D01*
Y108079D01*
X52690Y107413D01*
X54023D01*
X54690Y108079D01*
X66800Y95300D02*
Y99299D01*
X68799D01*
X69466Y98632D01*
Y97299D01*
X68799Y96633D01*
X66800D01*
X68133D02*
X69466Y95300D01*
X72798D02*
X71465D01*
X70799Y95966D01*
Y97299D01*
X71465Y97966D01*
X72798D01*
X73465Y97299D01*
Y96633D01*
X70799D01*
X74797Y95300D02*
X76797D01*
X77463Y95966D01*
X76797Y96633D01*
X75464D01*
X74797Y97299D01*
X75464Y97966D01*
X77463D01*
X80796Y95300D02*
X79463D01*
X78796Y95966D01*
Y97299D01*
X79463Y97966D01*
X80796D01*
X81462Y97299D01*
Y96633D01*
X78796D01*
X83461Y98632D02*
Y97966D01*
X82795D01*
X84128D01*
X83461D01*
Y95966D01*
X84128Y95300D01*
X135186Y11851D02*
X134465Y12572D01*
X133022D01*
X132300Y11851D01*
Y11129D01*
X133022Y10408D01*
X134465D01*
X135186Y9686D01*
Y8965D01*
X134465Y8243D01*
X133022D01*
X132300Y8965D01*
X136629Y12572D02*
Y8965D01*
X137351Y8243D01*
X138794D01*
X139515Y8965D01*
Y12572D01*
X140959D02*
Y8243D01*
Y10408D01*
X143845D01*
Y12572D01*
Y8243D01*
X145288D02*
Y12572D01*
X147453D01*
X148174Y11851D01*
Y10408D01*
X147453Y9686D01*
X145288D01*
X149617Y8243D02*
Y11129D01*
X151060Y12572D01*
X152503Y11129D01*
Y8243D01*
Y10408D01*
X149617D01*
X158276Y8243D02*
Y12572D01*
X160441D01*
X161162Y11851D01*
Y10408D01*
X160441Y9686D01*
X158276D01*
X163327Y8243D02*
X164770D01*
X165491Y8965D01*
Y10408D01*
X164770Y11129D01*
X163327D01*
X162605Y10408D01*
Y8965D01*
X163327Y8243D01*
X169821Y12572D02*
Y8243D01*
X167656D01*
X166935Y8965D01*
Y10408D01*
X167656Y11129D01*
X169821D01*
X175593D02*
X177036Y8243D01*
X178479Y11129D01*
X179922Y8243D02*
X181366D01*
X180644D01*
Y12572D01*
X179922Y11851D01*
X183530Y8243D02*
Y8965D01*
X184252D01*
Y8243D01*
X183530D01*
X187138Y11851D02*
X187859Y12572D01*
X189303D01*
X190024Y11851D01*
Y8965D01*
X189303Y8243D01*
X187859D01*
X187138Y8965D01*
Y11851D01*
X195797Y12572D02*
Y8243D01*
X197961D01*
X198683Y8965D01*
Y9686D01*
Y10408D01*
X197961Y11129D01*
X195797D01*
X200126D02*
Y8965D01*
X200847Y8243D01*
X203012D01*
Y7522D01*
X202291Y6800D01*
X201569D01*
X203012Y8243D02*
Y11129D01*
X208785Y8243D02*
Y12572D01*
X210949D01*
X211671Y11851D01*
Y10408D01*
X210949Y9686D01*
X208785D01*
X210228D02*
X211671Y8243D01*
X213835D02*
X215279D01*
X216000Y8965D01*
Y10408D01*
X215279Y11129D01*
X213835D01*
X213114Y10408D01*
Y8965D01*
X213835Y8243D01*
X217443Y12572D02*
Y8243D01*
X219608D01*
X220329Y8965D01*
Y9686D01*
Y10408D01*
X219608Y11129D01*
X217443D01*
X223937Y8243D02*
X222494D01*
X221772Y8965D01*
Y10408D01*
X222494Y11129D01*
X223937D01*
X224659Y10408D01*
Y9686D01*
X221772D01*
X226102Y11129D02*
Y8243D01*
Y9686D01*
X226823Y10408D01*
X227545Y11129D01*
X228266D01*
X231153Y11851D02*
Y11129D01*
X230431D01*
X231874D01*
X231153D01*
Y8965D01*
X231874Y8243D01*
X234760D02*
X236204D01*
X236925Y8965D01*
Y10408D01*
X236204Y11129D01*
X234760D01*
X234039Y10408D01*
Y8965D01*
X234760Y8243D01*
X242697Y12572D02*
Y8243D01*
Y10408D01*
X245584D01*
Y12572D01*
Y8243D01*
X247748D02*
X249191D01*
X249913Y8965D01*
Y10408D01*
X249191Y11129D01*
X247748D01*
X247027Y10408D01*
Y8965D01*
X247748Y8243D01*
X251356D02*
X252799D01*
X252078D01*
Y12572D01*
X251356D01*
X254964Y8243D02*
Y11129D01*
X255685D01*
X256407Y10408D01*
Y8243D01*
Y10408D01*
X257129Y11129D01*
X257850Y10408D01*
Y8243D01*
X261458D02*
X260015D01*
X259293Y8965D01*
Y10408D01*
X260015Y11129D01*
X261458D01*
X262179Y10408D01*
Y9686D01*
X259293D01*
X263622Y8243D02*
X265787D01*
X266509Y8965D01*
X265787Y9686D01*
X264344D01*
X263622Y10408D01*
X264344Y11129D01*
X266509D01*
X184300Y61299D02*
Y57300D01*
X186299D01*
X186966Y57966D01*
Y58633D01*
X186299Y59299D01*
X184300D01*
X186299D01*
X186966Y59966D01*
Y60632D01*
X186299Y61299D01*
X184300D01*
X188299Y59966D02*
Y57966D01*
X188965Y57300D01*
X190964D01*
Y59966D01*
X192297D02*
X194963D01*
X192297Y57300D01*
X194963D01*
X196296Y59966D02*
X198962D01*
X196296Y57300D01*
X198962D01*
X202294D02*
X200961D01*
X200295Y57966D01*
Y59299D01*
X200961Y59966D01*
X202294D01*
X202961Y59299D01*
Y58633D01*
X200295D01*
X204294Y59966D02*
Y57300D01*
Y58633D01*
X204960Y59299D01*
X205627Y59966D01*
X206293D01*
X192062Y29443D02*
Y25444D01*
X194061D01*
X194727Y26110D01*
Y28776D01*
X194061Y29443D01*
X192062D01*
X196060Y28776D02*
X196727Y29443D01*
X198060D01*
X198726Y28776D01*
Y28110D01*
X198060Y27443D01*
X197393D01*
X198060D01*
X198726Y26777D01*
Y26110D01*
X198060Y25444D01*
X196727D01*
X196060Y26110D01*
X178368Y94466D02*
X177701Y93799D01*
Y92466D01*
X178368Y91800D01*
X179034D01*
X179701Y92466D01*
Y93799D01*
X180367Y94466D01*
X181034D01*
X181700Y93799D01*
Y92466D01*
X181034Y91800D01*
X177701Y95799D02*
Y97132D01*
Y96465D01*
X181700D01*
Y95799D01*
Y97132D01*
X178368Y101797D02*
X177701Y101130D01*
Y99797D01*
X178368Y99131D01*
X181034D01*
X181700Y99797D01*
Y101130D01*
X181034Y101797D01*
X179701D01*
Y100464D01*
X158868Y94466D02*
X158201Y93799D01*
Y92466D01*
X158868Y91800D01*
X161533D01*
X162200Y92466D01*
Y93799D01*
X161533Y94466D01*
X160201D01*
Y93133D01*
X162200Y95799D02*
X158201D01*
X162200Y98465D01*
X158201D01*
Y99797D02*
X162200D01*
Y101797D01*
X161533Y102463D01*
X158868D01*
X158201Y101797D01*
Y99797D01*
X126868Y73466D02*
X126201Y72799D01*
Y71466D01*
X126868Y70800D01*
X129534D01*
X130200Y71466D01*
Y72799D01*
X129534Y73466D01*
X128201D01*
Y72133D01*
X130200Y74799D02*
X126201D01*
X130200Y77464D01*
X126201D01*
Y78797D02*
X130200D01*
Y80797D01*
X129534Y81463D01*
X126868D01*
X126201Y80797D01*
Y78797D01*
X277466Y95799D02*
X276133D01*
X276799D01*
Y92466D01*
X276133Y91800D01*
X275466D01*
X274800Y92466D01*
X278799Y95799D02*
Y91800D01*
X281465D01*
X285463Y95132D02*
X284797Y95799D01*
X283464D01*
X282797Y95132D01*
Y92466D01*
X283464Y91800D01*
X284797D01*
X285463Y92466D01*
X289462Y95799D02*
X288129D01*
X288795D01*
Y92466D01*
X288129Y91800D01*
X287463D01*
X286796Y92466D01*
X290795Y95799D02*
Y91800D01*
X293461D01*
X297459Y95132D02*
X296793Y95799D01*
X295460D01*
X294794Y95132D01*
Y92466D01*
X295460Y91800D01*
X296793D01*
X297459Y92466D01*
X301458Y95799D02*
X300125D01*
X300792D01*
Y92466D01*
X300125Y91800D01*
X299459D01*
X298792Y92466D01*
X302791Y95799D02*
Y91800D01*
X305457D01*
X309455Y95132D02*
X308789Y95799D01*
X307456D01*
X306790Y95132D01*
Y92466D01*
X307456Y91800D01*
X308789D01*
X309455Y92466D01*
X313454Y95799D02*
X312121D01*
X312788D01*
Y92466D01*
X312121Y91800D01*
X311455D01*
X310788Y92466D01*
X314787Y95799D02*
Y91800D01*
X317453D01*
X321452Y95132D02*
X320785Y95799D01*
X319452D01*
X318786Y95132D01*
Y92466D01*
X319452Y91800D01*
X320785D01*
X321452Y92466D01*
X193800Y92799D02*
Y88800D01*
X195799D01*
X196466Y89466D01*
Y92132D01*
X195799Y92799D01*
X193800D01*
X199798Y88800D02*
Y92799D01*
X197799Y90799D01*
X200465D01*
X237300Y89300D02*
Y93299D01*
X239299D01*
X239966Y92632D01*
Y91299D01*
X239299Y90633D01*
X237300D01*
X241299Y93299D02*
Y89300D01*
X242632Y90633D01*
X243965Y89300D01*
Y93299D01*
X245297Y89300D02*
Y93299D01*
X247297D01*
X247963Y92632D01*
Y91299D01*
X247297Y90633D01*
X245297D01*
X246630D02*
X247963Y89300D01*
X217466Y92632D02*
X216799Y93299D01*
X215466D01*
X214800Y92632D01*
Y91966D01*
X215466Y91299D01*
X216799D01*
X217466Y90633D01*
Y89966D01*
X216799Y89300D01*
X215466D01*
X214800Y89966D01*
X221464Y92632D02*
X220798Y93299D01*
X219465D01*
X218799Y92632D01*
Y89966D01*
X219465Y89300D01*
X220798D01*
X221464Y89966D01*
X222797Y93299D02*
Y89300D01*
Y90633D01*
X225463Y93299D01*
X223464Y91299D01*
X225463Y89300D01*
D16*
X109504Y112925D02*
Y116075D01*
X110996Y112925D02*
Y116075D01*
D17*
X143114Y81988D02*
X165752D01*
Y33169D02*
Y81988D01*
X143114Y33169D02*
X165752D01*
X143114D02*
Y81988D01*
M02*
