G04*
G04 #@! TF.GenerationSoftware,Altium Limited,Altium Designer,20.1.10 (176)*
G04*
G04 Layer_Physical_Order=2*
G04 Layer_Color=16711680*
%FSLAX25Y25*%
%MOIN*%
G70*
G04*
G04 #@! TF.SameCoordinates,4904768C-9D57-489E-94B9-A5ABCCC02516*
G04*
G04*
G04 #@! TF.FilePolarity,Positive*
G04*
G01*
G75*
%ADD13C,0.01000*%
%ADD64C,0.06299*%
%ADD65R,0.06299X0.06299*%
G04:AMPARAMS|DCode=69|XSize=43.31mil|YSize=102.36mil|CornerRadius=21.65mil|HoleSize=0mil|Usage=FLASHONLY|Rotation=180.000|XOffset=0mil|YOffset=0mil|HoleType=Round|Shape=RoundedRectangle|*
%AMROUNDEDRECTD69*
21,1,0.04331,0.05906,0,0,180.0*
21,1,0.00000,0.10236,0,0,180.0*
1,1,0.04331,0.00000,0.02953*
1,1,0.04331,0.00000,0.02953*
1,1,0.04331,0.00000,-0.02953*
1,1,0.04331,0.00000,-0.02953*
%
%ADD69ROUNDEDRECTD69*%
G04:AMPARAMS|DCode=70|XSize=43.31mil|YSize=82.68mil|CornerRadius=21.65mil|HoleSize=0mil|Usage=FLASHONLY|Rotation=180.000|XOffset=0mil|YOffset=0mil|HoleType=Round|Shape=RoundedRectangle|*
%AMROUNDEDRECTD70*
21,1,0.04331,0.03937,0,0,180.0*
21,1,0.00000,0.08268,0,0,180.0*
1,1,0.04331,0.00000,0.01968*
1,1,0.04331,0.00000,0.01968*
1,1,0.04331,0.00000,-0.01968*
1,1,0.04331,0.00000,-0.01968*
%
%ADD70ROUNDEDRECTD70*%
%ADD73C,0.01200*%
%ADD77C,0.05000*%
%ADD78C,0.09843*%
%ADD79C,0.05906*%
%ADD80R,0.05906X0.05906*%
%ADD81R,0.05906X0.05906*%
%ADD82R,0.06260X0.06260*%
%ADD83C,0.06260*%
%ADD84C,0.06000*%
%ADD85C,0.03937*%
%ADD86C,0.02756*%
G36*
X77035Y113452D02*
X77366Y113231D01*
X77756Y113154D01*
X85630D01*
X86020Y113231D01*
X86351Y113452D01*
X89989Y117091D01*
X141226D01*
X141396Y116591D01*
X141211Y116449D01*
X135004Y110241D01*
X134443Y109510D01*
X134442Y109507D01*
X134047Y108993D01*
X133727Y108219D01*
X131953Y106445D01*
X131453Y106652D01*
Y110953D01*
X123547D01*
Y103047D01*
X128757D01*
X128948Y102585D01*
X125564Y99202D01*
X125205Y99154D01*
X124354Y98802D01*
X123623Y98241D01*
X118058Y92676D01*
X117539Y92608D01*
X116688Y92255D01*
X116630Y92211D01*
X116007Y91953D01*
X115181Y91319D01*
X114547Y90493D01*
X114149Y89532D01*
X114013Y88500D01*
X114149Y87468D01*
X114547Y86507D01*
X115181Y85681D01*
X116007Y85047D01*
X116968Y84649D01*
X118000Y84513D01*
X119032Y84649D01*
X119993Y85047D01*
X120643Y85546D01*
X120813Y85616D01*
X121544Y86177D01*
X123585Y88218D01*
X124047Y88027D01*
Y84547D01*
X131953D01*
Y92453D01*
X129381D01*
X129211Y92953D01*
X129596Y93248D01*
X136449Y100101D01*
X137010Y100832D01*
X137363Y101684D01*
X137391Y101899D01*
X138719Y103226D01*
X139493Y103547D01*
X140319Y104181D01*
X140953Y105007D01*
X141351Y105968D01*
X141447Y106700D01*
X143340Y108593D01*
X143764Y108309D01*
X143649Y108032D01*
X143513Y107000D01*
X143649Y105968D01*
X144047Y105007D01*
X144681Y104181D01*
X145507Y103547D01*
X145869Y103397D01*
Y92176D01*
X117524Y63831D01*
X92700D01*
X92076Y63707D01*
X91546Y63354D01*
X86098Y57905D01*
X86000Y57924D01*
X85072Y57740D01*
X84286Y57214D01*
X83760Y56428D01*
X83575Y55500D01*
X83760Y54572D01*
X84286Y53786D01*
X85072Y53260D01*
X86000Y53075D01*
X86928Y53260D01*
X87714Y53786D01*
X88240Y54572D01*
X88424Y55500D01*
X88405Y55598D01*
X90699Y57892D01*
X91160Y57646D01*
X91031Y57000D01*
X91216Y56072D01*
X91467Y55696D01*
X91398Y55529D01*
X90869Y55176D01*
X89098Y53405D01*
X89000Y53425D01*
X88072Y53240D01*
X87286Y52714D01*
X86760Y51928D01*
X86576Y51000D01*
X86760Y50072D01*
X87286Y49286D01*
X87876Y48891D01*
X87997Y48304D01*
X79824Y40131D01*
X79270D01*
X79214Y40214D01*
X78428Y40740D01*
X77500Y40925D01*
X76572Y40740D01*
X75786Y40214D01*
X75260Y39428D01*
X75076Y38500D01*
X75260Y37572D01*
X75786Y36786D01*
X76572Y36260D01*
X77500Y36075D01*
X78428Y36260D01*
X79214Y36786D01*
X79270Y36869D01*
X80500D01*
X81124Y36993D01*
X81653Y37347D01*
X90221Y45913D01*
X152370D01*
Y38685D01*
X160630D01*
Y45913D01*
X168774D01*
X169000Y45869D01*
X191676D01*
X191954Y45453D01*
X191818Y45126D01*
X191682Y44094D01*
X191818Y43063D01*
X192217Y42101D01*
X192850Y41275D01*
X193676Y40642D01*
X194637Y40244D01*
X195669Y40108D01*
X196701Y40244D01*
X197663Y40642D01*
X198488Y41275D01*
X199122Y42101D01*
X199520Y43063D01*
X199656Y44094D01*
X199520Y45126D01*
X199122Y46088D01*
X198488Y46914D01*
X197663Y47547D01*
X196701Y47945D01*
X195669Y48081D01*
X195229Y48023D01*
X194598Y48654D01*
X194069Y49007D01*
X193445Y49131D01*
X169181D01*
X168955Y49176D01*
X159525D01*
X159364Y49650D01*
X159446Y49712D01*
X160108Y50575D01*
X160524Y51579D01*
X160666Y52658D01*
X160524Y53736D01*
X160108Y54740D01*
X159446Y55603D01*
X158583Y56265D01*
X157578Y56681D01*
X156500Y56823D01*
X155422Y56681D01*
X154417Y56265D01*
X153554Y55603D01*
X152892Y54740D01*
X152640Y54131D01*
X103597D01*
X102955Y54773D01*
X102846Y55322D01*
X102320Y56109D01*
X101781Y56469D01*
X101933Y56969D01*
X119691D01*
X120316Y57093D01*
X120845Y57446D01*
X126621Y63223D01*
X127163Y63058D01*
X127260Y62572D01*
X127786Y61786D01*
X128572Y61260D01*
X129500Y61076D01*
X130428Y61260D01*
X131214Y61786D01*
X131740Y62572D01*
X131924Y63500D01*
X131905Y63598D01*
X160176Y91869D01*
X209000D01*
X209624Y91993D01*
X210154Y92347D01*
X212876Y95069D01*
X212938Y95163D01*
X213428Y95260D01*
X214214Y95786D01*
X214740Y96572D01*
X214925Y97500D01*
X214740Y98428D01*
X214214Y99214D01*
X213428Y99740D01*
X212500Y99924D01*
X211572Y99740D01*
X210786Y99214D01*
X210260Y98428D01*
X210075Y97500D01*
X210178Y96985D01*
X208324Y95131D01*
X190635D01*
X190484Y95631D01*
X190714Y95786D01*
X191240Y96572D01*
X191425Y97500D01*
X191240Y98428D01*
X190714Y99214D01*
X189928Y99740D01*
X189000Y99924D01*
X188072Y99740D01*
X187286Y99214D01*
X187230Y99131D01*
X160860D01*
X160636Y99631D01*
X160824Y99869D01*
X174000D01*
X174624Y99993D01*
X175154Y100347D01*
X178252Y103445D01*
X178968Y103149D01*
X180000Y103013D01*
X181032Y103149D01*
X181993Y103547D01*
X182819Y104181D01*
X183453Y105007D01*
X183851Y105968D01*
X183987Y107000D01*
X183851Y108032D01*
X183453Y108993D01*
X182819Y109819D01*
X181993Y110453D01*
X181032Y110851D01*
X180000Y110987D01*
X178968Y110851D01*
X178007Y110453D01*
X177181Y109819D01*
X176547Y108993D01*
X176149Y108032D01*
X176013Y107000D01*
X176149Y105968D01*
X176153Y105960D01*
X173324Y103131D01*
X172231D01*
X172222Y103146D01*
X172103Y103631D01*
X172819Y104181D01*
X173453Y105007D01*
X173851Y105968D01*
X173987Y107000D01*
X173851Y108032D01*
X173453Y108993D01*
X173357Y109118D01*
Y110173D01*
X173237Y111087D01*
X172884Y111938D01*
X172323Y112670D01*
X168544Y116449D01*
X168359Y116591D01*
X168528Y117091D01*
X269783Y117091D01*
X269908Y116591D01*
X269191Y116207D01*
X268289Y115467D01*
X267549Y114565D01*
X266999Y113537D01*
X266660Y112421D01*
X266546Y111260D01*
X266660Y110099D01*
X266999Y108983D01*
X267549Y107954D01*
X268289Y107053D01*
X269191Y106313D01*
X270219Y105763D01*
X271335Y105424D01*
X272496Y105310D01*
X273657Y105424D01*
X274773Y105763D01*
X275802Y106313D01*
X276703Y107053D01*
X277443Y107954D01*
X277993Y108983D01*
X278332Y110099D01*
X278446Y111260D01*
X278332Y112421D01*
X277993Y113537D01*
X277443Y114565D01*
X276703Y115467D01*
X275802Y116207D01*
X275084Y116591D01*
X275209Y117091D01*
X321791D01*
X321916Y116591D01*
X321198Y116207D01*
X320297Y115467D01*
X319557Y114565D01*
X319007Y113537D01*
X318668Y112421D01*
X318554Y111260D01*
X318668Y110099D01*
X319007Y108983D01*
X319557Y107954D01*
X320297Y107053D01*
X321198Y106313D01*
X322227Y105763D01*
X323343Y105424D01*
X324504Y105310D01*
X325665Y105424D01*
X326781Y105763D01*
X327810Y106313D01*
X328711Y107053D01*
X329451Y107954D01*
X330001Y108983D01*
X330340Y110099D01*
X330454Y111260D01*
X330340Y112421D01*
X330001Y113537D01*
X329451Y114565D01*
X328711Y115467D01*
X327810Y116207D01*
X327092Y116591D01*
X327217Y117091D01*
X353311D01*
Y1020D01*
X1020Y1020D01*
Y117091D01*
X26294D01*
X26396Y116592D01*
X25735Y116084D01*
X25227Y115423D01*
X24908Y114653D01*
X24800Y113827D01*
Y107921D01*
X24908Y107095D01*
X25227Y106325D01*
X25735Y105664D01*
X26396Y105156D01*
X27166Y104837D01*
X27992Y104729D01*
X28819Y104837D01*
X29588Y105156D01*
X30250Y105664D01*
X30757Y106325D01*
X31076Y107095D01*
X31185Y107921D01*
Y113827D01*
X31076Y114653D01*
X30757Y115423D01*
X30250Y116084D01*
X29588Y116592D01*
X29690Y117091D01*
X60310D01*
X60412Y116592D01*
X59750Y116084D01*
X59243Y115423D01*
X58924Y114653D01*
X58815Y113827D01*
Y107921D01*
X58924Y107095D01*
X59243Y106325D01*
X59750Y105664D01*
X60412Y105156D01*
X61182Y104837D01*
X62008Y104729D01*
X62834Y104837D01*
X63604Y105156D01*
X64265Y105664D01*
X64773Y106325D01*
X65092Y107095D01*
X65201Y107921D01*
Y113827D01*
X65092Y114653D01*
X64773Y115423D01*
X64265Y116084D01*
X63604Y116592D01*
X63706Y117091D01*
X73397D01*
X77035Y113452D01*
D02*
G37*
G36*
X156047Y103047D02*
X158599D01*
X158660Y102966D01*
X158786Y102547D01*
X149593Y93355D01*
X149131Y93546D01*
Y103397D01*
X149493Y103547D01*
X150319Y104181D01*
X150953Y105007D01*
X151351Y105968D01*
X151487Y107000D01*
X151351Y108032D01*
X150953Y108993D01*
X150319Y109819D01*
X150150Y109949D01*
X150311Y110423D01*
X156047D01*
Y103047D01*
D02*
G37*
G36*
X98412Y53398D02*
X98891Y52680D01*
X99678Y52154D01*
X100606Y51970D01*
X101055Y52059D01*
X101768Y51346D01*
X102297Y50993D01*
X102921Y50869D01*
X152771D01*
X152892Y50575D01*
X153554Y49712D01*
X153636Y49650D01*
X153475Y49176D01*
X91243D01*
X90975Y49676D01*
X91240Y50072D01*
X91425Y51000D01*
X91405Y51098D01*
X92698Y52391D01*
X96022D01*
X96646Y52515D01*
X97176Y52868D01*
X97884Y53577D01*
X98412Y53398D01*
D02*
G37*
%LPC*%
G36*
X341339Y112057D02*
X339985Y111924D01*
X338683Y111529D01*
X337484Y110888D01*
X336432Y110025D01*
X335569Y108973D01*
X334928Y107773D01*
X334533Y106472D01*
X334400Y105118D01*
X334533Y103764D01*
X334928Y102463D01*
X335569Y101263D01*
X336432Y100212D01*
X337484Y99349D01*
X338683Y98707D01*
X339985Y98312D01*
X341339Y98179D01*
X342692Y98312D01*
X343994Y98707D01*
X345194Y99349D01*
X346245Y100212D01*
X347108Y101263D01*
X347749Y102463D01*
X348144Y103764D01*
X348277Y105118D01*
X348144Y106472D01*
X347749Y107773D01*
X347108Y108973D01*
X346245Y110025D01*
X345194Y110888D01*
X343994Y111529D01*
X342692Y111924D01*
X341339Y112057D01*
D02*
G37*
G36*
X12992D02*
X11638Y111924D01*
X10337Y111529D01*
X9137Y110888D01*
X8086Y110025D01*
X7223Y108973D01*
X6581Y107773D01*
X6186Y106472D01*
X6053Y105118D01*
X6186Y103764D01*
X6581Y102463D01*
X7223Y101263D01*
X8086Y100212D01*
X9137Y99349D01*
X10337Y98707D01*
X11638Y98312D01*
X12992Y98179D01*
X14346Y98312D01*
X15647Y98707D01*
X16847Y99349D01*
X17899Y100212D01*
X18762Y101263D01*
X19403Y102463D01*
X19798Y103764D01*
X19931Y105118D01*
X19798Y106472D01*
X19403Y107773D01*
X18762Y108973D01*
X17899Y110025D01*
X16847Y110888D01*
X15647Y111529D01*
X14346Y111924D01*
X12992Y112057D01*
D02*
G37*
G36*
X62008Y94933D02*
X61182Y94824D01*
X60412Y94505D01*
X59750Y93998D01*
X59243Y93336D01*
X58924Y92567D01*
X58815Y91740D01*
Y87803D01*
X58924Y86977D01*
X59243Y86207D01*
X59750Y85546D01*
X60412Y85038D01*
X61182Y84719D01*
X62008Y84610D01*
X62834Y84719D01*
X63604Y85038D01*
X64265Y85546D01*
X64773Y86207D01*
X65092Y86977D01*
X65201Y87803D01*
Y91740D01*
X65092Y92567D01*
X64773Y93336D01*
X64265Y93998D01*
X63604Y94505D01*
X62834Y94824D01*
X62008Y94933D01*
D02*
G37*
G36*
X27992D02*
X27166Y94824D01*
X26396Y94505D01*
X25735Y93998D01*
X25227Y93336D01*
X24908Y92567D01*
X24800Y91740D01*
Y87803D01*
X24908Y86977D01*
X25227Y86207D01*
X25735Y85546D01*
X26396Y85038D01*
X27166Y84719D01*
X27992Y84610D01*
X28819Y84719D01*
X29588Y85038D01*
X30250Y85546D01*
X30757Y86207D01*
X31076Y86977D01*
X31185Y87803D01*
Y91740D01*
X31076Y92567D01*
X30757Y93336D01*
X30250Y93998D01*
X29588Y94505D01*
X28819Y94824D01*
X27992Y94933D01*
D02*
G37*
G36*
X108000Y92487D02*
X106968Y92351D01*
X106007Y91953D01*
X105181Y91319D01*
X104547Y90493D01*
X104149Y89532D01*
X104013Y88500D01*
X104149Y87468D01*
X104547Y86507D01*
X105181Y85681D01*
X106007Y85047D01*
X106968Y84649D01*
X108000Y84513D01*
X109032Y84649D01*
X109993Y85047D01*
X110819Y85681D01*
X111453Y86507D01*
X111851Y87468D01*
X111987Y88500D01*
X111851Y89532D01*
X111453Y90493D01*
X110819Y91319D01*
X109993Y91953D01*
X109032Y92351D01*
X108000Y92487D01*
D02*
G37*
G36*
X99500Y104425D02*
X98572Y104240D01*
X97786Y103714D01*
X97730Y103631D01*
X86500D01*
X85876Y103507D01*
X85347Y103154D01*
X62246Y80053D01*
X61785Y80299D01*
X61924Y81000D01*
X61740Y81928D01*
X61214Y82714D01*
X60428Y83240D01*
X59500Y83425D01*
X58572Y83240D01*
X57786Y82714D01*
X57260Y81928D01*
X57076Y81000D01*
X57119Y80782D01*
X51867Y75529D01*
X46172D01*
X46122Y76029D01*
X46512Y76107D01*
X47299Y76633D01*
X47825Y77419D01*
X48009Y78347D01*
X47926Y78765D01*
X48917Y79756D01*
X49249Y80252D01*
X49365Y80838D01*
Y96012D01*
X49740Y96572D01*
X49924Y97500D01*
X49740Y98428D01*
X49214Y99214D01*
X48428Y99740D01*
X47500Y99924D01*
X46572Y99740D01*
X45786Y99214D01*
X45313Y98507D01*
X44990Y98504D01*
X44792Y98559D01*
X44654Y99254D01*
X44129Y100041D01*
X43342Y100567D01*
X42414Y100751D01*
X41486Y100567D01*
X40700Y100041D01*
X40174Y99254D01*
X39990Y98327D01*
X40174Y97399D01*
X40471Y96955D01*
Y86294D01*
X40587Y85709D01*
X40919Y85212D01*
X42577Y83554D01*
X42533Y83336D01*
X42718Y82408D01*
X43244Y81622D01*
X44030Y81096D01*
X44439Y81015D01*
X44512Y80490D01*
X43870Y80061D01*
X43345Y79275D01*
X43160Y78347D01*
X43345Y77419D01*
X43870Y76633D01*
X44657Y76107D01*
X45047Y76029D01*
X44998Y75529D01*
X41133D01*
X38029Y78633D01*
Y79162D01*
X38214Y79286D01*
X38740Y80072D01*
X38925Y81000D01*
X38740Y81928D01*
X38214Y82714D01*
X37428Y83240D01*
X36500Y83425D01*
X35572Y83240D01*
X34786Y82714D01*
X34662Y82529D01*
X29500D01*
X28915Y82413D01*
X28419Y82081D01*
X21218Y74881D01*
X21000Y74924D01*
X20072Y74740D01*
X19286Y74214D01*
X18760Y73428D01*
X18575Y72500D01*
X18760Y71572D01*
X19286Y70786D01*
X20072Y70260D01*
X21000Y70076D01*
X21928Y70260D01*
X22714Y70786D01*
X23240Y71572D01*
X23425Y72500D01*
X23381Y72718D01*
X30134Y79471D01*
X34662D01*
X34786Y79286D01*
X34971Y79162D01*
Y78000D01*
X35087Y77415D01*
X35419Y76919D01*
X39419Y72919D01*
X39915Y72587D01*
X40500Y72471D01*
X52500D01*
X53085Y72587D01*
X53581Y72919D01*
X59282Y78619D01*
X59500Y78575D01*
X60201Y78715D01*
X60447Y78254D01*
X48824Y66631D01*
X44770D01*
X44714Y66714D01*
X43928Y67240D01*
X43000Y67424D01*
X42072Y67240D01*
X41286Y66714D01*
X40760Y65928D01*
X40576Y65000D01*
X40760Y64072D01*
X41286Y63286D01*
X42072Y62760D01*
X42719Y62631D01*
X42670Y62131D01*
X41770D01*
X41714Y62214D01*
X40928Y62740D01*
X40000Y62924D01*
X39072Y62740D01*
X38286Y62214D01*
X37760Y61428D01*
X37576Y60500D01*
X37760Y59572D01*
X38286Y58786D01*
X39072Y58260D01*
X40000Y58075D01*
X40928Y58260D01*
X41714Y58786D01*
X41770Y58869D01*
X48500D01*
X49124Y58993D01*
X49654Y59346D01*
X64388Y74081D01*
X64888Y73874D01*
Y59250D01*
X64805Y59195D01*
X64280Y58408D01*
X64095Y57480D01*
X64280Y56552D01*
X64805Y55766D01*
X65215Y55492D01*
X65264Y54994D01*
X39951Y29681D01*
X39597Y29151D01*
X39536Y28843D01*
X32098Y21405D01*
X32000Y21425D01*
X31072Y21240D01*
X30286Y20714D01*
X29760Y19928D01*
X29575Y19000D01*
X29760Y18072D01*
X30286Y17286D01*
X31072Y16760D01*
X32000Y16576D01*
X32928Y16760D01*
X33714Y17286D01*
X34240Y18072D01*
X34424Y19000D01*
X34405Y19098D01*
X42258Y26951D01*
X42611Y27480D01*
X42673Y27789D01*
X48423Y33538D01*
X48950Y33359D01*
X49430Y32641D01*
X50216Y32116D01*
X51144Y31931D01*
X52072Y32116D01*
X52859Y32641D01*
X52914Y32724D01*
X54856D01*
X55480Y32849D01*
X56009Y33202D01*
X70902Y48095D01*
X71000Y48076D01*
X71928Y48260D01*
X72714Y48786D01*
X73240Y49572D01*
X73425Y50500D01*
X73240Y51428D01*
X72714Y52214D01*
X71928Y52740D01*
X71712Y52783D01*
X71521Y53245D01*
X71740Y53572D01*
X71925Y54500D01*
X71740Y55428D01*
X71214Y56214D01*
X70428Y56740D01*
X69500Y56924D01*
X69248Y56874D01*
X68894Y57228D01*
X68944Y57480D01*
X68760Y58408D01*
X68234Y59195D01*
X68151Y59250D01*
Y73633D01*
X88008Y93489D01*
X88106Y93470D01*
X89034Y93654D01*
X89820Y94180D01*
X90346Y94966D01*
X90530Y95894D01*
X90346Y96822D01*
X90275Y96928D01*
X90511Y97369D01*
X100230D01*
X100286Y97286D01*
X101072Y96760D01*
X102000Y96575D01*
X102928Y96760D01*
X103714Y97286D01*
X104240Y98072D01*
X104425Y99000D01*
X104240Y99928D01*
X103714Y100714D01*
X102928Y101240D01*
X102308Y101363D01*
X101900Y101876D01*
X101925Y102000D01*
X101740Y102928D01*
X101214Y103714D01*
X100428Y104240D01*
X99500Y104425D01*
D02*
G37*
G36*
X109500Y79425D02*
X108572Y79240D01*
X107786Y78714D01*
X107730Y78631D01*
X78770D01*
X78714Y78714D01*
X77928Y79240D01*
X77000Y79425D01*
X76072Y79240D01*
X75286Y78714D01*
X74760Y77928D01*
X74576Y77000D01*
X74760Y76072D01*
X75286Y75286D01*
X76072Y74760D01*
X77000Y74576D01*
X77928Y74760D01*
X78714Y75286D01*
X78770Y75369D01*
X107614D01*
X107822Y75131D01*
X107602Y74631D01*
X94500D01*
X93876Y74507D01*
X93347Y74154D01*
X85598Y66405D01*
X85500Y66425D01*
X84572Y66240D01*
X83786Y65714D01*
X83260Y64928D01*
X83075Y64000D01*
X83260Y63072D01*
X83786Y62286D01*
X84572Y61760D01*
X85500Y61576D01*
X86428Y61760D01*
X87214Y62286D01*
X87740Y63072D01*
X87924Y64000D01*
X87905Y64098D01*
X95176Y71369D01*
X117730D01*
X117786Y71286D01*
X118572Y70760D01*
X119500Y70575D01*
X120428Y70760D01*
X121214Y71286D01*
X121740Y72072D01*
X121924Y73000D01*
X121740Y73928D01*
X121214Y74714D01*
X120428Y75240D01*
X119500Y75424D01*
X118572Y75240D01*
X117786Y74714D01*
X117730Y74631D01*
X111135D01*
X110984Y75131D01*
X111214Y75286D01*
X111740Y76072D01*
X111925Y77000D01*
X111740Y77928D01*
X111214Y78714D01*
X110428Y79240D01*
X109500Y79425D01*
D02*
G37*
G36*
X199622Y77969D02*
X191717D01*
Y70063D01*
X199622D01*
Y77969D01*
D02*
G37*
G36*
X156500Y76508D02*
X155422Y76366D01*
X154417Y75950D01*
X153554Y75288D01*
X152892Y74425D01*
X152476Y73421D01*
X152334Y72342D01*
X152476Y71264D01*
X152892Y70260D01*
X153554Y69397D01*
X154417Y68735D01*
X155422Y68319D01*
X156500Y68177D01*
X157578Y68319D01*
X158583Y68735D01*
X159446Y69397D01*
X160108Y70260D01*
X160524Y71264D01*
X160666Y72342D01*
X160524Y73421D01*
X160108Y74425D01*
X159446Y75288D01*
X158583Y75950D01*
X157578Y76366D01*
X156500Y76508D01*
D02*
G37*
G36*
X317004Y79690D02*
X315843Y79576D01*
X314727Y79237D01*
X313698Y78687D01*
X312797Y77947D01*
X312057Y77046D01*
X311507Y76017D01*
X311168Y74901D01*
X311054Y73740D01*
X311168Y72579D01*
X311507Y71463D01*
X312057Y70435D01*
X312797Y69533D01*
X313698Y68793D01*
X314727Y68243D01*
X315843Y67905D01*
X317004Y67790D01*
X318165Y67905D01*
X319281Y68243D01*
X320309Y68793D01*
X321211Y69533D01*
X321951Y70435D01*
X322501Y71463D01*
X322839Y72579D01*
X322954Y73740D01*
X322839Y74901D01*
X322501Y76017D01*
X321951Y77046D01*
X321211Y77947D01*
X320309Y78687D01*
X319281Y79237D01*
X318165Y79576D01*
X317004Y79690D01*
D02*
G37*
G36*
X298500D02*
X297339Y79576D01*
X296223Y79237D01*
X295194Y78687D01*
X294293Y77947D01*
X293553Y77046D01*
X293003Y76017D01*
X292664Y74901D01*
X292550Y73740D01*
X292664Y72579D01*
X293003Y71463D01*
X293553Y70435D01*
X294293Y69533D01*
X295194Y68793D01*
X296223Y68243D01*
X297339Y67905D01*
X298500Y67790D01*
X299661Y67905D01*
X300777Y68243D01*
X301806Y68793D01*
X302707Y69533D01*
X303447Y70435D01*
X303997Y71463D01*
X304336Y72579D01*
X304450Y73740D01*
X304336Y74901D01*
X303997Y76017D01*
X303447Y77046D01*
X302707Y77947D01*
X301806Y78687D01*
X300777Y79237D01*
X299661Y79576D01*
X298500Y79690D01*
D02*
G37*
G36*
X279996D02*
X278835Y79576D01*
X277719Y79237D01*
X276691Y78687D01*
X275789Y77947D01*
X275049Y77046D01*
X274499Y76017D01*
X274161Y74901D01*
X274046Y73740D01*
X274161Y72579D01*
X274499Y71463D01*
X275049Y70435D01*
X275789Y69533D01*
X276691Y68793D01*
X277719Y68243D01*
X278835Y67905D01*
X279996Y67790D01*
X281157Y67905D01*
X282273Y68243D01*
X283302Y68793D01*
X284203Y69533D01*
X284943Y70435D01*
X285493Y71463D01*
X285832Y72579D01*
X285946Y73740D01*
X285832Y74901D01*
X285493Y76017D01*
X284943Y77046D01*
X284203Y77947D01*
X283302Y78687D01*
X282273Y79237D01*
X281157Y79576D01*
X279996Y79690D01*
D02*
G37*
G36*
X156500Y66666D02*
X155422Y66524D01*
X154417Y66107D01*
X153554Y65446D01*
X152892Y64583D01*
X152476Y63578D01*
X152334Y62500D01*
X152476Y61422D01*
X152892Y60417D01*
X153554Y59554D01*
X154417Y58893D01*
X155422Y58476D01*
X156500Y58334D01*
X157578Y58476D01*
X158583Y58893D01*
X159446Y59554D01*
X160108Y60417D01*
X160524Y61422D01*
X160666Y62500D01*
X160524Y63578D01*
X160108Y64583D01*
X159446Y65446D01*
X158583Y66107D01*
X157578Y66524D01*
X156500Y66666D01*
D02*
G37*
G36*
X313500Y59028D02*
X312417Y58885D01*
X311407Y58467D01*
X310541Y57802D01*
X309875Y56935D01*
X309457Y55926D01*
X309315Y54843D01*
X309457Y53759D01*
X309875Y52750D01*
X310541Y51883D01*
X311407Y51218D01*
X312417Y50800D01*
X313500Y50657D01*
X314583Y50800D01*
X315593Y51218D01*
X316459Y51883D01*
X317125Y52750D01*
X317543Y53759D01*
X317685Y54843D01*
X317543Y55926D01*
X317125Y56935D01*
X316459Y57802D01*
X315593Y58467D01*
X314583Y58885D01*
X313500Y59028D01*
D02*
G37*
G36*
X340500Y61939D02*
X339146Y61806D01*
X337845Y61411D01*
X336645Y60769D01*
X335593Y59907D01*
X334731Y58855D01*
X334089Y57655D01*
X333694Y56354D01*
X333561Y55000D01*
X333694Y53646D01*
X334089Y52345D01*
X334731Y51145D01*
X335593Y50093D01*
X336645Y49231D01*
X337845Y48589D01*
X339146Y48194D01*
X340500Y48061D01*
X341854Y48194D01*
X343155Y48589D01*
X344355Y49231D01*
X345407Y50093D01*
X346269Y51145D01*
X346911Y52345D01*
X347306Y53646D01*
X347439Y55000D01*
X347306Y56354D01*
X346911Y57655D01*
X346269Y58855D01*
X345407Y59907D01*
X344355Y60769D01*
X343155Y61411D01*
X341854Y61806D01*
X340500Y61939D01*
D02*
G37*
G36*
X291354Y51197D02*
X283449D01*
Y43291D01*
X291354D01*
Y51197D01*
D02*
G37*
G36*
X277402Y51231D02*
X276370Y51095D01*
X275408Y50697D01*
X274582Y50063D01*
X273949Y49237D01*
X273551Y48276D01*
X273415Y47244D01*
X273551Y46212D01*
X273949Y45251D01*
X274582Y44425D01*
X275408Y43791D01*
X276370Y43393D01*
X277402Y43257D01*
X278433Y43393D01*
X279395Y43791D01*
X280221Y44425D01*
X280854Y45251D01*
X281253Y46212D01*
X281388Y47244D01*
X281253Y48276D01*
X280854Y49237D01*
X280221Y50063D01*
X279395Y50697D01*
X278433Y51095D01*
X277402Y51231D01*
D02*
G37*
G36*
X287402Y41231D02*
X286370Y41095D01*
X285408Y40697D01*
X284582Y40063D01*
X283949Y39237D01*
X283551Y38276D01*
X283415Y37244D01*
X283551Y36212D01*
X283949Y35251D01*
X284286Y34811D01*
X284266Y34698D01*
X284031Y34323D01*
X280772D01*
X280526Y34823D01*
X280854Y35251D01*
X281253Y36212D01*
X281388Y37244D01*
X281253Y38276D01*
X280854Y39237D01*
X280221Y40063D01*
X279395Y40697D01*
X278433Y41095D01*
X277402Y41231D01*
X276370Y41095D01*
X275408Y40697D01*
X274582Y40063D01*
X273949Y39237D01*
X273551Y38276D01*
X273415Y37244D01*
X273551Y36212D01*
X273949Y35251D01*
X274277Y34823D01*
X274031Y34323D01*
X269476D01*
X269214Y34714D01*
X268428Y35240D01*
X267500Y35425D01*
X266572Y35240D01*
X265786Y34714D01*
X265260Y33928D01*
X265075Y33000D01*
X265141Y32669D01*
X265123Y32632D01*
X264708Y32284D01*
X264000Y32425D01*
X263072Y32240D01*
X262286Y31714D01*
X261760Y30928D01*
X261576Y30000D01*
X261760Y29072D01*
X262286Y28286D01*
X262369Y28230D01*
Y25789D01*
X262493Y25164D01*
X262846Y24635D01*
X266635Y20846D01*
X267164Y20493D01*
X267789Y20369D01*
X274188D01*
X274433Y19869D01*
X273949Y19238D01*
X273551Y18276D01*
X273415Y17244D01*
X273551Y16212D01*
X273949Y15251D01*
X274582Y14425D01*
X275408Y13791D01*
X276370Y13393D01*
X277402Y13257D01*
X278433Y13393D01*
X279395Y13791D01*
X280221Y14425D01*
X280854Y15251D01*
X281253Y16212D01*
X281388Y17244D01*
X281253Y18276D01*
X280854Y19238D01*
X280370Y19869D01*
X280616Y20369D01*
X284214D01*
X284555Y20028D01*
X283949Y19238D01*
X283551Y18276D01*
X283415Y17244D01*
X283551Y16212D01*
X283949Y15251D01*
X284582Y14425D01*
X285408Y13791D01*
X286370Y13393D01*
X287402Y13257D01*
X288433Y13393D01*
X289395Y13791D01*
X290221Y14425D01*
X290854Y15251D01*
X290893Y15343D01*
X290898Y15347D01*
X291251Y15876D01*
X291375Y16500D01*
X291324Y16757D01*
X291388Y17244D01*
X291253Y18276D01*
X290854Y19238D01*
X290221Y20063D01*
X289395Y20697D01*
X288433Y21095D01*
X288052Y21145D01*
X286293Y22904D01*
X286532Y23372D01*
X287402Y23257D01*
X288433Y23393D01*
X289395Y23791D01*
X290221Y24425D01*
X290854Y25251D01*
X291253Y26212D01*
X291388Y27244D01*
X291253Y28276D01*
X290854Y29237D01*
X290221Y30063D01*
X289395Y30697D01*
X288433Y31095D01*
X287402Y31231D01*
X287313Y31219D01*
X287224Y31297D01*
X287100Y31921D01*
X286747Y32450D01*
X286293Y32904D01*
X286532Y33372D01*
X287402Y33257D01*
X288433Y33393D01*
X289395Y33791D01*
X290221Y34425D01*
X290854Y35251D01*
X291253Y36212D01*
X291388Y37244D01*
X291253Y38276D01*
X290854Y39237D01*
X290221Y40063D01*
X289395Y40697D01*
X288433Y41095D01*
X287402Y41231D01*
D02*
G37*
G36*
X317650Y39307D02*
X309350D01*
Y31008D01*
X317650D01*
Y39307D01*
D02*
G37*
G36*
X340551Y41439D02*
X339197Y41306D01*
X337896Y40911D01*
X336696Y40270D01*
X335645Y39407D01*
X334782Y38355D01*
X334140Y37155D01*
X333746Y35854D01*
X333612Y34500D01*
X333746Y33146D01*
X334140Y31845D01*
X334782Y30645D01*
X335645Y29593D01*
X336696Y28730D01*
X337896Y28089D01*
X339197Y27694D01*
X340551Y27561D01*
X341905Y27694D01*
X343207Y28089D01*
X344406Y28730D01*
X345458Y29593D01*
X346321Y30645D01*
X346962Y31845D01*
X347357Y33146D01*
X347490Y34500D01*
X347357Y35854D01*
X346962Y37155D01*
X346321Y38355D01*
X345458Y39407D01*
X344406Y40270D01*
X343207Y40911D01*
X341905Y41306D01*
X340551Y41439D01*
D02*
G37*
G36*
X77500Y27631D02*
X68000D01*
X67376Y27507D01*
X66847Y27154D01*
X64394Y24701D01*
X64032Y24851D01*
X63000Y24987D01*
X61968Y24851D01*
X61007Y24453D01*
X60181Y23819D01*
X59547Y22993D01*
X59149Y22032D01*
X59013Y21000D01*
X59149Y19968D01*
X59547Y19007D01*
X60181Y18181D01*
X61007Y17547D01*
X61968Y17149D01*
X63000Y17013D01*
X64032Y17149D01*
X64993Y17547D01*
X65819Y18181D01*
X66453Y19007D01*
X66851Y19968D01*
X66987Y21000D01*
X66851Y22032D01*
X66701Y22394D01*
X68676Y24369D01*
X70119D01*
X70280Y23895D01*
X70181Y23819D01*
X69547Y22993D01*
X69149Y22032D01*
X69013Y21000D01*
X69149Y19968D01*
X69547Y19007D01*
X70181Y18181D01*
X71007Y17547D01*
X71968Y17149D01*
X73000Y17013D01*
X74032Y17149D01*
X74993Y17547D01*
X75819Y18181D01*
X76453Y19007D01*
X76603Y19369D01*
X78279D01*
X83188Y14459D01*
X83717Y14106D01*
X84341Y13982D01*
X127363D01*
X127630Y13482D01*
X127260Y12928D01*
X127076Y12000D01*
X127095Y11902D01*
X123272Y8079D01*
X68229D01*
X66701Y9606D01*
X66851Y9968D01*
X66987Y11000D01*
X66851Y12032D01*
X66453Y12993D01*
X65819Y13819D01*
X64993Y14453D01*
X64032Y14851D01*
X63000Y14987D01*
X61968Y14851D01*
X61007Y14453D01*
X60181Y13819D01*
X59547Y12993D01*
X59149Y12032D01*
X59013Y11000D01*
X59149Y9968D01*
X59547Y9007D01*
X60181Y8181D01*
X61007Y7547D01*
X61968Y7149D01*
X63000Y7013D01*
X64032Y7149D01*
X64394Y7299D01*
X66399Y5294D01*
X66928Y4940D01*
X67553Y4816D01*
X123947D01*
X124572Y4940D01*
X125101Y5294D01*
X129402Y9595D01*
X129500Y9576D01*
X130428Y9760D01*
X131214Y10286D01*
X131740Y11072D01*
X131924Y12000D01*
X131740Y12928D01*
X131294Y13596D01*
X131302Y14203D01*
X131426Y14286D01*
X131951Y15072D01*
X132136Y16000D01*
X131951Y16928D01*
X131426Y17714D01*
Y18093D01*
X131714Y18286D01*
X132240Y19072D01*
X132424Y20000D01*
X132240Y20928D01*
X131714Y21714D01*
X130928Y22240D01*
X130000Y22424D01*
X129072Y22240D01*
X128622Y21939D01*
X83868D01*
X78654Y27154D01*
X78124Y27507D01*
X77500Y27631D01*
D02*
G37*
G36*
X53000Y24987D02*
X51968Y24851D01*
X51007Y24453D01*
X50181Y23819D01*
X49547Y22993D01*
X49149Y22032D01*
X49013Y21000D01*
X49149Y19968D01*
X49547Y19007D01*
X50181Y18181D01*
X51007Y17547D01*
X51968Y17149D01*
X53000Y17013D01*
X54032Y17149D01*
X54993Y17547D01*
X55819Y18181D01*
X56453Y19007D01*
X56851Y19968D01*
X56987Y21000D01*
X56851Y22032D01*
X56453Y22993D01*
X55819Y23819D01*
X54993Y24453D01*
X54032Y24851D01*
X53000Y24987D01*
D02*
G37*
G36*
X56953Y14953D02*
X49047D01*
Y7047D01*
X56953D01*
Y14953D01*
D02*
G37*
G36*
X341339Y19931D02*
X339985Y19798D01*
X338683Y19403D01*
X337484Y18762D01*
X336432Y17899D01*
X335569Y16847D01*
X334928Y15647D01*
X334533Y14346D01*
X334400Y12992D01*
X334533Y11638D01*
X334928Y10337D01*
X335569Y9137D01*
X336432Y8086D01*
X337484Y7223D01*
X338683Y6581D01*
X339985Y6186D01*
X341339Y6053D01*
X342692Y6186D01*
X343994Y6581D01*
X345194Y7223D01*
X346245Y8086D01*
X347108Y9137D01*
X347749Y10337D01*
X348144Y11638D01*
X348277Y12992D01*
X348144Y14346D01*
X347749Y15647D01*
X347108Y16847D01*
X346245Y17899D01*
X345194Y18762D01*
X343994Y19403D01*
X342692Y19798D01*
X341339Y19931D01*
D02*
G37*
G36*
X12992D02*
X11638Y19798D01*
X10337Y19403D01*
X9137Y18762D01*
X8086Y17899D01*
X7223Y16847D01*
X6581Y15647D01*
X6186Y14346D01*
X6053Y12992D01*
X6186Y11638D01*
X6581Y10337D01*
X7223Y9137D01*
X8086Y8086D01*
X9137Y7223D01*
X10337Y6581D01*
X11638Y6186D01*
X12992Y6053D01*
X14346Y6186D01*
X15647Y6581D01*
X16847Y7223D01*
X17899Y8086D01*
X18762Y9137D01*
X19403Y10337D01*
X19798Y11638D01*
X19931Y12992D01*
X19798Y14346D01*
X19403Y15647D01*
X18762Y16847D01*
X17899Y17899D01*
X16847Y18762D01*
X15647Y19403D01*
X14346Y19798D01*
X12992Y19931D01*
D02*
G37*
%LPD*%
G36*
X45122Y97267D02*
X45260Y96572D01*
X45786Y95786D01*
X46307Y95438D01*
Y85829D01*
X45807Y85592D01*
X44958Y85760D01*
X44740Y85717D01*
X43529Y86927D01*
Y96212D01*
X44129Y96612D01*
X44602Y97320D01*
X44924Y97323D01*
X45122Y97267D01*
D02*
G37*
G36*
X67786Y52786D02*
X68572Y52260D01*
X68787Y52217D01*
X68979Y51755D01*
X68760Y51428D01*
X68576Y50500D01*
X68595Y50402D01*
X54180Y35987D01*
X52914D01*
X52859Y36070D01*
X52141Y36550D01*
X51962Y37077D01*
X67680Y52796D01*
X67786Y52786D01*
D02*
G37*
G36*
X128286Y18286D02*
Y17907D01*
X127997Y17714D01*
X127683Y17244D01*
X85017D01*
X84047Y18215D01*
X84238Y18677D01*
X128024D01*
X128286Y18286D01*
D02*
G37*
D13*
X52500Y74000D02*
X59500Y81000D01*
X40500Y74000D02*
X52500D01*
X45585Y78347D02*
Y78586D01*
X29500Y81000D02*
X36500D01*
X21000Y72500D02*
X29500Y81000D01*
X36500Y78000D02*
Y81000D01*
Y78000D02*
X40500Y74000D01*
X45585Y78586D02*
X47836Y80838D01*
X42414Y97914D02*
Y98327D01*
X42000Y97500D02*
X42414Y97914D01*
X42000Y86294D02*
X44958Y83336D01*
X42000Y86294D02*
Y97500D01*
X47836Y80838D02*
Y97164D01*
X47500Y97500D02*
X47836Y97164D01*
D64*
X313500Y54843D02*
D03*
D65*
Y35157D02*
D03*
D69*
X27992Y110874D02*
D03*
X62008D02*
D03*
D70*
X27992Y89772D02*
D03*
X62008D02*
D03*
D73*
X129500Y63500D02*
X129500D01*
X159500Y93500D01*
X209000D01*
X54856Y34356D02*
X71000Y50500D01*
X51144Y34356D02*
X54856D01*
X160046Y101500D02*
X174000D01*
X177647Y105147D01*
X118946Y60400D02*
X160046Y101500D01*
X177647Y105147D02*
X177647D01*
X180000Y107500D01*
X87000Y99000D02*
X102000D01*
X43000Y65000D02*
X49500D01*
X48500Y60500D02*
X87000Y99000D01*
X49500Y65000D02*
X86500Y102000D01*
X40000Y60500D02*
X48500D01*
X68000Y26000D02*
X77500D01*
X83192Y20308D02*
X129692D01*
X77500Y26000D02*
X83192Y20308D01*
X77500Y38500D02*
X80500D01*
X89545Y47545D01*
X168955D01*
X212223Y96802D02*
X212302D01*
X211722Y96301D02*
X212223Y96802D01*
X211722Y96222D02*
Y96301D01*
X209000Y93500D02*
X211722Y96222D01*
X119691Y58600D02*
X158591Y97500D01*
X188828D01*
X118200Y62200D02*
X147500Y91500D01*
X100600Y58600D02*
X119691D01*
X147500Y91500D02*
Y107500D01*
X92700Y62200D02*
X118200D01*
X93456Y57000D02*
X96856Y60400D01*
X118946D01*
X66520Y74308D02*
X88106Y95894D01*
X66520Y57480D02*
Y74308D01*
X84341Y15613D02*
X130175D01*
X123947Y6447D02*
X129500Y12000D01*
X67553Y6447D02*
X123947D01*
X284890Y22000D02*
X288524Y18366D01*
X288122Y18122D02*
X289744Y16500D01*
X264000Y25789D02*
Y30000D01*
X277000Y26378D02*
X279622D01*
X267378Y26622D02*
X277402D01*
X267000Y27000D02*
X267378Y26622D01*
X267789Y22000D02*
X284890D01*
X264000Y25789D02*
X267789Y22000D01*
X267809Y32691D02*
X284198D01*
X267500Y33000D02*
X267809Y32691D01*
X284198D02*
X285593Y31297D01*
Y30326D02*
Y31297D01*
Y30326D02*
X287553Y28366D01*
X287151Y28122D02*
X288122D01*
X279622Y26378D02*
X279744Y26500D01*
X193445Y47500D02*
X196850Y44094D01*
X169000Y47500D02*
X193445D01*
X86000Y55500D02*
X92700Y62200D01*
X92022Y54022D02*
X96022D01*
X89000Y51000D02*
X92022Y54022D01*
X96022D02*
X100600Y58600D01*
X168955Y47545D02*
X169000Y47500D01*
X101027Y54394D02*
X102921Y52500D01*
X100606Y54394D02*
X101027D01*
X102921Y52500D02*
X156342D01*
X156500Y52658D01*
X94500Y73000D02*
X119500D01*
X85500Y64000D02*
X85500D01*
X94500Y73000D01*
X77000Y77000D02*
X109500D01*
X78954Y21000D02*
X84341Y15613D01*
X73000Y21000D02*
X78954D01*
X63000D02*
X68000Y26000D01*
X63000Y11000D02*
X67553Y6447D01*
X86500Y102000D02*
X99500D01*
X41104Y28527D02*
X67077Y54500D01*
X69719D01*
X41104Y28104D02*
Y28527D01*
X32000Y19000D02*
X41104Y28104D01*
D77*
X127100Y95744D02*
X133953Y102597D01*
X126119Y95744D02*
X127100D01*
X133953Y102597D02*
Y103453D01*
X119048Y88673D02*
X126119Y95744D01*
X118173Y88673D02*
X119048D01*
X118000Y88500D02*
X118173Y88673D01*
X137327Y106827D02*
Y107327D01*
X133953Y103453D02*
X137327Y106827D01*
X169827Y107673D02*
X170000Y107500D01*
X137500Y107745D02*
X143708Y113953D01*
X169827Y107673D02*
Y110173D01*
X143708Y113953D02*
X166047D01*
X169827Y110173D01*
X137327Y107327D02*
X137500Y107500D01*
Y107745D01*
X117582Y88327D02*
X118453Y89198D01*
D78*
X272496Y111260D02*
D03*
X279996Y73740D02*
D03*
X298500D02*
D03*
X317004D02*
D03*
X324504Y111260D02*
D03*
D79*
X277402Y17244D02*
D03*
X287402D02*
D03*
X277402Y27244D02*
D03*
X287402D02*
D03*
X277402Y37244D02*
D03*
X287402D02*
D03*
X277402Y47244D02*
D03*
X180000Y107000D02*
D03*
X170000D02*
D03*
X147500D02*
D03*
X137500D02*
D03*
X108000Y88500D02*
D03*
X118000D02*
D03*
X195669Y44094D02*
D03*
X73000Y21000D02*
D03*
Y11000D02*
D03*
X63000Y21000D02*
D03*
Y11000D02*
D03*
X53000Y21000D02*
D03*
D80*
X287402Y47244D02*
D03*
D81*
X160000Y107000D02*
D03*
X127500D02*
D03*
X128000Y88500D02*
D03*
X195669Y74016D02*
D03*
X53000Y11000D02*
D03*
D82*
X156500Y42815D02*
D03*
D83*
Y52658D02*
D03*
Y62500D02*
D03*
Y72342D02*
D03*
D84*
X12992Y105118D02*
D03*
X341339Y12992D02*
D03*
Y105118D02*
D03*
X340551Y34500D02*
D03*
X340500Y55000D02*
D03*
D85*
X12992Y12992D02*
D03*
D86*
X246000Y73000D02*
D03*
X228000Y84000D02*
D03*
X129500Y63500D02*
D03*
X103451Y23978D02*
D03*
X71000Y50500D02*
D03*
X47500Y97500D02*
D03*
X59500Y81000D02*
D03*
X36500D02*
D03*
X44958Y83336D02*
D03*
X42414Y98327D02*
D03*
X101000Y82000D02*
D03*
X54500Y61500D02*
D03*
X77500Y38500D02*
D03*
X189000Y97500D02*
D03*
X136500Y85500D02*
D03*
X110500Y102000D02*
D03*
X88106Y95894D02*
D03*
X35000Y13000D02*
D03*
X21000Y72500D02*
D03*
X234500Y98000D02*
D03*
X244500Y54000D02*
D03*
X66520Y57480D02*
D03*
X129500Y12000D02*
D03*
X130000Y20000D02*
D03*
X129711Y16000D02*
D03*
X264000Y30000D02*
D03*
X267000Y27000D02*
D03*
X267500Y33000D02*
D03*
X212500Y97500D02*
D03*
X86000Y55500D02*
D03*
X89000Y51000D02*
D03*
X100606Y54394D02*
D03*
X93456Y57000D02*
D03*
X119500Y73000D02*
D03*
X77000Y77000D02*
D03*
X109500D02*
D03*
X85500Y64000D02*
D03*
X20500Y44000D02*
D03*
X33000Y52500D02*
D03*
X69500Y54500D02*
D03*
X51144Y34356D02*
D03*
X32000Y19000D02*
D03*
X102000Y99000D02*
D03*
X99500Y102000D02*
D03*
X40000Y60500D02*
D03*
X43000Y65000D02*
D03*
X45585Y78347D02*
D03*
M02*
