G04*
G04 #@! TF.GenerationSoftware,Altium Limited,Altium Designer,20.1.10 (176)*
G04*
G04 Layer_Color=8388736*
%FSLAX25Y25*%
%MOIN*%
G70*
G04*
G04 #@! TF.SameCoordinates,4904768C-9D57-489E-94B9-A5ABCCC02516*
G04*
G04*
G04 #@! TF.FilePolarity,Negative*
G04*
G01*
G75*
%ADD21R,0.01575X0.07480*%
%ADD32R,0.03937X0.02756*%
%ADD35R,0.03937X0.02756*%
%ADD36R,0.01181X0.02756*%
%ADD37R,0.03150X0.03150*%
%ADD38R,0.04331X0.07874*%
G04:AMPARAMS|DCode=42|XSize=127.95mil|YSize=61.02mil|CornerRadius=3.97mil|HoleSize=0mil|Usage=FLASHONLY|Rotation=270.000|XOffset=0mil|YOffset=0mil|HoleType=Round|Shape=RoundedRectangle|*
%AMROUNDEDRECTD42*
21,1,0.12795,0.05309,0,0,270.0*
21,1,0.12002,0.06102,0,0,270.0*
1,1,0.00793,-0.02655,-0.06001*
1,1,0.00793,-0.02655,0.06001*
1,1,0.00793,0.02655,0.06001*
1,1,0.00793,0.02655,-0.06001*
%
%ADD42ROUNDEDRECTD42*%
G04:AMPARAMS|DCode=43|XSize=39.37mil|YSize=61.02mil|CornerRadius=3.92mil|HoleSize=0mil|Usage=FLASHONLY|Rotation=270.000|XOffset=0mil|YOffset=0mil|HoleType=Round|Shape=RoundedRectangle|*
%AMROUNDEDRECTD43*
21,1,0.03937,0.05319,0,0,270.0*
21,1,0.03154,0.06102,0,0,270.0*
1,1,0.00784,-0.02659,-0.01577*
1,1,0.00784,-0.02659,0.01577*
1,1,0.00784,0.02659,0.01577*
1,1,0.00784,0.02659,-0.01577*
%
%ADD43ROUNDEDRECTD43*%
%ADD44R,0.04528X0.04134*%
%ADD45O,0.01772X0.07480*%
%ADD46O,0.08071X0.02756*%
%ADD47O,0.02756X0.08071*%
%ADD48R,0.07087X0.14961*%
%ADD49R,0.03740X0.03150*%
%ADD50R,0.03937X0.04528*%
%ADD51R,0.03347X0.03740*%
%ADD52R,0.04724X0.04724*%
%ADD53R,0.03150X0.03740*%
%ADD54R,0.03543X0.03937*%
%ADD55R,0.04331X0.03150*%
%ADD56R,0.02756X0.03543*%
%ADD57R,0.06299X0.10630*%
%ADD58R,0.04724X0.05315*%
%ADD59R,0.03740X0.03347*%
%ADD60R,0.05315X0.04724*%
%ADD61R,0.06693X0.06693*%
%ADD62C,0.06693*%
%ADD63C,0.10236*%
%ADD64C,0.06299*%
%ADD65R,0.06299X0.06299*%
%ADD66R,0.06299X0.06299*%
%ADD67R,0.06653X0.06653*%
%ADD68C,0.06653*%
G04:AMPARAMS|DCode=69|XSize=43.31mil|YSize=102.36mil|CornerRadius=21.65mil|HoleSize=0mil|Usage=FLASHONLY|Rotation=180.000|XOffset=0mil|YOffset=0mil|HoleType=Round|Shape=RoundedRectangle|*
%AMROUNDEDRECTD69*
21,1,0.04331,0.05906,0,0,180.0*
21,1,0.00000,0.10236,0,0,180.0*
1,1,0.04331,0.00000,0.02953*
1,1,0.04331,0.00000,0.02953*
1,1,0.04331,0.00000,-0.02953*
1,1,0.04331,0.00000,-0.02953*
%
%ADD69ROUNDEDRECTD69*%
G04:AMPARAMS|DCode=70|XSize=43.31mil|YSize=82.68mil|CornerRadius=21.65mil|HoleSize=0mil|Usage=FLASHONLY|Rotation=180.000|XOffset=0mil|YOffset=0mil|HoleType=Round|Shape=RoundedRectangle|*
%AMROUNDEDRECTD70*
21,1,0.04331,0.03937,0,0,180.0*
21,1,0.00000,0.08268,0,0,180.0*
1,1,0.04331,0.00000,0.01968*
1,1,0.04331,0.00000,0.01968*
1,1,0.04331,0.00000,-0.01968*
1,1,0.04331,0.00000,-0.01968*
%
%ADD70ROUNDEDRECTD70*%
%ADD71C,0.06394*%
%ADD72C,0.04331*%
D21*
X113224Y32000D02*
D03*
X108500D02*
D03*
X103776D02*
D03*
D32*
X16000Y65654D02*
D03*
Y72347D02*
D03*
D35*
X32795Y93276D02*
D03*
X57205D02*
D03*
D36*
X53858D02*
D03*
X51890D02*
D03*
X49921D02*
D03*
X47953D02*
D03*
X45984D02*
D03*
X44016D02*
D03*
X42047D02*
D03*
X40079D02*
D03*
X38110D02*
D03*
X36142D02*
D03*
X33189Y88157D02*
D03*
X35157D02*
D03*
X37126D02*
D03*
X39094D02*
D03*
X41063D02*
D03*
X43031D02*
D03*
X46968D02*
D03*
X48937D02*
D03*
X50906D02*
D03*
X52874D02*
D03*
X54843D02*
D03*
X56811D02*
D03*
D37*
X16000Y57921D02*
D03*
D38*
Y50441D02*
D03*
D42*
X227894Y45000D02*
D03*
Y73000D02*
D03*
D43*
X252106Y54055D02*
D03*
Y45000D02*
D03*
Y35945D02*
D03*
Y82055D02*
D03*
Y73000D02*
D03*
Y63945D02*
D03*
D44*
X268000Y67146D02*
D03*
Y72854D02*
D03*
X259500Y67146D02*
D03*
Y72854D02*
D03*
Y59500D02*
D03*
Y53791D02*
D03*
Y46000D02*
D03*
Y40291D02*
D03*
D45*
X60634Y72441D02*
D03*
X58075D02*
D03*
X55516D02*
D03*
X52957D02*
D03*
X50398D02*
D03*
X47839D02*
D03*
X45279D02*
D03*
X42720D02*
D03*
X40161D02*
D03*
X37602D02*
D03*
X35043D02*
D03*
X32484D02*
D03*
X29925D02*
D03*
X27366D02*
D03*
X60634Y45669D02*
D03*
X58075D02*
D03*
X55516D02*
D03*
X52957D02*
D03*
X50398D02*
D03*
X47839D02*
D03*
X45279D02*
D03*
X42720D02*
D03*
X40161D02*
D03*
X37602D02*
D03*
X35043D02*
D03*
X32484D02*
D03*
X29925D02*
D03*
X27366D02*
D03*
D46*
X77756Y48031D02*
D03*
Y51181D02*
D03*
Y54331D02*
D03*
Y57480D02*
D03*
Y60630D02*
D03*
Y63779D02*
D03*
Y66929D02*
D03*
Y70079D02*
D03*
X111221D02*
D03*
Y66929D02*
D03*
Y63779D02*
D03*
Y60630D02*
D03*
Y57480D02*
D03*
Y54331D02*
D03*
Y51181D02*
D03*
Y48031D02*
D03*
D47*
X83465Y75787D02*
D03*
X86614D02*
D03*
X89764D02*
D03*
X92913D02*
D03*
X96063D02*
D03*
X99213D02*
D03*
X102362D02*
D03*
X105512D02*
D03*
Y42323D02*
D03*
X102362D02*
D03*
X99213D02*
D03*
X96063D02*
D03*
X92913D02*
D03*
X89764D02*
D03*
X86614D02*
D03*
X83465D02*
D03*
D48*
X93307Y109252D02*
D03*
X70079D02*
D03*
D49*
X39500Y20961D02*
D03*
Y16039D02*
D03*
X37500Y30539D02*
D03*
Y35461D02*
D03*
X24000Y30539D02*
D03*
Y35461D02*
D03*
D50*
X106000Y108000D02*
D03*
X100685D02*
D03*
X114342D02*
D03*
X119658D02*
D03*
X194843Y98000D02*
D03*
X200157D02*
D03*
X239843D02*
D03*
X245158D02*
D03*
X217342D02*
D03*
X222657D02*
D03*
D51*
X139559Y68000D02*
D03*
X134441D02*
D03*
X139559Y57500D02*
D03*
X134441D02*
D03*
X134441Y63000D02*
D03*
X139559D02*
D03*
X95961Y34000D02*
D03*
X91039D02*
D03*
D52*
X16000Y81457D02*
D03*
Y88543D02*
D03*
D53*
X134736Y73000D02*
D03*
X139264D02*
D03*
D54*
X291240Y66437D02*
D03*
X283760D02*
D03*
X287500Y58563D02*
D03*
D55*
X149299Y90760D02*
D03*
Y94500D02*
D03*
Y98240D02*
D03*
X136701D02*
D03*
Y94500D02*
D03*
Y90760D02*
D03*
D56*
X100646Y114500D02*
D03*
X106354D02*
D03*
X114146D02*
D03*
X119854D02*
D03*
D57*
X192500Y109500D02*
D03*
X204705D02*
D03*
X236398D02*
D03*
X248602D02*
D03*
X214398D02*
D03*
X226602D02*
D03*
D58*
X30500Y36346D02*
D03*
Y29653D02*
D03*
X5000Y50154D02*
D03*
Y56846D02*
D03*
X96000Y84654D02*
D03*
Y91347D02*
D03*
D59*
X5000Y66039D02*
D03*
Y70961D02*
D03*
D60*
X96846Y19000D02*
D03*
X90153D02*
D03*
X96846Y27500D02*
D03*
X90153D02*
D03*
D61*
X313500Y35157D02*
D03*
D62*
Y54843D02*
D03*
D63*
X272496Y111260D02*
D03*
X279996Y73740D02*
D03*
X298500D02*
D03*
X317004D02*
D03*
X324504Y111260D02*
D03*
D64*
X277402Y17244D02*
D03*
X287402D02*
D03*
X277402Y27244D02*
D03*
X287402D02*
D03*
X277402Y37244D02*
D03*
X287402D02*
D03*
X277402Y47244D02*
D03*
X180000Y107000D02*
D03*
X170000D02*
D03*
X147500D02*
D03*
X137500D02*
D03*
X108000Y88500D02*
D03*
X118000D02*
D03*
X195669Y44094D02*
D03*
X73000Y21000D02*
D03*
Y11000D02*
D03*
X63000Y21000D02*
D03*
Y11000D02*
D03*
X53000Y21000D02*
D03*
D65*
X287402Y47244D02*
D03*
D66*
X160000Y107000D02*
D03*
X127500D02*
D03*
X128000Y88500D02*
D03*
X195669Y74016D02*
D03*
X53000Y11000D02*
D03*
D67*
X156500Y42815D02*
D03*
D68*
Y52658D02*
D03*
Y62500D02*
D03*
Y72342D02*
D03*
D69*
X27992Y110874D02*
D03*
X62008D02*
D03*
D70*
X27992Y89772D02*
D03*
X62008D02*
D03*
D71*
X12992Y105118D02*
D03*
X341339Y12992D02*
D03*
Y105118D02*
D03*
X340551Y34500D02*
D03*
X340500Y55000D02*
D03*
D72*
X12992Y12992D02*
D03*
M02*
