G04*
G04 #@! TF.GenerationSoftware,Altium Limited,Altium Designer,20.1.10 (176)*
G04*
G04 Layer_Color=16711935*
%FSLAX25Y25*%
%MOIN*%
G70*
G04*
G04 #@! TF.SameCoordinates,4904768C-9D57-489E-94B9-A5ABCCC02516*
G04*
G04*
G04 #@! TF.FilePolarity,Negative*
G04*
G01*
G75*
%ADD61R,0.06693X0.06693*%
%ADD62C,0.06693*%
%ADD63C,0.10236*%
%ADD64C,0.06299*%
%ADD65R,0.06299X0.06299*%
%ADD66R,0.06299X0.06299*%
%ADD67R,0.06653X0.06653*%
%ADD68C,0.06653*%
G04:AMPARAMS|DCode=69|XSize=43.31mil|YSize=102.36mil|CornerRadius=21.65mil|HoleSize=0mil|Usage=FLASHONLY|Rotation=180.000|XOffset=0mil|YOffset=0mil|HoleType=Round|Shape=RoundedRectangle|*
%AMROUNDEDRECTD69*
21,1,0.04331,0.05906,0,0,180.0*
21,1,0.00000,0.10236,0,0,180.0*
1,1,0.04331,0.00000,0.02953*
1,1,0.04331,0.00000,0.02953*
1,1,0.04331,0.00000,-0.02953*
1,1,0.04331,0.00000,-0.02953*
%
%ADD69ROUNDEDRECTD69*%
G04:AMPARAMS|DCode=70|XSize=43.31mil|YSize=82.68mil|CornerRadius=21.65mil|HoleSize=0mil|Usage=FLASHONLY|Rotation=180.000|XOffset=0mil|YOffset=0mil|HoleType=Round|Shape=RoundedRectangle|*
%AMROUNDEDRECTD70*
21,1,0.04331,0.03937,0,0,180.0*
21,1,0.00000,0.08268,0,0,180.0*
1,1,0.04331,0.00000,0.01968*
1,1,0.04331,0.00000,0.01968*
1,1,0.04331,0.00000,-0.01968*
1,1,0.04331,0.00000,-0.01968*
%
%ADD70ROUNDEDRECTD70*%
%ADD71C,0.06394*%
%ADD72C,0.04331*%
D61*
X313500Y35157D02*
D03*
D62*
Y54843D02*
D03*
D63*
X272496Y111260D02*
D03*
X279996Y73740D02*
D03*
X298500D02*
D03*
X317004D02*
D03*
X324504Y111260D02*
D03*
D64*
X277402Y17244D02*
D03*
X287402D02*
D03*
X277402Y27244D02*
D03*
X287402D02*
D03*
X277402Y37244D02*
D03*
X287402D02*
D03*
X277402Y47244D02*
D03*
X180000Y107000D02*
D03*
X170000D02*
D03*
X147500D02*
D03*
X137500D02*
D03*
X108000Y88500D02*
D03*
X118000D02*
D03*
X195669Y44094D02*
D03*
X73000Y21000D02*
D03*
Y11000D02*
D03*
X63000Y21000D02*
D03*
Y11000D02*
D03*
X53000Y21000D02*
D03*
D65*
X287402Y47244D02*
D03*
D66*
X160000Y107000D02*
D03*
X127500D02*
D03*
X128000Y88500D02*
D03*
X195669Y74016D02*
D03*
X53000Y11000D02*
D03*
D67*
X156500Y42815D02*
D03*
D68*
Y52658D02*
D03*
Y62500D02*
D03*
Y72342D02*
D03*
D69*
X27992Y110874D02*
D03*
X62008D02*
D03*
D70*
X27992Y89772D02*
D03*
X62008D02*
D03*
D71*
X12992Y105118D02*
D03*
X341339Y12992D02*
D03*
Y105118D02*
D03*
X340551Y34500D02*
D03*
X340500Y55000D02*
D03*
D72*
X12992Y12992D02*
D03*
M02*
